<?xml version="1.0" encoding="UTF-8"?>
<svg width="70px" height="75px" viewBox="0 0 70 75" version="1.1" xmlns="http://www.w3.org/2000/svg" xmlns:xlink="http://www.w3.org/1999/xlink">
    <!-- Generator: Sketch 52.1 (67048) - http://www.bohemiancoding.com/sketch -->
    <title>Group 488</title>
    <desc>Created with Sketch.</desc>
    <defs>
        <polygon id="path-1" points="0 0.1274 69.164 0.1274 69.164 75 0 75"></polygon>
    </defs>
    <g id="Page-1" stroke="none" stroke-width="1" fill="none" fill-rule="evenodd">
        <g id="HOME-Copy" transform="translate(-670.000000, -583.000000)">
            <g id="Group-488" transform="translate(670.000000, 582.000000)">
                <path d="M34.9432,73.7161 C34.9232,73.4171 34.7412,73.1821 34.4962,73.0501 C34.1972,73.0731 33.9002,73.1021 33.5992,73.1181 C33.3832,73.2821 33.2402,73.5351 33.2592,73.8281 C33.2842,74.2091 33.5622,74.4951 33.9142,74.5771 C34.0892,74.5671 34.2632,74.5501 34.4372,74.5371 C34.7532,74.3991 34.9662,74.0791 34.9432,73.7161" id="Fill-1" fill="#FFFFFF"></path>
                <path d="M3.3837,59.6614 C3.6207,59.4904 3.7277,59.2184 3.7177,58.9444 C3.5397,58.7014 3.3657,58.4554 3.1947,58.2084 C2.9367,58.1084 2.6407,58.1204 2.4037,58.2914 C2.1007,58.5054 1.9957,58.8774 2.0957,59.2134 C2.1907,59.3484 2.2857,59.4824 2.3827,59.6164 C2.5327,59.7364 2.7047,59.8184 2.8967,59.8184 C3.0627,59.8184 3.2347,59.7654 3.3837,59.6614" id="Fill-3" fill="#FFFFFF"></path>
                <path d="M39.3807,73.0276 C39.3187,72.7436 39.1167,72.5336 38.8647,72.4296 C38.5737,72.4906 38.2787,72.5416 37.9857,72.5946 C37.7837,72.7866 37.6697,73.0626 37.7267,73.3566 C37.8007,73.7126 38.0937,73.9656 38.4347,74.0166 C38.5967,73.9866 38.7607,73.9626 38.9227,73.9286 C39.2537,73.7646 39.4557,73.4076 39.3807,73.0276" id="Fill-5" fill="#FFFFFF"></path>
                <path d="M15.2533,69.7942 C15.3943,69.5362 15.3763,69.2472 15.2533,69.0062 C14.9873,68.8622 14.7303,68.7092 14.4683,68.5592 C14.1923,68.5752 13.9283,68.7112 13.7783,68.9712 C13.6003,69.2912 13.6653,69.6762 13.8983,69.9372 C14.0533,70.0242 14.2053,70.1172 14.3613,70.2032 C14.4123,70.2122 14.4623,70.2212 14.5123,70.2212 C14.8113,70.2212 15.0963,70.0712 15.2533,69.7942" id="Fill-7" fill="#FFFFFF"></path>
                <path d="M6.2948,63.0735 C6.5138,62.8735 6.5868,62.5875 6.5418,62.3175 C6.3348,62.0985 6.1258,61.8825 5.9238,61.6585 C5.6588,61.5915 5.3708,61.6395 5.1578,61.8395 C4.8728,62.0985 4.8218,62.5035 4.9908,62.8315 C5.0978,62.9485 5.2098,63.0595 5.3178,63.1755 C5.4458,63.2485 5.5828,63.2995 5.7258,63.2995 C5.9288,63.2995 6.1378,63.2225 6.2948,63.0735" id="Fill-9" fill="#FFFFFF"></path>
                <path d="M37.1737,73.4466 C37.1307,73.1516 36.9387,72.9276 36.6937,72.8096 C36.3987,72.8516 36.1017,72.8876 35.8047,72.9236 C35.5937,73.1006 35.4657,73.3676 35.5047,73.6636 C35.5497,74.0256 35.8297,74.2976 36.1747,74.3666 C36.3537,74.3446 36.5327,74.3226 36.7117,74.2986 C37.0207,74.1406 37.2207,73.8066 37.1737,73.4466" id="Fill-11" fill="#FFFFFF"></path>
                <path d="M18.7704,5.4632 C18.8724,5.7332 19.0994,5.9192 19.3624,5.9852 C19.6474,5.8762 19.9354,5.7712 20.2254,5.6692 C20.3884,5.4482 20.4544,5.1622 20.3494,4.8872 C20.2234,4.5302 19.8814,4.3272 19.5264,4.3442 C19.3704,4.4012 19.2144,4.4572 19.0594,4.5162 C18.7754,4.7332 18.6434,5.1102 18.7704,5.4632" id="Fill-13" fill="#FFFFFF"></path>
                <path d="M49.7684,68.9114 C49.6254,68.6534 49.3624,68.5174 49.0864,68.5024 C48.8254,68.6534 48.5664,68.8094 48.3004,68.9544 C48.1784,69.1964 48.1604,69.4874 48.3014,69.7414 C48.4584,70.0114 48.7444,70.1684 49.0354,70.1684 C49.0874,70.1684 49.1394,70.1584 49.1904,70.1474 C49.3454,70.0624 49.4954,69.9724 49.6474,69.8854 C49.8874,69.6264 49.9544,69.2414 49.7684,68.9114" id="Fill-15" fill="#FFFFFF"></path>
                <path d="M45.7723,70.9544 C45.6643,70.6864 45.4263,70.5194 45.1613,70.4654 C44.8843,70.5824 44.6013,70.6874 44.3203,70.7984 C44.1613,71.0224 44.1053,71.3124 44.2153,71.5904 C44.3503,71.9204 44.6653,72.1144 44.9943,72.1144 C45.0063,72.1144 45.0183,72.1074 45.0303,72.1064 C45.1963,72.0414 45.3653,71.9774 45.5303,71.9094 C45.8003,71.6804 45.9173,71.3044 45.7723,70.9544" id="Fill-17" fill="#FFFFFF"></path>
                <path d="M47.8085,69.9964 C47.6805,69.7304 47.4255,69.5794 47.1545,69.5444 C46.8865,69.6784 46.6165,69.8084 46.3445,69.9344 C46.1995,70.1694 46.1605,70.4624 46.2885,70.7294 C46.4385,71.0284 46.7375,71.2084 47.0445,71.2084 C47.0975,71.2084 47.1455,71.1824 47.1965,71.1714 C47.3325,71.1064 47.4695,71.0414 47.6045,70.9754 C47.8725,70.7334 47.9735,70.3404 47.8085,69.9964" id="Fill-19" fill="#FFFFFF"></path>
                <path d="M41.5516,72.4739 C41.4796,72.1879 41.2606,71.9909 40.9996,71.9039 C40.7096,71.9839 40.4196,72.0649 40.1266,72.1379 C39.9436,72.3429 39.8516,72.6229 39.9276,72.9079 C40.0206,73.2679 40.3446,73.5049 40.7026,73.5229 C40.8686,73.4799 41.0316,73.4299 41.1976,73.3849 C41.4896,73.1899 41.6466,72.8309 41.5516,72.4739" id="Fill-21" fill="#FFFFFF"></path>
                <path d="M23.0516,4.0862 C23.1116,4.3702 23.3126,4.5842 23.5676,4.6802 C23.8636,4.6082 24.1606,4.5372 24.4606,4.4742 C24.6496,4.2752 24.7516,4.0002 24.6906,3.7122 C24.6076,3.3572 24.3036,3.1132 23.9596,3.0712 C23.7756,3.1112 23.5936,3.1552 23.4106,3.1982 C23.1276,3.3862 22.9696,3.7312 23.0516,4.0862" id="Fill-23" fill="#FFFFFF"></path>
                <path d="M2.0887,57.8274 C2.3417,57.6704 2.4667,57.3974 2.4717,57.1214 C2.3087,56.8684 2.1437,56.6184 1.9877,56.3604 L0.8987,57.4074 C0.9627,57.5114 1.0307,57.6104 1.0947,57.7134 C1.2527,57.8554 1.4387,57.9544 1.6477,57.9544 C1.7967,57.9544 1.9547,57.9104 2.0887,57.8274" id="Fill-25" fill="#FFFFFF"></path>
                <path d="M20.8885,4.7073 C20.9665,4.9803 21.1745,5.1793 21.4265,5.2623 C21.7205,5.1713 22.0205,5.0923 22.3175,5.0093 C22.4975,4.7973 22.5835,4.5113 22.4975,4.2283 C22.3985,3.8793 22.0915,3.6543 21.7535,3.6323 C21.5775,3.6823 21.4005,3.7283 21.2265,3.7813 C20.9315,3.9823 20.7805,4.3453 20.8885,4.7073" id="Fill-27" fill="#FFFFFF"></path>
                <path d="M43.6923,71.7855 C43.5963,71.5035 43.3643,71.3175 43.0963,71.2495 C42.8143,71.3485 42.5313,71.4475 42.2453,71.5385 C42.0763,71.7525 42.0033,72.0375 42.0973,72.3165 C42.2143,72.6605 42.5253,72.8795 42.8683,72.8895 C43.0483,72.8305 43.2283,72.7665 43.4073,72.7055 C43.6813,72.4925 43.8093,72.1335 43.6923,71.7855" id="Fill-29" fill="#FFFFFF"></path>
                <path d="M16.7123,6.3538 C16.8333,6.6208 17.0753,6.7888 17.3423,6.8338 C17.6203,6.7078 17.8973,6.5758 18.1793,6.4558 C18.3253,6.2268 18.3723,5.9408 18.2543,5.6728 C18.1023,5.3268 17.7453,5.1458 17.3913,5.1888 C17.2323,5.2578 17.0763,5.3328 16.9193,5.4038 C16.6623,5.6378 16.5643,6.0158 16.7123,6.3538" id="Fill-31" fill="#FFFFFF"></path>
                <path d="M4.7836,61.4124 C5.0136,61.2294 5.1036,60.9534 5.0796,60.6834 C4.8856,60.4514 4.6986,60.2144 4.5116,59.9774 C4.2506,59.8924 3.9576,59.9234 3.7276,60.1094 C3.4376,60.3424 3.3536,60.7204 3.4726,61.0474 C3.5716,61.1714 3.6666,61.3004 3.7666,61.4224 C3.9146,61.5304 4.0816,61.6064 4.2596,61.6064 C4.4396,61.6064 4.6336,61.5394 4.7836,61.4124" id="Fill-33" fill="#FFFFFF"></path>
                <path d="M21.4867,72.3538 C21.5757,72.0778 21.5027,71.7948 21.3367,71.5808 C21.0487,71.4908 20.7667,71.3888 20.4827,71.2918 C20.2127,71.3608 19.9767,71.5458 19.8857,71.8298 C19.7717,72.1778 19.9097,72.5448 20.1937,72.7548 C20.3627,72.8118 20.5307,72.8728 20.7017,72.9268 C21.0477,72.9198 21.3697,72.6998 21.4867,72.3538" id="Fill-35" fill="#FFFFFF"></path>
                <path d="M10.9276,9.7737 C11.0926,10.0127 11.3546,10.1407 11.6156,10.1407 C11.6186,10.1407 11.6206,10.1397 11.6236,10.1397 C11.8756,9.9597 12.1256,9.7767 12.3836,9.6027 C12.4856,9.3487 12.4776,9.0567 12.3116,8.8157 C12.0936,8.5047 11.7096,8.4007 11.3666,8.5077 C11.2206,8.6077 11.0786,8.7137 10.9346,8.8157 C10.7366,9.0947 10.7176,9.4757 10.9276,9.7737" id="Fill-37" fill="#FFFFFF"></path>
                <path d="M23.6503,72.9378 C23.7263,72.6488 23.6333,72.3698 23.4513,72.1658 C23.1593,72.0938 22.8703,72.0178 22.5823,71.9398 C22.3183,72.0248 22.0973,72.2238 22.0263,72.5108 C21.9283,72.8768 22.0973,73.2378 22.4083,73.4268 C22.5723,73.4708 22.7353,73.5148 22.9003,73.5558 C23.2503,73.5308 23.5583,73.2918 23.6503,72.9378" id="Fill-39" fill="#FFFFFF"></path>
                <path d="M11.4135,67.4437 C11.5905,67.2057 11.6065,66.9107 11.5105,66.6527 C11.2665,66.4777 11.0215,66.3027 10.7825,66.1227 C10.5105,66.1097 10.2365,66.2147 10.0665,66.4497 C9.8375,66.7577 9.8615,67.1617 10.0835,67.4517 C10.2225,67.5547 10.3665,67.6507 10.5065,67.7527 C10.5835,67.7747 10.6625,67.7897 10.7405,67.7897 C10.9955,67.7897 11.2495,67.6697 11.4135,67.4437" id="Fill-41" fill="#FFFFFF"></path>
                <path d="M7.4701,12.6399 C7.6351,12.8269 7.8671,12.9169 8.0981,12.9169 C8.1381,12.9169 8.1781,12.9019 8.2191,12.8959 C8.4401,12.6919 8.6671,12.4939 8.8931,12.2969 C8.9661,12.0299 8.9201,11.7379 8.7201,11.5179 C8.4751,11.2439 8.0931,11.1779 7.7721,11.3129 C7.6481,11.4229 7.5191,11.5279 7.3961,11.6389 C7.2011,11.9509 7.2171,12.3559 7.4701,12.6399" id="Fill-43" fill="#FFFFFF"></path>
                <path d="M17.2738,70.7747 C17.4018,70.5087 17.3628,70.2177 17.2208,69.9837 C16.9478,69.8577 16.6748,69.7307 16.4048,69.5967 C16.1338,69.6317 15.8828,69.7837 15.7548,70.0487 C15.5878,70.3947 15.6918,70.7927 15.9648,71.0337 C16.0998,71.0987 16.2368,71.1587 16.3718,71.2217 C16.4188,71.2297 16.4638,71.2537 16.5108,71.2537 C16.8248,71.2537 17.1318,71.0817 17.2738,70.7747" id="Fill-45" fill="#FFFFFF"></path>
                <path d="M19.3544,71.6351 C19.4644,71.3581 19.4054,71.0671 19.2444,70.8411 C18.9634,70.7321 18.6814,70.6241 18.4034,70.5081 C18.1374,70.5651 17.8984,70.7341 17.7904,71.0071 C17.6514,71.3491 17.7674,71.7271 18.0404,71.9541 C18.2084,72.0241 18.3784,72.0891 18.5484,72.1561 C18.5554,72.1561 18.5624,72.1591 18.5684,72.1591 C18.9054,72.1591 19.2194,71.9571 19.3544,71.6351" id="Fill-47" fill="#FFFFFF"></path>
                <path d="M9.1537,11.1507 C9.3187,11.3607 9.5657,11.4727 9.8127,11.4727 C9.8347,11.4727 9.8557,11.4637 9.8787,11.4627 C10.1137,11.2707 10.3527,11.0847 10.5937,10.8997 C10.6827,10.6387 10.6577,10.3447 10.4707,10.1107 C10.2507,9.8267 9.8837,9.7317 9.5587,9.8337 C9.4047,9.9527 9.2527,10.0717 9.1007,10.1937 C8.9237,10.4857 8.9257,10.8647 9.1537,11.1507" id="Fill-49" fill="#FFFFFF"></path>
                <path d="M32.6981,73.8509 C32.6981,73.5529 32.5321,73.3039 32.2971,73.1559 C32.1071,73.1589 31.9191,73.1699 31.7281,73.1699 C31.5771,73.1699 31.4291,73.1609 31.2791,73.1589 C31.0481,73.3079 30.8871,73.5549 30.8871,73.8509 C30.8871,74.2219 31.1311,74.5309 31.4641,74.6429 C31.5521,74.6429 31.6391,74.6499 31.7281,74.6499 C31.8611,74.6499 31.9921,74.6409 32.1251,74.6389 C32.4561,74.5239 32.6981,74.2199 32.6981,73.8509" id="Fill-51" fill="#FFFFFF"></path>
                <path d="M13.3002,68.679 C13.4582,68.431 13.4542,68.135 13.3402,67.884 C13.0862,67.725 12.8332,67.564 12.5842,67.399 C12.3102,67.4 12.0422,67.52 11.8852,67.766 C11.6842,68.074 11.7192,68.46 11.9322,68.737 C12.0872,68.838 12.2432,68.938 12.4002,69.036 C12.4622,69.05 12.5252,69.061 12.5892,69.061 C12.8662,69.061 13.1352,68.926 13.3002,68.679" id="Fill-53" fill="#FFFFFF"></path>
                <path d="M6.8729,14.2083 C7.0099,14.0673 7.1439,13.9263 7.2829,13.7883 C7.3349,13.5213 7.2729,13.2363 7.0659,13.0283 C6.7909,12.7673 6.3939,12.7293 6.0799,12.8993 C6.0009,12.9793 5.9259,13.0623 5.8479,13.1423 L6.8729,14.2083 Z" id="Fill-55" fill="#FFFFFF"></path>
                <path d="M30.3256,73.8353 C30.3396,73.5453 30.1976,73.2903 29.9826,73.1263 C29.6816,73.1103 29.3846,73.0823 29.0866,73.0603 C28.8436,73.1933 28.6606,73.4323 28.6416,73.7313 C28.6236,74.0963 28.8376,74.4123 29.1576,74.5483 C29.3276,74.5603 29.4956,74.5773 29.6656,74.5873 C30.0176,74.5063 30.3006,74.2143 30.3256,73.8353" id="Fill-57" fill="#FFFFFF"></path>
                <path d="M14.7142,7.3714 C14.8482,7.6264 15.0972,7.7764 15.3672,7.8084 C15.6342,7.6644 15.9052,7.5284 16.1762,7.3924 C16.3132,7.1514 16.3442,6.8554 16.2112,6.5934 C16.0392,6.2674 15.6872,6.1104 15.3442,6.1584 C15.1842,6.2394 15.0232,6.3204 14.8642,6.4044 C14.6192,6.6584 14.5412,7.0434 14.7142,7.3714" id="Fill-59" fill="#FFFFFF"></path>
                <path d="M12.7831,8.5091 C12.9331,8.7581 13.1931,8.8971 13.4631,8.9101 C13.7191,8.7511 13.9801,8.5981 14.2411,8.4451 C14.3631,8.1951 14.3731,7.8951 14.2201,7.6411 C14.0321,7.3281 13.6721,7.1921 13.3331,7.2621 C13.1831,7.3501 13.0321,7.4351 12.8841,7.5261 C12.6471,7.7931 12.5891,8.1871 12.7831,8.5091" id="Fill-61" fill="#FFFFFF"></path>
                <path d="M7.9115,64.638 C8.1155,64.425 8.1685,64.136 8.1065,63.869 C7.8865,63.665 7.6685,63.458 7.4545,63.248 C7.1835,63.198 6.8965,63.263 6.6915,63.478 C6.4425,63.744 6.4045,64.13 6.5625,64.44 C6.6955,64.568 6.8285,64.696 6.9635,64.822 C7.0735,64.869 7.1875,64.9 7.3055,64.9 C7.5225,64.9 7.7465,64.81 7.9115,64.638" id="Fill-63" fill="#FFFFFF"></path>
                <path d="M25.8583,73.3714 C25.9163,73.0834 25.8023,72.8094 25.6003,72.6174 C25.3023,72.5644 25.0033,72.5174 24.7083,72.4564 C24.4603,72.5624 24.2593,72.7714 24.2043,73.0574 C24.1313,73.4264 24.3193,73.7754 24.6333,73.9474 C24.8043,73.9814 24.9783,74.0084 25.1503,74.0394 C25.4963,73.9894 25.7903,73.7344 25.8583,73.3714" id="Fill-65" fill="#FFFFFF"></path>
                <path d="M9.618,66.097 C9.807,65.874 9.844,65.583 9.765,65.322 C9.533,65.132 9.308,64.934 9.081,64.739 C8.806,64.703 8.522,64.787 8.331,65.012 C8.095,65.295 8.08,65.681 8.257,65.98 C8.394,66.097 8.527,66.219 8.666,66.334 C8.766,66.373 8.87,66.397 8.974,66.397 C9.214,66.397 9.453,66.299 9.618,66.097" id="Fill-67" fill="#FFFFFF"></path>
                <path d="M28.0804,73.678 C28.1184,73.383 27.9884,73.117 27.7784,72.939 C27.4804,72.906 27.1844,72.867 26.8884,72.825 C26.6404,72.946 26.4494,73.171 26.4114,73.461 C26.3634,73.829 26.5654,74.16 26.8804,74.316 C27.0564,74.339 27.2324,74.362 27.4094,74.383 C27.7544,74.315 28.0354,74.048 28.0804,73.678" id="Fill-69" fill="#FFFFFF"></path>
                <path d="M64.0331,23.9036 C63.7611,24.0176 63.5961,24.2626 63.5491,24.5336 C63.6731,24.8146 63.7921,25.0986 63.9081,25.3836 C64.0421,25.4716 64.1991,25.5196 64.3621,25.5196 C64.4741,25.5196 64.5791,25.4976 64.6911,25.4526 C65.0331,25.3086 65.2201,24.9636 65.1931,24.6126 C65.1281,24.4566 65.0631,24.3006 64.9961,24.1456 C64.7611,23.8726 64.3801,23.7576 64.0331,23.9036" id="Fill-71" fill="#FFFFFF"></path>
                <path d="M45.0912,5.6272 C44.9742,5.8952 45.0202,6.1812 45.1652,6.4082 C45.4472,6.5272 45.7222,6.6572 46.0002,6.7822 C46.2702,6.7372 46.5182,6.5692 46.6332,6.3022 C46.7812,5.9632 46.6832,5.5892 46.4262,5.3532 C46.2702,5.2832 46.1172,5.2092 45.9602,5.1422 C45.6012,5.0992 45.2442,5.2782 45.0912,5.6272" id="Fill-73" fill="#FFFFFF"></path>
                <path d="M66.9594,34.6946 C66.6654,34.7176 66.4334,34.8976 66.3014,35.1366 C66.3304,35.4356 66.3494,35.7366 66.3704,36.0366 C66.5254,36.2406 66.7574,36.3796 67.0264,36.3796 C67.0494,36.3796 67.0714,36.3716 67.0934,36.3716 C67.4584,36.3416 67.7404,36.0846 67.8314,35.7526 C67.8174,35.5676 67.8054,35.3826 67.7884,35.1996 C67.6484,34.8806 67.3274,34.6656 66.9594,34.6946" id="Fill-75" fill="#FFFFFF"></path>
                <path d="M66.6522,32.472 C66.3602,32.515 66.1412,32.707 66.0252,32.952 C66.0722,33.25 66.1102,33.551 66.1502,33.851 C66.3062,34.03 66.5252,34.149 66.7722,34.149 C66.8092,34.149 66.8542,34.141 66.8922,34.133 C67.2632,34.079 67.5282,33.792 67.5892,33.448 C67.5672,33.291 67.5522,33.132 67.5282,32.977 C67.3812,32.634 67.0342,32.416 66.6522,32.472" id="Fill-77" fill="#FFFFFF"></path>
                <path d="M65.6195,28.1019 C65.3325,28.1829 65.1365,28.4079 65.0555,28.6709 C65.1405,28.9629 65.2265,29.2539 65.3055,29.5479 C65.4545,29.6759 65.6425,29.7559 65.8445,29.7559 C65.9185,29.7559 65.9945,29.7409 66.0685,29.7259 C66.4275,29.6239 66.6555,29.3069 66.6735,28.9559 C66.6265,28.7829 66.5755,28.6119 66.5265,28.4399 C66.3275,28.1509 65.9705,28.0009 65.6195,28.1019" id="Fill-79" fill="#FFFFFF"></path>
                <path d="M66.203,30.2718 C65.914,30.3338 65.705,30.5408 65.605,30.7948 C65.672,31.0928 65.74,31.3898 65.799,31.6908 C65.953,31.8388 66.154,31.9338 66.375,31.9338 C66.435,31.9338 66.495,31.9258 66.555,31.9178 C66.932,31.8358 67.183,31.5038 67.201,31.1348 C67.169,30.9818 67.129,30.8328 67.096,30.6798 C66.92,30.3748 66.571,30.1938 66.203,30.2718" id="Fill-81" fill="#FFFFFF"></path>
                <path d="M40.8256,4.1907 C40.7436,4.4787 40.8316,4.7637 41.0146,4.9737 C41.3116,5.0557 41.6086,5.1357 41.9016,5.2257 C42.1556,5.1427 42.3636,4.9427 42.4416,4.6627 C42.5496,4.3117 42.3996,3.9497 42.1146,3.7497 C41.9406,3.6967 41.7646,3.6487 41.5896,3.5987 C41.2426,3.6207 40.9316,3.8427 40.8256,4.1907" id="Fill-83" fill="#FFFFFF"></path>
                <path d="M42.9808,4.8421 C42.8808,5.1191 42.9488,5.4091 43.1178,5.6301 C43.4058,5.7311 43.6938,5.8321 43.9788,5.9401 C44.2398,5.8721 44.4648,5.6861 44.5598,5.4181 C44.6968,5.0521 44.5508,4.6711 44.2528,4.4581 C44.1058,4.4051 43.9578,4.3561 43.8108,4.3041 C43.4548,4.2881 43.1148,4.4891 42.9808,4.8421" id="Fill-85" fill="#FFFFFF"></path>
                <path d="M67.0267,41.4231 C66.7367,41.3951 66.4747,41.5271 66.3017,41.7371 C66.2727,42.0371 66.2357,42.3331 66.1997,42.6311 C66.3217,42.8781 66.5497,43.0661 66.8467,43.1001 C66.8767,43.1001 66.9067,43.1071 66.9367,43.1071 C67.2617,43.1071 67.5497,42.9181 67.6897,42.6371 C67.7097,42.4651 67.7367,42.2951 67.7547,42.1211 C67.6927,41.7631 67.4097,41.4661 67.0267,41.4231" id="Fill-87" fill="#FFFFFF"></path>
                <path d="M47.142,6.5403 C47.008,6.8083 47.04,7.1013 47.178,7.3403 C47.449,7.4763 47.72,7.6123 47.987,7.7553 C48.257,7.7243 48.505,7.5713 48.639,7.3113 C48.81,6.9863 48.737,6.6073 48.499,6.3563 C48.337,6.2713 48.174,6.1883 48.011,6.1053 C47.666,6.0583 47.313,6.2153 47.142,6.5403" id="Fill-89" fill="#FFFFFF"></path>
                <path d="M67.1239,36.9397 C66.8289,36.9447 66.5819,37.1107 66.4349,37.3427 C66.4439,37.6427 66.4559,37.9417 66.4569,38.2437 C66.6109,38.4627 66.8529,38.6167 67.1389,38.6167 L67.1539,38.6167 C67.5279,38.6107 67.8279,38.3577 67.9299,38.0177 C67.9279,37.8407 67.9209,37.6657 67.9169,37.4887 C67.7969,37.1627 67.4899,36.9277 67.1239,36.9397" id="Fill-91" fill="#FFFFFF"></path>
                <path d="M67.1464,39.1849 C66.8504,39.1709 66.5934,39.3219 66.4344,39.5459 C66.4244,39.8459 66.4174,40.1469 66.4004,40.4449 C66.5394,40.6779 66.7774,40.8469 67.0714,40.8619 L67.1094,40.8619 C67.4814,40.8619 67.7854,40.6149 67.8944,40.2749 C67.9024,40.1169 67.9004,39.9559 67.9064,39.7959 C67.8114,39.4579 67.5174,39.2039 67.1464,39.1849" id="Fill-93" fill="#FFFFFF"></path>
                <path d="M52.8973,10.0511 C52.7163,10.2791 52.6893,10.5721 52.7773,10.8321 C53.0183,11.0171 53.2563,11.2041 53.4933,11.3951 C53.5143,11.3971 53.5343,11.4051 53.5553,11.4051 C53.8103,11.4051 54.0573,11.3001 54.2213,11.0831 C54.4473,10.7981 54.4473,10.4091 54.2583,10.1161 C54.1173,10.0041 53.9763,9.8941 53.8343,9.7831 C53.5023,9.6661 53.1233,9.7591 52.8973,10.0511" id="Fill-95" fill="#FFFFFF"></path>
                <path d="M59.3485,16.2698 C59.1095,16.4508 59.0115,16.7318 59.0335,17.0068 C59.2205,17.2448 59.4105,17.4788 59.5905,17.7208 C59.6775,17.7498 59.7645,17.7818 59.8565,17.7818 C60.0365,17.7818 60.2155,17.7288 60.3655,17.6088 C60.6755,17.3738 60.7605,16.9788 60.6255,16.6408 C60.5245,16.5078 60.4185,16.3788 60.3165,16.2488 C60.0255,16.0558 59.6395,16.0488 59.3485,16.2698" id="Fill-97" fill="#FFFFFF"></path>
                <path d="M51.056,8.7562 C50.89,9.0022 50.883,9.2932 50.985,9.5472 C51.24,9.7172 51.489,9.8962 51.739,10.0722 C51.741,10.0722 51.743,10.0732 51.744,10.0732 C52.014,10.0732 52.276,9.9462 52.44,9.7142 C52.648,9.4052 52.622,9.0232 52.416,8.7402 C52.276,8.6432 52.14,8.5392 51.998,8.4442 C51.655,8.3352 51.27,8.4442 51.056,8.7562" id="Fill-99" fill="#FFFFFF"></path>
                <path d="M60.6952,18.0657 C60.4542,18.2307 60.3392,18.5017 60.3392,18.7727 C60.5102,19.0207 60.6752,19.2737 60.8412,19.5267 C60.9452,19.5707 61.0542,19.6077 61.1672,19.6077 C61.3232,19.6077 61.4882,19.5627 61.6312,19.4647 C61.9422,19.2547 62.0602,18.8807 61.9662,18.5437 C61.8742,18.4047 61.7862,18.2637 61.6942,18.1277 C61.4162,17.8947 61.0142,17.8507 60.6952,18.0657" id="Fill-101" fill="#FFFFFF"></path>
                <path d="M66.7723,43.6605 C66.4843,43.6085 66.2133,43.7225 66.0253,43.9205 C65.9783,44.2185 65.9213,44.5135 65.8663,44.8085 C65.9743,45.0605 66.1893,45.2625 66.4803,45.3145 C66.5323,45.3215 66.5773,45.3295 66.6293,45.3295 C66.9253,45.3295 67.2003,45.1665 67.3483,44.9165 C67.3823,44.7335 67.4173,44.5505 67.4473,44.3665 C67.3973,44.0145 67.1383,43.7215 66.7723,43.6605" id="Fill-103" fill="#FFFFFF"></path>
                <path d="M51.662,67.7064 C51.503,67.4624 51.237,67.3434 50.966,67.3384 C50.714,67.5074 50.456,67.6684 50.2,67.8304 C50.09,68.0814 50.091,68.3754 50.248,68.6264 C50.412,68.8734 50.682,69.0094 50.959,69.0094 C51.02,69.0094 51.081,68.9964 51.141,68.9824 C51.298,68.8824 51.455,68.7834 51.61,68.6824 C51.827,68.4044 51.865,68.0164 51.662,67.7064" id="Fill-105" fill="#FFFFFF"></path>
                <path d="M64.8929,25.9769 C64.6169,26.0699 64.4379,26.2989 64.3699,26.5619 C64.4749,26.8489 64.5679,27.1429 64.6659,27.4339 C64.8109,27.5429 64.9869,27.6079 65.1699,27.6079 C65.2599,27.6079 65.3569,27.5919 65.4469,27.5629 C65.7969,27.4449 66.0019,27.1179 66.0009,26.7679 C65.9449,26.6039 65.8919,26.4379 65.8329,26.2739 C65.6179,25.9859 65.2459,25.8489 64.8929,25.9769" id="Fill-107" fill="#FFFFFF"></path>
                <path d="M54.6556,11.4505 C54.4556,11.6695 54.4096,11.9615 54.4836,12.2275 C54.7126,12.4275 54.9446,12.6245 55.1686,12.8305 C55.2076,12.8355 55.2446,12.8495 55.2836,12.8495 C55.5096,12.8495 55.7406,12.7535 55.9056,12.5655 C56.1636,12.2825 56.1766,11.8785 55.9816,11.5705 C55.8576,11.4585 55.7276,11.3525 55.6026,11.2425 C55.2816,11.1035 54.8996,11.1715 54.6556,11.4505" id="Fill-109" fill="#FFFFFF"></path>
                <path d="M61.9379,19.9446 C61.6819,20.0906 61.5489,20.3536 61.5339,20.6266 C61.6889,20.8846 61.8369,21.1476 61.9859,21.4116 C62.1019,21.4676 62.2259,21.5076 62.3559,21.5076 C62.4989,21.5076 62.6479,21.4706 62.7829,21.3966 C63.0979,21.2126 63.2379,20.8506 63.1709,20.5066 C63.0829,20.3526 62.9959,20.1976 62.9049,20.0456 C62.6409,19.8136 62.2539,19.7536 61.9379,19.9446" id="Fill-111" fill="#FFFFFF"></path>
                <path d="M49.1327,7.5882 C48.9787,7.8432 48.9937,8.1402 49.1177,8.3882 C49.3797,8.5402 49.6427,8.6922 49.9007,8.8502 C50.1687,8.8362 50.4277,8.7052 50.5767,8.4562 C50.7717,8.1272 50.7137,7.7322 50.4737,7.4632 C50.3277,7.3742 50.1757,7.2942 50.0287,7.2072 C49.6847,7.1382 49.3227,7.2742 49.1327,7.5882" id="Fill-113" fill="#FFFFFF"></path>
                <path d="M63.0448,21.8909 C62.7828,22.0239 62.6328,22.2789 62.6018,22.5519 C62.7438,22.8279 62.8908,23.0989 63.0248,23.3779 C63.1478,23.4449 63.2838,23.4849 63.4258,23.4849 C63.5458,23.4849 63.6818,23.4539 63.8008,23.3949 C64.1338,23.2249 64.2978,22.8659 64.2418,22.5119 C64.1648,22.3549 64.0828,22.2019 64.0028,22.0459 C63.7538,21.8039 63.3768,21.7249 63.0448,21.8909" id="Fill-115" fill="#FFFFFF"></path>
                <path d="M57.8817,14.5706 C57.6587,14.7596 57.5797,15.0416 57.6167,15.3116 C57.8187,15.5376 58.0147,15.7666 58.2107,15.9976 C58.2847,16.0176 58.3587,16.0456 58.4347,16.0456 C58.6297,16.0456 58.8317,15.9776 58.9887,15.8356 C59.2687,15.5916 59.3357,15.2086 59.2037,14.8866 C59.0897,14.7546 58.9767,14.6226 58.8617,14.4926 C58.5567,14.3096 58.1637,14.3246 57.8817,14.5706" id="Fill-117" fill="#FFFFFF"></path>
                <path d="M56.8334,63.4036 C56.6304,63.1946 56.3464,63.1286 56.0774,63.1756 C55.8624,63.3876 55.6424,63.5946 55.4214,63.8016 C55.3604,64.0686 55.4174,64.3576 55.6214,64.5706 C55.7854,64.7426 56.0104,64.8246 56.2274,64.8246 C56.3474,64.8246 56.4654,64.7926 56.5764,64.7416 C56.7074,64.6196 56.8364,64.4966 56.9644,64.3716 C57.1274,64.0606 57.0904,63.6726 56.8334,63.4036" id="Fill-119" fill="#FFFFFF"></path>
                <path d="M58.3676,61.764 C58.1506,61.566 57.8626,61.517 57.5976,61.582 C57.3966,61.807 57.1896,62.027 56.9826,62.245 C56.9386,62.515 57.0126,62.8 57.2306,62.999 C57.3946,63.149 57.5966,63.223 57.7986,63.223 C57.9396,63.223 58.0776,63.175 58.2066,63.104 C58.3186,62.984 58.4346,62.868 58.5456,62.745 C58.7026,62.419 58.6496,62.021 58.3676,61.764" id="Fill-121" fill="#FFFFFF"></path>
                <path d="M27.4594,3.263 C27.4894,3.558 27.6694,3.789 27.9084,3.917 C28.2074,3.884 28.5074,3.86 28.8074,3.834 C29.0254,3.665 29.1644,3.404 29.1364,3.106 C29.0994,2.733 28.8244,2.453 28.4784,2.376 C28.3194,2.391 28.1604,2.399 28.0024,2.414 C27.6604,2.545 27.4224,2.876 27.4594,3.263" id="Fill-123" fill="#FFFFFF"></path>
                <path d="M59.7972,60.0286 C59.5682,59.8416 59.2712,59.8106 59.0082,59.8976 C58.8222,60.1336 58.6382,60.3726 58.4462,60.6036 C58.4202,60.8756 58.5102,61.1536 58.7412,61.3386 C58.8912,61.4656 59.0782,61.5246 59.2652,61.5246 C59.4402,61.5246 59.6012,61.4536 59.7462,61.3496 C59.8502,61.2226 59.9482,61.0906 60.0502,60.9636 C60.1652,60.6356 60.0812,60.2586 59.7972,60.0286" id="Fill-125" fill="#FFFFFF"></path>
                <path d="M29.6971,3.0687 C29.7061,3.3637 29.8741,3.6027 30.1081,3.7437 C30.4041,3.7297 30.7021,3.7267 30.9991,3.7207 C31.2311,3.5647 31.3901,3.3077 31.3811,3.0077 C31.3691,2.6437 31.1241,2.3517 30.7951,2.2477 C30.6151,2.2517 30.4351,2.2537 30.2561,2.2607 C29.9231,2.3817 29.6851,2.6957 29.6971,3.0687" id="Fill-127" fill="#FFFFFF"></path>
                <path d="M25.244,3.6067 C25.291,3.8967 25.483,4.1207 25.731,4.2317 C26.03,4.1787 26.327,4.1257 26.628,4.0807 C26.829,3.8947 26.945,3.6267 26.898,3.3377 C26.843,2.9607 26.533,2.6937 26.17,2.6507 C26.005,2.6757 25.844,2.7107 25.68,2.7387 C25.371,2.9027 25.185,3.2387 25.244,3.6067" id="Fill-129" fill="#FFFFFF"></path>
                <path d="M38.6405,3.6897 C38.5745,3.9727 38.6785,4.2477 38.8685,4.4437 C39.1695,4.5067 39.4685,4.5807 39.7665,4.6517 C40.0175,4.5517 40.2195,4.3367 40.2795,4.0557 C40.3605,3.7017 40.2025,3.3557 39.9155,3.1687 C39.7335,3.1267 39.5525,3.0817 39.3685,3.0427 C39.0245,3.0837 38.7235,3.3277 38.6405,3.6897" id="Fill-131" fill="#FFFFFF"></path>
                <path d="M61.1141,58.2015 C60.8731,58.0315 60.5801,58.0195 60.3261,58.1185 C60.1541,58.3675 59.9781,58.6135 59.8001,58.8575 C59.7891,59.1335 59.8981,59.4075 60.1411,59.5785 C60.2831,59.6835 60.4551,59.7285 60.6201,59.7285 C60.8161,59.7285 60.9901,59.6435 61.1421,59.5205 C61.2341,59.3925 61.3251,59.2645 61.4151,59.1365 C61.5211,58.7975 61.4151,58.4185 61.1141,58.2015" id="Fill-133" fill="#FFFFFF"></path>
                <path d="M55.202,64.9446 C55.011,64.7196 54.726,64.6356 54.453,64.6716 C54.224,64.8696 53.999,65.0716 53.765,65.2636 C53.69,65.5246 53.727,65.8126 53.914,66.0376 C54.087,66.2326 54.319,66.3296 54.558,66.3296 C54.66,66.3296 54.762,66.3106 54.859,66.2756 C55.003,66.1556 55.141,66.0286 55.284,65.9066 C55.453,65.6086 55.436,65.2256 55.202,64.9446" id="Fill-135" fill="#FFFFFF"></path>
                <path d="M53.473,66.3812 C53.298,66.1452 53.025,66.0432 52.753,66.0602 C52.514,66.2422 52.27,66.4192 52.026,66.5962 C51.931,66.8532 51.95,67.1472 52.126,67.3852 C52.29,67.6092 52.545,67.7292 52.8,67.7292 C52.88,67.7292 52.961,67.7132 53.04,67.6882 C53.177,67.5882 53.316,67.4922 53.451,67.3912 C53.678,67.1012 53.704,66.6932 53.473,66.3812" id="Fill-137" fill="#FFFFFF"></path>
                <path d="M56.3168,12.9544 C56.1088,13.1624 56.0458,13.4484 56.0978,13.7164 C56.3128,13.9284 56.5228,14.1464 56.7318,14.3644 C56.7908,14.3764 56.8478,14.3984 56.9078,14.3984 C57.1248,14.3984 57.3348,14.3164 57.4998,14.1514 C57.7588,13.8984 57.8108,13.5154 57.6648,13.2004 C57.5458,13.0784 57.4318,12.9524 57.3118,12.8314 C56.9918,12.6554 56.5878,12.6894 56.3168,12.9544" id="Fill-139" fill="#FFFFFF"></path>
                <path d="M31.9423,3.0081 C31.9383,3.3061 32.0933,3.5611 32.3203,3.7181 C32.6203,3.7231 32.9193,3.7281 33.2163,3.7401 C33.4493,3.5971 33.6163,3.3551 33.6263,3.0611 C33.6373,2.6961 33.4093,2.3841 33.0873,2.2581 C32.8963,2.2511 32.7033,2.2471 32.5113,2.2431 C32.1913,2.3551 31.9533,2.6501 31.9423,3.0081" id="Fill-141" fill="#FFFFFF"></path>
                <path d="M36.4252,3.3226 C36.3782,3.6116 36.4972,3.8806 36.6982,4.0636 C37.0012,4.1076 37.3012,4.1586 37.6022,4.2096 C37.8482,4.0946 38.0402,3.8706 38.0872,3.5856 C38.1402,3.2136 37.9482,2.8756 37.6342,2.7136 C37.4682,2.6856 37.3042,2.6546 37.1372,2.6296 C36.7822,2.6776 36.4802,2.9436 36.4252,3.3226" id="Fill-143" fill="#FFFFFF"></path>
                <path d="M65.8285,48.0462 C65.5475,47.9602 65.2625,48.0422 65.0505,48.2202 C64.9655,48.5092 64.8785,48.7982 64.7865,49.0842 C64.8635,49.3462 65.0515,49.5702 65.3355,49.6552 C65.4175,49.6782 65.4995,49.6922 65.5825,49.6922 C65.8495,49.6922 66.1005,49.5642 66.2575,49.3492 C66.3095,49.1852 66.3565,49.0192 66.4065,48.8542 C66.4075,48.4902 66.1895,48.1562 65.8285,48.0462" id="Fill-145" fill="#FFFFFF"></path>
                <path d="M66.368,45.8685 C66.081,45.7975 65.802,45.8985 65.602,46.0895 C65.536,46.3845 65.472,46.6805 65.398,46.9715 C65.492,47.2245 65.693,47.4345 65.978,47.5005 C66.046,47.5225 66.106,47.5295 66.174,47.5295 C66.458,47.5295 66.722,47.3835 66.875,47.1475 C66.92,46.9675 66.959,46.7835 67.001,46.6015 C66.969,46.2565 66.729,45.9515 66.368,45.8685" id="Fill-147" fill="#FFFFFF"></path>
                <path d="M65.1483,50.1937 C64.8773,50.0907 64.5933,50.1507 64.3723,50.3057 C64.2683,50.5907 64.1523,50.8697 64.0413,51.1507 C64.0993,51.4217 64.2723,51.6607 64.5493,51.7657 C64.6473,51.8027 64.7513,51.8177 64.8483,51.8177 C65.0913,51.8177 65.3223,51.7107 65.4823,51.5267 C65.5453,51.3647 65.6133,51.2057 65.6733,51.0427 C65.7013,50.6807 65.5043,50.3297 65.1483,50.1937" id="Fill-149" fill="#FFFFFF"></path>
                <path d="M62.3119,56.3011 C62.0619,56.1451 61.7699,56.1531 61.5219,56.2681 C61.3669,56.5271 61.2029,56.7801 61.0409,57.0341 C61.0469,57.3101 61.1749,57.5771 61.4279,57.7311 C61.5629,57.8211 61.7129,57.8581 61.8619,57.8581 C62.0809,57.8581 62.2769,57.7511 62.4359,57.5981 C62.5089,57.4801 62.5879,57.3651 62.6609,57.2471 C62.7629,56.8941 62.6349,56.5061 62.3119,56.3011" id="Fill-151" fill="#FFFFFF"></path>
                <path d="M34.1874,3.0911 C34.1584,3.3891 34.2994,3.6531 34.5204,3.8241 C34.8204,3.8491 35.1204,3.8691 35.4184,3.9011 C35.6574,3.7731 35.8384,3.5421 35.8644,3.2481 C35.9004,2.8661 35.6684,2.5381 35.3304,2.4041 C35.1614,2.3871 34.9904,2.3791 34.8214,2.3641 C34.4864,2.4501 34.2224,2.7321 34.1874,3.0911" id="Fill-153" fill="#FFFFFF"></path>
                <path d="M63.3817,54.3323 C63.1247,54.1893 62.8287,54.2153 62.5877,54.3493 C62.4487,54.6163 62.3117,54.8853 62.1667,55.1483 C62.1937,55.4183 62.3347,55.6733 62.5887,55.8143 C62.7157,55.8823 62.8507,55.9123 62.9847,55.9123 C63.2007,55.9123 63.4107,55.8233 63.5707,55.6693 C63.6547,55.5153 63.7307,55.3553 63.8117,55.1993 C63.8647,54.8583 63.7077,54.5053 63.3817,54.3323" id="Fill-155" fill="#FFFFFF"></path>
                <path d="M64.3319,52.2894 C64.0659,52.1654 63.7739,52.2104 63.5409,52.3584 C63.4189,52.6344 63.2959,52.9084 63.1679,53.1804 C63.2099,53.4504 63.3659,53.7004 63.6359,53.8234 C63.7489,53.8764 63.8689,53.8984 63.9799,53.8984 C64.2069,53.8984 64.4239,53.8024 64.5829,53.6394 C64.6609,53.4714 64.7369,53.3024 64.8119,53.1334 C64.8439,52.7854 64.6699,52.4434 64.3319,52.2894" id="Fill-157" fill="#FFFFFF"></path>
                <path d="M6.9584,14.2972 L7.6604,15.0272 C13.7684,8.7492 22.2984,4.8382 31.7284,4.8382 C50.2544,4.8382 65.3264,19.9102 65.3264,38.4372 C65.3264,56.9632 50.2544,72.0342 31.7284,72.0342 C19.4494,72.0342 8.6924,65.4092 2.8314,55.5502 L1.9884,56.3602 C2.1334,56.4272 2.2674,56.5212 2.3584,56.6672 C2.4474,56.8082 2.4734,56.9652 2.4714,57.1212 C2.7064,57.4882 2.9454,57.8512 3.1944,58.2082 C3.3414,58.2652 3.4794,58.3502 3.5784,58.4852 C3.6774,58.6262 3.7124,58.7852 3.7184,58.9442 C3.9754,59.2952 4.2414,59.6382 4.5114,59.9782 C4.6584,60.0262 4.7974,60.1002 4.9034,60.2302 L4.9104,60.2302 C5.0194,60.3642 5.0644,60.5232 5.0794,60.6842 C5.3554,61.0142 5.6364,61.3392 5.9234,61.6582 C6.0774,61.6972 6.2254,61.7652 6.3404,61.8912 L6.3474,61.8912 C6.4614,62.0132 6.5164,62.1632 6.5414,62.3182 C6.8414,62.6322 7.1444,62.9432 7.4544,63.2482 C7.6084,63.2762 7.7594,63.3332 7.8814,63.4472 C8.0054,63.5662 8.0704,63.7152 8.1064,63.8692 C8.4254,64.1662 8.7514,64.4542 9.0814,64.7382 C9.2374,64.7582 9.3904,64.8062 9.5214,64.9142 L9.5124,64.9142 C9.6454,65.0252 9.7194,65.1692 9.7654,65.3212 C10.0984,65.5952 10.4384,65.8602 10.7824,66.1222 C10.9434,66.1292 11.1034,66.1672 11.2424,66.2702 C11.3744,66.3692 11.4554,66.5072 11.5104,66.6522 C11.8644,66.9062 12.2204,67.1572 12.5834,67.3992 C12.7424,67.3982 12.9024,67.4262 13.0454,67.5192 C13.1864,67.6102 13.2754,67.7422 13.3404,67.8842 C13.7114,68.1162 14.0884,68.3402 14.4684,68.5592 C14.6234,68.5512 14.7794,68.5682 14.9234,68.6492 C15.0774,68.7332 15.1794,68.8632 15.2524,69.0062 C15.6324,69.2112 16.0174,69.4052 16.4054,69.5972 C16.5624,69.5772 16.7244,69.5862 16.8774,69.6592 L16.8774,69.6512 C17.0314,69.7262 17.1384,69.8482 17.2214,69.9842 C17.6124,70.1642 18.0044,70.3422 18.4034,70.5082 C18.5604,70.4752 18.7244,70.4722 18.8824,70.5352 C19.0394,70.6002 19.1534,70.7132 19.2444,70.8412 C19.6534,70.9982 20.0664,71.1492 20.4824,71.2912 C20.6324,71.2522 20.7904,71.2402 20.9484,71.2912 C21.1134,71.3442 21.2374,71.4532 21.3364,71.5802 C21.7474,71.7102 22.1644,71.8252 22.5824,71.9402 C22.7304,71.8912 22.8894,71.8692 23.0514,71.9122 L23.0514,71.9042 C23.2164,71.9482 23.3444,72.0482 23.4514,72.1652 C23.8684,72.2682 24.2854,72.3692 24.7084,72.4562 C24.8574,72.3932 25.0204,72.3582 25.1914,72.3912 C25.3554,72.4232 25.4874,72.5112 25.6004,72.6172 C26.0274,72.6942 26.4564,72.7652 26.8884,72.8252 C27.0304,72.7572 27.1864,72.7132 27.3544,72.7352 C27.5204,72.7572 27.6594,72.8372 27.7784,72.9392 C28.2114,72.9882 28.6484,73.0262 29.0864,73.0602 C29.2214,72.9852 29.3694,72.9352 29.5324,72.9442 C29.7054,72.9532 29.8534,73.0272 29.9824,73.1262 C30.4114,73.1482 30.8454,73.1532 31.2784,73.1582 C31.4094,73.0732 31.5574,73.0122 31.7254,73.0122 L31.7854,73.0122 L31.8524,73.0122 C32.0194,73.0122 32.1654,73.0722 32.2964,73.1552 C32.7324,73.1492 33.1674,73.1412 33.5994,73.1182 C33.7274,73.0222 33.8734,72.9482 34.0444,72.9382 C34.2104,72.9272 34.3604,72.9772 34.4964,73.0502 C34.9354,73.0152 35.3714,72.9742 35.8044,72.9232 C35.9244,72.8222 36.0624,72.7422 36.2304,72.7212 C36.3964,72.6982 36.5514,72.7412 36.6934,72.8102 C37.1264,72.7472 37.5574,72.6732 37.9854,72.5952 C38.0984,72.4882 38.2304,72.4012 38.3934,72.3682 C38.5614,72.3352 38.7194,72.3692 38.8654,72.4302 C39.2894,72.3412 39.7084,72.2412 40.1264,72.1382 C40.2324,72.0192 40.3614,71.9192 40.5264,71.8752 C40.6894,71.8312 40.8504,71.8542 41.0004,71.9032 C41.4174,71.7872 41.8344,71.6692 42.2454,71.5382 C42.3444,71.4132 42.4664,71.3062 42.6284,71.2542 C42.7884,71.2002 42.9464,71.2112 43.0964,71.2492 C43.5084,71.1072 43.9164,70.9552 44.3204,70.7982 C44.4094,70.6712 44.5224,70.5602 44.6794,70.4972 C44.8384,70.4312 45.0034,70.4332 45.1614,70.4652 C45.5604,70.2972 45.9534,70.1162 46.3444,69.9342 C46.4264,69.8002 46.5334,69.6812 46.6864,69.6082 C46.8364,69.5332 46.9974,69.5252 47.1544,69.5442 C47.5394,69.3532 47.9234,69.1602 48.3004,68.9542 C48.3734,68.8112 48.4734,68.6802 48.6244,68.5972 C48.7704,68.5132 48.9304,68.4932 49.0864,68.5022 C49.4624,68.2842 49.8334,68.0612 50.1994,67.8302 C50.2624,67.6862 50.3524,67.5522 50.4954,67.4592 C50.6404,67.3642 50.8034,67.3362 50.9654,67.3382 C51.3254,67.0992 51.6764,66.8492 52.0264,66.5962 C52.0804,66.4482 52.1624,66.3112 52.2984,66.2092 C52.4364,66.1082 52.5944,66.0682 52.7534,66.0602 C53.0944,65.7992 53.4344,65.5362 53.7654,65.2642 C53.8104,65.1082 53.8854,64.9592 54.0204,64.8472 C54.1464,64.7392 54.2984,64.6922 54.4534,64.6712 C54.7804,64.3872 55.1044,64.0982 55.4214,63.8022 C55.4564,63.6482 55.5204,63.4982 55.6444,63.3802 C55.7684,63.2622 55.9204,63.2042 56.0774,63.1762 C56.3854,62.8722 56.6864,62.5612 56.9824,62.2452 C57.0084,62.0912 57.0624,61.9402 57.1774,61.8172 C57.2934,61.6892 57.4424,61.6212 57.5984,61.5822 C57.8864,61.2612 58.1704,60.9362 58.4464,60.6042 C58.4614,60.4442 58.5064,60.2872 58.6144,60.1552 C58.7194,60.0232 58.8604,59.9462 59.0084,59.8982 C59.2784,59.5552 59.5434,59.2092 59.8004,58.8582 C59.8064,58.7002 59.8414,58.5432 59.9394,58.4042 C60.0384,58.2632 60.1774,58.1772 60.3264,58.1182 C60.5714,57.7632 60.8084,57.4002 61.0414,57.0342 C61.0374,56.8782 61.0624,56.7212 61.1514,56.5772 C61.2424,56.4312 61.3764,56.3352 61.5214,56.2682 C61.7434,55.9002 61.9584,55.5262 62.1664,55.1492 C62.1504,54.9892 62.1644,54.8262 62.2444,54.6772 C62.3234,54.5262 62.4484,54.4252 62.5874,54.3492 C62.7874,53.9632 62.9824,53.5742 63.1684,53.1802 C63.1444,53.0242 63.1484,52.8622 63.2174,52.7082 C63.2884,52.5532 63.4074,52.4432 63.5414,52.3592 C63.7154,51.9602 63.8814,51.5572 64.0414,51.1512 C64.0084,50.9982 64.0034,50.8382 64.0624,50.6812 C64.1244,50.5182 64.2394,50.3992 64.3724,50.3062 C64.5194,49.9022 64.6534,49.4942 64.7864,49.0842 C64.7414,48.9322 64.7244,48.7702 64.7744,48.6082 C64.8254,48.4442 64.9294,48.3202 65.0504,48.2202 C65.1714,47.8062 65.2914,47.3912 65.3984,46.9712 C65.3424,46.8192 65.3154,46.6572 65.3574,46.4892 C65.3954,46.3272 65.4894,46.1972 65.6024,46.0892 C65.6984,45.6652 65.7864,45.2382 65.8664,44.8092 C65.8054,44.6642 65.7694,44.5082 65.7994,44.3422 C65.8274,44.1732 65.9154,44.0362 66.0254,43.9202 C66.0934,43.4932 66.1474,43.0632 66.2004,42.6312 C66.1314,42.4912 66.0864,42.3392 66.1054,42.1712 C66.1224,42.0012 66.2004,41.8592 66.3014,41.7372 C66.3424,41.3092 66.3754,40.8782 66.4004,40.4442 C66.3184,40.3092 66.2624,40.1562 66.2714,39.9862 C66.2764,39.8182 66.3434,39.6742 66.4344,39.5462 C66.4454,39.1772 66.4624,38.8092 66.4624,38.4372 C66.4624,38.3722 66.4584,38.3082 66.4574,38.2432 C66.3664,38.1122 66.2984,37.9642 66.2924,37.7932 C66.2904,37.6252 66.3504,37.4762 66.4344,37.3432 C66.4204,36.9052 66.3994,36.4702 66.3704,36.0362 C66.2754,35.9122 66.2024,35.7682 66.1884,35.6002 C66.1744,35.4302 66.2254,35.2762 66.3014,35.1372 C66.2604,34.7052 66.2074,34.2772 66.1504,33.8512 C66.0464,33.7322 65.9654,33.5902 65.9414,33.4222 C65.9164,33.2542 65.9574,33.0962 66.0254,32.9522 C65.9584,32.5292 65.8824,32.1092 65.7994,31.6912 C65.6834,31.5782 65.5904,31.4382 65.5524,31.2672 C65.5164,31.1002 65.5474,30.9422 65.6044,30.7952 C65.5104,30.3772 65.4144,29.9602 65.3054,29.5482 C65.1824,29.4432 65.0834,29.3072 65.0364,29.1422 C64.9894,28.9802 65.0094,28.8202 65.0554,28.6712 C64.9334,28.2552 64.8024,27.8432 64.6664,27.4342 C64.5384,27.3372 64.4334,27.2072 64.3774,27.0462 C64.3184,26.8842 64.3294,26.7182 64.3704,26.5622 C64.2254,26.1642 64.0664,25.7752 63.9084,25.3842 C63.7714,25.2952 63.6594,25.1662 63.5914,25.0032 C63.5234,24.8482 63.5224,24.6882 63.5494,24.5332 C63.3794,24.1462 63.2084,23.7582 63.0254,23.3782 C62.8784,23.2992 62.7524,23.1802 62.6704,23.0212 C62.5944,22.8682 62.5844,22.7082 62.6024,22.5522 C62.4034,22.1682 62.1984,21.7872 61.9864,21.4112 C61.8444,21.3412 61.7174,21.2382 61.6304,21.0892 C61.5454,20.9432 61.5254,20.7832 61.5344,20.6262 C61.3114,20.2542 61.0774,19.8892 60.8404,19.5262 C60.6944,19.4642 60.5594,19.3732 60.4624,19.2332 C60.3694,19.0922 60.3394,18.9322 60.3394,18.7732 C60.0954,18.4182 59.8484,18.0662 59.5904,17.7212 C59.4384,17.6692 59.2954,17.5902 59.1914,17.4522 C59.0874,17.3192 59.0464,17.1642 59.0334,17.0072 C58.7654,16.6662 58.4914,16.3282 58.2104,15.9972 C58.0604,15.9542 57.9164,15.8842 57.8064,15.7532 L57.7984,15.7532 C57.6884,15.6242 57.6384,15.4702 57.6174,15.3122 C57.3284,14.9892 57.0324,14.6752 56.7314,14.3642 C56.5774,14.3312 56.4284,14.2692 56.3094,14.1442 C56.1884,14.0232 56.1284,13.8712 56.0974,13.7162 C55.7924,13.4152 55.4834,13.1192 55.1684,12.8302 C55.0074,12.8092 54.8494,12.7552 54.7234,12.6402 C54.5954,12.5262 54.5254,12.3802 54.4834,12.2282 C54.1584,11.9442 53.8294,11.6662 53.4934,11.3952 C53.3344,11.3842 53.1774,11.3382 53.0394,11.2262 C52.9054,11.1222 52.8274,10.9822 52.7774,10.8322 C52.4374,10.5722 52.0894,10.3202 51.7394,10.0722 C51.5764,10.0712 51.4134,10.0262 51.2734,9.9312 C51.1324,9.8312 51.0454,9.6942 50.9854,9.5472 C50.6284,9.3082 50.2664,9.0762 49.9004,8.8502 C49.8854,8.8512 49.8734,8.8602 49.8584,8.8602 C49.7094,8.8602 49.5594,8.8232 49.4244,8.7412 C49.2824,8.6542 49.1874,8.5272 49.1174,8.3882 C48.7444,8.1712 48.3694,7.9582 47.9874,7.7552 C47.9544,7.7592 47.9234,7.7692 47.8904,7.7692 C47.7634,7.7692 47.6284,7.7382 47.5084,7.6782 C47.3594,7.6002 47.2564,7.4772 47.1774,7.3402 C46.7894,7.1472 46.3964,6.9622 46.0004,6.7822 C45.9544,6.7902 45.9094,6.8032 45.8624,6.8032 C45.7504,6.8032 45.6374,6.7802 45.5254,6.7352 C45.3654,6.6652 45.2524,6.5452 45.1654,6.4082 C44.7744,6.2442 44.3764,6.0912 43.9784,5.9402 C43.9124,5.9572 43.8444,5.9722 43.7734,5.9722 C43.6764,5.9722 43.5794,5.9572 43.4894,5.9192 C43.3304,5.8622 43.2124,5.7542 43.1174,5.6302 C42.7144,5.4892 42.3114,5.3522 41.9014,5.2262 C41.8164,5.2542 41.7264,5.2692 41.6344,5.2692 C41.5594,5.2692 41.4774,5.2612 41.4014,5.2382 C41.2414,5.1912 41.1174,5.0902 41.0154,4.9742 C40.6024,4.8592 40.1864,4.7512 39.7674,4.6512 C39.6704,4.6902 39.5694,4.7152 39.4634,4.7152 C39.4034,4.7152 39.3364,4.7072 39.2764,4.6932 C39.1114,4.6532 38.9794,4.5592 38.8684,4.4432 C38.4494,4.3562 38.0264,4.2822 37.6024,4.2092 C37.4944,4.2602 37.3784,4.2952 37.2554,4.2952 C37.2104,4.2952 37.1664,4.2882 37.1214,4.2802 C36.9534,4.2562 36.8154,4.1702 36.6984,4.0642 C36.2734,4.0022 35.8474,3.9462 35.4184,3.9012 C35.2984,3.9652 35.1674,4.0112 35.0254,4.0112 L34.9504,4.0112 C34.7844,3.9952 34.6434,3.9202 34.5204,3.8242 C34.0874,3.7902 33.6534,3.7592 33.2164,3.7402 C33.0884,3.8192 32.9474,3.8762 32.7884,3.8762 L32.7584,3.8762 C32.5914,3.8712 32.4484,3.8052 32.3204,3.7182 C32.1234,3.7142 31.9274,3.7022 31.7284,3.7022 C31.4834,3.7022 31.2424,3.7162 30.9994,3.7212 C30.8724,3.8072 30.7294,3.8712 30.5654,3.8762 L30.5354,3.8762 C30.3764,3.8762 30.2354,3.8202 30.1074,3.7432 C29.6714,3.7642 29.2394,3.7982 28.8074,3.8342 C28.6854,3.9292 28.5464,4.0022 28.3804,4.0192 C28.3504,4.0262 28.3274,4.0262 28.2974,4.0262 C28.1564,4.0262 28.0274,3.9812 27.9084,3.9172 C27.4794,3.9642 27.0524,4.0182 26.6284,4.0802 C26.5114,4.1892 26.3734,4.2762 26.2024,4.3032 C26.1574,4.3112 26.1124,4.3112 26.0674,4.3112 C25.9474,4.3112 25.8354,4.2782 25.7314,4.2322 C25.3054,4.3062 24.8804,4.3842 24.4604,4.4742 C24.3514,4.5882 24.2194,4.6842 24.0544,4.7222 C23.9944,4.7302 23.9274,4.7372 23.8674,4.7372 C23.7624,4.7372 23.6624,4.7152 23.5674,4.6802 C23.1474,4.7812 22.7314,4.8922 22.3174,5.0092 C22.2164,5.1272 22.0944,5.2282 21.9364,5.2762 C21.8544,5.2992 21.7714,5.3062 21.6964,5.3062 C21.6034,5.3062 21.5124,5.2902 21.4264,5.2622 C21.0214,5.3882 20.6234,5.5282 20.2254,5.6692 C20.1304,5.7952 20.0134,5.9042 19.8554,5.9652 C19.7584,5.9942 19.6614,6.0172 19.5634,6.0172 C19.4954,6.0172 19.4284,6.0022 19.3624,5.9852 C18.9654,6.1382 18.5684,6.2902 18.1794,6.4552 C18.0924,6.5912 17.9794,6.7102 17.8204,6.7802 C17.7084,6.8332 17.5964,6.8552 17.4834,6.8552 C17.4354,6.8552 17.3894,6.8422 17.3424,6.8342 C16.9504,7.0142 16.5614,7.1992 16.1764,7.3932 C16.0994,7.5282 15.9984,7.6522 15.8524,7.7312 C15.7254,7.7902 15.5894,7.8202 15.4624,7.8202 C15.4304,7.8202 15.3994,7.8112 15.3674,7.8082 C14.9864,8.0122 14.6134,8.2272 14.2414,8.4442 C14.1724,8.5852 14.0784,8.7152 13.9364,8.8012 C13.8014,8.8752 13.6514,8.9212 13.5014,8.9212 C13.4884,8.9212 13.4764,8.9112 13.4624,8.9102 C13.0994,9.1362 12.7374,9.3642 12.3834,9.6032 C12.3234,9.7522 12.2364,9.8912 12.0944,9.9902 C11.9554,10.0862 11.7864,10.1382 11.6234,10.1402 C11.2754,10.3872 10.9324,10.6402 10.5934,10.9002 C10.5434,11.0472 10.4664,11.1882 10.3364,11.2932 C10.1984,11.3992 10.0414,11.4492 9.8784,11.4622 C9.5434,11.7342 9.2174,12.0132 8.8934,12.2972 C8.8534,12.4482 8.7844,12.5942 8.6604,12.7072 C8.5294,12.8202 8.3744,12.8732 8.2184,12.8962 C7.9014,13.1882 7.5894,13.4852 7.2834,13.7882 C7.2524,13.9452 7.1924,14.0972 7.0734,14.2202 C7.0394,14.2532 6.9964,14.2702 6.9584,14.2972" id="Fill-159" fill="#FFFFFF"></path>
                <path d="M30.5653,3.8763 C30.7293,3.8713 30.8723,3.8073 30.9993,3.7213 C30.7023,3.7273 30.4033,3.7303 30.1073,3.7433 C30.2353,3.8203 30.3773,3.8763 30.5353,3.8763 L30.5653,3.8763 Z" id="Fill-161" fill="#FFFFFF"></path>
                <path d="M37.2557,4.2952 C37.3787,4.2952 37.4937,4.2602 37.6017,4.2092 C37.3017,4.1582 37.0017,4.1082 36.6977,4.0642 C36.8157,4.1702 36.9527,4.2562 37.1207,4.2802 C37.1657,4.2882 37.2107,4.2952 37.2557,4.2952" id="Fill-163" fill="#FFFFFF"></path>
                <path d="M39.2762,4.6927 C39.3362,4.7077 39.4032,4.7147 39.4632,4.7147 C39.5692,4.7147 39.6712,4.6897 39.7672,4.6517 C39.4682,4.5807 39.1702,4.5067 38.8682,4.4437 C38.9792,4.5587 39.1112,4.6537 39.2762,4.6927" id="Fill-165" fill="#FFFFFF"></path>
                <path d="M32.788,3.8763 C32.947,3.8763 33.089,3.8193 33.217,3.7403 C32.919,3.7283 32.62,3.7233 32.321,3.7183 C32.448,3.8053 32.592,3.8713 32.758,3.8763 L32.788,3.8763 Z" id="Fill-167" fill="#FFFFFF"></path>
                <path d="M35.0258,4.011 C35.1678,4.011 35.2978,3.965 35.4188,3.901 C35.1208,3.869 34.8198,3.849 34.5208,3.824 C34.6438,3.92 34.7838,3.995 34.9508,4.011 L35.0258,4.011 Z" id="Fill-169" fill="#FFFFFF"></path>
                <path d="M28.3802,4.0189 C28.5462,4.0019 28.6852,3.9289 28.8072,3.8339 C28.5072,3.8599 28.2072,3.8839 27.9082,3.9169 C28.0272,3.9809 28.1562,4.0269 28.2972,4.0269 C28.3272,4.0269 28.3502,4.0269 28.3802,4.0189" id="Fill-171" fill="#FFFFFF"></path>
                <path d="M43.4896,5.9192 C43.5796,5.9572 43.6766,5.9722 43.7736,5.9722 C43.8436,5.9722 43.9116,5.9572 43.9786,5.9402 C43.6936,5.8322 43.4066,5.7312 43.1176,5.6302 C43.2126,5.7542 43.3306,5.8622 43.4896,5.9192" id="Fill-173" fill="#FFFFFF"></path>
                <path d="M51.7391,10.0726 C51.4891,9.8956 51.2401,9.7176 50.9851,9.5476 C51.0451,9.6946 51.1331,9.8316 51.2731,9.9306 C51.4131,10.0266 51.5761,10.0716 51.7391,10.0726" id="Fill-175" fill="#FFFFFF"></path>
                <path d="M49.4242,8.7415 C49.5592,8.8235 49.7092,8.8605 49.8582,8.8605 C49.8732,8.8605 49.8852,8.8505 49.9002,8.8495 C49.6422,8.6915 49.3802,8.5405 49.1172,8.3875 C49.1872,8.5275 49.2822,8.6545 49.4242,8.7415" id="Fill-177" fill="#FFFFFF"></path>
                <path d="M45.5253,6.7356 C45.6373,6.7806 45.7503,6.8026 45.8623,6.8026 C45.9093,6.8026 45.9543,6.7906 46.0003,6.7826 C45.7223,6.6576 45.4473,6.5276 45.1653,6.4086 C45.2523,6.5456 45.3653,6.6656 45.5253,6.7356" id="Fill-179" fill="#FFFFFF"></path>
                <path d="M47.5087,7.678 C47.6287,7.739 47.7627,7.769 47.8897,7.769 C47.9237,7.769 47.9547,7.759 47.9877,7.755 C47.7197,7.613 47.4487,7.476 47.1777,7.34 C47.2567,7.477 47.3597,7.6 47.5087,7.678" id="Fill-181" fill="#FFFFFF"></path>
                <path d="M41.4017,5.2386 C41.4767,5.2606 41.5587,5.2686 41.6337,5.2686 C41.7267,5.2686 41.8167,5.2546 41.9017,5.2256 C41.6087,5.1356 41.3117,5.0556 41.0147,4.9736 C41.1177,5.0906 41.2407,5.1906 41.4017,5.2386" id="Fill-183" fill="#FFFFFF"></path>
                <path d="M53.493,11.3948 C53.257,11.2048 53.018,11.0168 52.777,10.8328 C52.827,10.9818 52.906,11.1228 53.039,11.2258 C53.178,11.3378 53.335,11.3838 53.493,11.3948" id="Fill-185" fill="#FFFFFF"></path>
                <path d="M13.9359,8.8011 C14.0789,8.7151 14.1729,8.5851 14.2409,8.4451 C13.9799,8.5981 13.7189,8.7511 13.4629,8.9101 C13.4769,8.9111 13.4879,8.9211 13.5019,8.9211 C13.6509,8.9211 13.8009,8.8751 13.9359,8.8011" id="Fill-187" fill="#FFFFFF"></path>
                <path d="M10.5936,10.8997 C10.3526,11.0847 10.1136,11.2707 9.8786,11.4617 C10.0406,11.4497 10.1976,11.3987 10.3366,11.2937 C10.4666,11.1877 10.5436,11.0467 10.5936,10.8997" id="Fill-189" fill="#FFFFFF"></path>
                <path d="M12.3832,9.6028 C12.1262,9.7768 11.8762,9.9588 11.6232,10.1398 C11.7862,10.1378 11.9552,10.0858 12.0942,9.9908 C12.2362,9.8908 12.3232,9.7518 12.3832,9.6028" id="Fill-191" fill="#FFFFFF"></path>
                <path d="M8.8934,12.2972 C8.6674,12.4942 8.4404,12.6922 8.2184,12.8962 C8.3744,12.8732 8.5294,12.8202 8.6604,12.7072 C8.7844,12.5942 8.8524,12.4482 8.8934,12.2972" id="Fill-193" fill="#FFFFFF"></path>
                <path d="M7.0731,14.22 C7.1931,14.097 7.2521,13.946 7.2831,13.788 C7.1441,13.926 7.0101,14.068 6.8731,14.208 L6.9581,14.297 C6.9961,14.27 7.0391,14.253 7.0731,14.22" id="Fill-195" fill="#FFFFFF"></path>
                <path d="M15.8519,7.7308 C15.9979,7.6528 16.0999,7.5288 16.1769,7.3928 C15.9059,7.5288 15.6349,7.6648 15.3679,7.8078 C15.3989,7.8108 15.4299,7.8208 15.4629,7.8208 C15.5899,7.8208 15.7249,7.7908 15.8519,7.7308" id="Fill-197" fill="#FFFFFF"></path>
                <path d="M24.0546,4.722 C24.2196,4.684 24.3506,4.588 24.4606,4.474 C24.1606,4.537 23.8646,4.609 23.5676,4.68 C23.6616,4.715 23.7626,4.738 23.8676,4.738 C23.9276,4.738 23.9946,4.73 24.0546,4.722" id="Fill-199" fill="#FFFFFF"></path>
                <path d="M21.9364,5.2757 C22.0944,5.2277 22.2164,5.1277 22.3174,5.0087 C22.0204,5.0917 21.7204,5.1717 21.4264,5.2617 C21.5124,5.2907 21.6034,5.3057 21.6964,5.3057 C21.7714,5.3057 21.8534,5.2987 21.9364,5.2757" id="Fill-201" fill="#FFFFFF"></path>
                <path d="M26.2025,4.303 C26.3735,4.276 26.5115,4.189 26.6285,4.08 C26.3275,4.125 26.0295,4.179 25.7315,4.232 C25.8355,4.279 25.9475,4.311 26.0675,4.311 C26.1125,4.311 26.1575,4.311 26.2025,4.303" id="Fill-203" fill="#FFFFFF"></path>
                <path d="M19.8558,5.9651 C20.0138,5.9041 20.1308,5.7951 20.2248,5.6691 C19.9358,5.7711 19.6478,5.8761 19.3618,5.9861 C19.4278,6.0021 19.4948,6.0171 19.5638,6.0171 C19.6618,6.0171 19.7588,5.9941 19.8558,5.9651" id="Fill-205" fill="#FFFFFF"></path>
                <path d="M17.8202,6.7806 C17.9792,6.7106 18.0922,6.5916 18.1792,6.4556 C17.8972,6.5756 17.6202,6.7076 17.3422,6.8346 C17.3892,6.8426 17.4352,6.8546 17.4832,6.8546 C17.5962,6.8546 17.7082,6.8336 17.8202,6.7806" id="Fill-207" fill="#FFFFFF"></path>
                <path d="M63.5917,25.0032 C63.6597,25.1662 63.7717,25.2952 63.9077,25.3842 C63.7917,25.0992 63.6727,24.8152 63.5497,24.5332 C63.5227,24.6882 63.5237,24.8482 63.5917,25.0032" id="Fill-209" fill="#FFFFFF"></path>
                <path d="M66.4574,38.2435 C66.4564,37.9415 66.4434,37.6425 66.4344,37.3435 C66.3504,37.4755 66.2904,37.6255 66.2924,37.7935 C66.2984,37.9645 66.3664,38.1125 66.4574,38.2435" id="Fill-211" fill="#FFFFFF"></path>
                <path d="M64.0629,50.681 C64.0029,50.838 64.0089,50.998 64.0419,51.151 C64.1529,50.869 64.2679,50.591 64.3719,50.306 C64.2399,50.399 64.1249,50.518 64.0629,50.681" id="Fill-213" fill="#FFFFFF"></path>
                <path d="M64.7743,48.6077 C64.7243,48.7697 64.7413,48.9317 64.7863,49.0847 C64.8783,48.7977 64.9653,48.5087 65.0503,48.2197 C64.9293,48.3207 64.8253,48.4447 64.7743,48.6077" id="Fill-215" fill="#FFFFFF"></path>
                <path d="M65.3573,46.4896 C65.3153,46.6576 65.3423,46.8196 65.3983,46.9706 C65.4723,46.6796 65.5363,46.3846 65.6023,46.0896 C65.4893,46.1976 65.3953,46.3276 65.3573,46.4896" id="Fill-217" fill="#FFFFFF"></path>
                <path d="M66.2001,42.6312 C66.2361,42.3332 66.2731,42.0372 66.3021,41.7372 C66.2001,41.8602 66.1221,42.0012 66.1061,42.1712 C66.0871,42.3392 66.1311,42.4912 66.2001,42.6312" id="Fill-219" fill="#FFFFFF"></path>
                <path d="M66.4003,40.4446 C66.4173,40.1466 66.4243,39.8456 66.4343,39.5466 C66.3433,39.6736 66.2763,39.8186 66.2713,39.9866 C66.2623,40.1566 66.3183,40.3086 66.4003,40.4446" id="Fill-221" fill="#FFFFFF"></path>
                <path d="M65.8666,44.8089 C65.9216,44.5129 65.9776,44.2179 66.0256,43.9199 C65.9156,44.0369 65.8266,44.1729 65.7996,44.3419 C65.7696,44.5079 65.8046,44.6639 65.8666,44.8089" id="Fill-223" fill="#FFFFFF"></path>
                <path d="M55.1683,12.8304 C54.9443,12.6244 54.7123,12.4274 54.4833,12.2274 C54.5253,12.3804 54.5953,12.5254 54.7233,12.6404 C54.8493,12.7554 55.0073,12.8094 55.1683,12.8304" id="Fill-225" fill="#FFFFFF"></path>
                <path d="M58.4462,60.6038 C58.6382,60.3728 58.8222,60.1338 59.0082,59.8978 C58.8602,59.9468 58.7192,60.0228 58.6142,60.1558 C58.5072,60.2878 58.4612,60.4448 58.4462,60.6038" id="Fill-227" fill="#FFFFFF"></path>
                <path d="M61.1512,56.5774 C61.0622,56.7214 61.0372,56.8784 61.0412,57.0344 C61.2032,56.7794 61.3662,56.5264 61.5222,56.2674 C61.3772,56.3354 61.2422,56.4314 61.1512,56.5774" id="Fill-229" fill="#FFFFFF"></path>
                <path d="M63.2172,52.7083 C63.1492,52.8623 63.1442,53.0233 63.1682,53.1803 C63.2962,52.9083 63.4192,52.6343 63.5412,52.3583 C63.4072,52.4433 63.2882,52.5533 63.2172,52.7083" id="Fill-231" fill="#FFFFFF"></path>
                <path d="M62.2445,54.6771 C62.1635,54.8261 62.1505,54.9891 62.1665,55.1491 C62.3115,54.8851 62.4485,54.6161 62.5875,54.3491 C62.4485,54.4251 62.3235,54.5271 62.2445,54.6771" id="Fill-233" fill="#FFFFFF"></path>
                <path d="M59.8002,58.8577 C59.9782,58.6137 60.1542,58.3677 60.3262,58.1187 C60.1772,58.1767 60.0382,58.2627 59.9402,58.4047 C59.8422,58.5437 59.8062,58.7007 59.8002,58.8577" id="Fill-235" fill="#FFFFFF"></path>
                <path d="M59.5907,17.721 C59.4097,17.479 59.2197,17.244 59.0337,17.007 C59.0467,17.164 59.0877,17.32 59.1917,17.452 C59.2957,17.59 59.4387,17.669 59.5907,17.721" id="Fill-237" fill="#FFFFFF"></path>
                <path d="M62.6708,23.0208 C62.7528,23.1798 62.8788,23.2988 63.0248,23.3778 C62.8908,23.0988 62.7438,22.8278 62.6018,22.5518 C62.5848,22.7088 62.5948,22.8688 62.6708,23.0208" id="Fill-239" fill="#FFFFFF"></path>
                <path d="M61.6307,21.0892 C61.7177,21.2382 61.8437,21.3412 61.9857,21.4112 C61.8377,21.1482 61.6897,20.8852 61.5337,20.6262 C61.5257,20.7832 61.5457,20.9432 61.6307,21.0892" id="Fill-241" fill="#FFFFFF"></path>
                <path d="M60.4628,19.2327 C60.5588,19.3737 60.6938,19.4637 60.8408,19.5267 C60.6758,19.2737 60.5108,19.0207 60.3388,18.7727 C60.3388,18.9317 60.3688,19.0917 60.4628,19.2327" id="Fill-243" fill="#FFFFFF"></path>
                <path d="M57.806,15.7532 C57.916,15.8842 58.06,15.9542 58.21,15.9972 C58.015,15.7672 57.818,15.5372 57.617,15.3122 C57.639,15.4702 57.689,15.6242 57.799,15.7532 L57.806,15.7532 Z" id="Fill-245" fill="#FFFFFF"></path>
                <path d="M56.7318,14.3646 C56.5228,14.1466 56.3128,13.9276 56.0978,13.7166 C56.1278,13.8716 56.1888,14.0226 56.3098,14.1436 C56.4288,14.2686 56.5778,14.3316 56.7318,14.3646" id="Fill-247" fill="#FFFFFF"></path>
                <path d="M64.3773,27.0462 C64.4333,27.2072 64.5383,27.3372 64.6663,27.4342 C64.5683,27.1432 64.4753,26.8492 64.3703,26.5622 C64.3293,26.7182 64.3183,26.8842 64.3773,27.0462" id="Fill-249" fill="#FFFFFF"></path>
                <path d="M56.9828,62.2454 C57.1898,62.0264 57.3968,61.8074 57.5978,61.5824 C57.4428,61.6214 57.2938,61.6884 57.1778,61.8164 C57.0628,61.9394 57.0088,62.0914 56.9828,62.2454" id="Fill-251" fill="#FFFFFF"></path>
                <path d="M55.4213,63.8021 C55.6423,63.5951 55.8623,63.3881 56.0773,63.1761 C55.9213,63.2041 55.7683,63.2621 55.6443,63.3801 C55.5203,63.4981 55.4563,63.6481 55.4213,63.8021" id="Fill-253" fill="#FFFFFF"></path>
                <path d="M65.5526,31.2669 C65.5906,31.4379 65.6826,31.5789 65.7996,31.6909 C65.7396,31.3899 65.6726,31.0929 65.6046,30.7949 C65.5476,30.9419 65.5166,31.0999 65.5526,31.2669" id="Fill-255" fill="#FFFFFF"></path>
                <path d="M65.036,29.1419 C65.083,29.3069 65.182,29.4439 65.305,29.5479 C65.227,29.2539 65.141,28.9629 65.055,28.6709 C65.009,28.8209 64.99,28.9799 65.036,29.1419" id="Fill-257" fill="#FFFFFF"></path>
                <path d="M66.37,36.0364 C66.349,35.7364 66.33,35.4354 66.302,35.1374 C66.225,35.2764 66.175,35.4304 66.188,35.5994 C66.203,35.7674 66.275,35.9124 66.37,36.0364" id="Fill-259" fill="#FFFFFF"></path>
                <path d="M66.1503,33.8509 C66.1103,33.5509 66.0723,33.2499 66.0253,32.9529 C65.9573,33.0959 65.9163,33.2539 65.9413,33.4219 C65.9653,33.5899 66.0463,33.7319 66.1503,33.8509" id="Fill-261" fill="#FFFFFF"></path>
                <path d="M13.0458,67.5189 C12.9028,67.4259 12.7428,67.3979 12.5838,67.3989 C12.8338,67.5639 13.0868,67.7249 13.3398,67.8839 C13.2758,67.7429 13.1858,67.6109 13.0458,67.5189" id="Fill-263" fill="#FFFFFF"></path>
                <path d="M10.7826,66.1224 C11.0216,66.3034 11.2666,66.4774 11.5106,66.6524 C11.4556,66.5074 11.3746,66.3694 11.2416,66.2694 C11.1036,66.1674 10.9436,66.1294 10.7826,66.1224" id="Fill-265" fill="#FFFFFF"></path>
                <path d="M9.5209,64.9144 C9.3909,64.8064 9.2369,64.7584 9.0809,64.7384 C9.3079,64.9344 9.5329,65.1324 9.7649,65.3214 C9.7189,65.1694 9.6449,65.0244 9.5129,64.9144 L9.5209,64.9144 Z" id="Fill-267" fill="#FFFFFF"></path>
                <path d="M14.9237,68.6487 C14.7787,68.5687 14.6227,68.5507 14.4687,68.5587 C14.7297,68.7097 14.9877,68.8627 15.2527,69.0057 C15.1787,68.8637 15.0777,68.7327 14.9237,68.6487" id="Fill-269" fill="#FFFFFF"></path>
                <path d="M20.9481,71.2913 C20.7901,71.2403 20.6331,71.2523 20.4821,71.2913 C20.7661,71.3893 21.0491,71.4903 21.3361,71.5803 C21.2371,71.4533 21.1131,71.3443 20.9481,71.2913" id="Fill-271" fill="#FFFFFF"></path>
                <path d="M16.8773,69.6517 L16.8773,69.6597 C16.7243,69.5867 16.5623,69.5777 16.4053,69.5967 C16.6743,69.7307 16.9473,69.8577 17.2213,69.9837 C17.1383,69.8477 17.0313,69.7257 16.8773,69.6517" id="Fill-273" fill="#FFFFFF"></path>
                <path d="M18.8827,70.5355 C18.7247,70.4725 18.5607,70.4745 18.4037,70.5085 C18.6817,70.6245 18.9637,70.7315 19.2447,70.8415 C19.1537,70.7135 19.0397,70.5995 18.8827,70.5355" id="Fill-275" fill="#FFFFFF"></path>
                <path d="M2.3583,56.6673 C2.2673,56.5213 2.1333,56.4273 1.9883,56.3603 L1.9873,56.3603 C2.1433,56.6183 2.3093,56.8683 2.4713,57.1213 C2.4733,56.9653 2.4473,56.8083 2.3583,56.6673" id="Fill-277" fill="#FFFFFF"></path>
                <path d="M23.0516,71.9046 L23.0516,71.9126 C22.8896,71.8696 22.7306,71.8906 22.5816,71.9396 C22.8706,72.0176 23.1596,72.0936 23.4506,72.1656 C23.3446,72.0486 23.2166,71.9486 23.0516,71.9046" id="Fill-279" fill="#FFFFFF"></path>
                <path d="M3.1942,58.2083 C3.3662,58.4553 3.5402,58.7013 3.7182,58.9443 C3.7132,58.7853 3.6772,58.6263 3.5782,58.4853 C3.4802,58.3503 3.3412,58.2653 3.1942,58.2083" id="Fill-281" fill="#FFFFFF"></path>
                <path d="M7.4545,63.2483 C7.6685,63.4583 7.8865,63.6653 8.1065,63.8693 C8.0705,63.7153 8.0055,63.5653 7.8815,63.4473 C7.7595,63.3333 7.6085,63.2763 7.4545,63.2483" id="Fill-283" fill="#FFFFFF"></path>
                <path d="M53.765,65.264 C53.999,65.072 54.224,64.869 54.453,64.671 C54.298,64.692 54.147,64.74 54.02,64.847 C53.885,64.959 53.81,65.108 53.765,65.264" id="Fill-285" fill="#FFFFFF"></path>
                <path d="M4.9032,60.2298 C4.7982,60.0998 4.6582,60.0258 4.5112,59.9778 C4.6982,60.2138 4.8852,60.4518 5.0792,60.6838 C5.0652,60.5228 5.0192,60.3648 4.9102,60.2298 L4.9032,60.2298 Z" id="Fill-287" fill="#FFFFFF"></path>
                <path d="M6.3402,61.8909 C6.2252,61.7649 6.0772,61.6979 5.9232,61.6589 C6.1252,61.8819 6.3342,62.0989 6.5422,62.3179 C6.5162,62.1629 6.4622,62.0129 6.3472,61.8909 L6.3402,61.8909 Z" id="Fill-289" fill="#FFFFFF"></path>
                <path d="M52.0262,66.596 C52.2702,66.419 52.5132,66.242 52.7532,66.06 C52.5942,66.069 52.4362,66.108 52.2982,66.209 C52.1622,66.311 52.0802,66.449 52.0262,66.596" id="Fill-291" fill="#FFFFFF"></path>
                <path d="M46.6859,69.6077 C46.5339,69.6807 46.4269,69.7997 46.3439,69.9337 C46.6159,69.8077 46.8859,69.6777 47.1539,69.5447 C46.9979,69.5247 46.8359,69.5337 46.6859,69.6077" id="Fill-293" fill="#FFFFFF"></path>
                <path d="M44.6796,70.4974 C44.5226,70.5594 44.4096,70.6714 44.3206,70.7984 C44.6016,70.6874 44.8846,70.5824 45.1616,70.4654 C45.0036,70.4334 44.8386,70.4314 44.6796,70.4974" id="Fill-295" fill="#FFFFFF"></path>
                <path d="M42.6288,71.2542 C42.4658,71.3062 42.3438,71.4132 42.2458,71.5382 C42.5318,71.4472 42.8138,71.3482 43.0968,71.2492 C42.9458,71.2112 42.7878,71.2002 42.6288,71.2542" id="Fill-297" fill="#FFFFFF"></path>
                <path d="M40.5262,71.8753 C40.3612,71.9193 40.2332,72.0193 40.1272,72.1383 C40.4202,72.0643 40.7102,71.9833 41.0002,71.9033 C40.8502,71.8543 40.6902,71.8313 40.5262,71.8753" id="Fill-299" fill="#FFFFFF"></path>
                <path d="M48.6239,68.597 C48.4739,68.68 48.3739,68.811 48.3009,68.954 C48.5669,68.81 48.8249,68.654 49.0869,68.502 C48.9299,68.493 48.7699,68.513 48.6239,68.597" id="Fill-301" fill="#FFFFFF"></path>
                <path d="M50.495,67.4593 C50.352,67.5523 50.263,67.6863 50.2,67.8303 C50.456,67.6683 50.714,67.5073 50.966,67.3383 C50.804,67.3363 50.641,67.3643 50.495,67.4593" id="Fill-303" fill="#FFFFFF"></path>
                <path d="M37.9857,72.595 C38.2787,72.541 38.5737,72.491 38.8647,72.43 C38.7187,72.369 38.5607,72.335 38.3937,72.368 C38.2307,72.401 38.0977,72.489 37.9857,72.595" id="Fill-305" fill="#FFFFFF"></path>
                <path d="M31.785,73.012 L31.725,73.012 C31.557,73.012 31.41,73.074 31.279,73.158 C31.429,73.16 31.577,73.17 31.728,73.17 C31.919,73.17 32.107,73.158 32.297,73.156 C32.165,73.073 32.019,73.012 31.852,73.012 L31.785,73.012 Z" id="Fill-307" fill="#FFFFFF"></path>
                <path d="M29.0863,73.0599 C29.3843,73.0819 29.6813,73.1109 29.9823,73.1259 C29.8533,73.0279 29.7053,72.9539 29.5323,72.9449 C29.3693,72.9349 29.2213,72.9859 29.0863,73.0599" id="Fill-309" fill="#FFFFFF"></path>
                <path d="M26.8885,72.8255 C27.1835,72.8675 27.4805,72.9055 27.7785,72.9385 C27.6595,72.8375 27.5205,72.7575 27.3545,72.7355 C27.1855,72.7135 27.0305,72.7575 26.8885,72.8255" id="Fill-311" fill="#FFFFFF"></path>
                <path d="M35.8046,72.9231 C36.1016,72.8881 36.3986,72.8521 36.6936,72.8101 C36.5516,72.7411 36.3966,72.6981 36.2306,72.7211 C36.0626,72.7421 35.9246,72.8221 35.8046,72.9231" id="Fill-313" fill="#FFFFFF"></path>
                <path d="M24.7079,72.4564 C25.0029,72.5184 25.3029,72.5644 25.6009,72.6174 C25.4879,72.5114 25.3549,72.4234 25.1919,72.3914 C25.0199,72.3574 24.8569,72.3934 24.7079,72.4564" id="Fill-315" fill="#FFFFFF"></path>
                <path d="M33.5995,73.1185 C33.9005,73.1015 34.1975,73.0735 34.4965,73.0505 C34.3605,72.9765 34.2105,72.9275 34.0445,72.9375 C33.8735,72.9485 33.7265,73.0215 33.5995,73.1185" id="Fill-317" fill="#FFFFFF"></path>
                <g id="Group-321" transform="translate(0.000000, 0.872900)">
                    <mask id="mask-2" fill="white">
                        <use xlink:href="#path-1"></use>
                    </mask>
                    <g id="Clip-320"></g>
                    <path d="M31.7284,0.1274 C21.2674,0.1274 11.7994,4.4454 4.9994,11.3874 L5.8264,12.2464 C5.8454,12.2234 5.8534,12.1934 5.8754,12.1714 L5.8754,12.1644 C5.9364,12.1034 6.0084,12.0654 6.0794,12.0264 C6.5084,11.5964 6.9464,11.1754 7.3964,10.7664 C7.4374,10.6994 7.4764,10.6324 7.5374,10.5774 C7.6074,10.5144 7.6894,10.4754 7.7724,10.4404 C8.2064,10.0564 8.6484,9.6834 9.1014,9.3204 C9.1504,9.2374 9.2094,9.1594 9.2884,9.0954 C9.3714,9.0304 9.4634,8.9894 9.5584,8.9604 C10.0084,8.6104 10.4674,8.2724 10.9344,7.9424 C10.9894,7.8644 11.0534,7.7914 11.1374,7.7334 C11.2084,7.6854 11.2884,7.6594 11.3674,7.6354 C11.8644,7.2954 12.3694,6.9674 12.8834,6.6524 C12.9384,6.5914 12.9934,6.5284 13.0674,6.4834 C13.1514,6.4334 13.2424,6.4074 13.3334,6.3894 C13.8354,6.0914 14.3464,5.8054 14.8644,5.5314 C14.9254,5.4674 14.9914,5.4044 15.0734,5.3614 C15.1604,5.3164 15.2524,5.2984 15.3444,5.2854 C15.8624,5.0214 16.3874,4.7704 16.9184,4.5304 C16.9864,4.4694 17.0584,4.4104 17.1464,4.3734 C17.2254,4.3364 17.3094,4.3264 17.3914,4.3154 C17.9404,4.0784 18.4964,3.8544 19.0594,3.6434 C19.1244,3.5924 19.1904,3.5414 19.2714,3.5124 C19.3554,3.4814 19.4414,3.4754 19.5264,3.4714 C20.0874,3.2704 20.6544,3.0824 21.2274,2.9084 C21.2974,2.8604 21.3704,2.8134 21.4574,2.7864 C21.5564,2.7564 21.6554,2.7524 21.7534,2.7594 C22.3004,2.6024 22.8534,2.4574 23.4114,2.3254 C23.4924,2.2724 23.5804,2.2264 23.6804,2.2024 C23.7744,2.1824 23.8674,2.1874 23.9594,2.1984 C24.5274,2.0734 25.1014,1.9634 25.6794,1.8654 C25.7604,1.8224 25.8444,1.7834 25.9394,1.7694 C26.0194,1.7554 26.0944,1.7694 26.1704,1.7774 C26.7764,1.6844 27.3874,1.6054 28.0024,1.5414 C28.0714,1.5154 28.1384,1.4844 28.2154,1.4774 C28.3064,1.4684 28.3934,1.4844 28.4784,1.5034 C29.0664,1.4504 29.6594,1.4114 30.2554,1.3884 C30.3374,1.3574 30.4214,1.3304 30.5134,1.3274 C30.6124,1.3234 30.7054,1.3464 30.7954,1.3744 C31.1064,1.3664 31.4154,1.3514 31.7284,1.3514 C31.9914,1.3514 32.2494,1.3644 32.5114,1.3704 C32.6054,1.3374 32.7054,1.3164 32.8104,1.3194 C32.9094,1.3224 33.0004,1.3514 33.0874,1.3854 C33.6694,1.4064 34.2474,1.4424 34.8214,1.4914 C34.9114,1.4694 35.0044,1.4534 35.1024,1.4624 C35.1014,1.4624 35.1014,1.4614 35.1004,1.4614 L35.1074,1.4614 C35.1054,1.4614 35.1034,1.4624 35.1024,1.4624 C35.1844,1.4704 35.2564,1.5014 35.3304,1.5304 C35.9364,1.5914 36.5404,1.6664 37.1374,1.7564 C37.2184,1.7454 37.2984,1.7324 37.3824,1.7464 C37.4754,1.7614 37.5554,1.7994 37.6344,1.8404 C38.2164,1.9364 38.7954,2.0454 39.3684,2.1694 C39.4584,2.1584 39.5504,2.1524 39.6434,2.1724 C39.7444,2.1954 39.8334,2.2414 39.9164,2.2954 C40.4784,2.4264 41.0364,2.5694 41.5894,2.7264 C41.6824,2.7214 41.7774,2.7224 41.8734,2.7494 C41.9634,2.7754 42.0414,2.8234 42.1144,2.8764 C42.6864,3.0474 43.2514,3.2314 43.8104,3.4314 C43.8934,3.4344 43.9764,3.4384 44.0584,3.4684 C44.1324,3.4944 44.1914,3.5414 44.2524,3.5854 C44.8294,3.7994 45.3974,4.0274 45.9594,4.2694 C46.0404,4.2784 46.1214,4.2864 46.1994,4.3204 C46.2874,4.3594 46.3594,4.4184 46.4264,4.4804 C46.9614,4.7184 47.4894,4.9694 48.0104,5.2324 C48.1024,5.2454 48.1934,5.2654 48.2794,5.3094 C48.3664,5.3534 48.4364,5.4164 48.4994,5.4834 C49.0174,5.7554 49.5264,6.0384 50.0284,6.3344 C50.1184,6.3524 50.2084,6.3754 50.2924,6.4244 C50.3654,6.4684 50.4194,6.5294 50.4744,6.5904 C50.9914,6.9044 51.4994,7.2314 51.9984,7.5704 C52.0754,7.5944 52.1534,7.6174 52.2234,7.6654 C52.3024,7.7224 52.3614,7.7934 52.4154,7.8674 C52.8974,8.2034 53.3704,8.5514 53.8334,8.9104 C53.9194,8.9404 54.0044,8.9764 54.0794,9.0354 C54.1554,9.0944 54.2084,9.1684 54.2584,9.2434 C54.7154,9.6074 55.1634,9.9834 55.6024,10.3694 C55.6854,10.4044 55.7674,10.4454 55.8384,10.5104 C55.9004,10.5644 55.9394,10.6324 55.9814,10.6974 C56.4354,11.1074 56.8794,11.5264 57.3114,11.9584 C57.3794,11.9964 57.4494,12.0304 57.5074,12.0894 C57.5774,12.1594 57.6244,12.2424 57.6644,12.3274 C58.0744,12.7484 58.4734,13.1794 58.8614,13.6194 C58.9364,13.6644 59.0114,13.7114 59.0714,13.7804 C59.1324,13.8514 59.1694,13.9324 59.2034,14.0144 C59.5854,14.4584 59.9564,14.9124 60.3164,15.3754 C60.3914,15.4244 60.4644,15.4794 60.5224,15.5544 L60.5224,15.5624 C60.5724,15.6254 60.5974,15.6974 60.6254,15.7684 C60.9934,16.2544 61.3504,16.7494 61.6934,17.2544 C61.7544,17.3064 61.8164,17.3554 61.8624,17.4254 C61.9154,17.5014 61.9414,17.5854 61.9654,17.6704 C62.2904,18.1624 62.6034,18.6634 62.9044,19.1724 C62.9714,19.2304 63.0354,19.2914 63.0824,19.3704 C63.1304,19.4544 63.1534,19.5444 63.1704,19.6344 C63.4604,20.1404 63.7374,20.6524 64.0024,21.1734 C64.0684,21.2364 64.1314,21.3064 64.1744,21.3924 C64.2144,21.4724 64.2284,21.5564 64.2424,21.6394 C64.5064,22.1764 64.7584,22.7214 64.9964,23.2734 C65.0504,23.3364 65.1054,23.3994 65.1404,23.4804 C65.1764,23.5644 65.1864,23.6524 65.1924,23.7394 C65.4194,24.2874 65.6334,24.8414 65.8334,25.4004 C65.8834,25.4684 65.9344,25.5364 65.9634,25.6194 C65.9954,25.7114 66.0004,25.8034 66.0004,25.8954 C66.1894,26.4464 66.3644,27.0034 66.5264,27.5664 C66.5784,27.6424 66.6264,27.7204 66.6524,27.8134 C66.6784,27.9034 66.6774,27.9934 66.6734,28.0824 C66.8274,28.6514 66.9684,29.2274 67.0954,29.8074 C67.1384,29.8804 67.1794,29.9554 67.1984,30.0424 L67.1984,30.0504 C67.2134,30.1214 67.2044,30.1914 67.2014,30.2624 C67.3264,30.8704 67.4354,31.4844 67.5284,32.1044 C67.5574,32.1704 67.5914,32.2344 67.6024,32.3114 C67.6164,32.4004 67.6034,32.4884 67.5884,32.5744 C67.6694,33.1544 67.7364,33.7374 67.7884,34.3264 C67.8254,34.4094 67.8574,34.4964 67.8654,34.5934 C67.8734,34.6924 67.8554,34.7874 67.8314,34.8794 C67.8734,35.4544 67.9014,36.0334 67.9164,36.6154 C67.9484,36.7024 67.9754,36.7934 67.9764,36.8914 C67.9784,36.9814 67.9554,37.0634 67.9304,37.1454 C67.9324,37.2844 67.9404,37.4234 67.9404,37.5644 C67.9404,38.0204 67.9234,38.4714 67.9064,38.9234 C67.9304,39.0084 67.9514,39.0944 67.9464,39.1884 C67.9424,39.2644 67.9164,39.3324 67.8944,39.4014 C67.8634,40.0224 67.8164,40.6374 67.7544,41.2484 C67.7674,41.3234 67.7844,41.3984 67.7744,41.4784 C67.7644,41.5814 67.7324,41.6774 67.6894,41.7644 C67.6224,42.3454 67.5414,42.9214 67.4474,43.4934 C67.4594,43.5804 67.4694,43.6684 67.4534,43.7614 C67.4364,43.8634 67.3994,43.9584 67.3484,44.0434 C67.2464,44.6094 67.1304,45.1714 67.0014,45.7294 C67.0094,45.8194 67.0124,45.9124 66.9894,46.0064 C66.9664,46.1054 66.9264,46.1944 66.8744,46.2744 C66.7324,46.8494 66.5764,47.4174 66.4064,47.9814 C66.4064,48.0634 66.4074,48.1454 66.3824,48.2284 C66.3544,48.3194 66.3114,48.4024 66.2574,48.4764 C66.0764,49.0474 65.8814,49.6114 65.6734,50.1694 C65.6674,50.2484 65.6644,50.3284 65.6344,50.4064 C65.5984,50.5004 65.5444,50.5814 65.4824,50.6534 C65.2714,51.1954 65.0484,51.7314 64.8124,52.2604 C64.8044,52.3514 64.7904,52.4424 64.7514,52.5314 C64.7094,52.6224 64.6494,52.6984 64.5834,52.7664 C64.3384,53.2934 64.0814,53.8144 63.8114,54.3264 C63.7974,54.4164 63.7784,54.5054 63.7334,54.5894 C63.6894,54.6694 63.6334,54.7364 63.5714,54.7964 C63.2804,55.3304 62.9764,55.8564 62.6604,56.3744 C62.6394,56.4464 62.6234,56.5204 62.5814,56.5874 C62.5444,56.6474 62.4834,56.6784 62.4354,56.7254 C62.1084,57.2474 61.7684,57.7594 61.4154,58.2634 C61.3904,58.3464 61.3614,58.4294 61.3094,58.5044 C61.2644,58.5674 61.1994,58.6014 61.1424,58.6484 C60.7904,59.1384 60.4264,59.6184 60.0504,60.0904 C60.0204,60.1774 59.9834,60.2624 59.9244,60.3374 C59.8734,60.3994 59.8074,60.4334 59.7464,60.4774 C59.3574,60.9514 58.9574,61.4184 58.5454,61.8724 C58.5104,61.9444 58.4774,62.0184 58.4204,62.0804 C58.3594,62.1484 58.2824,62.1894 58.2064,62.2314 C57.8024,62.6634 57.3894,63.0864 56.9644,63.4984 C56.9234,63.5774 56.8784,63.6544 56.8114,63.7204 C56.7404,63.7864 56.6594,63.8314 56.5764,63.8684 C56.1554,64.2674 55.7244,64.6554 55.2844,65.0334 C55.2374,65.1164 55.1814,65.1964 55.1044,65.2614 C55.0304,65.3254 54.9464,65.3704 54.8584,65.4024 C54.3984,65.7854 53.9294,66.1574 53.4504,66.5184 C53.4054,66.5764 53.3634,66.6374 53.3014,66.6844 C53.2214,66.7434 53.1324,66.7864 53.0404,66.8154 C52.5724,67.1574 52.0954,67.4884 51.6104,67.8094 C51.5544,67.8794 51.4944,67.9484 51.4154,68.0004 C51.3284,68.0554 51.2354,68.0884 51.1414,68.1094 C50.6514,68.4224 50.1534,68.7234 49.6474,69.0124 C49.5884,69.0754 49.5274,69.1394 49.4464,69.1834 C49.3664,69.2314 49.2794,69.2574 49.1904,69.2744 C48.6694,69.5634 48.1414,69.8394 47.6044,70.1024 C47.5454,70.1554 47.4874,70.2104 47.4114,70.2454 C47.3414,70.2804 47.2684,70.2834 47.1964,70.2984 C46.6484,70.5584 46.0924,70.8044 45.5304,71.0364 C45.4654,71.0924 45.3984,71.1474 45.3164,71.1814 L45.3084,71.1814 C45.2224,71.2154 45.1244,71.2304 45.0304,71.2334 C44.4954,71.4464 43.9544,71.6464 43.4074,71.8324 C43.3334,71.8904 43.2544,71.9424 43.1614,71.9754 C43.0714,72.0054 42.9804,72.0204 42.8914,72.0204 C42.8834,72.0204 42.8754,72.0164 42.8684,72.0164 C42.3164,72.1944 41.7594,72.3594 41.1974,72.5124 C41.1224,72.5624 41.0444,72.6084 40.9534,72.6334 L40.9534,72.6264 C40.8854,72.6484 40.8104,72.6554 40.7434,72.6554 C40.7294,72.6554 40.7164,72.6494 40.7024,72.6494 C40.1144,72.8004 39.5204,72.9354 38.9224,73.0564 C38.8554,73.0894 38.7914,73.1274 38.7154,73.1424 C38.6624,73.1574 38.6024,73.1644 38.5504,73.1644 C38.5104,73.1644 38.4734,73.1494 38.4344,73.1444 C37.8644,73.2514 37.2904,73.3454 36.7114,73.4254 C36.6294,73.4674 36.5434,73.5034 36.4474,73.5164 C36.4104,73.5164 36.3734,73.5234 36.3354,73.5234 C36.2794,73.5234 36.2284,73.5044 36.1744,73.4934 C35.5994,73.5654 35.0204,73.6214 34.4374,73.6644 C34.3504,73.7024 34.2584,73.7334 34.1574,73.7404 L34.1044,73.7404 C34.0384,73.7404 33.9774,73.7194 33.9144,73.7044 C33.3214,73.7394 32.7254,73.7604 32.1254,73.7664 C32.0404,73.7964 31.9544,73.8214 31.8594,73.8234 C31.8374,73.8234 31.8154,73.8154 31.7924,73.8154 C31.7704,73.8154 31.7484,73.8234 31.7254,73.8234 C31.6324,73.8234 31.5474,73.7984 31.4644,73.7704 C30.8614,73.7654 30.2614,73.7474 29.6654,73.7144 C29.6064,73.7274 29.5494,73.7484 29.4874,73.7484 L29.4354,73.7484 C29.3344,73.7424 29.2444,73.7114 29.1574,73.6754 C28.5704,73.6344 27.9874,73.5794 27.4094,73.5104 C27.3554,73.5204 27.3054,73.5384 27.2494,73.5384 C27.2124,73.5384 27.1754,73.5384 27.1454,73.5314 C27.0484,73.5194 26.9634,73.4824 26.8804,73.4424 C26.2994,73.3644 25.7234,73.2724 25.1504,73.1664 C25.1114,73.1724 25.0744,73.1884 25.0344,73.1884 C24.9824,73.1884 24.9224,73.1794 24.8704,73.1724 C24.7824,73.1544 24.7074,73.1144 24.6334,73.0744 C24.0504,72.9584 23.4734,72.8274 22.9004,72.6834 C22.8804,72.6854 22.8624,72.6934 22.8414,72.6934 C22.7674,72.6934 22.6994,72.6784 22.6324,72.6634 C22.5474,72.6414 22.4784,72.5974 22.4084,72.5544 C21.8334,72.4014 21.2654,72.2344 20.7024,72.0544 C20.6964,72.0544 20.6914,72.0574 20.6864,72.0574 C20.5964,72.0574 20.5064,72.0424 20.4244,72.0124 C20.3364,71.9834 20.2634,71.9344 20.1934,71.8824 C19.6394,71.6944 19.0904,71.4954 18.5484,71.2824 C18.4504,71.2804 18.3524,71.2684 18.2614,71.2274 C18.1764,71.1924 18.1064,71.1384 18.0404,71.0814 C17.4774,70.8514 16.9204,70.6064 16.3724,70.3494 C16.2984,70.3374 16.2254,70.3354 16.1504,70.2984 C16.0784,70.2654 16.0224,70.2114 15.9654,70.1604 C15.4224,69.8974 14.8884,69.6194 14.3614,69.3304 C14.2744,69.3154 14.1884,69.2904 14.1084,69.2424 C14.0244,69.1964 13.9594,69.1314 13.8984,69.0644 C13.3914,68.7754 12.8914,68.4754 12.3994,68.1634 C12.3074,68.1444 12.2164,68.1134 12.1324,68.0614 C12.0504,68.0074 11.9884,67.9374 11.9324,67.8634 C11.4494,67.5474 10.9734,67.2194 10.5064,66.8794 C10.4124,66.8534 10.3214,66.8134 10.2394,66.7514 C10.1744,66.7024 10.1304,66.6394 10.0834,66.5784 C9.6014,66.2184 9.1294,65.8454 8.6664,65.4614 C8.5844,65.4294 8.5054,65.3894 8.4354,65.3294 C8.3584,65.2664 8.3044,65.1884 8.2564,65.1064 C7.8164,64.7314 7.3854,64.3454 6.9634,63.9484 C6.8774,63.9104 6.7934,63.8634 6.7214,63.7944 C6.6514,63.7284 6.6044,63.6484 6.5624,63.5664 C6.1384,63.1554 5.7234,62.7334 5.3184,62.3024 C5.2464,62.2614 5.1724,62.2214 5.1124,62.1554 C5.0574,62.0974 5.0254,62.0264 4.9904,61.9584 C4.5714,61.4994 4.1634,61.0294 3.7674,60.5494 C3.7104,60.5074 3.6464,60.4764 3.6014,60.4194 C3.5404,60.3454 3.5034,60.2604 3.4724,60.1744 C3.0974,59.7074 2.7344,59.2304 2.3824,58.7434 C2.3224,58.6954 2.2554,58.6594 2.2084,58.5944 C2.1534,58.5154 2.1224,58.4284 2.0954,58.3404 C1.7504,57.8494 1.4164,57.3494 1.0954,56.8404 C1.0384,56.7894 0.9724,56.7524 0.9294,56.6854 C0.9024,56.6434 0.8974,56.5974 0.8794,56.5534 L-0.0006,57.3984 C6.6254,67.9594 18.3674,75.0004 31.7284,75.0004 C52.3714,75.0004 69.1644,58.2064 69.1644,37.5644 C69.1644,16.9214 52.3714,0.1274 31.7284,0.1274" id="Fill-319" fill="#FFFFFF" mask="url(#mask-2)"></path>
                </g>
                <path d="M18.2616,72.0999 C18.3526,72.1409 18.4506,72.1539 18.5486,72.1559 C18.3786,72.0889 18.2086,72.0239 18.0396,71.9539 C18.1066,72.0109 18.1766,72.0659 18.2616,72.0999" id="Fill-322" fill="#FFFFFF"></path>
                <path d="M16.1508,71.1712 C16.2248,71.2082 16.2978,71.2102 16.3718,71.2222 C16.2368,71.1582 16.0998,71.0992 15.9648,71.0332 C16.0228,71.0842 16.0778,71.1382 16.1508,71.1712" id="Fill-324" fill="#FFFFFF"></path>
                <path d="M20.4242,72.8851 C20.5072,72.9151 20.5962,72.9301 20.6862,72.9301 C20.6922,72.9301 20.6962,72.9271 20.7022,72.9271 C20.5312,72.8721 20.3632,72.8121 20.1932,72.7551 C20.2632,72.8071 20.3362,72.8571 20.4242,72.8851" id="Fill-326" fill="#FFFFFF"></path>
                <path d="M22.6322,73.5364 C22.6992,73.5514 22.7672,73.5664 22.8412,73.5664 C22.8622,73.5664 22.8812,73.5574 22.9012,73.5564 C22.7362,73.5154 22.5722,73.4714 22.4082,73.4274 C22.4782,73.4704 22.5482,73.5144 22.6322,73.5364" id="Fill-328" fill="#FFFFFF"></path>
                <path d="M14.1083,70.1155 C14.1893,70.1635 14.2753,70.1875 14.3613,70.2035 C14.2053,70.1175 14.0533,70.0245 13.8983,69.9365 C13.9593,70.0045 14.0253,70.0695 14.1083,70.1155" id="Fill-330" fill="#FFFFFF"></path>
                <path d="M3.601,61.2923 C3.647,61.3493 3.71,61.3803 3.767,61.4223 C3.666,61.3003 3.572,61.1713 3.473,61.0473 C3.504,61.1333 3.54,61.2183 3.601,61.2923" id="Fill-332" fill="#FFFFFF"></path>
                <path d="M5.1122,63.0286 C5.1722,63.0936 5.2462,63.1336 5.3182,63.1746 C5.2102,63.0596 5.0972,62.9486 4.9902,62.8316 C5.0262,62.8996 5.0572,62.9696 5.1122,63.0286" id="Fill-334" fill="#FFFFFF"></path>
                <path d="M8.4354,66.2024 C8.5054,66.2624 8.5844,66.3024 8.6654,66.3344 C8.5264,66.2194 8.3934,66.0974 8.2564,65.9794 C8.3044,66.0604 8.3584,66.1394 8.4354,66.2024" id="Fill-336" fill="#FFFFFF"></path>
                <path d="M24.87,74.0452 C24.923,74.0522 24.982,74.0612 25.035,74.0612 C25.075,74.0612 25.111,74.0452 25.151,74.0392 C24.978,74.0082 24.805,73.9822 24.634,73.9472 C24.707,73.9872 24.783,74.0272 24.87,74.0452" id="Fill-338" fill="#FFFFFF"></path>
                <path d="M12.1322,68.9339 C12.2162,68.9869 12.3072,69.0169 12.4002,69.0369 C12.2432,68.9379 12.0872,68.8379 11.9322,68.7369 C11.9882,68.8099 12.0502,68.8799 12.1322,68.9339" id="Fill-340" fill="#FFFFFF"></path>
                <path d="M6.7216,64.6673 C6.7936,64.7363 6.8776,64.7833 6.9636,64.8213 C6.8286,64.6953 6.6956,64.5673 6.5626,64.4393 C6.6046,64.5213 6.6516,64.6013 6.7216,64.6673" id="Fill-342" fill="#FFFFFF"></path>
                <path d="M42.891,72.8929 C42.981,72.8929 43.071,72.8779 43.161,72.8479 C43.255,72.8159 43.334,72.7629 43.408,72.7059 C43.228,72.7669 43.049,72.8309 42.868,72.8889 C42.876,72.8889 42.883,72.8929 42.891,72.8929" id="Fill-344" fill="#FFFFFF"></path>
                <path d="M27.1449,74.4046 C27.1749,74.4116 27.2119,74.4116 27.2489,74.4116 C27.3059,74.4116 27.3559,74.3926 27.4089,74.3836 C27.2319,74.3616 27.0569,74.3396 26.8809,74.3156 C26.9629,74.3556 27.0489,74.3916 27.1449,74.4046" id="Fill-346" fill="#FFFFFF"></path>
                <path d="M45.308,72.054 L45.316,72.054 C45.399,72.02 45.465,71.965 45.53,71.909 C45.365,71.978 45.197,72.041 45.03,72.107 C45.124,72.103 45.222,72.088 45.308,72.054" id="Fill-348" fill="#FFFFFF"></path>
                <path d="M47.4115,71.1185 C47.4875,71.0835 47.5455,71.0285 47.6045,70.9745 C47.4695,71.0415 47.3325,71.1065 47.1965,71.1715 C47.2685,71.1565 47.3415,71.1535 47.4115,71.1185" id="Fill-350" fill="#FFFFFF"></path>
                <path d="M49.4467,70.056 C49.5277,70.012 49.5887,69.949 49.6477,69.885 C49.4957,69.972 49.3447,70.063 49.1907,70.148 C49.2797,70.13 49.3667,70.104 49.4467,70.056" id="Fill-352" fill="#FFFFFF"></path>
                <path d="M40.743,73.5286 C40.81,73.5286 40.886,73.5206 40.953,73.4996 L40.953,73.5066 C41.044,73.4816 41.122,73.4346 41.197,73.3846 C41.032,73.4296 40.868,73.4796 40.702,73.5226 C40.716,73.5226 40.729,73.5286 40.743,73.5286" id="Fill-354" fill="#FFFFFF"></path>
                <path d="M34.1049,74.6136 L34.1579,74.6136 C34.2579,74.6066 34.3509,74.5756 34.4379,74.5376 C34.2629,74.5506 34.0889,74.5666 33.9139,74.5776 C33.9769,74.5926 34.0379,74.6136 34.1049,74.6136" id="Fill-356" fill="#FFFFFF"></path>
                <path d="M29.4349,74.6214 L29.4879,74.6214 C29.5499,74.6214 29.6059,74.6004 29.6649,74.5874 C29.4959,74.5774 29.3279,74.5594 29.1579,74.5484 C29.2439,74.5844 29.3349,74.6154 29.4349,74.6214" id="Fill-358" fill="#FFFFFF"></path>
                <path d="M36.3353,74.3968 C36.3733,74.3968 36.4103,74.3888 36.4473,74.3888 C36.5433,74.3758 36.6293,74.3398 36.7113,74.2978 C36.5333,74.3228 36.3543,74.3448 36.1743,74.3668 C36.2283,74.3768 36.2793,74.3968 36.3353,74.3968" id="Fill-360" fill="#FFFFFF"></path>
                <path d="M38.5507,74.0374 C38.6027,74.0374 38.6627,74.0304 38.7157,74.0154 C38.7917,74.0004 38.8557,73.9624 38.9227,73.9294 C38.7607,73.9624 38.5967,73.9864 38.4347,74.0164 C38.4737,74.0224 38.5097,74.0374 38.5507,74.0374" id="Fill-362" fill="#FFFFFF"></path>
                <path d="M10.2391,67.6243 C10.3211,67.6863 10.4121,67.7263 10.5071,67.7523 C10.3661,67.6503 10.2221,67.5553 10.0831,67.4513 C10.1301,67.5123 10.1741,67.5753 10.2391,67.6243" id="Fill-364" fill="#FFFFFF"></path>
                <path d="M37.3827,2.6194 C37.2987,2.6054 37.2177,2.6184 37.1377,2.6294 C37.3037,2.6544 37.4677,2.6854 37.6337,2.7134 C37.5557,2.6724 37.4757,2.6344 37.3827,2.6194" id="Fill-366" fill="#FFFFFF"></path>
                <path d="M35.1024,2.3353 C35.0044,2.3263 34.9114,2.3423 34.8214,2.3643 C34.9904,2.3793 35.1614,2.3873 35.3304,2.4033 C35.2564,2.3743 35.1844,2.3433 35.1024,2.3353" id="Fill-368" fill="#FFFFFF"></path>
                <path d="M41.8729,3.6224 C41.7779,3.5954 41.6829,3.5944 41.5889,3.5994 C41.7649,3.6484 41.9409,3.6964 42.1149,3.7494 C42.0409,3.6964 41.9639,3.6484 41.8729,3.6224" id="Fill-370" fill="#FFFFFF"></path>
                <path d="M39.6434,3.0452 C39.5504,3.0252 39.4584,3.0312 39.3684,3.0422 C39.5524,3.0812 39.7334,3.1262 39.9154,3.1682 C39.8334,3.1142 39.7444,3.0682 39.6434,3.0452" id="Fill-372" fill="#FFFFFF"></path>
                <path d="M32.8104,2.1927 C32.7054,2.1897 32.6054,2.2107 32.5114,2.2437 C32.7034,2.2477 32.8954,2.2517 33.0874,2.2577 C33.0004,2.2237 32.9094,2.1957 32.8104,2.1927" id="Fill-374" fill="#FFFFFF"></path>
                <path d="M35.1005,2.3343 C35.1005,2.3343 35.1015,2.3353 35.1025,2.3353 C35.1035,2.3353 35.1055,2.3343 35.1075,2.3343 L35.1005,2.3343 Z" id="Fill-376" fill="#FFFFFF"></path>
                <path d="M54.0795,9.9085 C54.0045,9.8485 53.9195,9.8135 53.8335,9.7835 C53.9765,9.8935 54.1175,10.0045 54.2585,10.1165 C54.2085,10.0415 54.1555,9.9675 54.0795,9.9085" id="Fill-378" fill="#FFFFFF"></path>
                <path d="M44.0585,4.3411 C43.9765,4.3111 43.8925,4.3071 43.8105,4.3041 C43.9575,4.3561 44.1065,4.4041 44.2525,4.4581 C44.1915,4.4141 44.1325,4.3671 44.0585,4.3411" id="Fill-380" fill="#FFFFFF"></path>
                <path d="M30.5131,2.2005 C30.4211,2.2035 30.3371,2.2305 30.2561,2.2615 C30.4351,2.2535 30.6151,2.2515 30.7951,2.2475 C30.7051,2.2195 30.6121,2.1965 30.5131,2.2005" id="Fill-382" fill="#FFFFFF"></path>
                <path d="M50.2924,7.2972 C50.2084,7.2482 50.1184,7.2252 50.0284,7.2072 C50.1764,7.2942 50.3284,7.3742 50.4744,7.4632 C50.4194,7.4022 50.3654,7.3412 50.2924,7.2972" id="Fill-384" fill="#FFFFFF"></path>
                <path d="M55.8383,11.3831 C55.7673,11.3191 55.6853,11.2781 55.6023,11.2421 C55.7283,11.3531 55.8573,11.4581 55.9813,11.5701 C55.9403,11.5051 55.9003,11.4371 55.8383,11.3831" id="Fill-386" fill="#FFFFFF"></path>
                <path d="M48.2797,6.1819 C48.1937,6.1379 48.1017,6.1189 48.0107,6.1059 C48.1747,6.1889 48.3377,6.2719 48.4997,6.3569 C48.4357,6.2889 48.3667,6.2259 48.2797,6.1819" id="Fill-388" fill="#FFFFFF"></path>
                <path d="M46.1991,5.1937 C46.1211,5.1597 46.0401,5.1517 45.9601,5.1417 C46.1171,5.2097 46.2701,5.2837 46.4261,5.3527 C46.3591,5.2917 46.2871,5.2327 46.1991,5.1937" id="Fill-390" fill="#FFFFFF"></path>
                <path d="M52.2235,8.5384 C52.1535,8.4904 52.0755,8.4674 51.9985,8.4434 C52.1405,8.5394 52.2755,8.6424 52.4155,8.7404 C52.3615,8.6664 52.3025,8.5954 52.2235,8.5384" id="Fill-392" fill="#FFFFFF"></path>
                <path d="M11.1376,8.6067 C11.0536,8.6647 10.9896,8.7377 10.9346,8.8157 C11.0786,8.7137 11.2206,8.6077 11.3666,8.5077 C11.2876,8.5327 11.2086,8.5577 11.1376,8.6067" id="Fill-394" fill="#FFFFFF"></path>
                <path d="M9.2885,9.9681 C9.2095,10.0321 9.1505,10.1111 9.1015,10.1941 C9.2525,10.0721 9.4055,9.9521 9.5585,9.8331 C9.4635,9.8631 9.3715,9.9041 9.2885,9.9681" id="Fill-396" fill="#FFFFFF"></path>
                <path d="M13.0677,7.3567 C12.9937,7.4017 12.9387,7.4637 12.8837,7.5257 C13.0317,7.4347 13.1837,7.3497 13.3337,7.2617 C13.2417,7.2807 13.1517,7.3057 13.0677,7.3567" id="Fill-398" fill="#FFFFFF"></path>
                <path d="M7.5375,11.4505 C7.4755,11.5055 7.4375,11.5725 7.3965,11.6385 C7.5185,11.5275 7.6475,11.4235 7.7725,11.3125 C7.6895,11.3475 7.6075,11.3875 7.5375,11.4505" id="Fill-400" fill="#FFFFFF"></path>
                <path d="M2.2089,59.4671 C2.2559,59.5321 2.3229,59.5691 2.3829,59.6161 C2.2859,59.4831 2.1909,59.3481 2.0959,59.2131 C2.1219,59.3011 2.1529,59.3881 2.2089,59.4671" id="Fill-402" fill="#FFFFFF"></path>
                <path d="M17.1464,5.2464 C17.0584,5.2834 16.9864,5.3424 16.9184,5.4034 C17.0764,5.3324 17.2324,5.2584 17.3914,5.1884 C17.3094,5.1994 17.2254,5.2094 17.1464,5.2464" id="Fill-404" fill="#FFFFFF"></path>
                <path d="M21.4579,3.6595 C21.3709,3.6855 21.2979,3.7335 21.2269,3.7815 C21.4009,3.7285 21.5779,3.6815 21.7529,3.6325 C21.6559,3.6255 21.5559,3.6295 21.4579,3.6595" id="Fill-406" fill="#FFFFFF"></path>
                <path d="M15.0736,6.2347 C14.9906,6.2777 14.9256,6.3397 14.8646,6.4047 C15.0226,6.3207 15.1836,6.2397 15.3446,6.1587 C15.2526,6.1717 15.1606,6.1897 15.0736,6.2347" id="Fill-408" fill="#FFFFFF"></path>
                <path d="M23.6801,3.0755 C23.5801,3.0985 23.4921,3.1445 23.4111,3.1985 C23.5931,3.1555 23.7761,3.1115 23.9591,3.0715 C23.8671,3.0595 23.7741,3.0545 23.6801,3.0755" id="Fill-410" fill="#FFFFFF"></path>
                <path d="M25.9398,2.6419 C25.8438,2.6569 25.7598,2.6959 25.6798,2.7389 C25.8438,2.7099 26.0048,2.6759 26.1698,2.6509 C26.0948,2.6419 26.0188,2.6279 25.9398,2.6419" id="Fill-412" fill="#FFFFFF"></path>
                <path d="M19.2719,4.3851 C19.1899,4.4141 19.1249,4.4651 19.0589,4.5161 C19.2139,4.4571 19.3709,4.4011 19.5269,4.3441 C19.4419,4.3481 19.3559,4.3541 19.2719,4.3851" id="Fill-414" fill="#FFFFFF"></path>
                <path d="M28.2152,2.3499 C28.1382,2.3579 28.0712,2.3879 28.0022,2.4139 C28.1602,2.3989 28.3192,2.3909 28.4782,2.3759 C28.3932,2.3579 28.3062,2.3409 28.2152,2.3499" id="Fill-416" fill="#FFFFFF"></path>
                <path d="M59.0712,14.6536 C59.0112,14.5846 58.9362,14.5376 58.8622,14.4926 C58.9772,14.6226 59.0902,14.7546 59.2032,14.8866 C59.1702,14.8046 59.1322,14.7236 59.0712,14.6536" id="Fill-418" fill="#FFFFFF"></path>
                <path d="M65.6342,51.2796 C65.6642,51.2016 65.6682,51.1216 65.6742,51.0426 C65.6132,51.2056 65.5452,51.3646 65.4832,51.5266 C65.5452,51.4546 65.5982,51.3736 65.6342,51.2796" id="Fill-420" fill="#FFFFFF"></path>
                <path d="M64.7513,53.4046 C64.7903,53.3156 64.8043,53.2236 64.8123,53.1336 C64.7373,53.3016 64.6613,53.4706 64.5833,53.6386 C64.6493,53.5716 64.7093,53.4956 64.7513,53.4046" id="Fill-422" fill="#FFFFFF"></path>
                <path d="M66.3827,49.1009 C66.4077,49.0179 66.4067,48.9359 66.4067,48.8539 C66.3567,49.0189 66.3097,49.1849 66.2577,49.3489 C66.3107,49.2759 66.3547,49.1929 66.3827,49.1009" id="Fill-424" fill="#FFFFFF"></path>
                <path d="M67.4535,44.6341 C67.4695,44.5411 67.4595,44.4531 67.4475,44.3661 C67.4165,44.5501 67.3825,44.7341 67.3485,44.9161 C67.3995,44.8311 67.4355,44.7371 67.4535,44.6341" id="Fill-426" fill="#FFFFFF"></path>
                <path d="M66.9891,46.8792 C67.0121,46.7852 67.0101,46.6922 67.0011,46.6022 C66.9591,46.7832 66.9201,46.9672 66.8751,47.1482 C66.9271,47.0672 66.9671,46.9782 66.9891,46.8792" id="Fill-428" fill="#FFFFFF"></path>
                <path d="M63.7333,55.4622 C63.7783,55.3782 63.7973,55.2892 63.8123,55.1992 C63.7303,55.3562 63.6543,55.5152 63.5713,55.6692 C63.6333,55.6092 63.6893,55.5422 63.7333,55.4622" id="Fill-430" fill="#FFFFFF"></path>
                <path d="M58.4203,62.9534 C58.4773,62.8914 58.5103,62.8174 58.5453,62.7454 C58.4353,62.8674 58.3183,62.9834 58.2063,63.1034 C58.2823,63.0614 58.3593,63.0204 58.4203,62.9534" id="Fill-432" fill="#FFFFFF"></path>
                <path d="M67.7748,42.3509 C67.7838,42.2719 67.7678,42.1969 67.7538,42.1219 C67.7368,42.2949 67.7098,42.4649 67.6898,42.6369 C67.7328,42.5499 67.7638,42.4549 67.7748,42.3509" id="Fill-434" fill="#FFFFFF"></path>
                <path d="M56.8109,64.5931 C56.8789,64.5281 56.9239,64.4501 56.9649,64.3711 C56.8369,64.4961 56.7069,64.6191 56.5769,64.7411 C56.6599,64.7041 56.7409,64.6591 56.8109,64.5931" id="Fill-436" fill="#FFFFFF"></path>
                <path d="M55.1049,66.1341 C55.1819,66.0701 55.2369,65.9891 55.2839,65.9061 C55.1419,66.0291 55.0029,66.1551 54.8589,66.2761 C54.9459,66.2431 55.0299,66.1981 55.1049,66.1341" id="Fill-438" fill="#FFFFFF"></path>
                <path d="M59.9242,61.2103 C59.9842,61.1353 60.0202,61.0503 60.0502,60.9633 C59.9482,61.0913 59.8502,61.2233 59.7462,61.3503 C59.8072,61.3063 59.8732,61.2723 59.9242,61.2103" id="Fill-440" fill="#FFFFFF"></path>
                <path d="M61.309,59.3772 C61.362,59.3022 61.39,59.2192 61.415,59.1362 C61.326,59.2652 61.234,59.3932 61.142,59.5212 C61.199,59.4742 61.264,59.4402 61.309,59.3772" id="Fill-442" fill="#FFFFFF"></path>
                <path d="M62.5809,57.4603 C62.6229,57.3933 62.6399,57.3193 62.6609,57.2473 C62.5879,57.3653 62.5089,57.4803 62.4349,57.5983 C62.4839,57.5513 62.5439,57.5203 62.5809,57.4603" id="Fill-444" fill="#FFFFFF"></path>
                <path d="M53.3011,67.5569 C53.3631,67.5099 53.4051,67.4499 53.4501,67.3909 C53.3161,67.4929 53.1761,67.5879 53.0401,67.6879 C53.1321,67.6599 53.2211,67.6169 53.3011,67.5569" id="Fill-446" fill="#FFFFFF"></path>
                <path d="M64.1747,22.2649 C64.1317,22.1789 64.0687,22.1099 64.0027,22.0459 C64.0827,22.2019 64.1647,22.3549 64.2417,22.5119 C64.2287,22.4289 64.2147,22.3449 64.1747,22.2649" id="Fill-448" fill="#FFFFFF"></path>
                <path d="M65.1405,24.3528 C65.1055,24.2728 65.0505,24.2088 64.9955,24.1458 C65.0625,24.3008 65.1275,24.4568 65.1925,24.6128 C65.1855,24.5258 65.1765,24.4378 65.1405,24.3528" id="Fill-450" fill="#FFFFFF"></path>
                <path d="M63.0824,20.2435 C63.0354,20.1645 62.9714,20.1025 62.9044,20.0455 C62.9954,20.1975 63.0824,20.3525 63.1704,20.5075 C63.1534,20.4175 63.1304,20.3275 63.0824,20.2435" id="Fill-452" fill="#FFFFFF"></path>
                <path d="M61.8622,18.2981 C61.8172,18.2281 61.7542,18.1791 61.6942,18.1271 C61.7862,18.2641 61.8742,18.4041 61.9662,18.5431 C61.9422,18.4581 61.9152,18.3741 61.8622,18.2981" id="Fill-454" fill="#FFFFFF"></path>
                <path d="M65.9637,26.4925 C65.9337,26.4095 65.8837,26.3415 65.8337,26.2735 C65.8917,26.4375 65.9447,26.6035 66.0007,26.7675 C66.0007,26.6765 65.9947,26.5845 65.9637,26.4925" id="Fill-456" fill="#FFFFFF"></path>
                <path d="M60.5228,16.4349 L60.5228,16.4269 C60.4648,16.3519 60.3908,16.2969 60.3158,16.2479 C60.4188,16.3789 60.5248,16.5079 60.6258,16.6409 C60.5968,16.5709 60.5718,16.4979 60.5228,16.4349" id="Fill-458" fill="#FFFFFF"></path>
                <path d="M67.9467,40.0608 C67.9507,39.9668 67.9307,39.8808 67.9067,39.7958 C67.9007,39.9558 67.9027,40.1168 67.8947,40.2748 C67.9167,40.2058 67.9427,40.1368 67.9467,40.0608" id="Fill-460" fill="#FFFFFF"></path>
                <path d="M67.9764,37.764 C67.9754,37.666 67.9484,37.576 67.9164,37.489 C67.9214,37.665 67.9284,37.841 67.9304,38.018 C67.9554,37.936 67.9784,37.854 67.9764,37.764" id="Fill-462" fill="#FFFFFF"></path>
                <path d="M67.8651,35.4661 C67.8571,35.3691 67.8251,35.2821 67.7881,35.1991 C67.8051,35.3831 67.8171,35.5681 67.8311,35.7521 C67.8551,35.6601 67.8731,35.5661 67.8651,35.4661" id="Fill-464" fill="#FFFFFF"></path>
                <path d="M67.1981,30.9231 L67.1981,30.9151 C67.1791,30.8281 67.1381,30.7531 67.0951,30.6801 C67.1291,30.8321 67.1691,30.9821 67.2011,31.1351 C67.2041,31.0651 67.2141,30.9941 67.1981,30.9231" id="Fill-466" fill="#FFFFFF"></path>
                <path d="M67.6024,33.1839 C67.5914,33.1079 67.5574,33.0429 67.5284,32.9769 C67.5524,33.1319 67.5674,33.2909 67.5884,33.4479 C67.6034,33.3619 67.6164,33.2739 67.6024,33.1839" id="Fill-468" fill="#FFFFFF"></path>
                <path d="M66.6522,28.6858 C66.6262,28.5928 66.5782,28.5148 66.5262,28.4398 C66.5752,28.6118 66.6262,28.7828 66.6732,28.9558 C66.6772,28.8668 66.6782,28.7768 66.6522,28.6858" id="Fill-470" fill="#FFFFFF"></path>
                <path d="M51.4149,68.8733 C51.4949,68.8213 51.5549,68.7523 51.6099,68.6823 C51.4549,68.7833 51.2979,68.8823 51.1419,68.9823 C51.2359,68.9613 51.3289,68.9283 51.4149,68.8733" id="Fill-472" fill="#FFFFFF"></path>
                <path d="M0.8798,57.4261 C0.8978,57.4701 0.9028,57.5161 0.9288,57.5581 C0.9728,57.6251 1.0388,57.6621 1.0948,57.7131 C1.0308,57.6111 0.9628,57.5111 0.8988,57.4071 L0.8798,57.4261 Z" id="Fill-474" fill="#FFFFFF"></path>
                <path d="M31.4642,74.6429 C31.5472,74.6709 31.6322,74.6969 31.7252,74.6969 C31.7482,74.6969 31.7702,74.6889 31.7922,74.6889 C31.8152,74.6889 31.8372,74.6969 31.8602,74.6969 C31.9542,74.6949 32.0412,74.6689 32.1252,74.6389 C31.9922,74.6409 31.8612,74.6499 31.7282,74.6499 C31.6392,74.6499 31.5522,74.6429 31.4642,74.6429" id="Fill-476" fill="#FFFFFF"></path>
                <path d="M57.6644,13.2005 C57.6244,13.1155 57.5774,13.0325 57.5074,12.9625 C57.4494,12.9035 57.3794,12.8695 57.3114,12.8315 C57.4324,12.9525 57.5454,13.0785 57.6644,13.2005" id="Fill-478" fill="#FFFFFF"></path>
                <path d="M6.0795,12.8997 C6.0085,12.9377 5.9355,12.9757 5.8755,13.0377 L5.8755,13.0447 C5.8535,13.0667 5.8455,13.0957 5.8265,13.1197 L5.8485,13.1417 C5.9265,13.0617 6.0005,12.9787 6.0795,12.8997" id="Fill-480" fill="#FFFFFF"></path>
                <path d="M1.9872,56.3597 C1.9872,56.3597 1.9872,56.3607 1.9872,56.3607 L1.9882,56.3607 C1.9872,56.3597 1.9872,56.3597 1.9872,56.3597" id="Fill-482" fill="#FFFFFF"></path>
                <path d="M5.848,13.1419 L5.827,13.1199 C5.788,13.1659 5.754,13.2149 5.728,13.2679 C5.769,13.2259 5.808,13.1829 5.848,13.1419" id="Fill-484" fill="#FFFFFF"></path>
                <path d="M0.8368,57.3108 C0.8468,57.3498 0.8638,57.3878 0.8798,57.4258 L0.8988,57.4078 C0.8788,57.3748 0.8568,57.3438 0.8368,57.3108" id="Fill-486" fill="#FFFFFF"></path>
            </g>
        </g>
    </g>
</svg>