<svg xmlns="http://www.w3.org/2000/svg" viewBox="0 0 179.99 51.12"><defs><style>.cls-1{fill:#ed1c24;}.cls-2{fill:#fff;}</style></defs><g id="Capa_2" data-name="Capa 2"><g id="Layer_1" data-name="Layer 1"><rect class="cls-1" width="179.99" height="51.12"/><path class="cls-2" d="M159.22,18.85a2.55,2.55,0,0,0,2.09-.3,3.21,3.21,0,0,0,1.37-1.43,2.68,2.68,0,0,0,.18-1.91,2.91,2.91,0,0,0-1.37-1.67,2.82,2.82,0,0,0-2.21.42A3.5,3.5,0,0,0,158,15.63a2.83,2.83,0,0,0-.12,2A1.87,1.87,0,0,0,159.22,18.85Z"/><path class="cls-2" d="M161.37,29.34A9.66,9.66,0,0,1,159.64,32a5.19,5.19,0,0,1-1.79,1.67,3.94,3.94,0,0,1-1.85.6,1.51,1.51,0,0,1-1.25-.72,3,3,0,0,1,.12-2.14l4.35-9.36h-4.95l-1.19,3a32,32,0,0,1-3.81,6.26,7.28,7.28,0,0,1-2.69,2.57,2.77,2.77,0,0,1-2.08.35,1.47,1.47,0,0,1-.84-2.45l4.17-8.93a12.43,12.43,0,0,0,5.49-2.45,11,11,0,0,0,3.4-4,5.42,5.42,0,0,0,.47-4.12A4.42,4.42,0,0,0,154,9.54c-4-.47-6.5,1.08-7.7,4.6l-4.95,10.07-4.82,1.67c-1.14-3-3.16-4.47-6-4.47-4.41-.06-7.51,2.68-9.36,8.11l-3.46,1.55a32.13,32.13,0,0,1,1.67-8.76c1.13-3.7,3.7-5.08,7.57-4.12l2.81-4.11a10.84,10.84,0,0,0-6.8-.89c-5.43,1.25-8.47,4.88-9.06,10.9-2.51,1.08-3.82,1.5-3.94,1.32A7.12,7.12,0,0,0,106.21,22a5.9,5.9,0,0,0-3.93.06,11.56,11.56,0,0,0-5.43,4.17,11.49,11.49,0,0,1-1.66,2.09c-.36.18-.36-.6-.07-2.39,0-2.5-1.49-3.09-4.53-1.85l.72-1.67H86.42A29.18,29.18,0,0,1,84,27a5.69,5.69,0,0,1-1.85.89c-1.07.36-1.49.48-1.43.24a1.43,1.43,0,0,0,0-1.31,4,4,0,0,0-2.92-2.15,3.38,3.38,0,0,0-2.2.6c-2,1.37-2.15,3.1-.36,5.25A5.24,5.24,0,0,1,73,33.93c-2,1.43-2.8,1-2.27-1.43L75.33,24c6.5-.66,10-3.58,10.37-8.89.12-2-.24-3.51-1.13-4.47a3.56,3.56,0,0,0-3.28-.9,9,9,0,0,0-3.87,1.67,9.7,9.7,0,0,0-3,3.46L66.5,30.24a13.43,13.43,0,0,1-2.39,3.64c-.59.53-1.07.71-1.48.47a1.46,1.46,0,0,1-.6-1.19,2.29,2.29,0,0,1,.3-1.49A13.4,13.4,0,0,0,63,30.29l1.14-2.62A3,3,0,0,0,64,24.39a3.38,3.38,0,0,0-2.74-1.6,4.57,4.57,0,0,0-2.92.71l-1.26.77-.66-.77a3.54,3.54,0,0,0-1.85-.9,4.2,4.2,0,0,0-3.33,1.08l.59-1H47l-4.78,8.59A6.12,6.12,0,0,1,40,33.88a.94.94,0,0,1-1.31-.42,2.45,2.45,0,0,1-.42-1.79A2.86,2.86,0,0,1,39,29.81L47.9,11.1,42.59,11l-2.08,4.11c.29-3-1.68-5.18-6-6.26-3.46-.36-6.86.78-10.14,3.46a24.55,24.55,0,0,0-7.21,9.3A27.15,27.15,0,0,0,15.34,27a16.08,16.08,0,0,0-.3,5,8.92,8.92,0,0,0,1.44,4.11A7.43,7.43,0,0,0,20,38.7c5,1.85,9.13,1.14,12.17-2.27,0,1.86,1,2.75,2.92,2.75a5,5,0,0,0,4.17-1.73l-.83,1.25h5.25c1.9-3.22,3.63-6.32,5-9.12a4.89,4.89,0,0,1,1.55-1.67,1,1,0,0,1,1.14,0,1.27,1.27,0,0,1,.41.9A1.76,1.76,0,0,1,51.36,30c-.42.95-1.85,3.81-4.36,8.53l4.65.06,4.77-8.78A6.61,6.61,0,0,1,58,27.73c.47-.36.77-.36,1,0A1.33,1.33,0,0,1,59.17,29a4,4,0,0,1-1.07,2A11.93,11.93,0,0,0,57,33.28a8.49,8.49,0,0,0-.36,2.38,4.05,4.05,0,0,0,.54,2,2.41,2.41,0,0,0,1.49,1.25c2,.66,4.05.18,6.26-1.43.78-.6,1.31-.66,1.49-.29.54,1.37,1.91,2,4.12,2,3.75,0,6.62-2.09,8.64-6.14l2.33-.78-3,6.14h5.06c-.06.48.66-.82,2-4s2.75-4.77,3.82-5a4.49,4.49,0,0,0,1,3.7c.84.83,2.15,1,3.88.36.42,3.33,2.14,5.18,5.12,5.48,5.67,0,9.19-2.8,10.44-8.52l3.22-1.07c0,4.05-1.07,7.09-3.22,9.29-2.68,2.63-5.13,3.46-7.39,2.27l-2.33,3.46c.72,1,2.45,1.43,5.19,1.37,6.38,0,10.26-3.22,11.63-9.6l3.69-1.73c.06,2.44,1.73,3.94,5.13,4.41q7.61,0,10.38-7.87l3.22-1.37c-2.69,5.25-1.49,8.47,3.63,9.54a6.76,6.76,0,0,0,3.82-.48l1.13-.83,1-1c.89-.89,1.43-.83,1.67.12.71,1.31,2.21,1.91,4.64,1.85,4.12-.12,7.28-2.8,9.61-8Zm-8.71-15.68c.54,0,.72.36.54,1a5.44,5.44,0,0,1-1.13,1.85,3.56,3.56,0,0,1-1.49,1.31c-.54.24-.78-.06-.78-.77Q150.52,13.57,152.66,13.66ZM80.57,15c.54.06.72.36.54,1A5.16,5.16,0,0,1,80,17.89a3.77,3.77,0,0,1-1.55,1.32c-.48.23-.77-.07-.77-.78C78.19,16.11,79.14,15,80.57,15ZM33.65,28.27c-2.45,5.13-5.79,7.09-10.14,6-1.61-.48-2.5-1.85-2.62-4.12a16.56,16.56,0,0,1,1.61-7,20.12,20.12,0,0,1,4.59-6.5A8.55,8.55,0,0,1,33.35,14c2.38.65,2.86,2.33,1.37,4.83-.36.65.12,1,1.31,1s1.91.12,2.09.48Zm71.55,2.8a6.15,6.15,0,0,1-1.79,2.62,3.09,3.09,0,0,1-2.62.84,2.37,2.37,0,0,1-1.43-2.26,6.88,6.88,0,0,1,.83-3.17,7.36,7.36,0,0,1,2.09-2.5,2.13,2.13,0,0,1,2.27-.48A2.21,2.21,0,0,1,105.8,28,6.66,6.66,0,0,1,105.2,31.07Zm26.42-.17a6.93,6.93,0,0,1-1.79,2.67,3.12,3.12,0,0,1-2.63.84,2.47,2.47,0,0,1-1.43-2.26,6.58,6.58,0,0,1,.84-3.17,8,8,0,0,1,2-2.5c.9-.66,1.67-.84,2.33-.47a2,2,0,0,1,1.25,1.9A6.33,6.33,0,0,1,131.62,30.9Z"/></g></g></svg>