<svg xmlns="http://www.w3.org/2000/svg" viewBox="0 0 100.15 99.78"><defs><style>.cls-1{fill:#fff;}.cls-2{fill:#ed1c24;}</style></defs><g id="Capa_2" data-name="Capa 2"><g id="Layer_1" data-name="Layer 1"><path class="cls-1" d="M49.22,99.78c7,0,14,0,20.93-1.15,7.19-1.13,14.12-3.1,20-7.76A25.26,25.26,0,0,0,100,72.28C100.76,62.93,98,54.35,94.25,46a3.87,3.87,0,0,1-.11-3.4,23.17,23.17,0,0,0,.92-15.82C92,16.37,81.53,8.72,70.59,8.89c-.79,0-1.54.18-2.23-.65C63.73,2.61,57.56.13,50.49,0,42.91-.13,36.55,2.94,31.35,8.62c-.45.48-.78,1-1.62,1C19.82,9.07,12.4,13.77,7.12,22,2.75,28.78,1.78,36.1,6,43.47c.36.65.1,1-.13,1.53C1.88,53.62-.78,62.49.21,72.15a26,26,0,0,0,8,16.64C13.81,94.13,20.67,96.64,28,98.1A109.57,109.57,0,0,0,49.22,99.78Z"/><path class="cls-2" d="M64.34,68.74a2.61,2.61,0,0,0-2,.75,2.88,2.88,0,0,0-.72,2,2.8,2.8,0,0,0,.73,2,2.57,2.57,0,0,0,2,.76,2.53,2.53,0,0,0,1.93-.76,2.76,2.76,0,0,0,.73-2,2.82,2.82,0,0,0-.73-2A2.59,2.59,0,0,0,64.34,68.74Z"/><path class="cls-2" d="M24.2,68.74a2.61,2.61,0,0,0-1.95.75,2.88,2.88,0,0,0-.72,2,2.8,2.8,0,0,0,.73,2,2.88,2.88,0,0,0,3.9,0,2.8,2.8,0,0,0,.72-2,2.85,2.85,0,0,0-.72-2A2.63,2.63,0,0,0,24.2,68.74Z"/><path class="cls-2" d="M87.58,53.76c-7.27-18.21-22.4-31.07-36-31.91-.6,0-1.31,0-2,0s-1.35,0-1.95,0c-13.58.84-28.72,13.7-36,31.91-2.09,5.9-3,11.15-3,13.8,0,12.56,4.49,22.49,40.58,22.49H50c36.1,0,40.59-9.93,40.59-22.49C90.63,64.91,89.67,59.66,87.58,53.76ZM50.06,50.13h-.82a5,5,0,0,1-2.93-.66,2.32,2.32,0,0,1-.89-2V47c0-1.83,1.24-2.74,3.74-2.74H50.6a2.48,2.48,0,0,0,1.71-.55,1.79,1.79,0,0,0,.62-1.45,2.07,2.07,0,0,0-1.06-1.83,5.57,5.57,0,0,0-3-.66,6.58,6.58,0,0,0-2.27.34,5,5,0,0,0-1.56.84,4.16,4.16,0,0,0-1,1.15,5.21,5.21,0,0,0-.52,1.24c0,.09-.25.13-.75.14a4.08,4.08,0,0,1-1.64-.31A4,4,0,0,1,39.56,42a3.46,3.46,0,0,1-.75-2.41,4.45,4.45,0,0,1,.71-2.4,5.93,5.93,0,0,1,2-1.94A11.18,11.18,0,0,1,44.79,34a18.72,18.72,0,0,1,4.28-.46q5.68,0,8.64,1.92a6.27,6.27,0,0,1,2.95,5.64,4.75,4.75,0,0,1-1.23,3.34,7.7,7.7,0,0,1-3.59,2.06,7.73,7.73,0,0,1,3.9,2.54,6.54,6.54,0,0,1,1.33,4.18,7.11,7.11,0,0,1-3.1,6.2c-2.06,1.43-5,2.16-8.86,2.16a18.46,18.46,0,0,1-4.51-.51,12.33,12.33,0,0,1-3.42-1.35,6.63,6.63,0,0,1-2.16-2,4.34,4.34,0,0,1-.75-2.42A3.41,3.41,0,0,1,39,53a4.6,4.6,0,0,1,1.69-1.18,4.73,4.73,0,0,1,1.68-.35c.51,0,.78,0,.81.13a4.76,4.76,0,0,0,2.05,2.86,6.88,6.88,0,0,0,3.76,1,5.45,5.45,0,0,0,3.07-.74,2.34,2.34,0,0,0,1.12-2C53.22,51,52.17,50.13,50.06,50.13Zm-20,23.77a5.63,5.63,0,0,1-1.32,1.86,5.79,5.79,0,0,1-2,1.22,7.67,7.67,0,0,1-5.12,0,5.94,5.94,0,0,1-2-1.22,5.46,5.46,0,0,1-1.31-1.86,6.16,6.16,0,0,1,0-4.72,5.48,5.48,0,0,1,1.32-1.87,6.13,6.13,0,0,1,2-1.21,7.81,7.81,0,0,1,5.11,0,6,6,0,0,1,2,1.21,6,6,0,0,1,1.32,6.59ZM40,76.43a6.87,6.87,0,0,1-4.08,1,11,11,0,0,1-2.24-.19,5.14,5.14,0,0,1-1.49-.53,2.29,2.29,0,0,1-.82-.73,1.72,1.72,0,0,1-.25-.87,1.2,1.2,0,0,1,.18-.62,2.29,2.29,0,0,1,.4-.55,3.34,3.34,0,0,1,.42-.38c.13-.09.2-.13.23-.1a5.77,5.77,0,0,0,1.59.89,5.65,5.65,0,0,0,1,.3,4.92,4.92,0,0,0,1,.11c1.12,0,1.68-.29,1.68-.89a.5.5,0,0,0-.17-.4,1.22,1.22,0,0,0-.47-.24c-.19-.06-.43-.1-.68-.15l-.84-.14a11.88,11.88,0,0,1-1.48-.38,4.58,4.58,0,0,1-1.29-.64,3.06,3.06,0,0,1-.92-1,2.86,2.86,0,0,1-.35-1.49,3.27,3.27,0,0,1,1.33-2.75,6.31,6.31,0,0,1,3.83-1,10.1,10.1,0,0,1,2,.17,4.65,4.65,0,0,1,1.41.48,2.21,2.21,0,0,1,.82.68,1.48,1.48,0,0,1,.27.81,1.34,1.34,0,0,1-.2.69,3.3,3.3,0,0,1-.44.57,2.4,2.4,0,0,1-.46.37c-.14.1-.22.13-.22.1a5.37,5.37,0,0,0-1.47-.86,4.41,4.41,0,0,0-1.72-.35c-1.08,0-1.62.3-1.62.89a.45.45,0,0,0,.17.37,1.63,1.63,0,0,0,.47.19,4.3,4.3,0,0,0,.71.13c.27,0,.56.09.88.16a11,11,0,0,1,1.65.48,4.86,4.86,0,0,1,1.32.69,3,3,0,0,1,.87,1,2.78,2.78,0,0,1,.32,1.35A3.34,3.34,0,0,1,40,76.43Zm6.3-.78a1.43,1.43,0,0,1-1.61,1.61h-.54a1.41,1.41,0,0,1-1.58-1.61V67.44a1.42,1.42,0,0,1,1.58-1.62h.54a1.43,1.43,0,0,1,1.61,1.62Zm10.31-6.71H54.63v6.71a1.61,1.61,0,0,1-.43,1.2,1.72,1.72,0,0,1-1.24.41h-.52c-1,0-1.54-.54-1.54-1.61V68.94h-2c-1.14,0-1.72-.51-1.72-1.53v-.06c0-1,.58-1.45,1.72-1.45h7.7c1.15,0,1.73.49,1.73,1.45v.06C58.31,68.43,57.73,68.94,56.58,68.94Zm13.64,5a5.57,5.57,0,0,1-1.3,1.86,6.19,6.19,0,0,1-2,1.22,7.38,7.38,0,0,1-2.57.44A7.28,7.28,0,0,1,61.78,77a5.84,5.84,0,0,1-2-1.22,5.46,5.46,0,0,1-1.31-1.86,6,6,0,0,1,0-4.72,5.62,5.62,0,0,1,1.32-1.87,6.13,6.13,0,0,1,2-1.21,7.81,7.81,0,0,1,5.11,0,6.34,6.34,0,0,1,2,1.21,6,6,0,0,1,1.3,6.59Zm9.9,2.53a6.93,6.93,0,0,1-4.09,1,11,11,0,0,1-2.24-.19,5.14,5.14,0,0,1-1.49-.53,2.29,2.29,0,0,1-.82-.73,1.72,1.72,0,0,1-.25-.87,1.2,1.2,0,0,1,.18-.62,2.29,2.29,0,0,1,.4-.55,2.77,2.77,0,0,1,.42-.38c.13-.09.2-.13.23-.1a4.85,4.85,0,0,0,.71.48,5.92,5.92,0,0,0,.88.41,5.41,5.41,0,0,0,1,.3,4.92,4.92,0,0,0,1,.11c1.12,0,1.68-.29,1.68-.89a.5.5,0,0,0-.17-.4,1.3,1.3,0,0,0-.47-.24c-.19-.06-.43-.1-.68-.15l-.84-.14a11.45,11.45,0,0,1-1.48-.38,4.92,4.92,0,0,1-1.3-.64,3.17,3.17,0,0,1-.92-1,3,3,0,0,1-.34-1.49,3.29,3.29,0,0,1,1.33-2.75,6.3,6.3,0,0,1,3.82-1,10.14,10.14,0,0,1,2,.17,4.65,4.65,0,0,1,1.41.48,2.21,2.21,0,0,1,.82.68,1.48,1.48,0,0,1,.27.81,1.34,1.34,0,0,1-.2.69,2.87,2.87,0,0,1-.44.57,3.21,3.21,0,0,1-.45.37c-.15.1-.23.13-.24.1a5,5,0,0,0-1.46-.86,4.41,4.41,0,0,0-1.72-.35c-1.08,0-1.62.3-1.62.89a.45.45,0,0,0,.17.37,1.63,1.63,0,0,0,.47.19,4.3,4.3,0,0,0,.71.13c.26,0,.56.09.88.16a11,11,0,0,1,1.65.48,4.58,4.58,0,0,1,1.32.69,3,3,0,0,1,.87,1,2.77,2.77,0,0,1,.31,1.35A3.35,3.35,0,0,1,80.12,76.43Z"/><path class="cls-2" d="M39.13,21.51a32.22,32.22,0,0,1,10.4-2,33.64,33.64,0,0,1,10.47,2c2.38.81,3.51-1.43,3.08-3.14-1-4.1-6.83-8.3-13.55-8.29-7.8,0-12.74,5.43-13.33,8.29C35.83,20.1,36.91,22.27,39.13,21.51Z"/><path class="cls-2" d="M17.64,38.35a63.36,63.36,0,0,1,6.94-7.8,51.51,51.51,0,0,1,8-6.12c2.1-1.32,1.42-3-.05-3.92C29,18.28,22,19.22,17.17,23.78c-5.57,5.32-5.42,12.55-3.9,15C14.19,40.27,16.31,40.25,17.64,38.35Z"/><path class="cls-2" d="M66.77,24.43a51.08,51.08,0,0,1,7.94,6.12,63.68,63.68,0,0,1,7,7.8c1.32,1.9,3.45,1.92,4.37.43,1.51-2.45,1.67-9.68-3.9-15-4.79-4.56-11.79-5.5-15.32-3.27C65.34,21.44,64.67,23.11,66.77,24.43Z"/></g></g></svg>