<svg xmlns="http://www.w3.org/2000/svg" xmlns:xlink="http://www.w3.org/1999/xlink" viewBox="0 0 176.77 182"><defs><style>.cls-1{fill:url(#Degradado_sin_nombre_6);}.cls-2,.cls-5{fill:#fff;}.cls-3{fill:#ce0e2d;}.cls-4{fill:#70001a;}.cls-5{stroke:#fff;stroke-linecap:round;stroke-linejoin:round;stroke-width:2px;}.cls-6{fill:#ffc17a;}.cls-7{fill:#ff9d5e;}.cls-8{fill:#ff9d5f;}.cls-9{fill:#008948;}.cls-10{fill:#007a3c;}.cls-11{fill:#008848;}.cls-12{fill:#ffc07a;}.cls-13{fill:#ff9e63;}.cls-14{fill:#ffa867;}.cls-15{fill:#fd9156;}.cls-16{fill:#ff9f63;}.cls-17{fill:#00b363;}.cls-18{fill:#007a3d;}.cls-19{fill:#008849;}.cls-20{fill:#1b1213;}.cls-21{fill:#352c2d;}.cls-22{fill:#1e1314;}.cls-23{fill:#161c26;}.cls-24{fill:#ff9b5d;}.cls-25{fill:#00b362;}.cls-26{fill:#008846;}.cls-27{fill:#de7d46;}.cls-28{fill:#5e2c19;}.cls-29{fill:#fafaf9;}.cls-30{fill:#1e1414;}.cls-31{fill:#1d1616;}.cls-32{fill:#ff9e5f;}.cls-33{fill:#ffac6d;}.cls-34{fill:#ffaa6c;}.cls-35{fill:#eae3de;}.cls-36{fill:#ffcf83;}.cls-37{fill:#643421;}.cls-38{fill:#af2917;}.cls-38,.cls-39,.cls-40,.cls-41,.cls-42,.cls-43,.cls-44,.cls-45,.cls-46{fill-rule:evenodd;}.cls-39{fill:#d23b27;}.cls-40{fill:#efb735;}.cls-41{fill:#e74631;}.cls-42,.cls-47{fill:#e5a21c;}.cls-43{fill:#951200;}.cls-44{fill:#c87a12;}.cls-45{fill:#f1ce41;}.cls-46{fill:#f5f4eb;}.cls-48{fill:#f9f9f6;}</style><linearGradient id="Degradado_sin_nombre_6" x1="-2076.49" y1="-4886.54" x2="-2079.95" y2="-5043.75" gradientTransform="translate(5043.11 -2043.52) rotate(-90)" gradientUnits="userSpaceOnUse"><stop offset="0" stop-color="#70001a"/><stop offset="0.05" stop-color="#8e0020"/><stop offset="0.11" stop-color="#a80025"/><stop offset="0.18" stop-color="#bc0029"/><stop offset="0.26" stop-color="#ca002c"/><stop offset="0.35" stop-color="#d2002d"/><stop offset="0.5" stop-color="#d5002e"/><stop offset="0.65" stop-color="#d2002d"/><stop offset="0.74" stop-color="#ca002c"/><stop offset="0.82" stop-color="#bc0029"/><stop offset="0.89" stop-color="#a80025"/><stop offset="0.95" stop-color="#8e0020"/><stop offset="1" stop-color="#70001a"/></linearGradient></defs><g id="Capa_2" data-name="Capa 2"><g id="Layer_1" data-name="Layer 1"><path class="cls-1" d="M78.33,2.06C43.9,7.39,14.13,18.22,0,29.42V65.79s43.9,6.89,78.33,1.56c33.83-5.25,63.16-15.78,77.58-26.78V3.25S112.16-3.19,78.33,2.06Z"/><path class="cls-2" d="M147.35,18.94a2.27,2.27,0,1,1,0,4.53,2.27,2.27,0,1,1,0-4.53Zm0,.45a1.81,1.81,0,1,0,0,3.61,1.75,1.75,0,0,0,1.79-1.8,1.78,1.78,0,0,0-1.8-1.81Zm-.35,3h-.55V20.12a4.79,4.79,0,0,1,.9-.08,1.37,1.37,0,0,1,.82.18.57.57,0,0,1-.26,1v0a.65.65,0,0,1,.43.55,1.35,1.35,0,0,0,.18.55h-.59a1.52,1.52,0,0,1-.19-.54c0-.25-.19-.36-.49-.36H147Zm0-1.27h.25c.31,0,.55-.1.55-.33s-.16-.35-.5-.35a1.53,1.53,0,0,0-.3,0Z"/><path class="cls-3" d="M147.35,18.94a2.27,2.27,0,1,1,0,4.53,2.27,2.27,0,1,1,0-4.53Zm0,.45a1.81,1.81,0,1,0,0,3.61,1.75,1.75,0,0,0,1.79-1.8,1.78,1.78,0,0,0-1.8-1.81Zm-.35,3h-.55V20.12a4.79,4.79,0,0,1,.9-.08,1.37,1.37,0,0,1,.82.18.57.57,0,0,1-.26,1v0a.65.65,0,0,1,.43.55,1.35,1.35,0,0,0,.18.55h-.59a1.52,1.52,0,0,1-.19-.54c0-.25-.19-.36-.49-.36H147Zm0-1.27h.25c.31,0,.55-.1.55-.33s-.16-.35-.5-.35a1.53,1.53,0,0,0-.3,0Z"/><path class="cls-3" d="M150.14,21.2a2.81,2.81,0,0,1-5.62,0,2.74,2.74,0,0,1,2.82-2.66A2.7,2.7,0,0,1,150.14,21.2Z"/><path class="cls-2" d="M147.35,18.94a2.27,2.27,0,1,1,0,4.53,2.27,2.27,0,1,1,0-4.53Zm0,.45a1.81,1.81,0,1,0,0,3.61,1.75,1.75,0,0,0,1.79-1.8,1.78,1.78,0,0,0-1.8-1.81Zm-.35,3h-.55V20.12a4.79,4.79,0,0,1,.9-.08,1.37,1.37,0,0,1,.82.18.57.57,0,0,1-.26,1v0a.65.65,0,0,1,.43.55,1.35,1.35,0,0,0,.18.55h-.59a1.52,1.52,0,0,1-.19-.54c0-.25-.19-.36-.49-.36H147Zm0-1.27h.25c.31,0,.55-.1.55-.33s-.16-.35-.5-.35a1.53,1.53,0,0,0-.3,0Z"/><path class="cls-4" d="M143.65,22.57l-.05,0a1.8,1.8,0,0,0-1.17-.33,8.74,8.74,0,0,0-2,.25l-.75.2-.17.07a3.88,3.88,0,0,0-.91.53,3.49,3.49,0,0,0-.64-.17,4,4,0,0,0-1.15,0,10.43,10.43,0,0,0-4.44,1.34A14.89,14.89,0,0,0,129.07,27a18.63,18.63,0,0,0-1.55,1.9l.27-.81c.65-2,1.21-3.76,1.69-5.31.62-1.91,1.21-3.8,1.74-5.61l.28-.79c.09-.26.16-.48.22-.66s.14-.4.2-.57a1.85,1.85,0,0,0-.63-2.09,1.7,1.7,0,0,0-.44-.24,2.09,2.09,0,0,0-.8-.11,7.62,7.62,0,0,0-1.76.32h0a13.13,13.13,0,0,0-1.54.6l-.2.1a8.2,8.2,0,0,0-1.06.81,3,3,0,0,0-.6.74,1.08,1.08,0,0,0-.08.19l-.07.19s0,.09-.07.14l-.1.19a1.89,1.89,0,0,0-.09.21c-.08.19-.19.48-.36.87s-.36,1-.52,1.5-.35,1.08-.55,1.68l-.16.47c-.15.46-.31.92-.46,1.38-.46,1.43-1,3-1.48,4.67-.36,1-.72,2.09-1.09,3.23-.19.62-.4,1.28-.61,2a5.82,5.82,0,0,0-.6-1.3,4.74,4.74,0,0,0-1.28-1.23,2.58,2.58,0,0,0,.08-.26,2,2,0,0,0-.33-1.63,1.68,1.68,0,0,0-.42-.42,4.74,4.74,0,0,0-2.18-.77,7.14,7.14,0,0,0-2.3.12h0a9.86,9.86,0,0,0-3,1.2l-.08,0a14.85,14.85,0,0,0-2.9,2.44V30a3.31,3.31,0,0,0-.51-1.57,2.84,2.84,0,0,0-.69-.76,2.16,2.16,0,0,0-1.59-.47,6.14,6.14,0,0,0-3.32,1.45c-.31.25-.63.51-.93.78a1.82,1.82,0,0,0-.59-.74,1.4,1.4,0,0,0-.45-.24,1.8,1.8,0,0,0-.78-.11,6.72,6.72,0,0,0-1.73.32,10.64,10.64,0,0,0-1.42.58,3.28,3.28,0,0,0-1,.63,2.3,2.3,0,0,1-.25.23,1.53,1.53,0,0,0-.18.18,1.82,1.82,0,0,0-.56-.79l0,0A1.75,1.75,0,0,0,91,29.14a8.22,8.22,0,0,0-2,.25c-.28.07-.54.14-.75.21l-.16,0a4.19,4.19,0,0,0-.91.53,4.29,4.29,0,0,0-.64-.17,3.71,3.71,0,0,0-1.16,0A10.43,10.43,0,0,0,81,31.32a14.67,14.67,0,0,0-3.32,2.61,18.25,18.25,0,0,0-1.28,1.51,3.53,3.53,0,0,0-.5-2.45A3.29,3.29,0,0,0,74.2,31.7l0,0a4.35,4.35,0,0,0-2.27,0,7.7,7.7,0,0,0-3.18,1.43,18.8,18.8,0,0,0-1.5,1.29A2.58,2.58,0,0,0,67,34a3.26,3.26,0,0,0-1.69-1.34h0a4.21,4.21,0,0,0-2.26,0l-.09,0a9.79,9.79,0,0,0-3.17,1.67l-.41.33a1.91,1.91,0,0,0-.65-1,1.83,1.83,0,0,0-1.23-.34,6.79,6.79,0,0,0-1.75.33,12,12,0,0,0-1.47.6,3.48,3.48,0,0,0-.9.61l-.25.23a1.26,1.26,0,0,0-.24.22l-.27.33a1.56,1.56,0,0,0-.25.43l-.09.22,0,.1c0,.07-.07.13-.11.21a2,2,0,0,0-.1.21l-.24.66-.1.26c-.15.41-.31.87-.49,1.41-.11.37-.25.78-.39,1.2a5.63,5.63,0,0,0-.59-1.25,4.61,4.61,0,0,0-1.28-1.24l.09-.26A2,2,0,0,0,48.66,36a1.53,1.53,0,0,0-.42-.42,4.58,4.58,0,0,0-2.18-.76,6.77,6.77,0,0,0-2.29.11A9.58,9.58,0,0,0,41,36.07c.06-.2.12-.39.17-.58a11.38,11.38,0,0,0,.37-2.5,8.53,8.53,0,0,0-.24-2.2,9.91,9.91,0,0,0-.63-1.72l0,0a8.21,8.21,0,0,0-2.62-3,1.35,1.35,0,0,0-.26-.15A12.54,12.54,0,0,0,33,24.85a30.86,30.86,0,0,0-4.38.13h0a29.44,29.44,0,0,0-4.74.94,29.84,29.84,0,0,0-4.07,1.53,23.27,23.27,0,0,0-3,1.69,16.12,16.12,0,0,0-2.16,1.7,12.3,12.3,0,0,0-1.32,1.46,8.4,8.4,0,0,0-.51.76,5.21,5.21,0,0,0-.3.64,2.3,2.3,0,0,0-.23.88,3.8,3.8,0,0,0,.17,2.25,5,5,0,0,0,1.12,1.66,6.12,6.12,0,0,0,1.58,1.1,9.48,9.48,0,0,0,3.45.92,4.55,4.55,0,0,0,.73,0,2.64,2.64,0,0,0,.48,0c-.52,1.72-1,3.38-1.49,5s-.94,3.12-1.45,4.87l-.32,1.1c-.35,1.23-.7,2.41-1,3.54-.42,1.46-.81,2.76-1.15,3.91s-.6,2.06-.76,2.65a2.52,2.52,0,0,0-.11,1,2,2,0,0,0,.82,1.45,1.86,1.86,0,0,0,1,.32,2.15,2.15,0,0,0,.43,0,11.34,11.34,0,0,0,1.36-.32l.06,0,1.38-.5a11.58,11.58,0,0,0,1.8-.94,5.74,5.74,0,0,0,.87-.7,3.79,3.79,0,0,0,1.13-2c.1-.5.24-1.13.44-1.86s.42-1.61.67-2.54l.78-2.92c.21-.8.43-1.63.64-2.49A31.44,31.44,0,0,0,32,46.68c.72-.48,1.38-1,2-1.42a19.4,19.4,0,0,0-.78,5.66,8.34,8.34,0,0,0,.83,3.6A6.12,6.12,0,0,0,36.25,57a5.11,5.11,0,0,0,2.92.81,8.76,8.76,0,0,0,1.41-.12,9.41,9.41,0,0,0,2.86-.89A13.76,13.76,0,0,0,46,55.08l.39-.36a1.91,1.91,0,0,0,0,.24v0a1.86,1.86,0,0,0,2,1.63h0a6.3,6.3,0,0,0,2-.3,9.09,9.09,0,0,0,1.47-.6,4.65,4.65,0,0,0,1.59-1.34,3.47,3.47,0,0,0,.6-1.12l.23-.72a.14.14,0,0,0,0-.07l.21-.77c.32-1,.61-1.89.89-2.71s.58-1.54,1-2.47a17.84,17.84,0,0,1,1-2.18l.62-1,.7-1.12c.18-.3.38-.61.62-.94-.1.36-.22.72-.34,1.08v0c-.23.79-.43,1.44-.63,2.05s-.43,1.28-.63,1.8c0,0,0,.09-.05.13-.19.67-.4,1.38-.62,2.1s-.43,1.35-.7,2.14-.53,1.54-.8,2.26A2,2,0,0,0,55.32,54a1.87,1.87,0,0,0,2,1.62h.11a7.47,7.47,0,0,0,1.87-.35,8.13,8.13,0,0,0,1.47-.6,4.65,4.65,0,0,0,1.59-1.34,3.84,3.84,0,0,0,.58-1,6.37,6.37,0,0,0,.3-.79,5.39,5.39,0,0,0,.27-1l.79-2.41.84-2.28a16.52,16.52,0,0,1,.92-2.08l0-.06c.07-.15.16-.32.26-.51l0-.06.3-.59A5.23,5.23,0,0,1,67,42a1,1,0,0,0,.08-.11l.45-.73-.19.5c-.2.5-.35.87-.39,1-.15.45-.29.88-.4,1.28a13,13,0,0,0-.71,3.85,9.28,9.28,0,0,0,.56,3.45,5.51,5.51,0,0,0,2.85,3.09l.21.08.21.07.12,0a1.85,1.85,0,0,0,2-.76,2,2,0,0,0,.27-1.34,1.88,1.88,0,0,0-.14-.53A3.22,3.22,0,0,1,72,51q.09-.84.24-1.62c0-.08.07-.25.14-.48a6.37,6.37,0,0,0,1,2.24l.08.1a4,4,0,0,0,1.1.91A3.64,3.64,0,0,0,76,52.6a4.09,4.09,0,0,0,2-.33,8.92,8.92,0,0,0,1.88-1.12,17.63,17.63,0,0,0,1.64-1.43,4.59,4.59,0,0,0,3.6,3h.21A1.92,1.92,0,0,0,87,51.22a1.9,1.9,0,0,0,1.14.35h.18a6.23,6.23,0,0,0,1.8-.3,7.64,7.64,0,0,0,1.47-.61,4.8,4.8,0,0,0,1.55-1.34,4.18,4.18,0,0,0,.59-1c.08-.21.17-.42.27-.64l0-.08.32-.83,0-.06.19-.58c.12-.37.25-.75.38-1.13s.38-1.1.59-1.74a17,17,0,0,1,.66-1.72.5.5,0,0,0,0-.13,8.59,8.59,0,0,1,.48-1c.27-.47.52-.94.77-1.45s.54-1,.83-1.5c.09-.14.18-.27.28-.4a1,1,0,0,0,0,.35v.19a1.78,1.78,0,0,0,.65,1.21,1.85,1.85,0,0,0,1.1.38,2.29,2.29,0,0,0,1.17-.28,4.53,4.53,0,0,0,.53-.33,20.75,20.75,0,0,0-.35,3.91,8.09,8.09,0,0,0,.83,3.6,6,6,0,0,0,2.16,2.47,5,5,0,0,0,2.92.82,8,8,0,0,0,1.41-.13,9.11,9.11,0,0,0,2.86-.88,14.05,14.05,0,0,0,2.5-1.72,10.22,10.22,0,0,0,1.8-2c0,.09,0,.18,0,.27a14.67,14.67,0,0,0,.61,3.82,8,8,0,0,0,2.66,3.93,2,2,0,0,0,.51.29l.21.06a2,2,0,0,0,.63.11,1.86,1.86,0,0,0,1.43-.68l.06-.07a1.93,1.93,0,0,0,.32-1.39.17.17,0,0,0,0-.07,1.61,1.61,0,0,0-.13-.49,7.61,7.61,0,0,1-.14-1.3,14.6,14.6,0,0,1,0-1.51c.07-.56.15-1.11.25-1.65s.26-1.2.42-2,.35-1.63.58-2.45c0,0,0,0,0-.05a.94.94,0,0,1,0-.16,1.52,1.52,0,0,0,0,.21,6.46,6.46,0,0,0,1.11,2.77l.06.08a3.69,3.69,0,0,0,1.12.93,3.59,3.59,0,0,0,1.46.46,3.94,3.94,0,0,0,2-.33,8.35,8.35,0,0,0,1.88-1.12,13.42,13.42,0,0,0,1.3-1.1,10.7,10.7,0,0,0,.55,2.14,6.78,6.78,0,0,0,2.51,3.19,1.41,1.41,0,0,0,.42.22,2.17,2.17,0,0,0,.66.11,1,1,0,0,0,.24,0,1.79,1.79,0,0,0,1.55-1.85.6.6,0,0,0,0-.19,12.7,12.7,0,0,1,.08-2.36c.12-.89.25-1.71.4-2.47s.37-1.73.61-2.58c.11-.43.26-1,.45-1.66s.45-1.46.68-2.15l.78-2.46c.27-.85.53-1.68.77-2.48q.91-2.85,1.95-6a1.46,1.46,0,0,0,.05-.2A1.8,1.8,0,0,0,143.65,22.57ZM112.13,41.93a4.87,4.87,0,0,1-.5.91,2.66,2.66,0,0,1-.45.5,6.1,6.1,0,0,1-.53.45,1.62,1.62,0,0,1-.45.22,1,1,0,0,1-.42-.09l0,0a.36.36,0,0,1-.17-.16,4.85,4.85,0,0,1-.43-1.44,7.43,7.43,0,0,1,0-1.7,11,11,0,0,1,.3-1.81,15.43,15.43,0,0,1,.55-1.75,21.17,21.17,0,0,1,1.68-3.42h0a2.73,2.73,0,0,0,.42.45,1.76,1.76,0,0,0,.38.21l0,.07a2.53,2.53,0,0,1,.29.63l0,.09a3.53,3.53,0,0,1,.2.88,14,14,0,0,1-.15,3.54A12.53,12.53,0,0,1,112.13,41.93Zm19.44-4.29-.12.14-.26.33A25.75,25.75,0,0,1,132.46,34a27.27,27.27,0,0,1,1.87-3.62,10.92,10.92,0,0,1,1.25-1.66c-.16.55-.33,1.13-.52,1.76s-.48,1.53-.75,2.27l0,.07a12.62,12.62,0,0,1-.83,2,16,16,0,0,1-.94,1.56A7.17,7.17,0,0,1,131.57,37.64ZM82.86,39.79A12.44,12.44,0,0,1,82,41.84a16.75,16.75,0,0,1-.91,1.53l0,0a7.57,7.57,0,0,1-.93,1.18.53.53,0,0,0-.12.14l-.27.33A25.84,25.84,0,0,1,81,41a24.57,24.57,0,0,1,1.87-3.62,11.54,11.54,0,0,1,1.25-1.67l-.37,1.25-.15.51c-.23.77-.49,1.54-.76,2.28A.64.64,0,0,0,82.86,39.79ZM43.67,50.44a4.91,4.91,0,0,1-.5.9,2.8,2.8,0,0,1-.44.5c-.21.19-.4.34-.52.43a1.53,1.53,0,0,1-.47.24,1.27,1.27,0,0,1-.42-.09l0,0a.4.4,0,0,1-.18-.17,4.94,4.94,0,0,1-.43-1.44,7.41,7.41,0,0,1,0-1.7,13.4,13.4,0,0,1,.3-1.81,15.54,15.54,0,0,1,.55-1.75,21.17,21.17,0,0,1,1.68-3.42,2.33,2.33,0,0,0,.39.43,1.3,1.3,0,0,0,.41.24l0,.06a3.14,3.14,0,0,1,.3.65.64.64,0,0,0,0,.07,4.28,4.28,0,0,1,.21.89A14.42,14.42,0,0,1,44.38,48,13.09,13.09,0,0,1,43.67,50.44Zm-24-14.34,0,0a3.49,3.49,0,0,1-.66-.81.53.53,0,0,1-.07-.18,4.38,4.38,0,0,1,.87-1.29,12.43,12.43,0,0,1,2.07-1.66A10.89,10.89,0,0,1,23,31.46l-.24.33a6.48,6.48,0,0,0-.39.61,5.08,5.08,0,0,0-.38.85v0c-.39,1.28-.76,2.52-1.13,3.74l0,0A7.36,7.36,0,0,1,19.67,36.1ZM29,42.25a13.88,13.88,0,0,1-2.15,1.53l-.25.14c.25-.93.51-1.85.75-2.75.51-1.86.95-3.43,1.35-4.81s.85-3,1.31-4.6A2,2,0,0,0,29.89,30a8.34,8.34,0,0,1,1.87.4,2.13,2.13,0,0,1,1.31,1.22,6.13,6.13,0,0,1,.33,2.16,11.62,11.62,0,0,1-.58,2.87,14.32,14.32,0,0,1-2,3.81A12.23,12.23,0,0,1,29,42.25Z"/><path class="cls-3" d="M15.37,62.06a1,1,0,0,1-.59-.18,1.13,1.13,0,0,1-.47-.86,1.8,1.8,0,0,1,.08-.72c.16-.6.41-1.47.76-2.66s.73-2.46,1.15-3.92c.28-1,.58-2,.89-3.08l.45-1.55c.51-1.74,1-3.34,1.45-4.86Q20.77,38.58,22.75,32a4.3,4.3,0,0,1,.33-.74,4.59,4.59,0,0,1,.33-.52l.31-.41a5,5,0,0,1,1.38-1.06,8.57,8.57,0,0,1,1.43-.6,5.69,5.69,0,0,1,1.61-.33,1.09,1.09,0,0,1,.81.23,1.15,1.15,0,0,1,.29,1.38c-.45,1.54-.9,3.11-1.32,4.65-.4,1.39-.85,3-1.35,4.82-.4,1.44-.8,2.91-1.22,4.42a12,12,0,0,0,1.91-.9,15.39,15.39,0,0,0,2.28-1.61,13.51,13.51,0,0,0,1.91-2,15.3,15.3,0,0,0,2.15-4,12.24,12.24,0,0,0,.61-3.07,6.62,6.62,0,0,0-.39-2.51A2.94,2.94,0,0,0,32,28.05a9.09,9.09,0,0,0-2.9-.48,17,17,0,0,0-3.79.57,15.65,15.65,0,0,0-3.94,1.76,13.5,13.5,0,0,0-2.2,1.77,4.91,4.91,0,0,0-1.08,1.68,1.15,1.15,0,0,0,.17.77,4.57,4.57,0,0,0,.8,1,8.25,8.25,0,0,0,1.31,1l.18.14a1.19,1.19,0,0,1,.4.75v.17l0,.16a1.16,1.16,0,0,1-.4.55,1.48,1.48,0,0,1-1.17.25,4.07,4.07,0,0,1-.69,0A7.92,7.92,0,0,1,17,37.87a8.13,8.13,0,0,1-1.48-.56,5,5,0,0,1-1.37-1A4.12,4.12,0,0,1,13.19,35a3.05,3.05,0,0,1-.11-1.83,1.48,1.48,0,0,1,.17-.67,3.36,3.36,0,0,1,.26-.55,5.58,5.58,0,0,1,.45-.68,10.85,10.85,0,0,1,1.24-1.36,15.62,15.62,0,0,1,2-1.62,22.78,22.78,0,0,1,2.93-1.62,29.38,29.38,0,0,1,4-1.49,29.34,29.34,0,0,1,4.59-.91A29.41,29.41,0,0,1,33,24.12a11.81,11.81,0,0,1,4.4,1l.12.07a7.47,7.47,0,0,1,2.37,2.67,8.55,8.55,0,0,1,.58,1.59,6.85,6.85,0,0,1,.21,2,10.32,10.32,0,0,1-.34,2.32,13.44,13.44,0,0,1-1,2.7,17.37,17.37,0,0,1-3.07,4.27,26.59,26.59,0,0,1-4.62,3.74,31.24,31.24,0,0,1-7.34,3.41c-.24,1-.49,2-.74,2.91l-.79,2.92c-.25.93-.47,1.78-.67,2.54s-.35,1.4-.45,1.91a3,3,0,0,1-.88,1.61,4.09,4.09,0,0,1-.74.6,9.76,9.76,0,0,1-1.68.88L17,61.72a9.67,9.67,0,0,1-1.31.31Z"/><path class="cls-3" d="M39.18,55.56a4.42,4.42,0,0,1-2.47-.67,5.26,5.26,0,0,1-1.88-2.16,7.44,7.44,0,0,1-.76-3.27A17.27,17.27,0,0,1,35.19,43a17.92,17.92,0,0,1,2.41-4.31,15.1,15.1,0,0,1,3.53-3.22l0,0a9.29,9.29,0,0,1,2.75-1.11,6.47,6.47,0,0,1,2-.11,3.91,3.91,0,0,1,1.81.63l.12.09.08.12a1.17,1.17,0,0,1,.23,1,1,1,0,0,1-.51.62l-.15.06a4,4,0,0,1,2,1.45h0a4.77,4.77,0,0,1,.56,1.25,9.64,9.64,0,0,1,.2,3,17.07,17.07,0,0,1-.74,3.75A20.6,20.6,0,0,1,47.81,50,10.84,10.84,0,0,1,45.42,53a12.52,12.52,0,0,1-2.35,1.61,8,8,0,0,1-2.63.81A7,7,0,0,1,39.18,55.56Zm1.2-4.38a1.27,1.27,0,0,0,.53.5,1.72,1.72,0,0,0,.78.2,1.79,1.79,0,0,0,1-.37,6.51,6.51,0,0,0,.61-.5,4,4,0,0,0,.56-.63,6.17,6.17,0,0,0,.58-1.05,13.58,13.58,0,0,0,.77-2.62,15,15,0,0,0,.17-3.79,5,5,0,0,0-.25-1.07,3.89,3.89,0,0,0-.4-.88.91.91,0,0,0-.42-.37l-.1,0-.09-.07a1.35,1.35,0,0,1-.27-.3,1.17,1.17,0,0,1-.21-.52,1.46,1.46,0,0,1,.12-.68l.06-.13a4.78,4.78,0,0,1,1-1.24c-.15.11-.32.22-.48.35a6.64,6.64,0,0,0-1.55,1.75,23.06,23.06,0,0,0-2.07,4.08,16,16,0,0,0-.58,1.85,13.4,13.4,0,0,0-.32,1.93,9.06,9.06,0,0,0,0,1.88A6,6,0,0,0,40.38,51.18Z"/><path class="cls-3" d="M107.63,47.06a4.29,4.29,0,0,1-2.46-.68,5.27,5.27,0,0,1-1.89-2.15,7.61,7.61,0,0,1-.75-3.27,17.31,17.31,0,0,1,1.12-6.47,17.59,17.59,0,0,1,2.41-4.31A15.1,15.1,0,0,1,109.59,27l0,0a9.58,9.58,0,0,1,2.75-1.1,6.17,6.17,0,0,1,2.05-.11,3.88,3.88,0,0,1,1.81.63l.12.08.08.13a1.16,1.16,0,0,1,.22,1,.91.91,0,0,1-.5.62l-.15.06A4,4,0,0,1,118,29.66h0a4.54,4.54,0,0,1,.55,1.25,9.33,9.33,0,0,1,.21,3,16.39,16.39,0,0,1-.75,3.75,19.91,19.91,0,0,1-1.7,3.82,10.73,10.73,0,0,1-2.39,3.05,12.84,12.84,0,0,1-2.35,1.61,8.18,8.18,0,0,1-2.63.81A7.24,7.24,0,0,1,107.63,47.06Zm1.21-4.38a1.25,1.25,0,0,0,.52.5,2,2,0,0,0,.79.2,1.77,1.77,0,0,0,1-.37,7.15,7.15,0,0,0,.61-.51,3.6,3.6,0,0,0,.56-.63,5.94,5.94,0,0,0,.58-1,13.28,13.28,0,0,0,.77-2.63,14.92,14.92,0,0,0,.16-3.78,4.47,4.47,0,0,0-.24-1.07l0,0a3.1,3.1,0,0,0-.38-.83.8.8,0,0,0-.42-.38l-.1,0-.09-.07a1.41,1.41,0,0,1-.27-.29,1.2,1.2,0,0,1-.21-.56,1.43,1.43,0,0,1,.12-.66l.06-.12a5,5,0,0,1,1-1.24c-.15.11-.31.22-.47.35a6.64,6.64,0,0,0-1.55,1.75,22.4,22.4,0,0,0-2.07,4.08,14.7,14.7,0,0,0-.58,1.85,14,14,0,0,0-.32,1.92,8.41,8.41,0,0,0,0,1.88A5.74,5.74,0,0,0,108.84,42.68Z"/><path class="cls-3" d="M48.34,54.38a1.08,1.08,0,0,1-1.19-.91,1.79,1.79,0,0,1,0-.51l0-.1c.29-.78.57-1.57.83-2.35s.5-1.49.7-2.15.44-1.45.64-2.12c.51-1.76,1-3.29,1.43-4.7.19-.65.38-1.26.57-1.84s.4-1.17.56-1.67.33-1,.47-1.38l.39-1,.13-.25c0-.06.05-.12.07-.17l.13-.32.46-.53.3-.27a2.4,2.4,0,0,1,.71-.48A10.1,10.1,0,0,1,56,33.06a6,6,0,0,1,1.55-.29,1,1,0,0,1,.71.2,1.11,1.11,0,0,1,.37,1l0,.14a5.55,5.55,0,0,1-.21.6c0,.18-.13.4-.22.64,0,.09-.07.19-.11.28a17.05,17.05,0,0,1,2.22-2.05A8.86,8.86,0,0,1,63.16,32l.05,0A3.53,3.53,0,0,1,65,32a2.41,2.41,0,0,1,1.28,1,2.84,2.84,0,0,1,.34,1.72l.37-.42a14.39,14.39,0,0,1,2.16-2A6.91,6.91,0,0,1,72.06,31a3.62,3.62,0,0,1,1.85,0,2.54,2.54,0,0,1,1.3,1,3.08,3.08,0,0,1,.31,2.26,17.17,17.17,0,0,1-.44,1.86c-.14.53-.31,1.12-.52,1.82-.09.29-.55,1.67-1.09,3.26C72.86,43.05,72,45.57,72,45.82c-.21.71-.37,1.34-.49,1.94s-.19,1.11-.26,1.7a4.13,4.13,0,0,0,0,1.23,1,1,0,0,1,.11.36,1.2,1.2,0,0,1-.14.8,1,1,0,0,1-1.17.42l-.37-.13A4.72,4.72,0,0,1,67.2,49.5a8.65,8.65,0,0,1-.51-3.14,12.61,12.61,0,0,1,.68-3.65c.06-.19.26-.72.76-2.05s1.44-3.81,1.51-4.16.12-.6.14-.77l0,0a6.48,6.48,0,0,0-1,1c-.4.48-.8,1-1.2,1.57s-.75,1.12-1.06,1.63l0,.06a6.05,6.05,0,0,0-.43.69c-.13.24-.23.44-.31.61l0,0c-.1.2-.2.38-.27.54a17.63,17.63,0,0,0-1,2.21c-.3.82-.59,1.59-.85,2.31l-.82,2.46a4.2,4.2,0,0,1-.24.89,5.93,5.93,0,0,1-.27.73,3.4,3.4,0,0,1-.48.8,3.94,3.94,0,0,1-1.32,1.11A7.6,7.6,0,0,1,59,53a7.09,7.09,0,0,1-1.66.31h-.06a1.08,1.08,0,0,1-1.19-.93,1.24,1.24,0,0,1,.13-.64c.28-.74.55-1.51.82-2.31s.5-1.51.71-2.15l.63-2.12,0-.06c.21-.54.42-1.16.64-1.85s.4-1.25.64-2.07.5-1.61.71-2.36v0a8.77,8.77,0,0,0,.41-1.61c0-.12,0-.22,0-.31a4.25,4.25,0,0,0-.42.35,13.9,13.9,0,0,0-1.71,2A11.7,11.7,0,0,0,58,40.36l-.68,1.1-.65,1a21.4,21.4,0,0,0-1.09,2.28c-.38.94-.69,1.75-1,2.49S54,49,53.67,50.05l-.32,1.11-.13.42a2.52,2.52,0,0,1-.48.88,3.81,3.81,0,0,1-1.31,1.11,7.69,7.69,0,0,1-1.36.54,5.22,5.22,0,0,1-1.72.27ZM56.92,39h0Zm13.47-2.34h0Z"/><path class="cls-3" d="M85.12,50.43A4,4,0,0,1,82,46.63c-.27.31-.53.6-.79.85a17.51,17.51,0,0,1-1.78,1.58,7.64,7.64,0,0,1-1.7,1,3.24,3.24,0,0,1-1.57.28A2.74,2.74,0,0,1,75,50a2.92,2.92,0,0,1-.89-.73l0,0a5.75,5.75,0,0,1-1-2.42A9.82,9.82,0,0,1,73,44.46,10.68,10.68,0,0,1,73.46,42a3.73,3.73,0,0,1,.21-.81c.08-.23.17-.52.29-.86s.27-.77.46-1.26A31.45,31.45,0,0,1,76,36.1a16.11,16.11,0,0,1,2.29-3.05,13.6,13.6,0,0,1,3.14-2.47,9.68,9.68,0,0,1,4.13-1.23,2.89,2.89,0,0,1,.93,0,2.53,2.53,0,0,1,.92.33,3.53,3.53,0,0,1,.34-.32,3.13,3.13,0,0,1,.73-.43l.09,0,.72-.19a7.66,7.66,0,0,1,1.8-.23.9.9,0,0,1,.67.19,1,1,0,0,1,.36,1l0,.08q-1,3.16-2,6l-.47,1.51-.3,1-.78,2.46c-.26.8-.49,1.51-.68,2.16s-.34,1.19-.47,1.7c-.24.88-.45,1.76-.62,2.62l-.09.48a10.09,10.09,0,0,1-.36,1.52s0,.09,0,.14a1.22,1.22,0,0,1-1,1.07h-.13Zm0-.76h0ZM79.11,45.3h0Zm-.16,0,.09,0h0l0,0a3.4,3.4,0,0,0,.6-.41,5.87,5.87,0,0,0,1-1.06l.06-.07a8.57,8.57,0,0,0,1-1.29,14.88,14.88,0,0,0,1-1.63,12.93,12.93,0,0,0,.89-2.19l0,0c.27-.76.53-1.54.77-2.33l.16-.54c.18-.59.34-1.14.49-1.66s.36-1.24.54-1.84h0a2.75,2.75,0,0,0-.59.21,11,11,0,0,0-2.76,3.08,27.16,27.16,0,0,0-1.93,3.73,26.14,26.14,0,0,0-1.34,4.35,9.85,9.85,0,0,0-.06,1.15A2.08,2.08,0,0,0,79,45.26Z"/><path class="cls-3" d="M88.14,49.32a1.12,1.12,0,0,1-.71-.23,1.07,1.07,0,0,1-.38-.73,1.42,1.42,0,0,1,.06-.58c.29-.77.57-1.56.84-2.34s.5-1.46.71-2.11c.25-.84.45-1.53.62-2.15q.75-2.53,1.44-4.7c.18-.64.37-1.25.58-1.85L91.85,33c.17-.53.33-1,.47-1.38l.34-.9,0-.1.13-.25a1.47,1.47,0,0,0,.06-.14l.14-.35.45-.53L93.8,29a2.47,2.47,0,0,1,.76-.48A12.32,12.32,0,0,1,95.9,28a6.4,6.4,0,0,1,1.53-.28,1.06,1.06,0,0,1,.47.07l.12,0,.1.07a1,1,0,0,1,.35,1.19c0,.15-.11.34-.2.56s-.12.39-.22.65l0,0,.19-.22a20.83,20.83,0,0,1,2.42-2.27,5.43,5.43,0,0,1,2.9-1.28,1.4,1.4,0,0,1,1,.31,2.51,2.51,0,0,1,.51.58,2.42,2.42,0,0,1,.37,1.19,7.55,7.55,0,0,1-.31,2.89,10.53,10.53,0,0,1-.93,2.11,8.14,8.14,0,0,1-1.48,1.85c-.39.34-.67.58-.89.74a3.74,3.74,0,0,1-.65.42,1.4,1.4,0,0,1-.78.19.93.93,0,0,1-1-.86l0-.35,0-.16a17.51,17.51,0,0,0,.67-2.37,6.6,6.6,0,0,0,.11-.89,6.62,6.62,0,0,0-.67.65,11.05,11.05,0,0,0-.94,1.22c-.33.48-.66,1-1,1.41s-.59,1.07-.87,1.58-.49.95-.75,1.42a8.11,8.11,0,0,0-.54,1.17l0,.06c-.26.59-.49,1.19-.69,1.79s-.4,1.22-.59,1.73-.27.8-.39,1.18l-.33.93-.2.5c-.11.23-.2.46-.29.68a2.88,2.88,0,0,1-.48.84,3.88,3.88,0,0,1-1.28,1.11,7.21,7.21,0,0,1-1.34.56,5.22,5.22,0,0,1-1.58.25h-.15ZM101,35.84h0ZM96.43,33.7h0Zm7.26-5.59h0Z"/><path class="cls-3" d="M120.81,50.78a1.24,1.24,0,0,1-.37-.06l-.35-.11-.11-.1A7.21,7.21,0,0,1,117.59,47a13.66,13.66,0,0,1-.59-3.61,16.31,16.31,0,0,1,.52-4.05,9.91,9.91,0,0,1,.29-1.24c.13-.43.26-.83.38-1.21s.27-.9.42-1.37c.34-1.17.69-2.35,1-3.52s.67-2.2,1-3.19c.36-1.14.73-2.23,1.09-3.24.52-1.66,1-3.23,1.47-4.66l.48-1.41.14-.43c.2-.61.39-1.17.55-1.69s.34-1,.51-1.44.28-.69.35-.89l0-.1a1.79,1.79,0,0,0,.12-.24,1.07,1.07,0,0,0,.09-.19l.12-.29a2.33,2.33,0,0,1,.43-.53A7.16,7.16,0,0,1,127,13l.09-.05a12.87,12.87,0,0,1,1.46-.57,7,7,0,0,1,1.57-.28,1.06,1.06,0,0,1,.48.08l.11,0,.09.07a1,1,0,0,1,.35,1.18c0,.17-.11.36-.19.56s-.13.4-.22.66l-.29.82c-.53,1.81-1.11,3.7-1.73,5.59-.48,1.54-1,3.28-1.7,5.32L126.48,28c-.43,1.32-.85,2.6-1.24,3.82-.35,1-.67,2-1,3-.29.88-.56,1.76-.8,2.63s-.45,1.62-.59,2.2v0c-.24.84-.44,1.69-.6,2.51s-.31,1.51-.43,2-.18,1.13-.25,1.72a13.64,13.64,0,0,0,0,1.6,8.24,8.24,0,0,0,.17,1.53,1.1,1.1,0,0,1,.11.35,1.19,1.19,0,0,1-.15.85l0,0A1,1,0,0,1,120.81,50.78Zm1.29-11.23h0Z"/><path class="cls-3" d="M136.74,46.52a1.34,1.34,0,0,1-.4-.07l-.11,0-.09-.06a6.06,6.06,0,0,1-2.23-2.81,9.73,9.73,0,0,1-.59-3c0-.27,0-.55,0-.83-.25.29-.5.56-.74.8a20,20,0,0,1-1.78,1.57,7.85,7.85,0,0,1-1.7,1,3.13,3.13,0,0,1-1.58.27,2.74,2.74,0,0,1-1.14-.36,2.7,2.7,0,0,1-.89-.73l0,0a5.7,5.7,0,0,1-1-2.42,9.29,9.29,0,0,1-.08-2.33,10.68,10.68,0,0,1,.46-2.48,2.77,2.77,0,0,1,.21-.81c.07-.24.17-.53.28-.86s.27-.74.47-1.26a30.33,30.33,0,0,1,1.53-3,16.66,16.66,0,0,1,2.29-3.05,13.72,13.72,0,0,1,3.13-2.46,9.63,9.63,0,0,1,4.13-1.24,2.88,2.88,0,0,1,.93,0,2.54,2.54,0,0,1,.92.34c.1-.11.21-.21.33-.32a3.35,3.35,0,0,1,.75-.43l.08,0c.21-.07.45-.13.73-.2a8.21,8.21,0,0,1,1.79-.23,1,1,0,0,1,1,1.19l0,.1q-1,3.15-1.95,6-.37,1.22-.78,2.49c-.26.85-.52,1.67-.78,2.45s-.45,1.4-.68,2.17-.35,1.24-.46,1.69c-.24.86-.45,1.73-.62,2.63s-.29,1.61-.4,2.52a12,12,0,0,0-.09,2.52v.09c0,.92-.65,1.07-.84,1.09Zm-6.21-8.15h0Zm-.15,0,.08,0h0l0,0a3.45,3.45,0,0,0,.61-.41,7.69,7.69,0,0,0,1-1.06l.05-.07a8.12,8.12,0,0,0,1-1.3,17.06,17.06,0,0,0,1-1.63,14.25,14.25,0,0,0,.89-2.18v0c.28-.76.54-1.54.77-2.32s.39-1.31.56-1.9l.1-.31c.17-.62.35-1.23.53-1.84H137a4.71,4.71,0,0,0-.59.22,11,11,0,0,0-2.75,3.07,27.19,27.19,0,0,0-1.93,3.73,26.07,26.07,0,0,0-1.34,4.35,8.41,8.41,0,0,0-.06,1.15A1.73,1.73,0,0,0,130.38,38.32Z"/><path class="cls-2" d="M23.55,47.46c-.25,1.06-.51,2.09-.78,3.11s-.54,2-.79,2.93-.47,1.77-.67,2.54-.35,1.41-.46,2a2.19,2.19,0,0,1-.65,1.2,3.14,3.14,0,0,1-.61.5,8.93,8.93,0,0,1-1.57.83c-.49.19-.92.35-1.31.48a8.89,8.89,0,0,1-1.21.28c-.25.07-.4-.05-.43-.34a1,1,0,0,1,.06-.42c.16-.62.42-1.51.76-2.66s.72-2.46,1.14-3.92.88-3,1.35-4.63.95-3.25,1.44-4.86q1.68-5.66,3.67-12.24a2.91,2.91,0,0,1,.26-.59,3.21,3.21,0,0,1,.28-.43l.26-.35a4.15,4.15,0,0,1,1.16-.9,7.83,7.83,0,0,1,1.31-.55,5.2,5.2,0,0,1,1.45-.3.28.28,0,0,1,.25.07c.15.12.17.29.06.52q-.66,2.25-1.34,4.71-.62,2.13-1.35,4.82t-1.52,5.52v.1c0,.07.07.1.2.08a13.21,13.21,0,0,0,3.13-1.32,16.49,16.49,0,0,0,2.4-1.7,15.49,15.49,0,0,0,2-2.06,16.23,16.23,0,0,0,2.27-4.29A13.41,13.41,0,0,0,35,32.27a7.5,7.5,0,0,0-.45-2.84,3.75,3.75,0,0,0-2.27-2.11,9.89,9.89,0,0,0-3.15-.51,17.48,17.48,0,0,0-4,.6A16.17,16.17,0,0,0,21,29.27a14.15,14.15,0,0,0-2.33,1.87,5.94,5.94,0,0,0-1.27,2,1.94,1.94,0,0,0,.27,1.36,4.83,4.83,0,0,0,.94,1.16A8.43,8.43,0,0,0,20,36.8l.11.09a.35.35,0,0,1,.12.24.34.34,0,0,1-.12.18.78.78,0,0,1-.69.09,2.3,2.3,0,0,1-.64,0,7.08,7.08,0,0,1-1.57-.26,7.54,7.54,0,0,1-1.33-.51,4.12,4.12,0,0,1-1.18-.81,3.51,3.51,0,0,1-.76-1.13,2.35,2.35,0,0,1-.05-1.47.71.71,0,0,1,.1-.43,2.5,2.5,0,0,1,.22-.48,6.52,6.52,0,0,1,.41-.61,10.61,10.61,0,0,1,1.15-1.26,14.93,14.93,0,0,1,1.94-1.53,21.89,21.89,0,0,1,2.83-1.57,28.91,28.91,0,0,1,3.86-1.45A29.81,29.81,0,0,1,28.82,25,30.68,30.68,0,0,1,33,24.88a11.05,11.05,0,0,1,4.11.94,6.57,6.57,0,0,1,2.13,2.39,8,8,0,0,1,.52,1.43,6.54,6.54,0,0,1,.19,1.77,9.34,9.34,0,0,1-.32,2.15,12.63,12.63,0,0,1-1,2.53,17,17,0,0,1-2.94,4.09,26.13,26.13,0,0,1-4.5,3.64A29.91,29.91,0,0,1,24,47.15a.4.4,0,0,0-.19.07A.66.66,0,0,0,23.55,47.46Z"/><path class="cls-2" d="M48.86,38.57a3.79,3.79,0,0,1,.45,1,8.6,8.6,0,0,1,.19,2.73,16.2,16.2,0,0,1-.71,3.59,19.92,19.92,0,0,1-1.64,3.67,10.24,10.24,0,0,1-2.22,2.84A11.73,11.73,0,0,1,42.72,54a7.53,7.53,0,0,1-2.37.74,4.07,4.07,0,0,1-4.83-2.29,6.58,6.58,0,0,1-.68-2.95,16.4,16.4,0,0,1,1.06-6.17,17.22,17.22,0,0,1,2.3-4.12,14.42,14.42,0,0,1,3.35-3.06,8.8,8.8,0,0,1,2.51-1,5.78,5.78,0,0,1,1.8-.1,3.25,3.25,0,0,1,1.49.5c.16.24.16.41,0,.49a.45.45,0,0,1-.3,0,4.19,4.19,0,0,0-1.6.34,9.8,9.8,0,0,0-1.57,1,7.18,7.18,0,0,0-1.73,2A22.36,22.36,0,0,0,40,43.53a15,15,0,0,0-.61,1.93,13.09,13.09,0,0,0-.34,2,9.36,9.36,0,0,0,0,2.05,6.63,6.63,0,0,0,.6,2,2.06,2.06,0,0,0,.86.82,2.59,2.59,0,0,0,1.07.28,2.37,2.37,0,0,0,1.45-.49,6.73,6.73,0,0,0,.71-.58,4.47,4.47,0,0,0,.66-.74,7.31,7.31,0,0,0,.66-1.18,14.65,14.65,0,0,0,.82-2.79,15.6,15.6,0,0,0,.18-4,5.83,5.83,0,0,0-.29-1.28,4.44,4.44,0,0,0-.47-1,1.61,1.61,0,0,0-.79-.68.94.94,0,0,1-.12-.14.45.45,0,0,1-.07-.18.88.88,0,0,1,.07-.3,5.62,5.62,0,0,1,1.46-1.6C46.94,36.73,48.53,38.05,48.86,38.57Z"/><path class="cls-2" d="M117.32,30.07a4.54,4.54,0,0,1,.45,1,8.6,8.6,0,0,1,.18,2.73,15.46,15.46,0,0,1-.7,3.58,20,20,0,0,1-1.64,3.68,10.24,10.24,0,0,1-2.22,2.84,12.05,12.05,0,0,1-2.21,1.52,7.5,7.5,0,0,1-2.37.73,4.3,4.3,0,0,1-3.21-.43A4.45,4.45,0,0,1,104,43.9,6.72,6.72,0,0,1,103.3,41a16.4,16.4,0,0,1,1.06-6.17,17,17,0,0,1,2.3-4.12A14,14,0,0,1,110,27.6a8.69,8.69,0,0,1,2.51-1,5.49,5.49,0,0,1,1.8-.1,3.25,3.25,0,0,1,1.49.5c.16.24.16.41,0,.49a.45.45,0,0,1-.3,0,4.15,4.15,0,0,0-1.6.34,9.65,9.65,0,0,0-1.57,1,7.49,7.49,0,0,0-1.73,1.95A23.44,23.44,0,0,0,108.46,35a16.68,16.68,0,0,0-.6,1.93,13.09,13.09,0,0,0-.34,2,9.36,9.36,0,0,0,0,2.05,6.49,6.49,0,0,0,.6,2,2,2,0,0,0,.86.83,2.51,2.51,0,0,0,1.07.28,2.37,2.37,0,0,0,1.45-.49,7.93,7.93,0,0,0,.71-.58,5.6,5.6,0,0,0,.66-.74,7,7,0,0,0,.66-1.19,14.31,14.31,0,0,0,.82-2.78,15.63,15.63,0,0,0,.18-4,5.32,5.32,0,0,0-.3-1.28,3.87,3.87,0,0,0-.46-1,1.68,1.68,0,0,0-.79-.69.38.38,0,0,1-.12-.13.45.45,0,0,1-.07-.18.76.76,0,0,1,.07-.31,5.62,5.62,0,0,1,1.46-1.59C115.4,28.23,117,29.55,117.32,30.07Z"/><path class="cls-2" d="M70.39,36.66a4.69,4.69,0,0,0,.16-1.34c0-.32-.13-.49-.31-.5a1.23,1.23,0,0,0-1,.34,7.16,7.16,0,0,0-1.17,1.17q-.61.73-1.23,1.62c-.42.59-.78,1.15-1.1,1.68a7.7,7.7,0,0,0-.5.79l-.31.63c-.11.21-.22.4-.3.57a20,20,0,0,0-1,2.28c-.3.82-.58,1.59-.85,2.3L62,48.75a3.49,3.49,0,0,1-.22.81c-.08.24-.16.47-.26.7a2.31,2.31,0,0,1-.37.6,3,3,0,0,1-1.07.92,7.07,7.07,0,0,1-1.22.49,5.87,5.87,0,0,1-1.5.28c-.27,0-.42-.07-.43-.24a.41.41,0,0,1,.07-.25c.29-.78.57-1.58.84-2.38s.5-1.52.71-2.16l.63-2.14c.21-.54.44-1.17.66-1.89s.45-1.4.65-2.08.49-1.58.71-2.39a9.76,9.76,0,0,0,.44-1.76,4.07,4.07,0,0,0,0-.89.65.65,0,0,0-.24-.41c-.36-.11-.84.12-1.46.7a13.89,13.89,0,0,0-1.81,2.11c-.3.39-.57.79-.82,1.19s-.47.77-.67,1.09L56,42.11a21.41,21.41,0,0,0-1.15,2.39c-.36.89-.68,1.73-1,2.52s-.62,1.85-.92,2.8c-.07.27-.15.54-.22.81s-.15.48-.23.71a1.91,1.91,0,0,1-.34.63,3.23,3.23,0,0,1-1.07.92,7.68,7.68,0,0,1-1.23.49,4.77,4.77,0,0,1-1.5.23c-.27,0-.42-.08-.44-.23a1.29,1.29,0,0,1,0-.25c.29-.79.57-1.58.84-2.38s.5-1.52.7-2.16.44-1.46.64-2.14q.75-2.54,1.43-4.67c.18-.61.36-1.22.57-1.83s.39-1.18.56-1.69.32-1,.46-1.35l.34-.9c.06-.1.1-.2.15-.28l.1-.24.08-.2.27-.33.35-.31a1.81,1.81,0,0,1,.5-.33,9.53,9.53,0,0,1,1.29-.53,5.22,5.22,0,0,1,1.38-.25.2.2,0,0,1,.16,0c.07,0,.1.16.08.33a4.12,4.12,0,0,1-.19.56c0,.17-.12.38-.21.62s-.2.51-.3.81l-.27.82c-.1.27-.21.59-.33.95l-.4,1.24,0,.2c0,.09.09,0,.24-.13a25.5,25.5,0,0,1,2.11-2.71,15.34,15.34,0,0,1,2.22-2.08,8.06,8.06,0,0,1,2.66-1.41,2.64,2.64,0,0,1,1.42,0,1.68,1.68,0,0,1,.87.7,2.7,2.7,0,0,1,.16,1.76l-.17.76a13,13,0,0,1-.52,1.72v.2c0,.09.1,0,.25-.13s.38-.59.61-.91l.69-.94c.25-.34.55-.69.88-1.06a14,14,0,0,1,2.06-1.92,6.12,6.12,0,0,1,2.56-1.15,2.87,2.87,0,0,1,1.48,0,1.76,1.76,0,0,1,.89.7,2.47,2.47,0,0,1,.19,1.71q-.17.86-.42,1.77c-.15.54-.32,1.14-.52,1.8s-2.5,7.44-2.62,7.9c-.2.68-.37,1.34-.5,2s-.2,1.16-.27,1.77A4.54,4.54,0,0,0,70.51,51a.21.21,0,0,1,.07.14.49.49,0,0,1,0,.3c-.06.1-.17.13-.35.09L70,51.46a4,4,0,0,1-2.08-2.22,7.47,7.47,0,0,1-.46-2.85,11.29,11.29,0,0,1,.65-3.45C68.2,42.6,70.26,37.3,70.39,36.66Z"/><path class="cls-2" d="M85.17,49.67h0a3.41,3.41,0,0,1-2.41-3.41A7.56,7.56,0,0,1,83,44.37c0-.1,0-.15-.11-.13a.45.45,0,0,0-.14.11,19.75,19.75,0,0,1-2.15,2.59,16,16,0,0,1-1.7,1.5,7.19,7.19,0,0,1-1.53.93,2.56,2.56,0,0,1-1.2.22,2.13,2.13,0,0,1-.85-.26,2.2,2.2,0,0,1-.67-.56,4.86,4.86,0,0,1-.84-2.09,8.72,8.72,0,0,1-.08-2.14,10.52,10.52,0,0,1,.45-2.41,3,3,0,0,1,.18-.7c.08-.24.17-.53.29-.87s.27-.75.46-1.23a30.24,30.24,0,0,1,1.47-2.85,15.85,15.85,0,0,1,2.19-2.91,12.77,12.77,0,0,1,3-2.32,8.85,8.85,0,0,1,3.81-1.14,2.07,2.07,0,0,1,.71,0,1.58,1.58,0,0,1,1,.55.24.24,0,0,0,.06.09c0,.06.09.06.15,0a2.92,2.92,0,0,1,.32-.42,1.82,1.82,0,0,1,.34-.34,2,2,0,0,1,.55-.32l.7-.19a7.56,7.56,0,0,1,1.66-.21.35.35,0,0,1,.16,0,.23.23,0,0,1,.07.25q-1,3.17-1.95,6l-.77,2.5-.78,2.44c-.26.78-.49,1.51-.68,2.19s-.36,1.25-.48,1.72c-.24.88-.45,1.76-.63,2.67A13.15,13.15,0,0,1,85.6,49C85.5,49.24,85.5,49.63,85.17,49.67Zm-.81-10.85c.29-.78.56-1.57.79-2.37l.66-2.2c.22-.78.44-1.54.67-2.29a.27.27,0,0,0,0-.2v-.05a.66.66,0,0,0-.52-.3,1.88,1.88,0,0,0-.63.05,3.92,3.92,0,0,0-.78.3,11.6,11.6,0,0,0-3,3.33,25.79,25.79,0,0,0-3.38,8.36,10.19,10.19,0,0,0-.06,1.28,2.25,2.25,0,0,0,.14.86.63.63,0,0,0,.56.42.66.66,0,0,0,.6-.07,3.83,3.83,0,0,0,.76-.51,7,7,0,0,0,1.1-1.19,10.21,10.21,0,0,0,1.12-1.41,18.71,18.71,0,0,0,1-1.69A13,13,0,0,0,84.36,38.82Z"/><path class="cls-2" d="M96.43,33.7a38.75,38.75,0,0,1,2.37-3.07,19.2,19.2,0,0,1,2.32-2.17,4.6,4.6,0,0,1,2.48-1.11.63.63,0,0,1,.48.15,1.52,1.52,0,0,1,.34.39,1.79,1.79,0,0,1,.25.85,6.7,6.7,0,0,1-.28,2.57,9.81,9.81,0,0,1-.86,2A7.33,7.33,0,0,1,102.18,35c-.34.3-.61.53-.82.69a5,5,0,0,1-.54.36.7.7,0,0,1-.4.1c-.14,0-.21,0-.22-.17l0-.2a17.94,17.94,0,0,0,.69-2.47,4.66,4.66,0,0,0,.11-1.33c0-.36-.14-.57-.32-.64a.79.79,0,0,0-.74.21,6,6,0,0,0-.93.87,13.52,13.52,0,0,0-1,1.29q-.49.75-1,1.44c-.31.56-.61,1.1-.89,1.63s-.47.92-.74,1.4a8.39,8.39,0,0,0-.6,1.3A19.43,19.43,0,0,0,94,41.3c-.2.63-.4,1.19-.58,1.7l-.58,1.73c-.11.28-.21.55-.32.82s-.21.49-.3.72a2.47,2.47,0,0,1-.36.64,3.26,3.26,0,0,1-1.05.92,6.32,6.32,0,0,1-1.2.49,4.25,4.25,0,0,1-1.41.23c-.26,0-.41,0-.43-.26a.65.65,0,0,1,0-.25c.29-.78.57-1.56.85-2.35s.5-1.49.71-2.13.43-1.47.63-2.18c.5-1.69,1-3.25,1.43-4.67q.26-.91.57-1.83l.56-1.68c.16-.51.31-1,.46-1.35s.26-.69.34-.89l.14-.29a2.29,2.29,0,0,0,.11-.23l.08-.21.27-.32.34-.32a1.76,1.76,0,0,1,.56-.33,9.89,9.89,0,0,1,1.27-.53,5.25,5.25,0,0,1,1.35-.24l.16,0a.26.26,0,0,1,.08.33c0,.17-.11.36-.19.56a6,6,0,0,1-.22.62c-.09.24-.19.51-.29.81s-.11.44-.18.71-.16.53-.26.86-.23.75-.38,1.22l0,.14C96.25,33.87,96.31,33.85,96.43,33.7Z"/><path class="cls-2" d="M122.1,39.55c-.24.88-.45,1.74-.61,2.57s-.31,1.51-.42,2-.19,1.2-.27,1.8a15.63,15.63,0,0,0,0,1.71,9.32,9.32,0,0,0,.22,1.78.6.6,0,0,1,0,.49.32.32,0,0,1-.35.09l-.21-.07a6.49,6.49,0,0,1-2.15-3.16,12.94,12.94,0,0,1-.55-3.4,15.42,15.42,0,0,1,.5-3.88,8.66,8.66,0,0,1,.28-1.18c.12-.43.25-.82.38-1.2s.26-.9.41-1.37c.35-1.18.7-2.36,1-3.53s.68-2.22,1-3.18c.35-1.11.71-2.19,1.08-3.21q.8-2.54,1.48-4.68c.2-.61.41-1.23.62-1.84s.39-1.18.55-1.7.33-1,.49-1.38l.36-.9c.06-.11.11-.2.15-.29l.1-.23.08-.21a1.78,1.78,0,0,1,.27-.33,6.5,6.5,0,0,1,.85-.64,13.77,13.77,0,0,1,1.37-.54,5.53,5.53,0,0,1,1.4-.24.24.24,0,0,1,.25.36c0,.17-.12.35-.2.56s-.12.38-.21.64-.19.53-.29.84c-.55,1.86-1.13,3.73-1.74,5.59q-.75,2.45-1.7,5.32l-1.77,5.48c-.36,1.06-.69,2.07-1,3.06s-.55,1.73-.81,2.64S122.24,39,122.1,39.55Z"/><path class="cls-2" d="M137,45.39c0,.22-.07.35-.17.36a.44.44,0,0,1-.2,0,5.18,5.18,0,0,1-2-2.45,8.63,8.63,0,0,1-.56-2.72,13.31,13.31,0,0,1,.38-3.13c0-.1,0-.14-.12-.13l-.14.11A19.77,19.77,0,0,1,132.06,40a17.36,17.36,0,0,1-1.7,1.51,7.35,7.35,0,0,1-1.53.92,2.46,2.46,0,0,1-1.21.22,2,2,0,0,1-.84-.26,2.06,2.06,0,0,1-.67-.55,4.71,4.71,0,0,1-.84-2.1,8.25,8.25,0,0,1-.08-2.14,10.34,10.34,0,0,1,.45-2.4,2.24,2.24,0,0,1,.18-.71c.08-.24.17-.53.29-.87s.26-.75.45-1.23A29.26,29.26,0,0,1,128,29.55a15.57,15.57,0,0,1,2.18-2.91,12.86,12.86,0,0,1,3-2.33,8.8,8.8,0,0,1,3.8-1.14,2.42,2.42,0,0,1,.72,0,1.57,1.57,0,0,1,1,.56.12.12,0,0,0,.06.09c0,.06.09.05.15,0a3.85,3.85,0,0,1,.31-.43,2.86,2.86,0,0,1,.35-.34,2.16,2.16,0,0,1,.55-.32l.69-.19a7.2,7.2,0,0,1,1.67-.2.19.19,0,0,1,.15,0,.23.23,0,0,1,.08.25c-.69,2.1-1.34,4.11-1.95,6q-.37,1.22-.78,2.49c-.26.85-.52,1.66-.77,2.44s-.49,1.51-.69,2.19-.36,1.25-.47,1.72q-.37,1.32-.63,2.67c-.16.77-.29,1.63-.41,2.57A13.6,13.6,0,0,0,137,45.39Zm-1.17-13.5c.29-.79.55-1.58.79-2.37s.45-1.54.65-2.21.44-1.54.67-2.29a.25.25,0,0,0,0-.19v0a.73.73,0,0,0-.52-.31,1.68,1.68,0,0,0-.64.06,3.53,3.53,0,0,0-.78.29,11.69,11.69,0,0,0-3,3.33A28.26,28.26,0,0,0,131,32a26,26,0,0,0-1.39,4.52c-.05.5-.07.93-.07,1.28a2.56,2.56,0,0,0,.14.87.66.66,0,0,0,.56.42.69.69,0,0,0,.61-.08,4.14,4.14,0,0,0,.76-.51,6.88,6.88,0,0,0,1.09-1.18,9.16,9.16,0,0,0,1.13-1.42,15.69,15.69,0,0,0,1-1.69A14,14,0,0,0,135.79,31.89Z"/><path class="cls-5" d="M106.3,81.37l-.76.35h0c-1.35.34-1.35,1.39-1.23,2.44.08.62,1,3.49,1.37,3.41h0c-.16.33-.31.65-.47,1,0,0-2.53,8.78-3.11,11a7.7,7.7,0,0,0,1,6.17,1.94,1.94,0,0,0,.52.4h0c.6,1.35,1.92,1.86,3,2.57,1.92,1.22,3.85,2.41,5.78,3.61.79.76-.09,1.69.66,4.1.5,1.33,1.66,2.2,2.37,3.39l1,.9h0l-.24.79c0,1-.84,1.73-.88,2.72l-1,2.81h0l-1.61-.71c-.56-1.28-1.72-1.55-2.93-1.74h0c-4.09-1.07-7,.56-9.25,3.92-1.82,2.69-3.84,5.25-5.79,7.86a1.42,1.42,0,0,0-.39,1l1.6,1h0l5.83,4.63h0l2.43,2h0c2.28,2.29,4.58,4.58,6.85,6.9,1.09,1.12,2.13,2.3,3.19,3.46h0a12.31,12.31,0,0,0,2.07,2.54h0c.1.52.59.75.86,1.14h0l2.3,3.13c1.22-2.06,4.64-12.07,5.52-12.16.61-.06,4.09,3.9,4.71,4.31l1.62,1.69a.53.53,0,0,0,.8.05c.12-.17.23-.34.34-.51l1.13-1.06a1.76,1.76,0,0,0,1-1c.12.54.59.8,1.05,1.07a69.68,69.68,0,0,1,6.65,5.34A9.22,9.22,0,0,0,156,158c.68-1,7.67-10,9.93-12.65.82-.95,2.47-1.24,3.65-2a35.33,35.33,0,0,1,4.74-3c2.14-1.67.43-2-.12-2.11-.93,0-1.54.71-2.27,1.14l-.2.14a.38.38,0,0,1,.16-.17,26.38,26.38,0,0,0,2.65-2.7,11.21,11.21,0,0,0,.77-.91c.33-.46.06-.87-.25-1.2s-.73-.21-1.07.09a38.3,38.3,0,0,1-3.54,3.1c.49-.53,2.76-3.38,3.44-4.22.53-.65,1.06-1.33.13-2.09s-1.44,0-1.95.63a44.09,44.09,0,0,1-3.19,4.13c-.18,0-.42.3-.49-.11a31.21,31.21,0,0,1,2.39-4.07c.31-.52.71-1,0-1.51a1.18,1.18,0,0,0-1.87.28c-1.35,2.08-2.68,4.17-4,6.26h0c-.45.4-.9.23-1.36,0,0-.63,0-1.27.09-1.91s.15-1.23-.54-1.55a1.45,1.45,0,0,0-1.85.39,27.34,27.34,0,0,0-.27,7c.15.22.57,1.55.72,1.78h0c-2.9,3.67-5.83,7.32-8.69,11-.19.25-.45.46-.66.71-1,.76-2.21,1.89-3.32,2a5.39,5.39,0,0,1-3.16-.31h0l-8-6.55c1.45-2.07,1.5-2.13-.34-3.75-3.49-3.08-6.68-6.48-10.41-9.28a2.33,2.33,0,0,0-1.17-.66h0c-.32-.65-.37-1.47-1.12-1.87-.32-.28-.55,0-.81.14l-.25.06c-.74-.19-.22-1.28-1-1.42h0c0-.11,0-.21,0-.32a2.21,2.21,0,0,0,.54-1.37l.07-.53h0c.52-.52.38-1.47,1.17-1.82h0a4.35,4.35,0,0,0,1.3,1.12h0c2.88,3,6.55,3.54,10.36,3a50.22,50.22,0,0,0,7.88-2.21c3.36-1,4.66-3.55,5.17-6.72.12-.77,1.76-6.9,2.14-8.43,1-3.93,2.16-7.8,3.35-11.66.15-.51.11-.81-.09-1a40.6,40.6,0,0,0,6,.9c.66.16,1.58.8,2,.19s-.44-1.24-.7-1.88-.65-1.58-1-2.37l5.48,1,8.75,2.21c.64.16.65-.17.63-.67-.07-2.09-1.06-3.84-2-5.63C171.26,91.51,163.28,86,160.23,85.2c1.25-1.12,2.86-1.23,4.35-2-1.91-.91-3.86-1-5.71-1.48A64,64,0,0,1,156.24,75c-1.12-2.83-2.07-5.72-3.13-8.57a2.4,2.4,0,0,0-3-1.49c-.26.06-1.06.35-2.07.73-3.47-5.46-11-8.36-17.64-6.58-3.19.86-16.58,4.1-19,4.81-1.57.46-2.82.6-4.23-.62-2.44-2.1-3.78-2.84-5-3.84A2.16,2.16,0,0,0,99.64,59c-.9.54-.73,1.48-.44,2.35.24.52.66,2.65,1,3.09h0c.09.35,1.5,5.82,1.93,7.15,1.44,4.44,2,6.38,4.15,9C106.46,80.85,106.32,81.11,106.3,81.37Zm11.07,28.81s0,0-.06,0c.18-.43.44-1.06.74-1.8A5.07,5.07,0,0,1,117.37,110.18ZM149.81,157a5.41,5.41,0,0,0,.94-.53A3.66,3.66,0,0,1,149.81,157Zm-26-17.87h0l0,0S123.78,139.16,123.79,139.14Zm-1.13-6.63Zm39,10.2a5.9,5.9,0,0,0-.09-.74l.08.17c0,.19,0,.38,0,.57Zm-50.37-14.25v0l0,0Z"/><path class="cls-6" d="M115.5,119.81l1,.9a4.74,4.74,0,0,0,1,1.44c1.84,1.91,3.62,3.88,5.57,5.69a5.76,5.76,0,0,0,1.45.95,4.35,4.35,0,0,0,1.3,1.12,11.28,11.28,0,0,0,7.74,2.25,33,33,0,0,0,6.57-1.38c1.06-.31,2.13-.55,3.17-.9a2.78,2.78,0,0,0,2-2.23q2.12-8.88,4.69-17.64a9.41,9.41,0,0,0,.37-2.58,3.79,3.79,0,0,0-3.07-4,45.71,45.71,0,0,1-13.33-5.37c-2.25-1.4-4.51-2.8-6.65-4.38-1.79-.06-3.18,1-4.71,1.69-.18.77-.49,1.51-.65,2.29a3.87,3.87,0,0,1-.56,1.42,3.2,3.2,0,0,0-.4,1.35,4.86,4.86,0,0,1-.78,2.24c-.77,1.8-1.43,3.63-2,5.5a5.22,5.22,0,0,1-.71,2,1.74,1.74,0,0,1-1.26-1.86c.36-3.51-1.73-6.22-2.83-9.24a13.71,13.71,0,0,1-.8-1.8c-1.13-2.75-2.3-5.47-3.48-8.19-.2-.45-.33-1-.89-1.15-1.07-.06-1.51.68-1.9,1.49A32,32,0,0,0,105,93.36c-.77,2.39-1.48,4.81-2.14,7.24a6.78,6.78,0,0,0,.81,5.54c.6,1.35,1.92,1.86,3,2.57,1.92,1.22,3.85,2.41,5.78,3.61.79.76-.09,1.69.66,4.1C113.63,117.75,114.79,118.62,115.5,119.81Z"/><path class="cls-7" d="M127.07,93.86c1.2,1.42,2.92,2.13,4.4,3.16a46.65,46.65,0,0,0,11.3,5.64c1.19.41,2.44.69,3.67,1,3.14.89,4.12,2.51,3.22,5.67-.8,2.84-1.67,5.67-2.43,8.52-.84,3.21-1.58,6.44-2.37,9.66a2.3,2.3,0,0,1-1.76,2c-3.67,1-7.28,2.35-11.15,2.27a15.63,15.63,0,0,1-6.21-1.86c2.88,3,6.55,3.54,10.36,3a50.22,50.22,0,0,0,7.88-2.21c3.36-1,4.66-3.55,5.17-6.72.12-.77,1.76-6.9,2.14-8.44,1-3.92,2.16-7.79,3.35-11.65.25-.83,0-1.14-.65-1.4a.79.79,0,0,0-.52-.39c-4.33-.94-8.73-1.62-12.91-3.16a56.26,56.26,0,0,1-10.48-5.07,3.91,3.91,0,0,0-1.58-.78C127.94,93.19,127.23,93,127.07,93.86Z"/><path class="cls-8" d="M165.91,145.35c.82-.95,2.47-1.24,3.65-2a35.33,35.33,0,0,1,4.74-3c2.14-1.67.43-2-.12-2.11-.93,0-1.54.71-2.27,1.14l-.2.14a.38.38,0,0,1,.16-.17,26.38,26.38,0,0,0,2.65-2.7,11.21,11.21,0,0,0,.77-.91c.33-.46.06-.87-.25-1.2s-.73-.21-1.07.09a38.3,38.3,0,0,1-3.54,3.1c.49-.53,2.76-3.38,3.44-4.22.53-.65,1.06-1.33.13-2.09s-1.44,0-1.95.63a44.09,44.09,0,0,1-3.19,4.13c-.18,0-.42.3-.49-.11a31.21,31.21,0,0,1,2.39-4.07c.31-.52.71-1,0-1.51a1.18,1.18,0,0,0-1.87.28c-1.36,2.08-2.68,4.17-4,6.26a.77.77,0,0,0,0,.88c1.36,2.45,1.05,3.22-1.55,3.92-.27.06,0,1.06-.74.4a.7.7,0,0,0-1-.06v.57a2,2,0,0,0,1.08,1.5c.78.44.69.9.22,1.55-2.8,3.8-5.68,7.54-8.73,11.14a9.19,9.19,0,0,1-1.62,1.49c-2.88,2.14-5.31,2.07-8.12-.16-2.15-1.71-4.22-3.52-6.38-5.22a5.46,5.46,0,0,0-2.19-1.37,2.15,2.15,0,0,0-1.37,1.47c0,.78.56,1.06,1.1,1.38a69.68,69.68,0,0,1,6.65,5.34A9.22,9.22,0,0,0,156,158C156.66,157,163.65,148,165.91,145.35Z"/><path class="cls-6" d="M135.93,151.8c2.84,2.29,5.7,4.54,8.5,6.87s6.14,2.21,9.07-.6a71.56,71.56,0,0,0,6.95-8.48c1.05-1.37,2.07-2.77,3.16-4.1.51-.62.4-1-.25-1.26a5.74,5.74,0,0,1-1.73-1.52c-2.9,3.67-5.83,7.32-8.69,11-.34.45-1,.75-1,1.43a4.19,4.19,0,0,1-4.39,2.08c-1.57-.1-2.42-1.36-3.51-2.21-1.83-1.41-3.59-2.93-5.39-4.4-.38-.31-.73-.69-1.31-.6C136.54,150.35,135.85,150.76,135.93,151.8Z"/><path class="cls-6" d="M115.35,124.22l-1,2.81a1.76,1.76,0,0,0-.35,2c.73,2.51,4.36,5.3,7,5.4,1.34.06,1.6-.2,1.7-1.62l0-.32c.24-.43.12-1,.54-1.37l.07-.53c-2-2.71-4.32-5.13-6.45-7.71-.46-.56-.77-.3-1,.21A7.43,7.43,0,0,1,115.35,124.22Z"/><path class="cls-9" d="M137.79,149.61c1.45-2.07,1.5-2.13-.34-3.75-3.49-3.08-6.68-6.48-10.41-9.28a2.33,2.33,0,0,0-1.17-.66c-.32-.2-.68-.18-.83.14-.49,1-1.27,1.86-1.39,3,2.83.84,4.71,3,6.75,4.9,1.86,1.75,3.6,3.61,5.51,5.31a2.23,2.23,0,0,0,1.28.74C137.45,150,137.7,149.91,137.79,149.61Z"/><path class="cls-10" d="M123.77,139.19a19.55,19.55,0,0,0,1.4-3c.07-.29.43-.27.7-.31-.32-.65-.37-1.47-1.12-1.87-.32-.28-.55,0-.81.14l-.25.06c-.25.81-.67,1.55-1,2.34a4.59,4.59,0,0,1-.24.88,4.05,4.05,0,0,1-.65,1.14c-2.29,4.43-4.23,9-6.34,13.54a10.68,10.68,0,0,0-1.26,3.18,12.31,12.31,0,0,0,2.07,2.54c1.67-3.74,3.24-7.51,4.85-11.26.82-1.93,1.68-3.84,2.49-5.77C123.88,140.3,124.23,139.77,123.77,139.19Z"/><path class="cls-11" d="M123,136.68c.13-.84,1.2-1.41.68-2.43-.74-.19-.22-1.28-1-1.42-.72,1.37-1.22,1.53-2.85,1a8.68,8.68,0,0,1-5.09-4,3.7,3.7,0,0,1-.43-2.83l-1.61-.71c-1.53-.08-1.33,1.14-1.54,2.05a4.19,4.19,0,0,1,2.08,2.36,7.9,7.9,0,0,0,6.89,5.05,3.44,3.44,0,0,1,1.78.62C122.23,136.64,122.55,137,123,136.68Z"/><path class="cls-8" d="M115.35,124.22c.61-.24.44-1,1-1.41l5.39,6.33a4.18,4.18,0,0,0,1.57,1.47c.52-.52.38-1.47,1.17-1.82l-8-8.08-.24.79C116.23,122.5,115.39,123.23,115.35,124.22Z"/><path class="cls-12" d="M161.62,142.14c.8,0,1.31,1,2.22.76.07-.53-.73-.45-.55-1,1.13-.13,2.12-.43,2.42-1.74a2.61,2.61,0,0,0-.88-2.42c-.36-.4-.85-.25-1.23-.5-.53-.33-.31-.86-.34-1.32s.19-1.16-.2-1.67c-1.12-.39-1.4-.26-1.5.86-.17,1.91-.15,3.82-.3,5.73a1.35,1.35,0,0,0,.09.74Z"/><path class="cls-13" d="M161.63,142.71c0-.2-.24-1.5-.22-1.7.34-2,.22-4,.37-6,.09-1.15.25-1.21,1.28-.5.18,1-.62,2.13.42,3a.32.32,0,0,0,0-.51c0-.63,0-1.27.09-1.91s.15-1.23-.54-1.55a1.45,1.45,0,0,0-1.85.39,27.34,27.34,0,0,0-.27,7C161.06,141.15,161.48,142.48,161.63,142.71Z"/><path class="cls-14" d="M137.79,149.61l-.49.31a.2.2,0,0,0,0,.28c1.38.39,2.23,1.55,3.3,2.37,1.75,1.35,3.4,2.84,5.11,4.26a2.16,2.16,0,0,0,1.72.68c0-.7-.78-.47-1.06-.85Z"/><path class="cls-15" d="M163.48,137v.51a2,2,0,0,1,2,2.14,1.87,1.87,0,0,1-1.87,2.06c-.12,0-.22.15-.33.22,1,.11,2,0,2.45-1a2.51,2.51,0,0,0-.48-3.1,1.18,1.18,0,0,1-.42-.82C164.39,137.4,163.94,137.23,163.48,137Z"/><path class="cls-16" d="M145.8,156.16c.13.56,1.42,1,1.68,1.35a6,6,0,0,0,5.37-3.5c-1,.65-2.54,2.29-3.89,2.46A5.39,5.39,0,0,1,145.8,156.16Z"/><path class="cls-8" d="M123.2,131.14c-.79.22-.44.89-.54,1.37A2.21,2.21,0,0,0,123.2,131.14Z"/><path class="cls-17" d="M108.21,88.12c1.12,2.7,2.23,5.4,3.36,8.08a7.42,7.42,0,0,0,.7,1.14C115.1,96,118.07,95.08,121,94c4.17-1.51,8.31-3.12,12.48-4.66,4.59-1.71,9.22-3.32,13.76-5.15.39-.15.77-.3,1.15-.47,1.2-.53,1.34-.9.89-2.13-1.4-3.79-2.86-7.54-4.19-11.35a5.13,5.13,0,0,0-.68-1.34,2.69,2.69,0,0,0-1.93-1.19c-1.84,0-3.38,1.07-5.08,1.57-2.51,1.11-5.15,1.87-7.7,2.84-7.31,2.79-14.67,5.46-22,8.2a3.38,3.38,0,0,0-1.41,1l-.76.35a.41.41,0,0,0-.13.48c.7,1.62,1.14,3.33,1.83,5C107.42,87.62,107.86,87.83,108.21,88.12Z"/><path class="cls-18" d="M137.44,69.54a14.25,14.25,0,0,0,3.3-1.11,3.93,3.93,0,0,1,1.69-.37c1.69-.72,3.5-1.1,5.16-1.91.2-.09.43-.15.54-.37-3.45-5.51-11-8.44-17.7-6.65-3.19.86-16.58,4.1-19,4.81-1.57.46-2.82.6-4.23-.62-2.44-2.1-3.78-2.84-5-3.84A2.16,2.16,0,0,0,99.64,59c-.9.54-.73,1.48-.44,2.35.24.52.66,2.65,1,3.09.23-.35.29-.9.86-.17,1.19,1.51,2.36,3,3.54,4.55a5.35,5.35,0,0,0,3.86,2.06,29.72,29.72,0,0,0,7.65-.43,100,100,0,0,0,13-2.66,5.26,5.26,0,0,1,5.41,1.38A2.05,2.05,0,0,0,137.44,69.54Z"/><path class="cls-19" d="M142.46,67.6s0,.3,0,.46a2.6,2.6,0,0,1,2.21,2c1.39,4,2.9,8,4.46,12,.29.72.08,1-.64,1.3-3.27,1.27-6.54,2.49-9.85,3.65-4.1,1.44-8.12,3.11-12.19,4.64q-6.63,2.49-13.29,4.89c-.48.17-.87.22-.86.82a2.36,2.36,0,0,0,.74,1.71,4,4,0,0,0,2.6-.58c2-.79,4-1.47,6-2.2.34-.13.7-.24.85-.63l4.56-1.79,1.46-.59c1.18.31,2.15-.37,3.14-.75,6.69-2.52,13.41-4.94,20.09-7.46,1.87-.75,3.76-1.44,5.64-2.18.57-.22,1.39-.24,1.47-1.15A64,64,0,0,1,156.24,75c-1.12-2.83-2.07-5.72-3.13-8.57a2.4,2.4,0,0,0-3-1.49C149.42,65.14,144.41,67.18,142.46,67.6Z"/><path class="cls-19" d="M137.44,69.54a2.18,2.18,0,0,1-2.63-.66c-1.88-2-4.17-2-6.64-1.28a91.19,91.19,0,0,1-12.57,2.55,23.3,23.3,0,0,1-7.08.36,5.26,5.26,0,0,1-3.6-1.86c-1.49-1.8-2.61-4-4.62-5.51,0,.52-.09.9-.13,1.29s1.5,5.82,1.93,7.15c1.44,4.44,2,6.38,4.15,9,.21.26.07.52,0,.79,3.26-1.37,6.58-2.58,9.92-3.75S123,75,126.46,73.77s6.56-2.62,10-3.56A1.5,1.5,0,0,0,137.44,69.54Z"/><path class="cls-20" d="M158.87,81.73c-1.79,1.2-3.93,1.56-5.85,2.45-.45.21-.92.37-1.39.55.23.9,1.11,1,1.74,1.35a26.28,26.28,0,0,1,11.85,12.24c.37.81.3,1.84,1.17,2.4l8.75,2.21c.64.16.65-.17.63-.67-.07-2.09-1.06-3.84-2-5.63C171.26,91.51,163.28,86,160.23,85.2c1.25-1.12,2.86-1.23,4.35-2C162.67,82.3,160.72,82.19,158.87,81.73Z"/><path class="cls-9" d="M107.48,87.22a32.36,32.36,0,0,0-1.94-5.5c-1.35.34-1.35,1.39-1.23,2.44.08.62,1,3.49,1.37,3.41A1.7,1.7,0,0,0,107.48,87.22Z"/><path class="cls-21" d="M166.39,100.72c-1.82-6.16-5.82-10.55-11.11-14-1.18-.76-2.52-1.18-3.65-2-3.27,1.23-6.53,2.47-9.81,3.67-3.66,1.35-7.34,2.66-11,4-.77.28-1.52.59-2.28.88,7.51,5.18,15.95,7.81,24.87,9.1.55,0,1.12-.39,1.61.14h0a17.82,17.82,0,0,0,4.42.53c1.52,0,1.68-.26,1.12-1.67-.25-.63-.82-1.33.36-1.65Z"/><path class="cls-22" d="M160.91,99.71a5.23,5.23,0,0,0-.9-.29c-.57-.08-.77.08-.46.68.42.79.75,1.62,1.2,2.65-2-.09-5.5-.3-7.35-.38,1.71,1,4.18,1,7.14,1.4.66.16,1.58.8,2,.19s-.44-1.24-.7-1.88S161.23,100.5,160.91,99.71Z"/><path class="cls-23" d="M155,102.51c-.45-1-1-.32-1.61-.14l.59.13Z"/><path class="cls-24" d="M107.48,87.22a2.34,2.34,0,0,0-1.8.35c-.16.33-.31.65-.47,1,0,0-2.53,8.78-3.11,11a7.7,7.7,0,0,0,1,6.17,1.94,1.94,0,0,0,.52.4c-.06-1.21-.7-2.28-.7-3.55a18.58,18.58,0,0,1,1.23-5.28c.76-2.55,1.43-5.14,2.35-7.65a2,2,0,0,1,1.69-1.54A1.8,1.8,0,0,0,107.48,87.22Z"/><path class="cls-25" d="M137.35,150.2l0-.28c-2.41-1.66-4.28-3.91-6.38-5.91a40.91,40.91,0,0,0-5.87-4.87.89.89,0,0,0-1.28.05c0,1.24-.79,2.21-1.22,3.29-1.33,3.31-2.81,6.56-4.24,9.83-.53,1.2-1,2.41-1.59,3.6a3.21,3.21,0,0,0-.41,2c.1.52.59.75.86,1.14,1,.36,1.06-.48,1.32-1,1.47-2.9,2.81-5.87,4.25-8.78.61-1.23,1.25-2.45,1.88-3.67.13-.27.19-.72.6-.62s.42.55.29.81c-.84,1.72.33,2.73,1.29,3.82,1.45,1.65,2.79,3.41,4.24,5.06.37.41.68,1,1.42.88l1.13-1.06a1.79,1.79,0,0,0,1-1.2,5,5,0,0,1,1.3-1.46A4.29,4.29,0,0,1,137.35,150.2Z"/><path class="cls-9" d="M132.46,155.52c-1.76-1.35-2.8-3.34-4.34-4.89-.57-.58-1-1.28-1.57-1.87-.78-.82-1.46-1.59-.66-2.81a1.09,1.09,0,0,0-.16-1.29c-.42-.46-.77-.75-1.18.11-2.14,4.46-4.34,8.9-6.49,13.36-.21.43-.34.85-.89.88l2.3,3.13c1.22-2.06,4.64-12.07,5.52-12.16.61-.06,4.09,3.9,4.71,4.31l1.62,1.69a.53.53,0,0,0,.8.05Z"/><path class="cls-18" d="M111.26,128.46c.54-.67.29-1.88,1.44-2.14-.56-1.28-1.72-1.55-2.93-1.74.16.71.16.71,1,.63.15-.1,0,.32,0,.14s0-.06-.12,0c-1,.5-.73,1.79-1.5,2.44-2.49,4.65-4.73,9.44-7.11,14.15a2.14,2.14,0,0,0-.31,1l2.43,2c.91-.43,1-1.41,1.29-2.16,1.8-4.28,3.77-8.49,5.55-12.78A2,2,0,0,0,111.26,128.46Z"/><path class="cls-26" d="M109.39,127.83c1-2,1.08-2.31,1.77-2.49-.41-.46-1.29.1-1.39-.76-4.09-1.07-7,.56-9.25,3.92-1.82,2.69-3.84,5.25-5.79,7.86a1.42,1.42,0,0,0-.39,1l1.6,1c1.29-.67,1.77-2,2.57-3.1,1.47-2,2.9-4,4.34-6a6.11,6.11,0,0,1,4.54-2.46A1.69,1.69,0,0,1,109.39,127.83Z"/><path class="cls-17" d="M111.26,128.46q-3.53,8.25-7.06,16.51c2.28,2.29,4.58,4.58,6.85,6.9,1.09,1.12,2.13,2.3,3.19,3.46,1.14-1.33,1.55-3,2.3-4.56,1.92-3.9,3.67-7.88,5.49-11.83a17.81,17.81,0,0,0,1-2.26c-1.36-1.45-3.35-1.17-5-1.77a7.75,7.75,0,0,1-4.62-4.76C113,129.23,112.73,128.06,111.26,128.46Z"/><path class="cls-17" d="M109.39,127.83c.25-.54.45-.92-.43-1.19a6.55,6.55,0,0,0-6.23,2.12l-6.79,9.57,5.83,4.63a38,38,0,0,0,2.92-5.49c1.57-3,3-6,4.54-9A2.89,2.89,0,0,0,109.39,127.83Z"/><path class="cls-21" d="M122.51,95.65c-3.23.95-6.35,2.23-9.5,3.41.81,2,1.6,4,2.45,6a3.19,3.19,0,0,1,.26,2.13c-.47,1.57.53,2.67,1.31,3.65C117,110.84,123,96.46,122.51,95.65Z"/><path class="cls-27" d="M105.19,101.73c-.21,2.13,1.18,3.37,2.91,4.4.94.55,1.89,1.08,2.8,1.67.61.41.73.23,1-.41,1.1-2.52.16-4.66-.93-6.87-.8-1.62-1.39-3.35-2.12-5-.22-.52-.36-1.28-1.07-1.27s-1,.82-1.09,1.4C106.36,97.67,105.3,99.51,105.19,101.73Z"/><path class="cls-28" d="M125.85,121.66A8.55,8.55,0,0,0,136.07,127c2.8-.79,3.18-1.65,3.72-2.9-.55-1-2,.67-2.72.39l-.39,0a4.16,4.16,0,0,0-.93-.12,3.9,3.9,0,0,1-1.07.11c-.18,0-.27-.1-.09-.06a.79.79,0,0,1,0-.12.81.81,0,0,0-.41-.57,16.08,16.08,0,0,1-7.84-7.19c-.16-.3-.32-1.36-.72-1.28-.06-.5-.47,1.38-.51,1.76A9.93,9.93,0,0,0,125.85,121.66Z"/><path class="cls-29" d="M125.82,116c1.72,3.82,6.48,8.58,10.74,8.76l.11,0c1.07-.09,2.23.25,3.12-.66.34-.67.26-1-.59-1.18a19.47,19.47,0,0,1-7.88-3.3,21.58,21.58,0,0,1-4.44-4.41c-.81-1.06-1.07-.63-1.3.31A.57.57,0,0,0,125.82,116Z"/><path class="cls-30" d="M130.28,101.51a.66.66,0,0,0-.78.58c-.5,1.7-.95,3.42-1.56,5.08-.42,1.17.44,1.17,1.06,1.44s1.27.6,1.63-.4c.61-1.66,1.25-3.3,1.9-4.94.11-.27.27-.52-.05-.69C131.71,102.18,130.93,101.82,130.28,101.51Z"/><path class="cls-31" d="M148.13,108.44c.26-.64-.11-.85-.64-1.08-2-.86-2.07-.77-2.81,1.11-.58,1.46-.71,3-1.15,4.5-.37,1.21.21.88,1.2,1.18.51.16,1,.53,1.15-.25.22-1,1.68-3.21,1.91-4.48C148.14,108.43,147.17,109,148.13,108.44Z"/><path class="cls-32" d="M140.14,116.17c1,1,2.4,1.43,3.53,2.24.2.14.63,0,.53.47s-2,.57-2.6.19c-1.64-.32-1.64-.32-2.44.1s-.87,1-.16,1.56a4.1,4.1,0,0,0,6.16-1.74c.27-.72.1-1-.78-1.32-1.45-.44-3.12-.7-3.94-2.3C139.81,115.44,140,115.81,140.14,116.17Z"/><path class="cls-33" d="M140.05,111.77c.32-.87.62-1.76,1-2.62a15.46,15.46,0,0,0,.94-2.65c-1.45,1.22-1.66,3-1.88,4.71A.38.38,0,0,0,140.05,111.77Z"/><path class="cls-34" d="M140.05,111.77c0-.18.56-3.1.56-3.29-1.33,2.76-1.63,6.27-.47,7.69,0-.29,0-.62.3-.8A6.6,6.6,0,0,1,140.05,111.77Z"/><path class="cls-35" d="M148.13,108.44c-1.52.32-1.86,1.19-1.74,3C147.62,111.05,147.71,109.39,148.13,108.44Z"/><path class="cls-36" d="M163.06,134.5c.09-.76-.49-.57-.87-.57s-.52.41-.53.78q-.14,3.15-.25,6.3c.65-1.91.32-3.91.49-5.86C162,134.22,162.27,134,163.06,134.5Z"/><path class="cls-37" d="M125.48,116.82a2.62,2.62,0,0,0-.09,2.14Z"/><polygon class="cls-38" points="66.06 126.27 70.08 151.64 66.06 182 50.16 157.52 50.59 114.65 66.06 126.27"/><polygon class="cls-39" points="66.06 126.27 121.78 124.33 121.78 180.05 66.06 182 66.06 126.27"/><polygon class="cls-40" points="99.43 180.83 88.4 181.22 88.4 136.71 93.47 136.54 99.43 136.35 99.43 180.83"/><polygon class="cls-39" points="124.4 136.38 64.34 138.28 64.34 126 89.19 120.78 124.4 123.77 124.4 136.38"/><polygon class="cls-40" points="100.19 137.15 88.4 137.52 88.55 121.66 100.19 121.74 100.19 137.15"/><polygon class="cls-38" points="64.34 138.28 48.53 124.77 48.56 113.05 57.52 120.44 64.34 126 64.34 138.28"/><polygon class="cls-41" points="48.53 113.06 98.64 111.07 124.4 123.77 64.34 126 48.53 113.06"/><polygon class="cls-38" points="88.4 137.52 88.4 140.09 68.36 140.8 66.06 140.88 66.06 138.23 67.94 138.17 88.4 137.52"/><polygon class="cls-42" points="88.4 140.09 88.4 137.52 99.43 137.18 99.43 139.71 88.4 140.09"/><polygon class="cls-38" points="99.43 139.71 99.43 137.18 100.19 137.15 121.78 136.47 121.78 138.92 99.43 139.71"/><polygon class="cls-42" points="58.86 121.51 58.81 133.56 53.36 128.9 53.4 117.04 58.86 121.51"/><polygon class="cls-42" points="59.84 134.44 59.84 172.43 54.46 164.14 54.46 129.84 58.81 133.56 59.84 134.44"/><polygon class="cls-43" points="54.46 129.84 54.46 133.38 50.44 130.14 50.47 126.44 53.36 128.9 54.46 129.84"/><polygon class="cls-44" points="54.46 133.38 54.46 129.84 58.81 133.56 59.84 134.44 59.84 137.72 54.46 133.38"/><polygon class="cls-43" points="59.84 137.72 59.84 134.44 64.34 138.28 66.06 138.23 66.06 140.88 63.76 140.87 59.84 137.72"/><polygon class="cls-45" points="53.75 117.02 74.77 115.84 68.65 112.26 78.92 111.85 83.77 114.72 103.92 113.67 112.35 117.82 91.06 118.97 94.65 121.21 95.44 121.71 100.19 124.67 88.52 125.1 83.26 122.02 80.58 120.46 59.67 121.48 58.86 121.51 53.4 117.04 53.75 117.02"/><path class="cls-46" d="M73.89,127.69a1.7,1.7,0,0,1,1.65,1.7A1.61,1.61,0,0,1,73.89,131a1.7,1.7,0,0,1-1.66-1.7A1.61,1.61,0,0,1,73.89,127.69Z"/><path class="cls-46" d="M84.2,127.23a1.7,1.7,0,0,1,1.65,1.69,1.61,1.61,0,0,1-1.65,1.62,1.72,1.72,0,0,1-1.66-1.7A1.6,1.6,0,0,1,84.2,127.23Z"/><path class="cls-46" d="M103.55,126.9a1.7,1.7,0,0,1,1.66,1.69,1.6,1.6,0,0,1-1.66,1.61,1.7,1.7,0,0,1-1.65-1.69A1.59,1.59,0,0,1,103.55,126.9Z"/><path class="cls-46" d="M114.17,126.22a1.7,1.7,0,0,1,1.65,1.7,1.61,1.61,0,0,1-1.65,1.61,1.7,1.7,0,0,1-1.65-1.7A1.61,1.61,0,0,1,114.17,126.22Z"/><path class="cls-46" d="M50.64,117.48c1,.25,1,2.11,0,1.86C49.42,119,49.43,117.18,50.64,117.48Z"/><path class="cls-46" d="M79.14,132.66a1.7,1.7,0,0,1,1.66,1.7A1.61,1.61,0,0,1,79.14,136a1.7,1.7,0,0,1-1.65-1.7A1.61,1.61,0,0,1,79.14,132.66Z"/><path class="cls-46" d="M68.44,133.05a1.7,1.7,0,0,1,1.66,1.69,1.61,1.61,0,0,1-1.66,1.62,1.72,1.72,0,0,1-1.65-1.7A1.59,1.59,0,0,1,68.44,133.05Z"/><path class="cls-46" d="M108.66,131.67a1.7,1.7,0,0,1,1.65,1.69,1.59,1.59,0,0,1-1.65,1.61,1.7,1.7,0,0,1-1.66-1.69A1.6,1.6,0,0,1,108.66,131.67Z"/><path class="cls-46" d="M119.56,130.93a1.72,1.72,0,0,1,1.65,1.7,1.59,1.59,0,0,1-1.65,1.61,1.7,1.7,0,0,1-1.66-1.69A1.61,1.61,0,0,1,119.56,130.93Z"/><path class="cls-46" d="M73.83,141.47a1.72,1.72,0,0,1,1.66,1.7,1.61,1.61,0,0,1-1.66,1.61,1.7,1.7,0,0,1-1.65-1.7A1.61,1.61,0,0,1,73.83,141.47Z"/><path class="cls-46" d="M84.11,141.34a1.72,1.72,0,0,1,1.66,1.7,1.6,1.6,0,0,1-1.66,1.61A1.7,1.7,0,0,1,82.46,143,1.61,1.61,0,0,1,84.11,141.34Z"/><path class="cls-46" d="M103.6,140.64a1.71,1.71,0,0,1,1.66,1.69,1.6,1.6,0,0,1-1.66,1.61,1.71,1.71,0,0,1-1.66-1.69A1.6,1.6,0,0,1,103.6,140.64Z"/><path class="cls-46" d="M113.37,140.38a1.7,1.7,0,0,1,1.66,1.7,1.61,1.61,0,0,1-1.66,1.61,1.7,1.7,0,0,1-1.65-1.7A1.61,1.61,0,0,1,113.37,140.38Z"/><path class="cls-46" d="M61.16,131.77c1.08.27,1.14,2.39,0,2.1C59.77,133.52,59.78,131.42,61.16,131.77Z"/><path class="cls-46" d="M108.8,146.78a1.7,1.7,0,0,1,1.65,1.7,1.61,1.61,0,0,1-1.65,1.61,1.72,1.72,0,0,1-1.66-1.7A1.6,1.6,0,0,1,108.8,146.78Z"/><path class="cls-46" d="M79,147.69a1.7,1.7,0,0,1,1.66,1.69A1.61,1.61,0,0,1,79,151a1.72,1.72,0,0,1-1.65-1.7A1.6,1.6,0,0,1,79,147.69Z"/><path class="cls-46" d="M69.7,147.74a1.7,1.7,0,0,1,1.65,1.7,1.61,1.61,0,0,1-1.65,1.61,1.71,1.71,0,0,1-1.66-1.7A1.61,1.61,0,0,1,69.7,147.74Z"/><path class="cls-46" d="M118.54,145.79a1.72,1.72,0,0,1,1.65,1.7,1.59,1.59,0,0,1-1.65,1.61,1.7,1.7,0,0,1-1.66-1.69A1.61,1.61,0,0,1,118.54,145.79Z"/><path class="cls-46" d="M51.83,133.68a.86.86,0,0,1,.64.79.51.51,0,0,1-.64.51.86.86,0,0,1-.65-.79A.51.51,0,0,1,51.83,133.68Z"/><path class="cls-46" d="M50.64,122.5c1,.24,1,2.11,0,1.85C49.42,124,49.43,122.19,50.64,122.5Z"/><path class="cls-46" d="M61.16,127.06c1.08.27,1.14,2.39,0,2.1C59.77,128.81,59.78,126.71,61.16,127.06Z"/><path class="cls-46" d="M62.75,147.21a1.6,1.6,0,0,1,.9,1.51c0,.68-.41,1.12-.9,1a1.57,1.57,0,0,1-.9-1.5C61.85,147.5,62.25,147.06,62.75,147.21Z"/><path class="cls-46" d="M62.75,141.73a1.6,1.6,0,0,1,.9,1.51c0,.68-.41,1.12-.9,1a1.57,1.57,0,0,1-.9-1.5C61.85,142,62.25,141.58,62.75,141.73Z"/><path class="cls-46" d="M52,139.29a.85.85,0,0,1,.64.79.5.5,0,0,1-.64.5.85.85,0,0,1-.65-.79A.51.51,0,0,1,52,139.29Z"/><path class="cls-46" d="M74.65,154.56a1.72,1.72,0,0,1,1.66,1.7,1.6,1.6,0,0,1-1.66,1.61A1.7,1.7,0,0,1,73,156.18,1.61,1.61,0,0,1,74.65,154.56Z"/><path class="cls-46" d="M84.11,153.54a1.7,1.7,0,0,1,1.66,1.69,1.61,1.61,0,0,1-1.66,1.62,1.72,1.72,0,0,1-1.65-1.7A1.6,1.6,0,0,1,84.11,153.54Z"/><path class="cls-46" d="M103.6,152a1.71,1.71,0,0,1,1.66,1.7,1.61,1.61,0,0,1-1.66,1.61,1.72,1.72,0,0,1-1.66-1.7A1.61,1.61,0,0,1,103.6,152Z"/><path class="cls-46" d="M113.37,151.77a1.7,1.7,0,0,1,1.66,1.69,1.61,1.61,0,0,1-1.66,1.62,1.72,1.72,0,0,1-1.65-1.7A1.59,1.59,0,0,1,113.37,151.77Z"/><path class="cls-46" d="M108.8,158a1.71,1.71,0,0,1,1.65,1.7,1.61,1.61,0,0,1-1.65,1.61,1.7,1.7,0,0,1-1.66-1.7A1.61,1.61,0,0,1,108.8,158Z"/><path class="cls-46" d="M108.8,169.24a1.72,1.72,0,0,1,1.65,1.7,1.59,1.59,0,0,1-1.65,1.61,1.7,1.7,0,0,1-1.66-1.69A1.61,1.61,0,0,1,108.8,169.24Z"/><path class="cls-46" d="M79,158.92a1.7,1.7,0,0,1,1.66,1.7A1.61,1.61,0,0,1,79,162.23a1.7,1.7,0,0,1-1.65-1.7A1.61,1.61,0,0,1,79,158.92Z"/><path class="cls-46" d="M79,170.15a1.72,1.72,0,0,1,1.66,1.7A1.6,1.6,0,0,1,79,173.46a1.7,1.7,0,0,1-1.65-1.69A1.61,1.61,0,0,1,79,170.15Z"/><path class="cls-46" d="M69.7,159a1.71,1.71,0,0,1,1.65,1.7,1.61,1.61,0,0,1-1.65,1.61,1.7,1.7,0,0,1-1.66-1.7A1.61,1.61,0,0,1,69.7,159Z"/><path class="cls-46" d="M69.7,170.21a1.7,1.7,0,0,1,1.65,1.69,1.59,1.59,0,0,1-1.65,1.61A1.7,1.7,0,0,1,68,171.82,1.6,1.6,0,0,1,69.7,170.21Z"/><path class="cls-46" d="M118.54,157a1.7,1.7,0,0,1,1.65,1.69,1.61,1.61,0,0,1-1.65,1.62,1.72,1.72,0,0,1-1.66-1.7A1.6,1.6,0,0,1,118.54,157Z"/><path class="cls-46" d="M118.54,168.26a1.7,1.7,0,0,1,1.65,1.7,1.61,1.61,0,0,1-1.65,1.61,1.7,1.7,0,0,1-1.66-1.7A1.61,1.61,0,0,1,118.54,168.26Z"/><path class="cls-46" d="M74.65,165.8a1.7,1.7,0,0,1,1.66,1.7,1.61,1.61,0,0,1-1.66,1.61,1.72,1.72,0,0,1-1.65-1.7A1.6,1.6,0,0,1,74.65,165.8Z"/><path class="cls-46" d="M74.65,177a1.7,1.7,0,0,1,1.66,1.7,1.61,1.61,0,0,1-1.66,1.61,1.7,1.7,0,0,1-1.65-1.7A1.61,1.61,0,0,1,74.65,177Z"/><path class="cls-46" d="M84.11,164.77a1.7,1.7,0,0,1,1.66,1.7,1.61,1.61,0,0,1-1.66,1.61,1.7,1.7,0,0,1-1.65-1.7A1.61,1.61,0,0,1,84.11,164.77Z"/><path class="cls-46" d="M84.11,176a1.72,1.72,0,0,1,1.66,1.7,1.6,1.6,0,0,1-1.66,1.61,1.7,1.7,0,0,1-1.65-1.69A1.61,1.61,0,0,1,84.11,176Z"/><path class="cls-46" d="M103.6,163.25a1.72,1.72,0,0,1,1.66,1.7,1.61,1.61,0,0,1-1.66,1.61,1.71,1.71,0,0,1-1.66-1.7A1.61,1.61,0,0,1,103.6,163.25Z"/><path class="cls-46" d="M103.6,174.49a1.71,1.71,0,0,1,1.66,1.69,1.62,1.62,0,0,1-1.66,1.62,1.72,1.72,0,0,1-1.66-1.7A1.6,1.6,0,0,1,103.6,174.49Z"/><path class="cls-46" d="M113.37,163a1.7,1.7,0,0,1,1.66,1.7,1.61,1.61,0,0,1-1.66,1.61,1.72,1.72,0,0,1-1.65-1.7A1.61,1.61,0,0,1,113.37,163Z"/><path class="cls-46" d="M113.37,174.23a1.72,1.72,0,0,1,1.66,1.7,1.61,1.61,0,0,1-1.66,1.61,1.7,1.7,0,0,1-1.65-1.7A1.61,1.61,0,0,1,113.37,174.23Z"/><path class="cls-46" d="M62.75,153.35a1.58,1.58,0,0,1,.9,1.5c0,.69-.41,1.13-.9,1a1.58,1.58,0,0,1-.9-1.51C61.85,153.64,62.25,153.2,62.75,153.35Z"/><path class="cls-46" d="M62.75,159.48a1.6,1.6,0,0,1,.9,1.51c0,.68-.41,1.12-.9,1a1.58,1.58,0,0,1-.9-1.51C61.85,159.77,62.25,159.34,62.75,159.48Z"/><path class="cls-46" d="M62.75,165.62a1.58,1.58,0,0,1,.9,1.5c0,.69-.41,1.13-.9,1a1.57,1.57,0,0,1-.9-1.51C61.85,165.91,62.25,165.47,62.75,165.62Z"/><path class="cls-46" d="M62.75,171.75a1.6,1.6,0,0,1,.9,1.51c0,.68-.41,1.12-.9,1a1.58,1.58,0,0,1-.9-1.51C61.85,172,62.25,171.61,62.75,171.75Z"/><path class="cls-46" d="M52,144.14a.85.85,0,0,1,.64.79.5.5,0,0,1-.64.5.85.85,0,0,1-.65-.78A.51.51,0,0,1,52,144.14Z"/><path class="cls-46" d="M51.93,149.48a.85.85,0,0,1,.64.79.5.5,0,0,1-.64.5.84.84,0,0,1-.65-.78A.51.51,0,0,1,51.93,149.48Z"/><path class="cls-46" d="M51.83,155a.85.85,0,0,1,.65.79.51.51,0,0,1-.65.5.85.85,0,0,1-.64-.79A.5.5,0,0,1,51.83,155Z"/><path class="cls-45" d="M58.19,107.19s14.76-1.57,24,8.21c1.31,1.38,3.24,2.66,4.24,4.54l1.92-3.78C85.12,107.63,76.7,101,66.44,100.09,62.54,101.56,61.16,103.56,58.19,107.19Z"/><path class="cls-47" d="M70.93,108.24c-.57-.15-1.14-.28-1.69-.4C69.79,108,70.36,108.09,70.93,108.24Z"/><path class="cls-47" d="M78.46,111.42c-.55-.35-1.12-.66-1.69-1C77.34,110.76,77.91,111.07,78.46,111.42Z"/><path class="cls-47" d="M80.14,112.56c-.54-.4-1.08-.77-1.63-1.12C79.06,111.79,79.6,112.16,80.14,112.56Z"/><path class="cls-47" d="M72.75,108.78c-.56-.18-1.12-.35-1.67-.5C71.63,108.43,72.19,108.6,72.75,108.78Z"/><path class="cls-47" d="M69.2,107.83l-1.64-.3Z"/><path class="cls-47" d="M76.56,110.36c-.54-.28-1.09-.53-1.65-.76C75.47,109.83,76,110.08,76.56,110.36Z"/><path class="cls-47" d="M67.45,107.51c1.6,4,9.28,6.89,14.48,6.55.42.38.83.78,1.22,1.21a22.13,22.13,0,0,1,3.3,4.67c-24.39,2.82-28.26-12.75-28.26-12.75A36.89,36.89,0,0,1,67.45,107.51Z"/><path class="cls-47" d="M74.64,109.48c-.54-.22-1.09-.43-1.64-.61C73.55,109.05,74.1,109.26,74.64,109.48Z"/><path class="cls-47" d="M81.8,113.94c-.49-.45-1-.87-1.51-1.26C80.81,113.07,81.31,113.49,81.8,113.94Z"/><path class="cls-48" d="M81.94,114.06h0l-.13-.12A.81.81,0,0,1,81.94,114.06Z"/><path class="cls-48" d="M78.51,111.44l-.05,0Z"/><path class="cls-48" d="M76.77,110.47l-.21-.11Z"/><path class="cls-48" d="M80.29,112.68l-.15-.12Z"/><path class="cls-48" d="M69.24,107.84h0Z"/><path class="cls-48" d="M67.44,107.51l.12,0-.11,0Z"/><path class="cls-48" d="M73,108.87l-.25-.09Z"/><path class="cls-48" d="M74.91,109.6l-.27-.12Z"/><path class="cls-48" d="M71.08,108.28l-.15,0Z"/><path class="cls-44" d="M58.73,108.64a61.53,61.53,0,0,1,9.49.19,5.59,5.59,0,0,1-.78-1.32,36.82,36.82,0,0,0-9.25-.32A9.67,9.67,0,0,0,58.73,108.64Z"/><path class="cls-44" d="M81.16,114.94a24.84,24.84,0,0,1,4.11,5.12l1.18-.12a22.13,22.13,0,0,0-3.3-4.67,3.89,3.89,0,0,0-.34-.36c-.28-.3-.57-.58-.87-.85-.35,0-.71,0-1.08,0l-.65,0C80.53,114.35,80.85,114.64,81.16,114.94Z"/><path class="cls-45" d="M58.38,135.2C67,121,85.27,120.06,85.27,120.06a26.31,26.31,0,0,0-3-3.83c-8.43-1.88-20.66,2.37-27.24,9.54A98.53,98.53,0,0,0,58.38,135.2Z"/><path class="cls-45" d="M114.74,107.19s-14.76-1.57-24,8.21c-1.31,1.38-3.24,2.66-4.24,4.54l-1.92-3.78c3.25-8.53,11.67-15.12,21.93-16.07C110.39,101.56,111.77,103.56,114.74,107.19Z"/><path class="cls-47" d="M99.93,108.87c-.55.18-1.1.39-1.64.61C98.83,109.26,99.38,109.05,99.93,108.87Z"/><path class="cls-47" d="M98,109.6c-.56.23-1.11.48-1.65.76C96.91,110.08,97.46,109.83,98,109.6Z"/><path class="cls-47" d="M101.85,108.28c-.55.15-1.11.32-1.67.5C100.74,108.6,101.3,108.43,101.85,108.28Z"/><path class="cls-47" d="M105.37,107.53l-1.64.3Z"/><path class="cls-47" d="M103.7,107.84c-.56.12-1.13.25-1.7.4C102.57,108.09,103.14,108,103.7,107.84Z"/><path class="cls-47" d="M96.16,110.46c-.57.3-1.14.61-1.7,1C95,111.07,95.59,110.76,96.16,110.46Z"/><path class="cls-47" d="M92.64,112.68c-.52.39-1,.81-1.51,1.26C91.62,113.49,92.12,113.07,92.64,112.68Z"/><path class="cls-47" d="M89.78,115.27c.39-.43.8-.83,1.22-1.21,5.2.34,12.88-2.59,14.48-6.55a36.89,36.89,0,0,1,9.26-.32s-3.87,15.57-28.26,12.75A22.13,22.13,0,0,1,89.78,115.27Z"/><path class="cls-47" d="M94.43,111.44c-.56.35-1.1.72-1.64,1.13C93.33,112.16,93.87,111.79,94.43,111.44Z"/><path class="cls-48" d="M91,114.06a.81.81,0,0,1,.14-.12l-.13.12Z"/><path class="cls-48" d="M102,108.24l-.15,0Z"/><path class="cls-48" d="M103.73,107.83h0Z"/><path class="cls-48" d="M105.49,107.51h0l-.11,0Z"/><path class="cls-48" d="M94.46,111.42l0,0Z"/><path class="cls-48" d="M96.37,110.36l-.21.1Z"/><path class="cls-48" d="M98.29,109.48l-.27.12Z"/><path class="cls-48" d="M92.79,112.57l-.15.11Z"/><path class="cls-48" d="M100.18,108.78l-.25.09Z"/><path class="cls-44" d="M114.2,108.64a61.53,61.53,0,0,0-9.49.19,5.59,5.59,0,0,0,.78-1.32,36.82,36.82,0,0,1,9.25-.32A9.67,9.67,0,0,1,114.2,108.64Z"/><path class="cls-44" d="M91.77,114.94a24.84,24.84,0,0,0-4.11,5.12l-1.18-.12a22.13,22.13,0,0,1,3.3-4.67c.11-.13.23-.25.34-.36.28-.3.57-.58.87-.85.35,0,.71,0,1.09,0l.65,0C92.4,114.35,92.08,114.64,91.77,114.94Z"/><path class="cls-45" d="M114.55,135.2C106,121,87.66,120.06,87.66,120.06a26.31,26.31,0,0,1,3-3.83c8.43-1.88,20.66,2.37,27.24,9.54A98.53,98.53,0,0,1,114.55,135.2Z"/></g></g></svg>