<svg xmlns="http://www.w3.org/2000/svg" viewBox="0 0 165.97 57.12"><defs><style>.cls-1{fill:#fff;}.cls-2{fill:#c29e3a;}.cls-3{fill:#cc060f;}</style></defs><g id="Capa_2" data-name="Capa 2"><g id="Layer_1" data-name="Layer 1"><path class="cls-1" d="M166,57.12H155.82s-5.8-10.28-9.15-10c-5.18.39-8.41,10-8.41,10H.51L0,0,165.63.17Z"/><g id="_3GBxqS" data-name="3GBxqS"><path class="cls-2" d="M56,44.33c-4.24,0-7.07-2.43-7.37-6.35a70.88,70.88,0,0,1,.1-11.53c.3-3.42,3.27-5.9,7.07-5.9h0c1,0,1.9,0,3,0,1.33,0,2.71,0,4.06,0h.26a2.34,2.34,0,0,0,0-.27c0-1.28,0-2.53,0-3.86,0-.56,0-1.12,0-1.68V13.62h8.44v4.7c0,2.58,0,5,0,7.53V28c0,2.76,0,5.62-.12,8.43a8.2,8.2,0,0,1-2.28,5.88,8.29,8.29,0,0,1-5.89,2H56Zm-.2-23.4c-3.6,0-6.41,2.33-6.69,5.55A71.34,71.34,0,0,0,49,38c.29,3.7,3,6,7,6h7.18a8,8,0,0,0,5.69-1.88A7.83,7.83,0,0,0,71,36.45c.1-2.81.11-5.67.12-8.42,0-.73,0-1.45,0-2.18,0-2.5,0-5,0-7.53V14H63.46v2.38c0,1.34,0,2.59,0,3.86a1.68,1.68,0,0,1,0,.5l0,.09-.09,0a1.52,1.52,0,0,1-.49,0c-1.35,0-2.71,0-4,0-1.06,0-2,0-3,0ZM56,42.54c-3.35,0-5.39-1.71-5.62-4.7a69.59,69.59,0,0,1,.1-11.24c.25-2.8,2.85-4.26,5.3-4.26h0l3,0c1.32,0,2.68,0,4,0a2.07,2.07,0,0,0,1.59-.51,2.13,2.13,0,0,0,.49-1.61c0-1.26,0-2.49,0-3.81v-1h4.87v2.75c0,2.65,0,5.14,0,7.69,0,.73,0,1.46,0,2.18,0,2.75,0,5.59-.12,8.38-.15,4.12-2.23,6.13-6.36,6.13H56Zm-.22-20v.19c-2.28,0-4.7,1.34-4.92,3.91a68.85,68.85,0,0,0-.1,11.18c.21,2.77,2.11,4.35,5.21,4.35h2.06c1.68,0,3.42,0,5.13,0h.07c3.88,0,5.84-1.89,6-5.76.1-2.79.11-5.62.12-8.37,0-.73,0-1.45,0-2.18,0-2.55,0-5,0-7.69V15.78H65.25v.61c0,1.3,0,2.54,0,3.79a2.48,2.48,0,0,1-.6,1.89,2.44,2.44,0,0,1-1.87.62c-1.32,0-2.67,0-4,0l-3,0ZM58.67,40a6.89,6.89,0,0,1-1.9-.23,2.65,2.65,0,0,1-2-2.57c-.13-3.28-.06-6.53,0-9.56,0-.91.94-2.37,2-2.45a41.11,41.11,0,0,1,6.08,0c1.14.09,1.94,1.6,2.08,2.41a29.84,29.84,0,0,1,.32,4.92c0,.92,0,1.86-.06,2.77l0,.49a6.41,6.41,0,0,1-.28,1.82C64.06,40.07,61.81,40,60.33,40H58.67Zm1.24-14.54c-1,0-2,0-3.1.11-.85.06-1.63,1.34-1.65,2.08-.1,3-.17,6.27,0,9.54a2.3,2.3,0,0,0,1.76,2.22,6.32,6.32,0,0,0,1.79.21h1.66c1.54,0,3.46.08,4.21-2.14a5.78,5.78,0,0,0,.26-1.71l0-.47c0-.92.06-1.86.06-2.78a29,29,0,0,0-.32-4.85c-.11-.67-.82-2-1.73-2.09S60.91,25.46,59.91,25.46Zm1,12.75h-.57c-.3,0-.61,0-.91,0h-.15c-1.82,0-2.74-.1-2.78-1.07-.13-3.22-.06-6.43,0-9.42h0a.08.08,0,0,1,0,0h0A1.71,1.71,0,0,1,57,27L57,27h.07a37.55,37.55,0,0,1,5.51,0h.06l0,.05a2,2,0,0,1,.48.86,27.43,27.43,0,0,1,.3,4.63c0,.91,0,1.8-.06,2.74l0,.47A4.06,4.06,0,0,1,63.2,37C62.85,38.05,62.16,38.21,60.94,38.21Zm-1.2-.4h.63c1.72,0,2.18-.06,2.47-.92A4,4,0,0,0,63,35.71v-.48c0-.93.06-1.82.06-2.73A27.59,27.59,0,0,0,62.8,28a1.74,1.74,0,0,0-.33-.61,36,36,0,0,0-5.3,0,1.77,1.77,0,0,0-.23.4c-.09,3-.16,6.17,0,9.38,0,.52.38.76,2.39.7h.44Z"/><path class="cls-2" d="M142.33,44.39c-1.74,0-3.48,0-5.17-.09a6.69,6.69,0,0,1-6.8-6.4,87.52,87.52,0,0,1,0-11A6.9,6.9,0,0,1,138,20.57c.81,0,1.66,0,2.48,0h.08v0H143c1,0,2.05,0,3.08,0a6.9,6.9,0,0,1,6.69,5.61,30.31,30.31,0,0,1,0,12.44,6.86,6.86,0,0,1-6.73,5.75C144.8,44.38,143.55,44.39,142.33,44.39Zm-4.81-23.46a6.49,6.49,0,0,0-6.76,6,86.88,86.88,0,0,0,0,11,6.32,6.32,0,0,0,6.44,6C140,44,143,44,146,44a6.49,6.49,0,0,0,6.37-5.45,30.11,30.11,0,0,0,0-12.29,6.52,6.52,0,0,0-6.33-5.3c-1,0-2.06,0-3.06,0h-2.1v0h-.46c-.82,0-1.67,0-2.5,0Zm4.82,21.68c-1.74,0-3.45,0-5.11-.09a4.91,4.91,0,0,1-5.08-4.73,86,86,0,0,1,0-10.77,5.15,5.15,0,0,1,5.72-4.67c.87,0,1.74,0,2.59,0h1.87l.19,0H143c1,0,2,0,3,0a5.13,5.13,0,0,1,5,4.18,28.52,28.52,0,0,1,0,11.71,5,5,0,0,1-5,4.33C144.77,42.59,143.55,42.61,142.34,42.61Zm-4.81-19.89a4.74,4.74,0,0,0-5,4.33,85.16,85.16,0,0,0,0,10.72,4.55,4.55,0,0,0,4.71,4.37c2.82.1,5.77.12,8.75,0a4.66,4.66,0,0,0,4.67-4,28.31,28.31,0,0,0,0-11.56A4.75,4.75,0,0,0,146,22.72c-1,0-2,0-3,0h-.29l-.19,0h-2.05c-.86,0-1.74,0-2.62,0ZM141.18,40a10.61,10.61,0,0,1-1.9-.15,3.94,3.94,0,0,1-1.66-.86,2.55,2.55,0,0,1-1-1.72c-.19-3.38-.12-6.79,0-9.73a2.66,2.66,0,0,1,3-2.59h1c.93,0,1.79,0,2.65,0a3.41,3.41,0,0,1,2.59.74,3.59,3.59,0,0,1,1.09,2.57c.09,1.58.13,3,.12,4.35a42.81,42.81,0,0,1-.26,4.67,2.82,2.82,0,0,1-3,2.68h-.06l-1.16,0C142,40,141.61,40,141.18,40Zm-1.65-14.67a2.31,2.31,0,0,0-2.6,2.22c-.08,2.93-.14,6.33,0,9.7a2.29,2.29,0,0,0,.9,1.45,3.26,3.26,0,0,0,1.47.77,9.91,9.91,0,0,0,1.84.15l1.26,0,1.21,0h.06a2.48,2.48,0,0,0,2.65-2.35,44.42,44.42,0,0,0,.25-4.62c0-1.34,0-2.76-.12-4.33a3.23,3.23,0,0,0-1-2.31,3.07,3.07,0,0,0-2.31-.64c-.88.06-1.75.05-2.67,0Zm1.65,12.88a9.23,9.23,0,0,1-1.59-.12,2.26,2.26,0,0,1-1.19-.89l0-.07c-.18-3.31-.12-6.66,0-9.55,0-.36.14-.84,1.18-.84h1c.93,0,1.87,0,2.8,0a1.71,1.71,0,0,1,1.28.3,1.91,1.91,0,0,1,.48,1.33c.09,1.54.13,2.93.12,4.24a44.56,44.56,0,0,1-.24,4.48,1.09,1.09,0,0,1-1.24,1.09c-.46,0-.9,0-1.33,0Zm-2.43-1.15a2.21,2.21,0,0,0,.91.66,12.76,12.76,0,0,0,2.72.08c.43,0,.88,0,1.33,0s.81-.19.87-.75a43.91,43.91,0,0,0,.24-4.44c0-1.31,0-2.68-.12-4.22a1.53,1.53,0,0,0-.35-1.06,1.4,1.4,0,0,0-1-.21c-.95.07-1.9.05-2.82,0h-1c-.8,0-.8.28-.81.47C138.64,30.49,138.58,33.82,138.75,37.09Z"/><path class="cls-2" d="M36.54,44.37c-1.8,0-3.67,0-5.56,0a6.74,6.74,0,0,1-6.92-5.75,30.06,30.06,0,0,1,0-12.46,7,7,0,0,1,7-5.56h.13c1,0,1.92,0,2.78,0h2.66c1,0,2.05,0,3.08,0A7,7,0,0,1,46.5,26.9c.18,3.79.18,7.49,0,11a6.88,6.88,0,0,1-7,6.46ZM31.09,20.93a6.61,6.61,0,0,0-6.63,5.26,29.69,29.69,0,0,0,0,12.31A6.38,6.38,0,0,0,31,43.94c2.95.05,5.82.06,8.53,0a6.49,6.49,0,0,0,6.62-6.1c.18-3.49.17-7.17,0-10.95a6.56,6.56,0,0,0-6.39-6c-1,0-2.06,0-3.06,0H36.3c-.34,0-.68,0-1,0H34c-.87,0-1.84,0-2.8,0Zm5.45,21.65c-1.79,0-3.65,0-5.53,0a5,5,0,0,1-5.2-4.32,28.22,28.22,0,0,1,0-11.72,5.16,5.16,0,0,1,5.25-4.15h.1c1,0,1.95,0,2.82,0h2.66c1,0,2,0,3,0a5.12,5.12,0,0,1,5,4.64c.18,3.73.19,7.37,0,10.81a5.11,5.11,0,0,1-5.23,4.77ZM31.09,22.72a4.79,4.79,0,0,0-4.88,3.85,27.84,27.84,0,0,0,0,11.57,4.61,4.61,0,0,0,4.84,4c2.93.05,5.78.07,8.47,0a4.74,4.74,0,0,0,4.85-4.41,107.5,107.5,0,0,0,0-10.77,4.73,4.73,0,0,0-4.65-4.28c-1,0-2,0-3,0H31.09ZM33.32,40A3.12,3.12,0,0,1,30,36.69c0-.46,0-.91,0-1.34v-.49c0-.6,0-1.22,0-1.82l0-.85A34.37,34.37,0,0,1,30,28,3.06,3.06,0,0,1,33.49,25c.55,0,1.14,0,1.71,0h0l.89,0c1.52,0,2.55.12,3.3.76s1,1.74,1.1,3.21c.1,2.23,0,4.48-.1,6.65L40.38,37a3,3,0,0,1-3.19,3c-.56,0-1.13,0-1.68,0s-1.38,0-2,0Zm-.13-14.66a2.68,2.68,0,0,0-2.82,2.73,33.51,33.51,0,0,0-.1,4.11l0,.84c0,.61,0,1.23,0,1.83v.5q0,.65,0,1.32a2.75,2.75,0,0,0,3,2.95h.13c.67,0,1.36,0,2,0h1.7A2.6,2.6,0,0,0,40,37l.06-1.42c.1-2.17.2-4.41.1-6.62-.07-1.37-.25-2.34-1-2.94s-1.62-.67-3-.67l-.88,0h0c-.58,0-1.17,0-1.75,0Zm.11,12.87c-.73,0-1.47-.22-1.53-1.6,0-.35,0-1.24,0-1.62v-.57c0-1.4-.07-5.13,0-6.22.08-.75.3-1.45,1.4-1.45h.14c.35,0,1.43,0,1.93,0,0,0,2.64,0,3,.31s.42.46.47,1.52c0,.33-.14,7.86-.16,8.33s-.2,1.25-1.43,1.27H35.52c-.69,0-1.4,0-2.11,0Zm-.13-11.09c-.69,0-.94.28-1,1.12-.11,1.07,0,4.91,0,6.18V35c0,.38,0,1.26,0,1.6.06,1.07.49,1.27,1.26,1.24s1.43,0,2.12,0h1.63c1,0,1.05-.43,1.07-.9s.15-8.24.15-8.31c0-1-.15-1.09-.33-1.24a11.79,11.79,0,0,0-2.79-.22c-.51,0-1.56,0-2,0Z"/><path class="cls-2" d="M126.77,44.31a15.38,15.38,0,0,1-1.92-.1c-1.73-.21-2.85-1.42-3.34-3.59l-.63-2.77,0-.08c-.66-2.93-1.34-6-2-8.93-.22-.9-.4-1.37-.6-1.52a3.74,3.74,0,0,0-1.64-.18c-.87,0-1,.17-1.07.2s-.18.27-.17,1.22c0,3.45,0,6.81,0,10.37,0,1.41,0,2.82,0,4.25v1.08h-8.28V20.67h1.08c1.26,0,2.53,0,3.75,0,3,0,6.1-.05,9.12.1a5.53,5.53,0,0,1,5.1,3.94c1.24,4.32,2.34,8.56,3.51,13.06l0,.16c.42,1.64.86,3.32,1.3,5l.36,1.36h-1.41l-1.72,0Zm-9.86-17.55a2.84,2.84,0,0,1,1.53.26c.28.21.49.7.74,1.73.71,3,1.39,6,2,8.94l0,.07.63,2.78c.45,2,1.46,3.1,3,3.29a14.7,14.7,0,0,0,1.88.1l1.39,0c.58,0,1.15,0,1.76,0h.92L130.6,43c-.44-1.67-.88-3.36-1.3-5l0-.17c-1.16-4.49-2.26-8.73-3.5-13A5.17,5.17,0,0,0,121,21.11c-3-.14-6.09-.12-9.07-.09-1.25,0-2.52,0-3.78,0h-.7V43.89H115v-.71c0-1.43,0-2.84,0-4.25,0-3.56,0-6.92,0-10.37,0-1,.15-1.34.26-1.48s.63-.3,1.36-.32Zm9.85,15.76a13.42,13.42,0,0,1-1.7-.09c-.62-.07-1.4-.39-1.81-2.21l-.63-2.77c-.66-3-1.35-6-2.07-9a4.2,4.2,0,0,0-1.26-2.53,4.29,4.29,0,0,0-2.75-.54,3.16,3.16,0,0,0-2.38.8,3.5,3.5,0,0,0-.62,2.42c0,3.42,0,6.76,0,10.3v.06c0,1.11,0,2.23,0,3.36v.19h-4.7v-20h.19l2.65,0h.22c3.12,0,6-.06,9,.09a3.75,3.75,0,0,1,3.46,2.66c1.24,4.3,2.33,8.53,3.49,13l.07.24c.32,1.25.65,2.53,1,3.81l.06.24-.85,0ZM116.9,25a4.13,4.13,0,0,1,2.61.62,4.4,4.4,0,0,1,1.4,2.75c.73,3,1.42,6.08,2.08,9l.63,2.77c.36,1.57.93,1.85,1.49,1.92a21.39,21.39,0,0,0,3,.06h.37c-.31-1.21-.62-2.41-.93-3.59l-.06-.24c-1.16-4.47-2.26-8.7-3.49-13a3.38,3.38,0,0,0-3.12-2.38c-3-.15-5.88-.12-9-.09h-.25l-2.46,0V42.1h3.94c0-1.07,0-2.12,0-3.18v-.05c0-3.54,0-6.88,0-10.29a3.73,3.73,0,0,1,.71-2.68,3.38,3.38,0,0,1,2.65-.92Z"/><path class="cls-2" d="M91,44.31H82.79V20.61h1.08l3.7,0c3,0,5.84-.05,8.76.08a5.74,5.74,0,0,1,5.45,4c1.26,4.29,2.37,8.55,3.55,13.06.46,1.74,1.59,6.27,1.6,6.31l.06.24h-.24c-.22,0-5.32.06-6.42-.13-2.44-.41-3-2.8-3.17-3.7L96.82,39c-.72-3.28-1.47-6.65-2.28-9.95-.18-.74-.42-1.61-.7-1.76a6.5,6.5,0,0,0-2.37-.05c-.32,0-.53,0-.52,1.34C91,33.4,91,44,91,44.13Zm-7.79-.38h7.42c0-1.46,0-10.9,0-15.4,0-1.42.26-1.68.87-1.72a6.14,6.14,0,0,1,2.59.1c.33.19.56.71.88,2,.81,3.3,1.55,6.67,2.28,9.94l.34,1.51c.18.83.67,3,2.86,3.41.94.16,5.07.13,6.11.12-.24-.95-1.14-4.56-1.53-6.07-1.18-4.51-2.29-8.77-3.55-13.06A5.4,5.4,0,0,0,96.31,21c-2.91-.12-5.74-.1-8.74-.07l-3.7,0h-.7Zm21.6-1.27-.92,0a23.65,23.65,0,0,1-3.22-.24c-.91-.15-1.39-.81-1.73-2.32l-.33-1.5c-.73-3.27-1.48-6.66-2.29-10-.32-1.28-.65-2.38-1.55-2.9A3.57,3.57,0,0,0,93,25.34c-.47,0-1,0-1.6.08-2,.13-2.19,1.85-2.19,3.13,0,4.91,0,10,0,13.79v.19H84.57V22.4h.19l2.83,0c3,0,5.8-.06,8.66.07a4,4,0,0,1,3.82,2.72c1.25,4.26,2.36,8.51,3.53,13v0c.36,1.37.73,2.77,1.1,4.19ZM93,25a3.86,3.86,0,0,1,2,.4c1,.6,1.39,1.77,1.72,3.14.82,3.32,1.57,6.71,2.3,10L99.27,40c.35,1.55.82,1.93,1.42,2a24.63,24.63,0,0,0,3.16.23h.43c-.35-1.33-.7-2.65-1-3.94v0c-1.18-4.5-2.29-8.75-3.54-13a3.62,3.62,0,0,0-3.47-2.45c-2.85-.13-5.66-.1-8.64-.07l-2.64,0V42.15h3.88c0-3.73,0-8.77,0-13.6,0-2.21.83-3.4,2.53-3.51C91.94,25,92.47,25,93,25Z"/><path class="cls-2" d="M20.83,44.18a44.52,44.52,0,0,1-5.76-.25,6,6,0,0,1-4.54-4.65,23.59,23.59,0,0,1-.5-5.86L9.89,16.18c0-.13,0-2.35,0-2.41h.19v-.19c.14,0,3.48,0,4.2,0,1.29.07,3.52.72,4,4.29a11.5,11.5,0,0,1,.07,1.31,2.75,2.75,0,0,0,.15,1.15.53.53,0,0,1,.11.15c.08.12.13.21.42.2s3.14,0,3.26,0h.19v6.48l-2.4,0a13.44,13.44,0,0,0-1.68.1,12.61,12.61,0,0,0-.05,1.61V30c0,1.92,0,3.9.1,5.84,0,1.24.16,1.59.24,1.67a24.8,24.8,0,0,0,3.66.27h.18v6.42H20.83ZM10.23,14c0,.34,0,1,0,2.22l.13,17.25a23.75,23.75,0,0,0,.5,5.77,5.65,5.65,0,0,0,4.25,4.37,60,60,0,0,0,7,.23V38.12a14.27,14.27,0,0,1-3.73-.37,3.77,3.77,0,0,1-.35-1.93C18,33.88,18,31.89,18,30V28.86a7.49,7.49,0,0,1,.1-1.84l0-.07.06,0a7.66,7.66,0,0,1,1.91-.16l2,0V21.07c-.66,0-2.86,0-3.06,0a.72.72,0,0,1-.75-.39l-.06-.08A2.33,2.33,0,0,1,18,19.19a8.79,8.79,0,0,0-.07-1.26c-.44-3.3-2.48-3.9-3.65-4C13.62,13.93,10.94,14,10.23,14Zm10.5,28.72h-.2l-1-.06a23.74,23.74,0,0,1-4.06-.42,4.24,4.24,0,0,1-3.2-3.34,15.88,15.88,0,0,1-.57-3.68c0-5,0-10.17,0-15.14V15.36h.46c.71,0,1.39,0,2,0,1.31.08,2.1,1,2.34,2.75a9.18,9.18,0,0,1,.05,1.09,3.82,3.82,0,0,0,.66,2.65,2.17,2.17,0,0,0,1.85.62,6.23,6.23,0,0,1,.75,0h.87v2.79l-.16,0a4.23,4.23,0,0,1-.48,0c-1.55,0-2.39.06-2.94.61s-.56,1.4-.55,2.91V30c0,1.94,0,3.94.09,5.91.06,1.3.15,2.27.78,2.88s1.55.69,2.91.77h.39ZM12,15.73c0,1.42,0,2.83,0,4.24V20c0,5,0,10.1,0,15.13a15.36,15.36,0,0,0,.56,3.6,3.87,3.87,0,0,0,2.91,3.06,23.92,23.92,0,0,0,4,.42l.82,0V39.91h0c-1.44-.08-2.43-.19-3.14-.87s-.84-1.76-.89-3.14c-.09-2-.09-4-.1-5.92V28.87c0-1.61,0-2.5.66-3.17S18.39,25,20,25h.28V22.87h-.52c-.26,0-.5,0-.7,0a2.47,2.47,0,0,1-2.14-.73,4,4,0,0,1-.77-2.9,8.3,8.3,0,0,0-.05-1c-.31-2.33-1.52-2.39-2-2.42-.64,0-1.31,0-2,0Z"/><path class="cls-2" d="M81.19,44.31H73V20.65h8.21Zm-7.83-.37h7.46V21H73.36Zm6-1.41H74.77V22.43h4.64Zm-4.26-.38H79V22.81H75.15Z"/><path class="cls-2" d="M81.23,20H73V13.62h8.27Zm-7.89-.38h7.51V14H73.34Zm6.1-1.41H74.75V15.41h4.69Zm-4.31-.38h3.93V15.79H75.13Z"/></g><g id="_3GBxqS-2" data-name="3GBxqS"><path class="cls-3" d="M64.17,14.76h6.28c0,3.78,0,7.45,0,11.13,0,3.51,0,7-.13,10.55-.16,4.55-2.62,6.82-7.14,6.79-2.38,0-4.77,0-7.15,0-3.5,0-6.05-1.86-6.32-5.35a69,69,0,0,1,.1-11.32c.26-3,3-4.91,6-4.9,2.33,0,4.66-.07,7,0,1.06,0,1.4-.37,1.37-1.39C64.13,18.46,64.17,16.66,64.17,14.76Zm0,17.78a29,29,0,0,0-.31-4.73c-.1-.57-.68-1.47-1.1-1.5a38.87,38.87,0,0,0-5.91,0c-.38,0-1,.9-1,1.4-.1,3.15-.16,6.31,0,9.46.08,1.9,2.28,1.77,3.65,1.74,1.74,0,3.7.42,4.4-1.65a5.4,5.4,0,0,0,.23-1.5C64.13,34.67,64.17,33.6,64.18,32.54Z"/><path class="cls-3" d="M141.63,21.67c1.47,0,3,0,4.42,0a5.82,5.82,0,0,1,5.66,4.73,29,29,0,0,1,0,12,5.75,5.75,0,0,1-5.7,4.88c-2.94.07-5.88.06-8.82-.05a5.64,5.64,0,0,1-5.76-5.37,87,87,0,0,1,0-10.83,5.84,5.84,0,0,1,6.45-5.32c1.24.06,2.48,0,3.72,0Zm4.17,10.94c0-1.42.07-2.84,0-4.25a2.1,2.1,0,0,0-2.51-2.28c-1.24.09-2.49,0-3.74,0-1.06,0-1.87.45-1.9,1.52-.08,3.21-.12,6.43.05,9.63,0,.57,1.09,1.44,1.79,1.56a23.85,23.85,0,0,0,4.23.07,1.77,1.77,0,0,0,2-1.71A33.82,33.82,0,0,0,145.8,32.61Z"/><path class="cls-3" d="M35.28,21.69c1.48,0,3,0,4.43,0A5.81,5.81,0,0,1,45.41,27c.18,3.62.2,7.25,0,10.86a5.83,5.83,0,0,1-5.93,5.42q-4.26,0-8.5,0a5.67,5.67,0,0,1-5.88-4.87,28.84,28.84,0,0,1,0-12,5.86,5.86,0,0,1,6.05-4.7C32.56,21.71,33.92,21.69,35.28,21.69ZM31,32.19c0,.89.05,1.78.06,2.68,0,.59,0,1.19,0,1.79a2.09,2.09,0,0,0,2.37,2.27c1.25,0,2.5,0,3.74,0A1.91,1.91,0,0,0,39.3,37c.11-2.65.28-5.31.15-8s-.68-2.93-3.31-2.92c-.91,0-1.82.07-2.72,0a2,2,0,0,0-2.35,2.08A33.72,33.72,0,0,0,31,32.19Z"/><path class="cls-3" d="M129.92,43.17a44.13,44.13,0,0,1-4.94,0c-1.49-.18-2.11-1.38-2.42-2.74-.89-3.93-1.76-7.86-2.7-11.77-.55-2.26-1-2.56-3.31-2.52-1.88,0-2.32.61-2.3,2.5,0,4.81,0,9.62,0,14.58h-6.12V21.8c4.35,0,8.59-.14,12.82.07A4.48,4.48,0,0,1,125.08,25C126.8,31,128.29,37,129.92,43.17Z"/><path class="cls-3" d="M83.87,21.74c4.25,0,8.34-.12,12.41.06A4.69,4.69,0,0,1,100.74,25c1.75,5.95,3.25,11.84,5,18.26a41.36,41.36,0,0,1-5.19-.18c-1.47-.26-2-1.51-2.3-2.86-.85-3.82-1.69-7.64-2.62-11.44C94.9,26,94.44,26,91.39,26.16c-1.4.09-1.53,1.26-1.52,2.42,0,4.75,0,14.65,0,14.65h-6Z"/><path class="cls-3" d="M11,14.72c1.2,0,2.22,0,3.24,0,1.69.1,2.71,1.26,3,3.35.09.71,0,1.56.11,2.27a1.81,1.81,0,0,0,.41,1.07.87.87,0,0,0,.32.18h3.35v4.46H18.44c-1.19.2-1.2.79-1.18,2.83,0,2.33,0,4.66.1,7,.08,1.94.26,2.56,1.45,2.81l2.63.12v4.35c-1.05-.08-2.08.06-3.08,0a19,19,0,0,1-3-.28A5,5,0,0,1,11.58,39a16.33,16.33,0,0,1-.6-3.85C10.93,28.38,11,21.58,11,14.72Z"/><path class="cls-3" d="M80.11,43.23h-6V21.78h6Z"/><path class="cls-3" d="M80.14,19H74V14.77h6.1Z"/></g><path class="cls-2" d="M154.72,22.7c0-.21-.07-.32-.33-.38h0a.47.47,0,0,0,.4-.45c0-.37-.37-.47-.73-.47h-.77v1.86h.3v-.84H154a.46.46,0,0,1,.32.09c.1.09.1.24.12.41s.05.23.08.34h.32A2.08,2.08,0,0,1,154.72,22.7Zm-.65-.5h-.49v-.58h.49c.34,0,.41.14.41.29S154.41,22.19,154.07,22.2Z"/><path class="cls-2" d="M155.19,21.12a1.67,1.67,0,0,0-2.36,0,1.67,1.67,0,1,0,2.36,0ZM155,23.33a1.45,1.45,0,0,1-2.06,0,1.44,1.44,0,0,1-.43-1,1.46,1.46,0,0,1,2.49-1,1.47,1.47,0,0,1,.43,1A1.49,1.49,0,0,1,155,23.33Z"/></g></g></svg>