<svg xmlns="http://www.w3.org/2000/svg" viewBox="0 0 178.82 70.43"><defs><style>.cls-1{fill:#fff;}.cls-2{fill:#006a34;}.cls-3{fill:#e24343;}</style></defs><g id="Capa_2" data-name="Capa 2"><g id="Layer_1" data-name="Layer 1"><path class="cls-1" d="M1.52,7.74H177.7l-2.84,26.79,2.84,26.53-5.94-.67s-26.8-3.94-53.39-5.85c-3-.22-1.44,9.81-4.5,11.48-6.56,3.58-17.69.68-23.26.75-5.2.06-19.64,2.61-25.74-.92-3.45-2,1.74-11.16-2-10.88C33.55,57.16,1.52,61.06,1.52,61.06L4,34.53Z"/><path class="cls-2" d="M82.79,59.86h-.31v4.4h.27c1.28,0,2-.78,2-2.2S84.12,59.85,82.79,59.86Z"/><path class="cls-2" d="M100,59.82c-.55,0-.86.44-.85,1.25s.33,1.24.88,1.24.87-.43.86-1.25S100.57,59.81,100,59.82Z"/><polygon class="cls-2" points="108.61 63.42 110.2 63.39 110.16 60.39 108.61 63.42"/><path class="cls-2" d="M105,62.07c-.55,0-.86.44-.85,1.25s.32,1.24.87,1.24.87-.44.87-1.25S105.58,62.07,105,62.07Z"/><path class="cls-2" d="M68,60.3h-.31v4.41h.26c1.29,0,2-.77,2-2.2S69.3,60.3,68,60.3Z"/><path class="cls-2" d="M175.92,34.51l2.89-24.65A2.91,2.91,0,0,0,178.4,8a2.79,2.79,0,0,0-2.26-1.25H126.79v-5a1.65,1.65,0,0,0-.41-1.26A2,2,0,0,0,125.06,0H53.68A1.68,1.68,0,0,0,52,1.61V6.79H2.71a2.76,2.76,0,0,0-2,.88A3,3,0,0,0,0,9.82L2.92,34.51.05,59.12a2.61,2.61,0,0,0,.58,2.16,2.75,2.75,0,0,0,2.1,1,2.2,2.2,0,0,0,.36,0c1-.15,2.43-.36,4.12-.63,9-1.41,25.43-4,44.81-5.7l0,12.83a1.66,1.66,0,0,0,1.81,1.65c28.42-2.59,56.64-1.1,71.15,0a1.55,1.55,0,0,0,1.31-.46,1.67,1.67,0,0,0,.49-1.19V55.91c19.3,1.72,35.69,4.28,44.62,5.67,1.75.27,3.2.5,4.29.65a2.69,2.69,0,0,0,3.07-3.13Zm-108,30.78H67V59.73h.93c1.85,0,2.74.88,2.74,2.78A2.49,2.49,0,0,1,67.89,65.29Zm7.44-.21H72.71V59.52h2.53v.57H73.4v1.83h1.74v.59H73.4v2h1.93ZM78.25,65a2.3,2.3,0,0,1-1.11-.26l.07-.66a1.81,1.81,0,0,0,1.08.35.82.82,0,0,0,.9-.88c0-.58-.36-.83-1-1.25s-1.1-.82-1.1-1.5a1.45,1.45,0,0,1,1.54-1.51,2.9,2.9,0,0,1,1,.16l0,.67a1.66,1.66,0,0,0-.91-.26c-.57,0-.87.3-.87.79s.4.74,1.06,1.19,1,.86,1,1.57A1.53,1.53,0,0,1,78.25,65Zm4.48-.17H81.8V59.28h.93c1.85,0,2.73.88,2.74,2.77A2.5,2.5,0,0,1,82.73,64.84Zm4.56,0,0-5.56H89.8v.59H88v1.83h1.75v.58H88v2h1.93v.58Zm8.38,0,0-4.74-.72.76-.36-.49,1.14-1.09h.58l0,5.57Zm4,.16a2.66,2.66,0,0,1-.94-.16l.05-.63a1.52,1.52,0,0,0,.85.22c.88,0,1.28-.7,1.31-2.14a1.19,1.19,0,0,1-1,.6c-.84,0-1.42-.66-1.43-1.72s.58-1.88,1.5-1.9c1.11,0,1.64.84,1.66,2.58C101.67,63.93,101,65,99.68,65Zm5.32.13c-1,0-1.57-.83-1.59-2.5,0-2.15.58-3.21,2-3.22a3.29,3.29,0,0,1,1,.15l-.06.64a1.58,1.58,0,0,0-.84-.23c-.89,0-1.3.71-1.32,2.15a1.14,1.14,0,0,1,1-.6c.85,0,1.43.65,1.44,1.73S106,65.11,105,65.12Zm5.87.1h-.65l0-1.27-2.15,0v-.62L110,59.67h.82l0,3.73h.62v.56h-.61ZM176.62,60a.58.58,0,0,1-.48.24H176l-4.28-.65c-14.4-2.25-48.13-7.5-82.32-7.5S21.34,57.3,6.89,59.56l-4.1.63A.68.68,0,0,1,2.26,60a.79.79,0,0,1-.18-.37L5,34.51,2.1,9.61a.88.88,0,0,1,.17-.56.72.72,0,0,1,.44-.19H176.14a.71.71,0,0,1,.52.32,1,1,0,0,1,.09.44l-2.91,24.77v.12l2.89,24.88v.14A.44.44,0,0,1,176.62,60Z"/><path class="cls-3" d="M33.89,43.86c-1.07.1-2.13.26-3.2.39v.4c1.19-.12,2.39-.33,3.58-.44,0-6.51,0-14.11,0-20.62h-.38C33.92,30,33.9,37.46,33.89,43.86Z"/><path class="cls-3" d="M58.18,31.71c0,5.18-4.26,9.56-10.55,10A10.27,10.27,0,0,1,40.94,40a10.48,10.48,0,0,0,5.83,1.17c6.29-.44,10.54-4.83,10.56-10a8.94,8.94,0,0,0-2.77-6.49,9.79,9.79,0,0,0-1.24-1,11.4,11.4,0,0,0-6.49-1.93,10.2,10.2,0,0,0-10.55,10.1,9,9,0,0,0,3.85,7.64,9.91,9.91,0,0,0,7.78,2.6c6.29-.44,10.54-4.83,10.55-10a8.83,8.83,0,0,0-1.76-5.35A8.91,8.91,0,0,1,58.18,31.71ZM46.79,24.65a6.47,6.47,0,0,1,3.87,1.23,6.55,6.55,0,0,0-3-.7c-3.69,0-6.51,3.22-6.53,7.14a7.35,7.35,0,0,0,1.06,3.91,7.41,7.41,0,0,1-.85-3.54c0-3.92,2.83-7.13,6.52-7.14a6.35,6.35,0,0,1,3.64,1.06,7.14,7.14,0,0,1-4.73,11.86,6,6,0,0,1-3.07-.6,4.83,4.83,0,0,1-.59-.32,6.69,6.69,0,0,1-2.83-5.75C40.28,27.87,43.1,24.68,46.79,24.65Z"/><path class="cls-3" d="M73.19,40.72c-3.62.07-7.22.29-10.84.45v.38c3.74-.15,7.48-.38,11.22-.46V37.91h-.38Z"/><path class="cls-3" d="M81,25.72c0,4.88,0,10,0,14.84l-3.42,0V41l3.8,0c0-4.88,0-9.84,0-14.72V23.48H81Z"/><path class="cls-3" d="M131,40c0,.9,0,2,0,2.81-3.61-.27-7.21-.73-10.82-.94v.4c3.74.21,7.47.7,11.19,1V40Z"/><path class="cls-3" d="M139.33,23.54H139v2.58c0,5.48,0,12.05,0,17.53-1.14-.1-2.28-.27-3.42-.38v.4c1.27.1,2.53.3,3.8.42,0-5.48,0-12,0-17.47C139.34,25.59,139.33,24.57,139.33,23.54Z"/><path class="cls-3" d="M93.93,26.3l5.5,0V23.49h-.38v2.4l-5.49,0V40.53l-3.43,0v.44c1.28,0,2.55,0,3.81,0,0-4.88,0-9.66,0-14.54Z"/><path class="cls-3" d="M109.06,23.54c2.61,5.75,5.42,12,8,18l-4.4-.22c.07.16.15.31.21.47,1.38.06,3.47.2,4.84.26-2.67-6.13-5.57-12.62-8.23-18.5Z"/><path class="cls-3" d="M153.68,23.63c2.63,6.83,5.88,15.64,8.46,23-1.31-.16-3-.46-4.3-.63l.14.39c1.33.17,3.35.52,4.72.69-2.64-7.51-6-16.53-8.62-23.42Z"/><path class="cls-3" d="M32.89,23.59V22.3H29.38s0,0,0,0c-1.68,2.63-3.35,5.34-5,8.1q-2.1-3.34-4.2-6.83h-.48c1.49,2.45,3,4.86,4.45,7.21l-.57.94q-2.52-4-5.05-8.15l-.23-.37c-.18-.3-.37-.6-.55-.91H12.23V23a2.13,2.13,0,0,1,1,.75l.13.2a2.91,2.91,0,0,1,.41,1.54c0,6.14,0,13.87,0,20l1-.15c.12,0,.25-.05.38-.07.71-.11,1.41-.23,2.13-.31,0-4.79,0-11,0-15.82.34.55.69,1.11,1.05,1.67,0,4.69,0,10.52,0,15.06-1.06.12-2.12.33-3.18.48v.41c1.18-.15,2.37-.4,3.56-.53,0-4.46,0-10.17,0-14.81,1.24,2,2.51,3.89,3.71,5.74a2.44,2.44,0,0,0,.32-.05l.14,0c.33-.06.78-.13,1.1-.16q2.59-4.3,5.21-8.39v1.9c-1.48,2.34-3,4.71-4.43,7.16a12.64,12.64,0,0,0-1.42.22l.25.38a12.84,12.84,0,0,1,1.44-.24c1.38-2.28,2.77-4.52,4.15-6.72,0,4,0,8.47,0,12.17.35,0,.7-.08,1-.12l.37,0c.72-.09,1.44-.19,2.16-.25C32.85,36.84,32.87,29.81,32.89,23.59Z"/><path class="cls-3" d="M72.13,39.72c0-.6,0-1.19,0-1.77v-.82c-2,0-4,.09-6,.14,0-3.72,0-6.9,0-10.71,0-.94,0-1.86,0-2.79h-.39v2.29c0,3.8,0,7.44,0,11.23H64.74q0-6.12,0-12.24V23.77c0-.17,0-.34,0-.51v-1H59.5c0,.15,0,.3,0,.45a1.69,1.69,0,0,1,.79.48,3.05,3.05,0,0,1,.26.32,2.75,2.75,0,0,1,.15.25,2,2,0,0,1,.2.5,5.55,5.55,0,0,1,.07.81c0,4.12,0,8.23,0,12.35,0,.89,0,1.85,0,2.75l1.06,0h.37C65.62,40,68.87,39.79,72.13,39.72Z"/><path class="cls-3" d="M79.93,39.54c0-4.88,0-9.65,0-14.54V22.26H74.67c0,.15,0,.29,0,.44a1.64,1.64,0,0,1,.8.46,2.51,2.51,0,0,1,.61,1.05,4.23,4.23,0,0,1,.07.8c0,4.89,0,9.68,0,14.57h1.43Z"/><path class="cls-3" d="M130,39.91V38.8c-2-.13-4-.32-6-.45,0-3.93,0-8,0-11.92,0-1,0-1.94,0-2.93h-.37v2.42c0,4,0,8.34,0,12.4l-1.05-.07c0-4.25,0-8.8,0-13,0-.56,0-1.13,0-1.7V22.28h-5.28v.47a1.6,1.6,0,0,1,.81.48,2.72,2.72,0,0,1,.6,1.1,3.79,3.79,0,0,1,.08.84c0,4.2,0,8.7,0,12.91h0c0,.91,0,1.76,0,2.68.35,0,.7,0,1,.07l.38,0c3.26.23,6.52.62,9.77.86C130,41.13,130,40.52,130,39.91Z"/><path class="cls-3" d="M137.92,25.4c0-.62,0-1.24,0-1.87V22.31h-5.28v.48a1.55,1.55,0,0,1,.79.52,2.79,2.79,0,0,1,.61,1.16,4.23,4.23,0,0,1,.08.89c0,5.38,0,11.38,0,16.79.35,0,.71,0,1.06.1l.37,0c.79.1,1.59.2,2.37.28C137.94,37.06,137.92,30.88,137.92,25.4Z"/><path class="cls-3" d="M92.52,39.52c0-4.88,0-9.63,0-14.52v-.12l5.5,0V22.27H83.22v2.6H88.7v1h-4v.43h4c0,4.43,0,8.75,0,13.19h1.42Z"/><path class="cls-3" d="M107.93,23.54c-.07-.17-.14-.33-.23-.51s-.21-.48-.32-.72h-3.25c-2.56,5.84-5.12,11.53-7.7,17.27.46,0,.92,0,1.37,0,.2,0,.39,0,.58,0l1.69.07c.54-1.37,1.1-2.72,1.65-4.1l7.68.21.44,1c-2.42-.07-5-.14-7.42-.18-.55,1.36-1.13,2.77-1.67,4.13-1,0-1.86-.09-2.82-.12-.05.12-.11.25-.17.37,1.23,0,2,.12,3.24.15.55-1.37,1.14-2.73,1.69-4.11,2.32.06,5,.11,7.34.18.47,1,1,2.09,1.38,3.06l.65,0h.17l3.26.17C113,34.8,110.42,29.05,107.93,23.54Zm-5.11,9.64c.87-2.23,1.74-4.46,2.61-6.71l.57,1.36c-.7,1.79-1.39,3.59-2.09,5.37Zm1.52,0,1.89-4.84c.68,1.63,1.37,3.27,2,4.92Z"/><path class="cls-3" d="M152.61,23.63c-.07-.17-.13-.34-.19-.51s-.19-.49-.28-.71l-3.24,0c-2.58,6.78-5.45,14.17-8,20.46L142,43l.55.07c.65.08,1.32.16,2,.22.53-1.53,1.42-4,2-5.55q3.84.28,7.67.62c.12.31.25.68.38,1.08-2.39-.22-4.93-.43-7.31-.61-.54,1.55-1.42,3.94-2,5.47-1-.1-2-.25-3.07-.35l-.15.35c1.23.1,2.29.28,3.5.41.54-1.54,1.4-3.93,1.94-5.49,2.3.18,4.85.4,7.19.6.6,1.68,1.34,3.78,1.81,5.11.27,0,.54.07.8.1l.21,0,3.13.41C158.13,38.36,155.17,30.3,152.61,23.63Zm-5,11.31c.86-2.54,1.74-5.1,2.6-7.7.19.52.37,1.05.56,1.57L148.66,35Zm1.48.1c.63-1.85,1.27-3.73,1.9-5.61.69,1.94,1.38,3.89,2.07,5.88Z"/><path class="cls-3" d="M158.25,21.57h.24l.72,1.06.53-.09L159,21.47a.75.75,0,0,0,.54-.76c0-.53-.37-.82-1-.82h-.84v2.72h.51Zm0-1.26h.29c.33,0,.5.16.5.42s-.2.44-.52.44h-.27Z"/><path class="cls-3" d="M158.59,23.64a2.33,2.33,0,1,0-2.33-2.33A2.33,2.33,0,0,0,158.59,23.64Zm0-4.34a2,2,0,1,1-2,2A2,2,0,0,1,158.59,19.3Z"/><path class="cls-2" d="M172,34.54,174.79,11a.41.41,0,0,0-.1-.32.4.4,0,0,0-.3-.13H4.43a.43.43,0,0,0-.3.13A.41.41,0,0,0,4,11L6.8,34.54,4,57.85a.41.41,0,0,0,.12.34.39.39,0,0,0,.28.12l.07,0c.45-.07,45.55-7.95,85.21-7.95s84.27,7.88,84.72,7.95l.05,0a.44.44,0,0,0,.43-.41.59.59,0,0,0,0-.13Zm-82.37,15c-37.4,0-79.61,7-84.82,7.88L7.6,34.59v-.1L4.88,11.35H173.94l-2.72,23.14v.1L174,57.42C168.81,56.52,127.05,49.54,89.66,49.54Z"/></g></g></svg>