<svg xmlns="http://www.w3.org/2000/svg" xmlns:xlink="http://www.w3.org/1999/xlink" viewBox="0 0 112.41 186.43"><defs><style>.cls-1{fill:none;}.cls-2{isolation:isolate;}.cls-3{fill:#1f6a16;}.cls-10,.cls-11,.cls-12,.cls-13,.cls-14,.cls-15,.cls-3,.cls-4,.cls-5,.cls-6,.cls-7,.cls-8,.cls-9{fill-rule:evenodd;}.cls-4{fill:#238712;}.cls-5{fill:#35a423;}.cls-6{fill:#cf3a27;}.cls-7{fill:#ac2917;}.cls-8{fill:#17540e;}.cls-9{fill:#da412c;}.cls-10{fill:#f24731;}.cls-11{fill:#f2f2e9;}.cls-12{fill:#e7e0d2;}.cls-13{fill:#e44631;}.cls-14{fill:#941200;}.cls-15{fill:#f7f7f4;}.cls-16{fill:#a16651;}.cls-17{fill:#7d4e41;}.cls-18{fill:#c08372;}.cls-19{fill:#3d2115;}.cls-20{fill:#bd1723;}.cls-21{clip-path:url(#clip-path);}.cls-22{fill:#cdcccb;}.cls-23{clip-path:url(#clip-path-2);}.cls-24{fill:#e0e0e1;}.cls-25{clip-path:url(#clip-path-3);}.cls-26{clip-path:url(#clip-path-4);}.cls-27{fill:#e3e4e3;}.cls-28{clip-path:url(#clip-path-5);}.cls-29{fill:#c6c6ce;}.cls-30{clip-path:url(#clip-path-6);}.cls-31{fill:#b41918;}.cls-32{fill:#d5cad0;}.cls-32,.cls-37{mix-blend-mode:multiply;}.cls-33,.cls-36{fill:#fff;}.cls-34{fill:#daeefb;}.cls-35{fill:#eaf5fc;}.cls-36{mix-blend-mode:soft-light;}.cls-37{opacity:0.15;}</style><clipPath id="clip-path"><rect class="cls-1" x="49.99" y="52.45" width="15.65" height="22.81"/></clipPath><clipPath id="clip-path-2"><rect class="cls-1" x="22.97" y="51.1" width="33.84" height="8.71"/></clipPath><clipPath id="clip-path-3"><rect class="cls-1" x="44.58" y="54.32" width="3.16" height="20.23"/></clipPath><clipPath id="clip-path-4"><rect class="cls-1" x="44.78" y="51.54" width="10.75" height="26.11"/></clipPath><clipPath id="clip-path-5"><rect class="cls-1" x="46.41" y="53.84" width="6.67" height="22.85"/></clipPath><clipPath id="clip-path-6"><rect class="cls-1" x="58.89" y="61.18" width="12.27" height="13.37"/></clipPath></defs><g class="cls-2"><g id="Capa_2" data-name="Capa 2"><g id="Layer_1" data-name="Layer 1"><polygon class="cls-3" points="43.66 82.21 49.91 107.54 43.66 138.86 20.57 117.24 20.57 81.05 19.52 81.05 19.66 72.13 43.66 82.21"/><polygon class="cls-4" points="43.66 86.69 109.89 81.91 109.89 128.06 43.66 138.86 43.66 86.69"/><polygon class="cls-4" points="112.41 88.28 41.01 94.61 41.01 82.13 79.57 74.01 112.41 75.54 112.41 88.28"/><polygon class="cls-3" points="41.01 94.61 18.18 83.5 18.22 71.58 41.01 82.13 41.01 94.61"/><polygon class="cls-5" points="18.22 71.58 74.86 65.9 112.41 75.54 41.01 82.13 18.22 71.58"/><polygon class="cls-6" points="32.5 78.18 32.41 90.43 23.95 86.31 24.01 74.25 30.45 77.22 32.5 78.18"/><polygon class="cls-6" points="34.02 91.21 34.02 129.83 25.67 122.01 25.67 87.14 32.41 90.43 34.02 91.21"/><polygon class="cls-3" points="25.67 87.14 25.67 90.74 20.57 88.42 20.57 84.66 23.95 86.31 25.67 87.14"/><polygon class="cls-7" points="25.67 90.74 25.67 87.14 32.41 90.43 34.02 91.21 34.02 94.54 25.67 90.74"/><polygon class="cls-3" points="34.02 94.54 34.02 91.21 41.01 94.61 43.66 94.36 43.66 97.06 40.09 97.3 34.02 94.54"/><polygon class="cls-8" points="47.26 96.8 109.89 91.44 109.89 88.51 46.6 94.12 43.66 94.36 43.66 97.06 47.26 96.8"/><polygon class="cls-9" points="70.71 79.39 75.42 78.09 82.03 78.34 82.38 132.55 71.18 134.38 70.71 79.39"/><polygon class="cls-10" points="82.89 67.97 64.07 70.08 56.2 67.77 42.89 69.11 51.06 71.69 24.58 74.2 24.01 74.25 30.45 77.22 32.5 78.18 33.78 78.06 59.12 75.72 70.71 79.39 82.03 78.34 70.41 73.98 96.42 71.44 82.89 67.97"/><polygon class="cls-7" points="70.84 94.78 82.13 93.82 82.11 90.97 70.82 91.97 70.84 94.78"/><path class="cls-9" d="M89.54,56.88c-3.85,12.5-15.34,18.17-27.9,17.5l2.09-4.32c5.85.27,19.49-2.49,15.83-11l5.51-3.28Z"/><path class="cls-10" d="M60.05,72.69S74.26,50,79.57,50.41a12.81,12.81,0,0,1,10,6.47c-5.78-.8-23.93,11.19-27.9,17.5Z"/><path class="cls-7" d="M88.61,59.27c.63-1.44.93-2.39.93-2.39-2.05-.28-5.66,1-9.64,3.16a6.07,6.07,0,0,1,.26,2.22A51.58,51.58,0,0,1,88.61,59.27Z"/><path class="cls-7" d="M64.94,74.25a39.09,39.09,0,0,1,4.13-4.58,27.94,27.94,0,0,1-3.55.38,23.69,23.69,0,0,0-3.88,4.33A24,24,0,0,0,64.94,74.25Z"/><path class="cls-9" d="M33,56.88c3.85,12.5,15.34,18.17,27.9,17.5l-2.09-4.32c-5.85.27-19.49-2.49-15.83-11L37.5,55.81Z"/><path class="cls-10" d="M62.52,72.69S48.31,50,43,50.41a12.81,12.81,0,0,0-10,6.47c5.78-.8,23.92,11.19,27.9,17.5Z"/><path class="cls-7" d="M34,59.27c-.62-1.44-.92-2.39-.92-2.39,2-.28,5.66,1,9.64,3.16a5.86,5.86,0,0,0-.26,2.22A51.37,51.37,0,0,0,34,59.27Z"/><path class="cls-7" d="M57.63,74.25a39.09,39.09,0,0,0-4.13-4.58,27.94,27.94,0,0,0,3.55.38,23.69,23.69,0,0,1,3.88,4.33A24,24,0,0,1,57.63,74.25Z"/><path class="cls-11" d="M91.77,129.52a4.28,4.28,0,0,1-3.77-1.7A7.25,7.25,0,0,1,86.63,123a7.94,7.94,0,0,1,1.84-4.83,5,5,0,0,1,4-1.82,5.13,5.13,0,0,1,3.77,2,6.48,6.48,0,0,1,1.37,4.43,7.66,7.66,0,0,1-1.84,4.54,6.06,6.06,0,0,1-4,2.19ZM61.83,133A4.66,4.66,0,0,0,66,131.15a8,8,0,0,0,1.49-5.27,8.7,8.7,0,0,0-2-5.29,5.47,5.47,0,0,0-4.34-2A5.58,5.58,0,0,0,57,120.8a7.11,7.11,0,0,0-1.49,4.85,8.37,8.37,0,0,0,2,5A6.53,6.53,0,0,0,61.83,133ZM64,107.06a4.27,4.27,0,0,0,2.89-2,6.59,6.59,0,0,0,1-3.93,5.08,5.08,0,0,0-1.4-3.44,3.22,3.22,0,0,0-3-.83A4.89,4.89,0,0,0,60.64,99a6.15,6.15,0,0,0-1,3.73A4.9,4.9,0,0,0,61,106a3.57,3.57,0,0,0,3,1Zm-6.52,8.3A3,3,0,0,0,60,112a2.71,2.71,0,0,0-2.85-2.82,3.13,3.13,0,0,0-2.51,3.34,2.82,2.82,0,0,0,2.84,2.83ZM43.66,131.67a7,7,0,0,1-3-2.71,8.37,8.37,0,0,1-1.24-5.21,7.16,7.16,0,0,1,2.22-4.57,6,6,0,0,1,2-1.25h.11l0,0h2.92l.08,0h0l.11,0h.19l0,0h0l.13,0h0l.24.1h.05l.12.06h0l0,0h0A5.82,5.82,0,0,1,50,120.26a8.67,8.67,0,0,1,1.19,5.53,7.87,7.87,0,0,1-2.27,5,4.69,4.69,0,0,1-3.93,1.3H43.66ZM43,113.89a2.14,2.14,0,0,0,.67,0h.21l.06,0H44l.06,0h0l0,0h.1l0,0h0l0,0h0l0,0h0l0,0h0l0,0,0,0h0l0,0h0l0,0h0l0,0h0l.05,0h0l0,0,0,0,0,0,0,0,0,0,0,0h0l0,0h0l0,0h0l0,0,0,0,0,0,0,0,0,0,0,0,0,0,0,0h0l0,0h0l0,0h0l0,0,0,0,0,0,0,0v0l0,0h0l0,0h0l0,0h0l0,0v0l0,0,0,0v0l0,0h0l0-.06h0l0-.06h0l0-.06h0l0,0v0l0,0v-.06l0-.05h0l0-.06h0l0-.06h0l0-.06v-.09l0-.08v-.08h0l0-.07h0v-.48h0v-.08h0v-.07h0v-.07h0v-.07h0v-.07h0v-.07h0v-.07h0v-.07h0v-.06h0v-.07h0V110h0v-.15l0-.06h0v-.06h0v-.06h0v-.06h0v-.07l0,0v0l0,0v0l0,0v-.09l0,0v0l0,0v0l0,0,0,0,0,0v0l0,0v0l0,0,0,0,0,0,0,0,0,0v0l0,0,0,0,0,0,0,0,0,0,0,0,0,0,0,0,0,0,0,0,0,0,0,0,0,0,0,0,0,0,0,0,0,0h0l0,0,0,0,0,0,0,0,0,0,0,0,0,0h0l-.06,0,0,0,0,0,0,0h0l0,0h0l0,0h0l-.06,0,0,0h0l0,0h0l0,0h0a1.81,1.81,0,0,0-.31-.09h-.07l-.13,0h-.2a3.1,3.1,0,0,0-3,2.91A2.82,2.82,0,0,0,43,113.89Zm66.9-12.1v5.81l-.16,0a3,3,0,0,1-3.07-2.73,2.65,2.65,0,0,1,2.18-3.26,2.48,2.48,0,0,1,1,.15Zm-59.2,4.88a4.28,4.28,0,0,0,3.15-1.5,6.58,6.58,0,0,0,1.63-3.73,5.08,5.08,0,0,0-.87-3.62,3.23,3.23,0,0,0-2.88-1.28,4.92,4.92,0,0,0-3.17,1.66,6.62,6.62,0,0,0-.71.94v0l0,0h0l0,0v0l0,0h0l0,0h0l0,0v0l0,.06,0,0v0h0l0,0h0l0,0v.06h0l0,0v0l0,0h0l0,0h0v0l0,.08h0l-.07.15v.08h0l0,0h0v.06h0v0h0v.06h0l0,0h0v.06h0v0h0l0,0v.08h0v.12h0v0h0V101h0v0h0v.12h0v.13h0v.12h0v0h0v.07h0v0h0v.13a4.9,4.9,0,0,0,.89,3.46l0,0h0v0l0,0h0l0,0h0v0l0,0h0l0,0h0v0l0,0h0l0,0h0l0,0,0,0h0l0,0h0l0,0h0v0l0,0h0l0,0h0l0,0h0l0,0h0l0,0h0l0,0h0l0,0h0l.06,0v0h0l0,0h0l0,0h0l0,0h0l0,0h0l0,0h0l0,0h0l0,0h0l0,0h0l0,0H49l0,0h.1l.09,0,0,0h.1l0,0h0l.08,0h0l.07,0h.07a3.47,3.47,0,0,0,1,.17Zm59.2,5.18v13.22a5.41,5.41,0,0,1-.87.34,4.58,4.58,0,0,1-4.33-1,7.79,7.79,0,0,1-2.46-4.77,8.48,8.48,0,0,1,.91-5.47,5.38,5.38,0,0,1,3.78-2.75,5.28,5.28,0,0,1,3,.41Zm-8-10.93A4.14,4.14,0,0,1,98.7,99.6,6.52,6.52,0,0,1,96.93,96a5,5,0,0,1,.65-3.54l0,0a3.17,3.17,0,0,1,2.75-1.39h1.23l0,0h.17l0,0h.08l0,0h0l0,0h0l0,0h0l0,0h0l0,0h0l0,0h0l0,0h.08l0,0h0l0,0h.06v0h0l0,0h0l0,0h0l0,0h0v0h0l0,0h0l0,0h0l0,0h0l0,0h0l0,0h0l0,0a7.19,7.19,0,0,1,.59.51,6,6,0,0,1,1.72,3.37,4.77,4.77,0,0,1-.71,3.43,3.48,3.48,0,0,1-2.71,1.58Zm-12.09,4.87A3.9,3.9,0,0,1,87.12,104a6.1,6.1,0,0,1-1-3.6,4.61,4.61,0,0,1,1.29-3.14,2.92,2.92,0,0,1,2.78-.76,4.47,4.47,0,0,1,2.63,1.94,5.62,5.62,0,0,1,1,3.4,4.55,4.55,0,0,1-1.29,3,3.29,3.29,0,0,1-2.77.94Zm6,7.6a2.78,2.78,0,0,1-2.3-3.07,2.47,2.47,0,0,1,2.6-2.57,2.82,2.82,0,0,1,2.29,3A2.57,2.57,0,0,1,95.72,113.39Z"/><path class="cls-12" d="M22.83,92.84c-.42,0-.78.49-1,1.24a8.65,8.65,0,0,0-.34,2.9A7.2,7.2,0,0,0,22,99.67c.29.63.68.93,1.09.79a2.16,2.16,0,0,0,1-1.42,8.06,8.06,0,0,0,.34-2.67,6.68,6.68,0,0,0-.54-2.52c-.29-.65-.68-1-1.09-1ZM37.09,99a2.57,2.57,0,0,0-2,1.72,8.78,8.78,0,0,0-.66,4,7.43,7.43,0,0,0,1.06,3.73,2,2,0,0,0,2.16,1.09,3.31,3.31,0,0,0,2-2,7.73,7.73,0,0,0,.67-3.7,7,7,0,0,0-1.06-3.49A2.6,2.6,0,0,0,37.09,99Zm-.74,19.32A2.81,2.81,0,0,0,35,120a7.18,7.18,0,0,0-.46,3,4.31,4.31,0,0,0,.73,2.42,1.16,1.16,0,0,0,1.51.35,3.47,3.47,0,0,0,1.4-1.81,6.77,6.77,0,0,0,.46-2.83,4.11,4.11,0,0,0-.73-2.31,1.28,1.28,0,0,0-1.51-.5Zm3.1-6.68c-.73.2-1.26,1.41-1.19,2.69s.71,2.09,1.43,1.83,1.27-1.46,1.2-2.68-.71-2-1.44-1.84Zm-17-4.82a2,2,0,0,0-.71,1.22,7.31,7.31,0,0,0-.23,2.16,4.24,4.24,0,0,0,.37,1.75c.21.36.48.46.76.25a2.5,2.5,0,0,0,.71-1.31,6.69,6.69,0,0,0,.23-2,3.72,3.72,0,0,0-.37-1.67c-.21-.37-.47-.52-.76-.36ZM24,102c-.37.14-.64,1-.61,1.94s.36,1.52.73,1.33.64-1.06.6-1.94S24.39,101.83,24,102Z"/><path class="cls-12" d="M43.66,113.86v-6.11H43.6c-3.5-.15-4.16,5.85-.61,6.14A2.46,2.46,0,0,0,43.66,113.86Z"/><path class="cls-12" d="M43.66,131.67V117.91C38.59,119.69,37.48,128.94,43.66,131.67Z"/><polygon class="cls-7" points="21.32 118.63 26.23 149.49 21.32 186.43 1.99 156.65 2.51 104.48 21.32 118.63"/><polygon class="cls-6" points="21.32 118.63 89.13 116.27 89.13 184.07 21.32 186.43 21.32 118.63"/><polygon class="cls-4" points="61.94 185.02 48.52 185.49 48.52 131.33 54.68 131.13 61.94 130.89 61.94 185.02"/><polygon class="cls-6" points="92.32 130.93 19.24 133.25 19.24 118.3 49.48 111.94 92.32 115.58 92.32 130.93"/><polygon class="cls-4" points="62.86 131.87 48.52 132.32 48.7 113.01 62.86 113.11 62.86 131.87"/><polygon class="cls-7" points="19.24 133.25 0 116.8 0.03 102.54 10.94 111.54 19.24 118.3 19.24 133.25"/><polygon class="cls-13" points="0 102.55 60.98 100.12 92.32 115.58 19.24 118.3 0 102.55"/><polygon class="cls-7" points="48.52 132.32 48.52 135.45 24.13 136.31 21.32 136.4 21.32 133.18 23.62 133.1 48.52 132.32"/><polygon class="cls-3" points="48.52 135.45 48.52 132.32 61.94 131.89 61.94 134.97 48.52 135.45"/><polygon class="cls-7" points="61.94 134.97 61.94 131.89 62.86 131.87 89.13 131.03 89.13 134.01 61.94 134.97"/><polygon class="cls-4" points="12.57 112.84 12.51 127.49 5.88 121.83 5.92 107.4 12.57 112.84"/><polygon class="cls-4" points="13.77 128.57 13.77 174.79 7.22 164.7 7.22 122.97 12.51 127.49 13.77 128.57"/><polygon class="cls-14" points="7.22 122.97 7.22 127.28 2.32 123.33 2.37 118.83 5.88 121.83 7.22 122.97"/><polygon class="cls-3" points="7.22 127.28 7.22 122.97 12.51 127.49 13.77 128.57 13.77 132.55 7.22 127.28"/><polygon class="cls-14" points="13.77 132.55 13.77 128.57 19.24 133.25 21.32 133.18 21.32 136.4 18.53 136.38 13.77 132.55"/><polygon class="cls-5" points="6.35 107.37 31.93 105.93 24.48 101.58 36.98 101.08 42.88 104.57 67.4 103.29 77.66 108.35 51.75 109.75 56.12 112.47 57.08 113.07 62.86 116.67 48.66 117.2 42.26 113.46 39.01 111.56 13.56 112.79 12.57 112.84 5.92 107.4 6.35 107.37"/><path class="cls-11" d="M30.86,120.35a2.08,2.08,0,0,1,2,2.07,2,2,0,0,1-2,2,2.08,2.08,0,0,1-2-2.07A2,2,0,0,1,30.86,120.35Z"/><path class="cls-11" d="M43.4,119.79a2.08,2.08,0,0,1,2,2.06,2,2,0,0,1-2,2,2.08,2.08,0,0,1-2-2.07A2,2,0,0,1,43.4,119.79Z"/><path class="cls-11" d="M67,119.39a2.07,2.07,0,0,1,2,2.06,2,2,0,0,1-2,2,2.07,2.07,0,0,1-2-2.06A1.94,1.94,0,0,1,67,119.39Z"/><path class="cls-11" d="M79.87,118.56a2.08,2.08,0,0,1,2,2.07,2,2,0,0,1-2,2,2.07,2.07,0,0,1-2-2.06A2,2,0,0,1,79.87,118.56Z"/><path class="cls-11" d="M2.57,107.93c1.17.3,1.23,2.57,0,2.26C1.08,109.81,1.09,107.56,2.57,107.93Z"/><path class="cls-11" d="M37.25,126.4a2.08,2.08,0,0,1,2,2.06,2,2,0,0,1-2,2,2.08,2.08,0,0,1-2-2.07A2,2,0,0,1,37.25,126.4Z"/><path class="cls-11" d="M24.23,126.87a2.07,2.07,0,0,1,2,2.06,2,2,0,0,1-2,2,2.08,2.08,0,0,1-2-2.07A2,2,0,0,1,24.23,126.87Z"/><path class="cls-11" d="M73.16,125.19a2.08,2.08,0,0,1,2,2.06,2,2,0,0,1-2,2,2.08,2.08,0,0,1-2-2.07A2,2,0,0,1,73.16,125.19Z"/><path class="cls-11" d="M86.42,124.3a2.08,2.08,0,0,1,2,2.07,2,2,0,0,1-2,2,2.08,2.08,0,0,1-2-2.07A2,2,0,0,1,86.42,124.3Z"/><path class="cls-11" d="M30.79,137.12a2.08,2.08,0,0,1,2,2.07,2,2,0,0,1-2,2,2.08,2.08,0,0,1-2-2.07A2,2,0,0,1,30.79,137.12Z"/><path class="cls-11" d="M43.3,137a2.07,2.07,0,0,1,2,2.06,2,2,0,0,1-2,2,2.08,2.08,0,0,1-2-2.06A2,2,0,0,1,43.3,137Z"/><path class="cls-11" d="M67,136.1a2.08,2.08,0,0,1,2,2.07,2,2,0,0,1-2,2,2.07,2.07,0,0,1-2-2.06A2,2,0,0,1,67,136.1Z"/><path class="cls-11" d="M78.9,135.79a2.09,2.09,0,0,1,2,2.07,2,2,0,0,1-2,2,2.07,2.07,0,0,1-2-2.06A2,2,0,0,1,78.9,135.79Z"/><path class="cls-11" d="M15.36,125.31c1.33.34,1.39,2.91,0,2.56C13.68,127.44,13.69,124.89,15.36,125.31Z"/><path class="cls-11" d="M73.33,143.58a2.07,2.07,0,0,1,2,2.06,2,2,0,0,1-2,2,2.08,2.08,0,0,1-2-2.07A2,2,0,0,1,73.33,143.58Z"/><path class="cls-11" d="M37.07,144.68a2.08,2.08,0,0,1,2,2.07,2,2,0,0,1-2,2,2.07,2.07,0,0,1-2-2.06A2,2,0,0,1,37.07,144.68Z"/><path class="cls-11" d="M25.76,144.75a2.07,2.07,0,0,1,2,2.06,2,2,0,0,1-2,2,2.07,2.07,0,0,1-2-2.06A2,2,0,0,1,25.76,144.75Z"/><path class="cls-11" d="M85.19,142.38a2.08,2.08,0,0,1,2,2.07,2,2,0,0,1-2,2,2.08,2.08,0,0,1-2-2.07A2,2,0,0,1,85.19,142.38Z"/><path class="cls-11" d="M4,127.65a1,1,0,0,1,.79.95.62.62,0,0,1-.79.62,1,1,0,0,1-.78-1A.61.61,0,0,1,4,127.65Z"/><path class="cls-11" d="M2.57,114c1.17.29,1.23,2.56,0,2.25C1.08,115.91,1.09,113.66,2.57,114Z"/><path class="cls-11" d="M15.36,119.59c1.33.33,1.39,2.9,0,2.55C13.68,121.71,13.69,119.16,15.36,119.59Z"/><path class="cls-11" d="M17.3,144.1a1.92,1.92,0,0,1,1.09,1.84c0,.83-.48,1.36-1.09,1.19a1.93,1.93,0,0,1-1.09-1.83C16.21,144.46,16.7,143.93,17.3,144.1Z"/><path class="cls-11" d="M17.3,137.44a1.89,1.89,0,0,1,1.09,1.83c0,.83-.48,1.36-1.09,1.19a1.93,1.93,0,0,1-1.09-1.83C16.21,137.79,16.7,137.26,17.3,137.44Z"/><path class="cls-11" d="M4.21,134.47a1,1,0,0,1,.78.95.61.61,0,0,1-.78.62,1,1,0,0,1-.79-1A.61.61,0,0,1,4.21,134.47Z"/><path class="cls-11" d="M31.79,153.05a2.08,2.08,0,0,1,2,2.07,2,2,0,0,1-2,2,2.08,2.08,0,0,1-2-2.07A2,2,0,0,1,31.79,153.05Z"/><path class="cls-11" d="M43.3,151.8a2.08,2.08,0,0,1,2,2.07,2,2,0,0,1-2,2,2.08,2.08,0,0,1-2-2.06A2,2,0,0,1,43.3,151.8Z"/><path class="cls-11" d="M67,150A2.07,2.07,0,0,1,69,152a2,2,0,0,1-2,2,2.07,2.07,0,0,1-2-2.06A2,2,0,0,1,67,150Z"/><path class="cls-11" d="M78.9,149.65a2.08,2.08,0,0,1,2,2.06,2,2,0,0,1-2,2,2.07,2.07,0,0,1-2-2.06A2,2,0,0,1,78.9,149.65Z"/><path class="cls-11" d="M73.33,157.25a2.07,2.07,0,0,1,2,2.06,2,2,0,0,1-2,2,2.07,2.07,0,0,1-2-2.06A2,2,0,0,1,73.33,157.25Z"/><path class="cls-11" d="M73.33,170.92a2.07,2.07,0,0,1,2,2.06,2,2,0,0,1-2,2,2.07,2.07,0,0,1-2-2.06A2,2,0,0,1,73.33,170.92Z"/><path class="cls-11" d="M37.07,158.35a2.08,2.08,0,0,1,2,2.07,2,2,0,0,1-2,2,2.07,2.07,0,0,1-2-2.06A2,2,0,0,1,37.07,158.35Z"/><path class="cls-11" d="M37.07,172a2.08,2.08,0,0,1,2,2.07,2,2,0,0,1-2,2,2.08,2.08,0,0,1-2-2.07A2,2,0,0,1,37.07,172Z"/><path class="cls-11" d="M25.76,158.42a2.07,2.07,0,0,1,2,2.06,2,2,0,0,1-2,2,2.08,2.08,0,0,1-2-2.06A2,2,0,0,1,25.76,158.42Z"/><path class="cls-11" d="M25.76,172.08a2.08,2.08,0,0,1,2,2.07,2,2,0,0,1-2,2,2.08,2.08,0,0,1-2-2.06A2,2,0,0,1,25.76,172.08Z"/><path class="cls-11" d="M85.19,156.05a2.08,2.08,0,0,1,2,2.07,2,2,0,0,1-2,2,2.08,2.08,0,0,1-2-2.07A2,2,0,0,1,85.19,156.05Z"/><path class="cls-11" d="M85.19,169.72a2.07,2.07,0,0,1,2,2.06,2,2,0,0,1-2,2,2.08,2.08,0,0,1-2-2.07A2,2,0,0,1,85.19,169.72Z"/><path class="cls-11" d="M31.79,166.72a2.08,2.08,0,0,1,2,2.07,2,2,0,0,1-2,2,2.08,2.08,0,0,1-2-2.07A2,2,0,0,1,31.79,166.72Z"/><path class="cls-11" d="M31.79,180.39a2.08,2.08,0,0,1,2,2.07,2,2,0,0,1-2,2,2.08,2.08,0,0,1-2-2.07A2,2,0,0,1,31.79,180.39Z"/><path class="cls-11" d="M43.3,165.47a2.08,2.08,0,0,1,2,2.07,2,2,0,0,1-2,2,2.08,2.08,0,0,1-2-2.07A2,2,0,0,1,43.3,165.47Z"/><path class="cls-11" d="M43.3,179.14a2.08,2.08,0,0,1,2,2.07,2,2,0,0,1-2,2,2.09,2.09,0,0,1-2-2.07A2,2,0,0,1,43.3,179.14Z"/><path class="cls-11" d="M67,163.62a2.08,2.08,0,0,1,2,2.07,2,2,0,0,1-2,2,2.07,2.07,0,0,1-2-2.06A2,2,0,0,1,67,163.62Z"/><path class="cls-11" d="M67,177.29a2.08,2.08,0,0,1,2,2.07,2,2,0,0,1-2,2,2.07,2.07,0,0,1-2-2.06A2,2,0,0,1,67,177.29Z"/><path class="cls-11" d="M78.9,163.32a2.08,2.08,0,0,1,2,2.06,2,2,0,0,1-2,2,2.07,2.07,0,0,1-2-2.06A2,2,0,0,1,78.9,163.32Z"/><path class="cls-11" d="M78.9,177a2.09,2.09,0,0,1,2,2.07,2,2,0,0,1-2,2,2.07,2.07,0,0,1-2-2.06A2,2,0,0,1,78.9,177Z"/><path class="cls-11" d="M17.3,151.57a1.91,1.91,0,0,1,1.09,1.83c0,.84-.48,1.37-1.09,1.19a1.93,1.93,0,0,1-1.09-1.83C16.21,151.93,16.7,151.39,17.3,151.57Z"/><path class="cls-11" d="M17.3,159a1.89,1.89,0,0,1,1.09,1.83c0,.83-.48,1.37-1.09,1.19a1.93,1.93,0,0,1-1.09-1.83C16.21,159.39,16.7,158.86,17.3,159Z"/><path class="cls-11" d="M17.3,166.5a1.91,1.91,0,0,1,1.09,1.83c0,.84-.48,1.37-1.09,1.19a1.91,1.91,0,0,1-1.09-1.83C16.21,166.86,16.7,166.32,17.3,166.5Z"/><path class="cls-11" d="M17.3,174a1.91,1.91,0,0,1,1.09,1.83c0,.84-.48,1.37-1.09,1.19a1.93,1.93,0,0,1-1.09-1.83C16.21,174.32,16.7,173.79,17.3,174Z"/><path class="cls-11" d="M4.24,140.37a1,1,0,0,1,.79,1,.61.61,0,0,1-.79.61,1,1,0,0,1-.78-1A.61.61,0,0,1,4.24,140.37Z"/><path class="cls-11" d="M4.13,146.87a1,1,0,0,1,.79,1,.61.61,0,0,1-.79.61,1,1,0,0,1-.78-1A.61.61,0,0,1,4.13,146.87Z"/><path class="cls-11" d="M4,153.55a1,1,0,0,1,.79.95.62.62,0,0,1-.79.62,1.05,1.05,0,0,1-.79-1A.61.61,0,0,1,4,153.55Z"/><path class="cls-5" d="M11.76,95.41s18-1.92,29.22,10c1.59,1.68,4,3.23,5.16,5.52l2.34-4.6c-4-10.37-14.2-18.39-26.69-19.55C17.05,88.55,15.37,91,11.76,95.41Z"/><path class="cls-4" d="M11.76,95.41s4.7,18.94,34.38,15.51a26.56,26.56,0,0,0-4-5.68C30.89,93.05,11.76,95.41,11.76,95.41Z"/><path class="cls-15" d="M23,95.8c1.94,4.82,11.31,8.39,17.64,8C35.32,98.82,28.62,96.68,23,95.8Z"/><path class="cls-3" d="M12.41,97.18A74,74,0,0,1,24,97.4,6.57,6.57,0,0,1,23,95.8a44.72,44.72,0,0,0-11.26-.39A12.32,12.32,0,0,0,12.41,97.18Z"/><path class="cls-3" d="M39.7,104.84a30.32,30.32,0,0,1,5,6.23l1.43-.15a26.56,26.56,0,0,0-4-5.68l-.42-.44c-.34-.36-.69-.7-1.05-1-.43,0-.87,0-1.33,0l-.79,0C38.94,104.12,39.33,104.48,39.7,104.84Z"/><path class="cls-4" d="M12,129.49c10.42-17.23,32.72-18.42,32.72-18.42a31.23,31.23,0,0,0-3.6-4.66C30.86,104.13,16,109.3,8,118A120,120,0,0,0,12,129.49Z"/><path class="cls-5" d="M80.56,95.41s-18-1.92-29.22,10c-1.59,1.68-4,3.23-5.16,5.52l-2.34-4.6C47.8,96,58,87.93,70.53,86.77,75.27,88.55,77,91,80.56,95.41Z"/><path class="cls-4" d="M80.56,95.41s-4.7,18.94-34.38,15.51a26.92,26.92,0,0,1,4-5.68C61.43,93.05,80.56,95.41,80.56,95.41Z"/><path class="cls-15" d="M69.3,95.8c-1.94,4.82-11.31,8.39-17.64,8C57,98.82,63.7,96.68,69.3,95.8Z"/><path class="cls-3" d="M79.91,97.18a74,74,0,0,0-11.55.22,6.57,6.57,0,0,0,.94-1.6,44.72,44.72,0,0,1,11.26-.39A12.32,12.32,0,0,1,79.91,97.18Z"/><path class="cls-3" d="M52.62,104.84a30.32,30.32,0,0,0-5,6.23l-1.43-.15a26.92,26.92,0,0,1,4-5.68l.42-.44c.34-.36.69-.7,1-1,.43,0,.87,0,1.33,0l.79,0C53.38,104.12,53,104.48,52.62,104.84Z"/><path class="cls-4" d="M80.33,129.49c-10.42-17.23-32.72-18.42-32.72-18.42a31.23,31.23,0,0,1,3.6-4.66c10.25-2.28,25.13,2.89,33.14,11.61A120,120,0,0,1,80.33,129.49Z"/><path class="cls-16" d="M75.87,42.25c3.85-.24,4.93,4.29,1.84,11S65.83,64,65.83,64s-14.53-11-6.58-10c8.83,1.13,12.53-4.58,12.53-4.58s.24-6.86,4.09-7.1"/><path class="cls-16" d="M7.22,77c1.42,3.51,6.07,2.52,10.92-3.07S34.31,58.7,25.43,56.21,12,70.3,12,70.3,5.79,73.45,7.22,77"/><path class="cls-16" d="M51.69,20.59l6.76,5.05s7.83-1.1,7.83-5.05A7.22,7.22,0,0,0,59,13.45c-4,0-7.29,7.14-7.29,7.14"/><path class="cls-17" d="M55,20.59l3.05,3s4.9-.84,4.9-3a3.94,3.94,0,0,0-4-3.89c-2.19,0-4,3.89-4,3.89"/><path class="cls-16" d="M34.73,20.59,28,25.64s-7.83-1.1-7.83-5.05a7.22,7.22,0,0,1,7.3-7.14c4,0,7.29,7.14,7.29,7.14"/><path class="cls-17" d="M31.41,20.59l-3.05,3s-4.9-.84-4.9-3a3.94,3.94,0,0,1,4-3.89c2.19,0,4,3.89,4,3.89"/><path class="cls-16" d="M67.46,38.53c0,9.76-10.84,15.79-24.21,15.79S19,47.59,19,38.53C19,32,29.88,13.45,43.25,13.45S67.46,32,67.46,38.53"/><path class="cls-18" d="M56.87,46.88c0,4.6-6.1,7.44-13.62,7.44s-13.62-3.17-13.62-7.44c0-3.07,6.1-11.83,13.62-11.83s13.62,8.76,13.62,11.83"/><path class="cls-19" d="M38.57,38.19c0-1.58,2.1-2.56,4.68-2.56s4.68,1.09,4.68,2.56c0,1.05-2.1,4.06-4.68,4.06s-4.68-3-4.68-4.06"/><path class="cls-19" d="M39.1,48.59a5.4,5.4,0,0,0,4.15,2.71,5.4,5.4,0,0,0,4.15-2.71Z"/><path class="cls-19" d="M53.35,32.26a1.66,1.66,0,1,1-1.66-1.62,1.64,1.64,0,0,1,1.66,1.62"/><path class="cls-19" d="M36.39,32.26a1.66,1.66,0,1,1-1.66-1.62,1.64,1.64,0,0,1,1.66,1.62"/><path class="cls-16" d="M59.07,53.26c-3.63.87-7.19.72-11.1.78-4.5.06-9,.26-13.4-.88a3.13,3.13,0,0,1-2.33-2.06c-11.1,3.91-14.81,12.71-15.6,24-1.19,16.77,10.06,27.57,26.61,27.57s28.89-7.52,27.91-25.77c-.51-9.56-5.51-17.07-12.09-23.61"/><path class="cls-17" d="M53.37,58.18a31.54,31.54,0,0,1-6.93.49,31.34,31.34,0,0,1-8.38-.55,1.94,1.94,0,0,1-1.45-1.29c-6.95,2.44-9.26,8-9.76,15-.74,10.48,6.29,17.24,16.64,17.24s18.06-4.71,17.45-16.12c-.32-6-3.45-10.67-7.57-14.76"/><path class="cls-20" d="M52.69,55.45c1.12-1.05.57-2.9,2.86-3,.56,0,1.44,1,2.62,2.62,1,1.37,2.23,3.13,3.66,5a47.36,47.36,0,0,0,3.69,4.31,24.16,24.16,0,0,0,4.59,3.76,13.21,13.21,0,0,0,3,1.41,5.4,5.4,0,0,0-.41.45l0,0c.58.27,1.15.55,1.74.78a3.24,3.24,0,0,1,1,.48.11.11,0,0,1,0,.16c-.67.48-1.86-.2-2.52-.45l-.84-.31c-.11.14-.22.29-.35.44,1.32.65,2.39,1.83,4,2,.13,0,.17.22,0,.25a3.59,3.59,0,0,1-2.9-.6l-.33-.21.31.28c.64.6,1.66,1.77,1.19,2.72a.27.27,0,0,1-.48,0c-.19-.3-.29-.65-.48-.95a4.36,4.36,0,0,0-1.26-1.16,8.58,8.58,0,0,0-1.3-.71l-.33.39q.18.19.36.36a8.44,8.44,0,0,1,2.27,2.64c.08.2-.17.34-.32.26A13.07,13.07,0,0,1,70,74l-.18-.15.26.39a19.83,19.83,0,0,0,2.61,3.65c.39.36-.1.88-.51.69-1-.49-1.75-1.91-2.38-2.82-.29-.42-.59-.82-.9-1.21l-.29.3.21.28a5.67,5.67,0,0,1,1.4,2.7.12.12,0,0,1-.2.09,19,19,0,0,1-1.93-2.42l-.09-.1-.14.1A15,15,0,0,1,69,77.34c0,.07,0,.17-.11.11a10.9,10.9,0,0,1-1.93-1.85,7.78,7.78,0,0,1-1.44-.36,20.26,20.26,0,0,1-6.76-4.44c-.8-.74-1.58-1.52-2.32-2.34a42.59,42.59,0,0,1-5-6.59A8.1,8.1,0,0,1,50,58.6c.14-2.94,1.36-1.89,2.7-3.15"/><g class="cls-21"><path class="cls-22" d="M52.69,55.45c1.12-1.05.57-2.9,2.86-3,.56,0,1.44,1,2.62,2.62.95,1.27,2.08,2.9,3.38,4.61-1.26.19-5,1.7-5.16,3.09-.34,2.35,1.09,4.37,2.77,6.38.94,1.14,2.94,1.34,3.8,2.13,1.61,1.48,3.22,4.21,2.52,4a20.26,20.26,0,0,1-6.76-4.44c-.8-.74-1.58-1.52-2.32-2.34a42.59,42.59,0,0,1-5-6.59A8.1,8.1,0,0,1,50,58.6c.14-2.94,1.36-1.89,2.7-3.15"/></g><path class="cls-20" d="M62.3,54.92a30.22,30.22,0,0,1-5.49,2.74,24.56,24.56,0,0,1-6.67,2,120.47,120.47,0,0,1-13.43-.08,55.79,55.79,0,0,1-8-1,13.79,13.79,0,0,1-5.42-2.08c-1.15-.87.89-1.46,2.24-2.84a.91.91,0,0,0,.07-1.22l-.14-.26,0-.06s0-.07,0-.11l0-.07,0-.11a.15.15,0,0,1,0-.07.68.68,0,0,1,0-.21.2.2,0,0,1,0-.07.43.43,0,0,1,0-.11l0-.09.06-.12,0,0h0a1.5,1.5,0,0,1,.32-.38c.51-.45,1.93.08,5.09.63a59,59,0,0,0,8.63.85c.71,0,1.46,0,2.24,0h2.46l1.8,0,1.37,0,1.37-.06c.49,0,1,0,1.4-.09l1.06-.07,1.1-.08c1.55-.13,2.82-.26,3.84-.37,2-.21,3.85-1.64,4.23-1.39.83.55-.43,1.08.85,2.37s1.88,1.27,1.07,2.47"/><g class="cls-23"><path class="cls-24" d="M56.81,57.66a24.56,24.56,0,0,1-6.67,2,120.47,120.47,0,0,1-13.43-.08,55.79,55.79,0,0,1-8-1,13.79,13.79,0,0,1-5.42-2.08c-1.15-.87.89-1.46,2.24-2.84a.91.91,0,0,0,.07-1.22c-.21-.4-.47-.82-.16-1.31l.09.17a33.65,33.65,0,0,0,3.64,2.8c-2.77.16-4.32,1.28-3.76,2.14.84,1.24,4.09.81,5.6,1.24,2.76.78,7.26.4,10.11.4,2,0,2.78-1.26,2.61-3.09-.08-.82-.08-1.7-.21-2.53h.67l1.8,0,1.37,0,1.37-.06c.49,0,1,0,1.4-.09l1.06-.07,1.1-.08.28.45.33.55a.6.6,0,0,0,0,.12c.15.61,1.44.91,1.7,1.49.65,1.41.43,2.65,2.06,3.18l.11,0"/></g><path class="cls-20" d="M55.52,67.41A21.68,21.68,0,0,1,54,75.55a8.56,8.56,0,0,1-1.11,1.87c-1.12.62-7.09-.09-8.13,0a15.1,15.1,0,0,0,1.06-3.23,25.73,25.73,0,0,0,.49-6,50.6,50.6,0,0,0-.5-5.75c-.32-2.33-.73-4.46-1-6.16-.32-2-.44-3.37,0-3.78,1.64-1.66,2.56,0,4.07-.11,1.8-.16,1.9-1.79,4.06.11a8.06,8.06,0,0,1,1.34,3.3,44.66,44.66,0,0,1,1.21,8.3q.1,1.68.06,3.36"/><g class="cls-25"><path class="cls-24" d="M47.46,71.36c0-3.51.47-7,.18-10.49-.1-1.16,0-3.1-.87-4a13.92,13.92,0,0,1-2.19-2.59c.05.55.14,1.19.25,1.91.27,1.7.68,3.83,1,6.16a50.6,50.6,0,0,1,.5,5.75,25.73,25.73,0,0,1-.49,6c-.24,1.13,1.6-.5,1.62-2.83"/></g><g class="cls-26"><path class="cls-27" d="M55.46,64.05a44.66,44.66,0,0,0-1.21-8.3,8.06,8.06,0,0,0-1.34-3.3c-2.16-1.9-2.26-.27-4.06-.11-1.51.13-2.43-1.55-4.07.11a4.69,4.69,0,0,1,4.37,2.42s2.37-4.26,3.63-.55c2,6,1.78,14.68,1,20.83a3.3,3.3,0,0,1-2,2.5,3.38,3.38,0,0,0,1.21-.23A8.56,8.56,0,0,0,54,75.55a21.68,21.68,0,0,0,1.5-8.14q0-1.68-.06-3.36"/></g><path class="cls-20" d="M52.06,80.41a10,10,0,0,0,.15-2c0-.78-.11-1.8.53-2.34a.26.26,0,0,1,.4,0c.41.81,0,1.88-.17,2.75a6.46,6.46,0,0,1-1.16,3,.11.11,0,0,1-.19-.11c.13-.48.32-.93.44-1.41"/><path class="cls-20" d="M50.73,78.55c0-.85,0-1.92.64-2.49a.3.3,0,0,1,.49.14,11.55,11.55,0,0,1-.37,3.11A4.19,4.19,0,0,1,50.66,82a.18.18,0,0,1-.3-.13c.09-1.11.34-2.17.37-3.3"/><path class="cls-20" d="M49,79.12a16.71,16.71,0,0,0,.24-2A2.13,2.13,0,0,1,49.38,76a.3.3,0,0,1,.47-.06c.68.55.37,1.62.22,2.38-.25,1.19-.59,2.44-.91,3.6a.12.12,0,0,1-.24,0A5.5,5.5,0,0,1,49,79.12"/><path class="cls-20" d="M47.86,78.73a3.39,3.39,0,0,0-.32-1.59,3.17,3.17,0,0,1,0-1.47c.11-.6,1-.43,1,.14a13.33,13.33,0,0,1,.17,2.74,17.4,17.4,0,0,1-1.16,3.17.11.11,0,0,1-.22,0,10.77,10.77,0,0,1,.57-3"/><path class="cls-20" d="M44.32,78.24c.22-.59.69-1.82,1.37-1.92a.31.31,0,0,1,.3.14,1,1,0,0,1,.58-.8.3.3,0,0,1,.35.15c.35.57-.14,1.7-.24,2.33A6.05,6.05,0,0,1,46,80.88c-.07.11-.24,0-.27-.07a10.3,10.3,0,0,1,.09-3.08c0-.15,0-.32,0-.5-.17.33-.44.63-.62.93-.37.65-.36,1.43-.71,2.06a.14.14,0,0,1-.23,0,2.11,2.11,0,0,1,0-2"/><g class="cls-28"><path class="cls-29" d="M51.73,54.45c1.77,2.76,1,8.14,1,11.45,0,1.94.21,3.7.3,5.58A10.57,10.57,0,0,1,52,76.57c-.42-1.38-.13-3.64-.11-5.2-.7,1.82-.83,3.69-2.1,5.32,0-1.11,0-2.25,0-3.34-.55.52-2.38,5.08-2.33,1.57a27.87,27.87,0,0,1,.82-3.13A37,37,0,0,0,48.6,67a31.92,31.92,0,0,0-.27-7.39c-.23-1.15-3-5.09-1.4-5.29,0-.13,0-.31,0-.43.63.36,3,3.76,3.43,1.56.08,0,.33,0,.4,0s0-.4,0-.59Z"/></g><g class="cls-30"><path class="cls-29" d="M70.68,69.46a.81.81,0,0,1,.42,1.06c-.61,0-1.14-.1-1.74-.1,0,.7.53.83.7,1.5-1,0-1.77-1-2.79-1,0,1,1.29,1,1.51,1.83.38,1.4-.9.87-1.36.33,0,.49-.08,1,0,1.51-.76-.4-1.17-1.93-1.91-2.61a25.83,25.83,0,0,0-2.58-1.51c-1.88-1.32-4-3.22-4-5.76a4.49,4.49,0,0,1,1.22-3.06c1.3-1.07,2.16.07,3.14,1,2,1.95,3.8,4.19,6.09,5.89Z"/></g><path class="cls-16" d="M74.13,111.7c-.69,3.72-13.35,1.63-13.35,1.63l-9.1-18.12s8.94-12.07,14.82-6.73,2.15,18.35,2.15,18.35,6.16,1.16,5.48,4.87"/><path class="cls-16" d="M18.43,111.7c.69,3.72,13.35,1.63,13.35,1.63l9.1-18.12s-8.71-12.07-14.82-6.73-2.15,18.35-2.15,18.35-6.16,1.16-5.48,4.87"/><path class="cls-31" d="M26.54,14.42s0-.07,0-.11S26.54,14.39,26.54,14.42Z"/><path class="cls-31" d="M58.41,22h0l.29.13h0Z"/><path class="cls-31" d="M26.51,14v0Z"/><path class="cls-31" d="M26.84,12.89c3.48-.57,7.06-.4,10.58-.55s7.17-.72,10.76-1c3.23-.23,5.67,1.8,8.81.85.07,0,.54-4.89.6-4.92.22.35.92,3.82,1.46,6.42.35,0,.68,0,1,0l0-.09c-.26-1-.31-2.77-1-3.49l1.27.79A19.29,19.29,0,0,0,61.78,14a5.08,5.08,0,0,1,1.28.59c-1-2.08-2.16-4.31-3.37-6.53C57.77,4.59,54.62,0,50.8,0,44.55,0,26.68,5.78,26.51,13.69a4.9,4.9,0,0,1,.07-.77Zm5.25-4.8c2.64-2.22,6-3.51,9.16-4.95C44.84,1.48,47.68.3,51.44,1.88c1.92.8,4.48,2.44,4,4.94-.25,1.29-.6,2.92-2,3.17-1.11.21-2.4-.66-3.49-.91-3-.71-6-.22-9,.28-1.92.31-9,2.36-10.3.47Z"/><path class="cls-31" d="M66.56,22.71a1.32,1.32,0,0,1-.82-.3,5,5,0,0,1-.86.86A10.05,10.05,0,0,0,66,24.38a4.56,4.56,0,0,1,1.68-.79,29.36,29.36,0,0,0-1.19-3.41,4.44,4.44,0,0,1-.13.91A3.49,3.49,0,0,1,66.56,22.71Z"/><path class="cls-31" d="M64,23.86h0c.62.34,1.18.64,1.66.87h0C65.13,24.5,64.57,24.2,64,23.86Z"/><path class="cls-31" d="M26.6,14.79a.52.52,0,0,1,0-.11A.52.52,0,0,0,26.6,14.79Z"/><path class="cls-32" d="M26.67,15.14c0-.11-.05-.23-.07-.35C26.62,14.91,26.64,15,26.67,15.14Z"/><path class="cls-32" d="M26.53,14.31c0-.1,0-.21,0-.31C26.51,14.1,26.52,14.21,26.53,14.31Z"/><path class="cls-32" d="M26.58,14.68a2.34,2.34,0,0,1,0-.26A2.34,2.34,0,0,0,26.58,14.68Z"/><path class="cls-32" d="M26.51,13.8v0Z"/><path class="cls-31" d="M64.88,23.27a6.6,6.6,0,0,1-.93.59c.62.34,1.18.64,1.66.87a4.87,4.87,0,0,1,.42-.35A10.05,10.05,0,0,1,64.88,23.27Z"/><path class="cls-32" d="M64.88,23.27a6.6,6.6,0,0,1-.93.59c.62.34,1.18.64,1.66.87a4.87,4.87,0,0,1,.42-.35A10.05,10.05,0,0,1,64.88,23.27Z"/><path class="cls-31" d="M58.42,21.44a3.07,3.07,0,0,1,0,.53l.29.13c-.12-.26-.22-.49-.28-.66Z"/><path class="cls-32" d="M58.42,21.44a3.07,3.07,0,0,1,0,.53l.29.13c-.12-.26-.22-.49-.28-.66Z"/><path class="cls-31" d="M58.1,15.14c.7.76.1,2.38.12,3.79,0,.13,0,.27,0,.4a10.5,10.5,0,0,1,.19-1.47,6.12,6.12,0,0,0,0-2.07,19.08,19.08,0,0,1,.09-2l.54,0c-.54-2.6-1.24-6.07-1.46-6.42-.06,0-.53,4.9-.6,4.92-3.14.95-5.58-1.08-8.81-.85-3.59.26-7.16.82-10.76,1s-7.1,0-10.58.55l-.26,0a4.9,4.9,0,0,0-.07.77V14c0,.1,0,.21,0,.31s0,.08,0,.11a2.34,2.34,0,0,0,0,.26.52.52,0,0,0,0,.11c0,.12,0,.24.07.35.58-.53,8.13-1.23,15.66-1.3S57.33,14.31,58.1,15.14Z"/><path class="cls-32" d="M58.1,15.14c.7.76.1,2.38.12,3.79,0,.13,0,.27,0,.4a10.5,10.5,0,0,1,.19-1.47,6.12,6.12,0,0,0,0-2.07,19.08,19.08,0,0,1,.09-2l.54,0c-.54-2.6-1.24-6.07-1.46-6.42-.06,0-.53,4.9-.6,4.92-3.14.95-5.58-1.08-8.81-.85-3.59.26-7.16.82-10.76,1s-7.1,0-10.58.55l-.26,0a4.9,4.9,0,0,0-.07.77V14c0,.1,0,.21,0,.31s0,.08,0,.11a2.34,2.34,0,0,0,0,.26.52.52,0,0,0,0,.11c0,.12,0,.24.07.35.58-.53,8.13-1.23,15.66-1.3S57.33,14.31,58.1,15.14Z"/><path class="cls-33" d="M48.22,19.11l-.6-.05h0C47,19,46.34,19,45.7,19h-.07l-.55,0h-.15l-.47,0-.19,0-.45,0-.2,0-.47,0-.17,0-.63.08H43c2.9,0,5.77.13,8.14.31a29.08,29.08,0,0,0-2.89-.44Z"/><path class="cls-33" d="M26.72,15.28a2.62,2.62,0,0,0,1.56,2A4,4,0,0,1,26.72,15.28Z"/><path class="cls-33" d="M27.87,19.76c.45.67,4.4.17,9.24-.21a22.17,22.17,0,0,1-6.34-1C29.55,19.08,27.43,19.1,27.87,19.76Z"/><path class="cls-33" d="M51.14,19.55h0c-.94-.19-1.91-.34-2.91-.44A29.08,29.08,0,0,1,51.14,19.55Z"/><path class="cls-33" d="M43.82,19.09l.45,0Z"/><path class="cls-33" d="M44.46,19l.47,0Z"/><path class="cls-33" d="M45.7,19c.64,0,1.28,0,1.9.06C47,19,46.34,19,45.7,19Z"/><path class="cls-33" d="M42.35,19.25h0l.63-.08Z"/><path class="cls-33" d="M47.62,19.06l.6.05Z"/><path class="cls-33" d="M45.08,19l.55,0Z"/><path class="cls-33" d="M43.15,19.15l.47,0Z"/><path class="cls-33" d="M44.93,19h0Z"/><path class="cls-33" d="M45.63,19h0Z"/><path class="cls-33" d="M44.27,19.06l.19,0Z"/><path class="cls-33" d="M43,19.17l.17,0Z"/><path class="cls-33" d="M43.62,19.11l.2,0Z"/><path class="cls-33" d="M48.22,19.11h0Z"/><path class="cls-33" d="M47.6,19.06h0Z"/><path class="cls-33" d="M26.72,15.28a4,4,0,0,0,1.56,2,6.3,6.3,0,0,0,3.3.31c0,.42-.34.7-.81.91a22.17,22.17,0,0,0,6.34,1c1.68-.13,3.46-.25,5.24-.3l.63-.08.17,0,.47,0,.2,0,.45,0,.19,0,.47,0h.15l.55,0h.07c.64,0,1.28,0,1.9.06h0l.6.05h0c1,.1,2,.25,2.91.44,3.16.24,5.43.49,5.74.21.6-.54-2.82.19-2.84-1.52,4.25-.53,3.9-3.24,4-3.1-.77-.83-8.26-1.38-15.77-1.3s-15.08.77-15.66,1.3C26.69,15.13,26.7,15.18,26.72,15.28Z"/><path class="cls-34" d="M43,19.24h-.67a31.22,31.22,0,0,1-5.22.29c-4.84.38-8.79.88-9.24.21s1.68-.68,2.9-1.21a9.47,9.47,0,0,1-2.49-1.22,2.62,2.62,0,0,1-1.56-2,.78.78,0,0,1,0-.14c-.58.54-.07,2.27-.09,3.79s-.56,2.83.09,3.74c1.32,1.82,30.24,1,31.43,0a1,1,0,0,0,.31-.7,33.69,33.69,0,0,0-7.27-2.42C48.77,19.37,45.9,19.19,43,19.24Z"/><path class="cls-34" d="M51.16,19.55h0A33.69,33.69,0,0,1,58.41,22h0A33.5,33.5,0,0,0,51.16,19.55Z"/><path class="cls-34" d="M42.33,19.26h0Z"/><path class="cls-34" d="M37.11,19.55a31.22,31.22,0,0,0,5.22-.29h0C40.57,19.3,38.79,19.42,37.11,19.55Z"/><path class="cls-34" d="M31.58,17.64a6.3,6.3,0,0,1-3.3-.31,9.47,9.47,0,0,0,2.49,1.22C31.24,18.34,31.57,18.06,31.58,17.64Z"/><path class="cls-34" d="M26.67,15.14a.78.78,0,0,0,0,.14C26.7,15.18,26.69,15.13,26.67,15.14Z"/><path class="cls-34" d="M58.42,21.44a6.3,6.3,0,0,1-.19-2.11c0-.13,0-.27,0-.4,0-1.41.58-3-.12-3.79-.14-.14.21,2.57-4,3.1,0,1.71,3.44,1,2.84,1.52-.31.28-2.58,0-5.74-.21A33.5,33.5,0,0,1,58.41,22,3.07,3.07,0,0,0,58.42,21.44Z"/><path class="cls-33" d="M73.27,27a4.78,4.78,0,0,1,.11.66A4.78,4.78,0,0,0,73.27,27Z"/><path class="cls-33" d="M68.79,29.89a4.6,4.6,0,0,0,4.39-3.22,3.37,3.37,0,0,1,.09.34,4.6,4.6,0,0,0-4.48-3.55,4.77,4.77,0,0,0-1.08.13,4,4,0,0,1,.14.86c0,1.11-.79,1-2.24.28A4.73,4.73,0,0,0,64.3,27l.09-.32A4.62,4.62,0,0,0,68.79,29.89Z"/><path class="cls-33" d="M63.47,28.65c0-.11,0-.22,0-.32C63.47,28.43,63.47,28.54,63.47,28.65Z"/><path class="cls-33" d="M73.38,27.74c0,.11,0,.22,0,.33C73.4,28,73.39,27.85,73.38,27.74Z"/><path class="cls-33" d="M63.49,28.25c0-.1,0-.21,0-.31C63.51,28,63.49,28.15,63.49,28.25Z"/><path class="cls-33" d="M63.52,27.93a2.82,2.82,0,0,1,.07-.31A2.82,2.82,0,0,0,63.52,27.93Z"/><path class="cls-33" d="M67.85,24.45a4,4,0,0,0-.14-.86,4.56,4.56,0,0,0-1.68.79,11.14,11.14,0,0,0,1.24.89,4,4,0,0,1-1.66-.54h0C67.06,25.44,67.85,25.56,67.85,24.45Z"/><path class="cls-33" d="M67.27,25.27A11.14,11.14,0,0,1,66,24.38a4.87,4.87,0,0,0-.42.35A4,4,0,0,0,67.27,25.27Z"/><path class="cls-35" d="M63.48,28.33v0Z"/><path class="cls-35" d="M63.59,27.62v0Z"/><path class="cls-35" d="M63.52,27.94h0Z"/><path class="cls-35" d="M73.38,27.68v0Z"/><path class="cls-35" d="M73.27,27h0Z"/><path class="cls-35" d="M73.38,27.74v-.06a4.78,4.78,0,0,0-.11-.66h0a3.37,3.37,0,0,0-.09-.34,4.61,4.61,0,0,1-8.79,0L64.3,27V27l-.06.31h0a3.11,3.11,0,0,0,0,.32v.07c0,.11,0,.21,0,.32a4.61,4.61,0,1,0,9.22,0C73.4,28,73.39,27.85,73.38,27.74Z"/><path class="cls-31" d="M41,9.36c3-.5,6.07-1,9-.28,1.09.25,2.38,1.12,3.49.91,1.35-.25,1.7-1.88,2-3.17.47-2.5-2.09-4.14-4-4.94-3.76-1.58-6.6-.4-10.19,1.26-3.13,1.44-6.52,2.73-9.16,4.95L30.66,9.83C32,11.72,39,9.67,41,9.36Z"/><path class="cls-36" d="M41,9.36c3-.5,6.07-1,9-.28,1.09.25,2.38,1.12,3.49.91,1.35-.25,1.7-1.88,2-3.17.47-2.5-2.09-4.14-4-4.94-3.76-1.58-6.6-.4-10.19,1.26-3.13,1.44-6.52,2.73-9.16,4.95L30.66,9.83C32,11.72,39,9.67,41,9.36Z"/><path class="cls-31" d="M60.32,10.94l-1.27-.79c.65.72.7,2.47,1,3.49l0,.09a7.38,7.38,0,0,1,1.74.3A19.29,19.29,0,0,1,60.32,10.94Z"/><path class="cls-36" d="M60.32,10.94l-1.27-.79c.65.72.7,2.47,1,3.49l0,.09a7.38,7.38,0,0,1,1.74.3A19.29,19.29,0,0,1,60.32,10.94Z"/><path class="cls-31" d="M66.56,22.71a3.49,3.49,0,0,0-.17-1.62,4.07,4.07,0,0,1-.65,1.32A1.32,1.32,0,0,0,66.56,22.71Z"/><path class="cls-36" d="M66.56,22.71a3.49,3.49,0,0,0-.17-1.62,4.07,4.07,0,0,1-.65,1.32A1.32,1.32,0,0,0,66.56,22.71Z"/><path class="cls-16" d="M58.42,21.44c0-.59-.14-1.32-.19-2.11A6.3,6.3,0,0,0,58.42,21.44Z"/><g class="cls-37"><path class="cls-16" d="M75.87,42.25c3.85-.24,4.93,4.29,1.84,11S65.83,64,65.83,64s-14.53-11-6.58-10c8.83,1.13,12.53-4.58,12.53-4.58s.24-6.86,4.09-7.1"/><path class="cls-16" d="M7.22,77c1.42,3.51,6.07,2.52,10.92-3.07S34.31,58.7,25.43,56.21,12,70.3,12,70.3,5.79,73.45,7.22,77"/><path class="cls-16" d="M51.69,20.59l6.76,5.05s7.83-1.1,7.83-5.05A7.22,7.22,0,0,0,59,13.45c-4,0-7.29,7.14-7.29,7.14"/><path class="cls-17" d="M55,20.59l3.05,3s4.9-.84,4.9-3a3.94,3.94,0,0,0-4-3.89c-2.19,0-4,3.89-4,3.89"/><path class="cls-16" d="M34.73,20.59,28,25.64s-7.83-1.1-7.83-5.05a7.22,7.22,0,0,1,7.3-7.14c4,0,7.29,7.14,7.29,7.14"/><path class="cls-17" d="M31.41,20.59l-3.05,3s-4.9-.84-4.9-3a3.94,3.94,0,0,1,4-3.89c2.19,0,4,3.89,4,3.89"/><path class="cls-16" d="M67.46,38.53c0,9.76-10.84,15.79-24.21,15.79S19,47.59,19,38.53C19,32,29.88,13.45,43.25,13.45S67.46,32,67.46,38.53"/><path class="cls-18" d="M56.87,46.88c0,4.6-6.1,7.44-13.62,7.44s-13.62-3.17-13.62-7.44c0-3.07,6.1-11.83,13.62-11.83s13.62,8.76,13.62,11.83"/><path class="cls-19" d="M38.57,38.19c0-1.58,2.1-2.56,4.68-2.56s4.68,1.09,4.68,2.56c0,1.05-2.1,4.06-4.68,4.06s-4.68-3-4.68-4.06"/><path class="cls-19" d="M39.1,48.59a5.4,5.4,0,0,0,4.15,2.71,5.4,5.4,0,0,0,4.15-2.71Z"/><path class="cls-19" d="M53.35,32.26a1.66,1.66,0,1,1-1.66-1.62,1.64,1.64,0,0,1,1.66,1.62"/><path class="cls-19" d="M36.39,32.26a1.66,1.66,0,1,1-1.66-1.62,1.64,1.64,0,0,1,1.66,1.62"/><path class="cls-16" d="M59.07,53.26c-3.63.87-7.19.72-11.1.78-4.5.06-9,.26-13.4-.88a3.13,3.13,0,0,1-2.33-2.06c-11.1,3.91-14.81,12.71-15.6,24-1.19,16.77,10.06,27.57,26.61,27.57s28.89-7.52,27.91-25.77c-.51-9.56-5.51-17.07-12.09-23.61"/><path class="cls-17" d="M53.37,58.18a31.54,31.54,0,0,1-6.93.49,31.34,31.34,0,0,1-8.38-.55,1.94,1.94,0,0,1-1.45-1.29c-6.95,2.44-9.26,8-9.76,15-.74,10.48,6.29,17.24,16.64,17.24s18.06-4.71,17.45-16.12c-.32-6-3.45-10.67-7.57-14.76"/><path class="cls-20" d="M52.69,55.45c1.12-1.05.57-2.9,2.86-3,.56,0,1.44,1,2.62,2.62,1,1.37,2.23,3.13,3.66,5a47.36,47.36,0,0,0,3.69,4.31,24.16,24.16,0,0,0,4.59,3.76,13.21,13.21,0,0,0,3,1.41,5.4,5.4,0,0,0-.41.45l0,0c.58.27,1.15.55,1.74.78a3.24,3.24,0,0,1,1,.48.11.11,0,0,1,0,.16c-.67.48-1.86-.2-2.52-.45l-.84-.31c-.11.14-.22.29-.35.44,1.32.65,2.39,1.83,4,2,.13,0,.17.22,0,.25a3.59,3.59,0,0,1-2.9-.6l-.33-.21.31.28c.64.6,1.66,1.77,1.19,2.72a.27.27,0,0,1-.48,0c-.19-.3-.29-.65-.48-.95a4.36,4.36,0,0,0-1.26-1.16,8.58,8.58,0,0,0-1.3-.71l-.33.39q.18.19.36.36a8.44,8.44,0,0,1,2.27,2.64c.08.2-.17.34-.32.26A13.07,13.07,0,0,1,70,74l-.18-.15.26.39a19.83,19.83,0,0,0,2.61,3.65c.39.36-.1.88-.51.69-1-.49-1.75-1.91-2.38-2.82-.29-.42-.59-.82-.9-1.21l-.29.3.21.28a5.67,5.67,0,0,1,1.4,2.7.12.12,0,0,1-.2.09,19,19,0,0,1-1.93-2.42l-.09-.1-.14.1A15,15,0,0,1,69,77.34c0,.07,0,.17-.11.11a10.9,10.9,0,0,1-1.93-1.85,7.78,7.78,0,0,1-1.44-.36,20.26,20.26,0,0,1-6.76-4.44c-.8-.74-1.58-1.52-2.32-2.34a42.59,42.59,0,0,1-5-6.59A8.1,8.1,0,0,1,50,58.6c.14-2.94,1.36-1.89,2.7-3.15"/><g class="cls-21"><path class="cls-22" d="M52.69,55.45c1.12-1.05.57-2.9,2.86-3,.56,0,1.44,1,2.62,2.62.95,1.27,2.08,2.9,3.38,4.61-1.26.19-5,1.7-5.16,3.09-.34,2.35,1.09,4.37,2.77,6.38.94,1.14,2.94,1.34,3.8,2.13,1.61,1.48,3.22,4.21,2.52,4a20.26,20.26,0,0,1-6.76-4.44c-.8-.74-1.58-1.52-2.32-2.34a42.59,42.59,0,0,1-5-6.59A8.1,8.1,0,0,1,50,58.6c.14-2.94,1.36-1.89,2.7-3.15"/></g><path class="cls-20" d="M62.3,54.92a30.22,30.22,0,0,1-5.49,2.74,24.56,24.56,0,0,1-6.67,2,120.47,120.47,0,0,1-13.43-.08,55.79,55.79,0,0,1-8-1,13.79,13.79,0,0,1-5.42-2.08c-1.15-.87.89-1.46,2.24-2.84a.91.91,0,0,0,.07-1.22l-.14-.26,0-.06s0-.07,0-.11l0-.07,0-.11a.15.15,0,0,1,0-.07.68.68,0,0,1,0-.21.2.2,0,0,1,0-.07.43.43,0,0,1,0-.11l0-.09.06-.12,0,0h0a1.5,1.5,0,0,1,.32-.38c.51-.45,1.93.08,5.09.63a59,59,0,0,0,8.63.85c.71,0,1.46,0,2.24,0h2.46l1.8,0,1.37,0,1.37-.06c.49,0,1,0,1.4-.09l1.06-.07,1.1-.08c1.55-.13,2.82-.26,3.84-.37,2-.21,3.85-1.64,4.23-1.39.83.55-.43,1.08.85,2.37s1.88,1.27,1.07,2.47"/><g class="cls-23"><path class="cls-24" d="M56.81,57.66a24.56,24.56,0,0,1-6.67,2,120.47,120.47,0,0,1-13.43-.08,55.79,55.79,0,0,1-8-1,13.79,13.79,0,0,1-5.42-2.08c-1.15-.87.89-1.46,2.24-2.84a.91.91,0,0,0,.07-1.22c-.21-.4-.47-.82-.16-1.31l.09.17a33.65,33.65,0,0,0,3.64,2.8c-2.77.16-4.32,1.28-3.76,2.14.84,1.24,4.09.81,5.6,1.24,2.76.78,7.26.4,10.11.4,2,0,2.78-1.26,2.61-3.09-.08-.82-.08-1.7-.21-2.53h.67l1.8,0,1.37,0,1.37-.06c.49,0,1,0,1.4-.09l1.06-.07,1.1-.08.28.45.33.55a.6.6,0,0,0,0,.12c.15.61,1.44.91,1.7,1.49.65,1.41.43,2.65,2.06,3.18l.11,0"/></g><path class="cls-20" d="M55.52,67.41A21.68,21.68,0,0,1,54,75.55a8.56,8.56,0,0,1-1.11,1.87c-1.12.62-7.09-.09-8.13,0a15.1,15.1,0,0,0,1.06-3.23,25.73,25.73,0,0,0,.49-6,50.6,50.6,0,0,0-.5-5.75c-.32-2.33-.73-4.46-1-6.16-.32-2-.44-3.37,0-3.78,1.64-1.66,2.56,0,4.07-.11,1.8-.16,1.9-1.79,4.06.11a8.06,8.06,0,0,1,1.34,3.3,44.66,44.66,0,0,1,1.21,8.3q.1,1.68.06,3.36"/><g class="cls-25"><path class="cls-24" d="M47.46,71.36c0-3.51.47-7,.18-10.49-.1-1.16,0-3.1-.87-4a13.92,13.92,0,0,1-2.19-2.59c.05.55.14,1.19.25,1.91.27,1.7.68,3.83,1,6.16a50.6,50.6,0,0,1,.5,5.75,25.73,25.73,0,0,1-.49,6c-.24,1.13,1.6-.5,1.62-2.83"/></g><g class="cls-26"><path class="cls-27" d="M55.46,64.05a44.66,44.66,0,0,0-1.21-8.3,8.06,8.06,0,0,0-1.34-3.3c-2.16-1.9-2.26-.27-4.06-.11-1.51.13-2.43-1.55-4.07.11a4.69,4.69,0,0,1,4.37,2.42s2.37-4.26,3.63-.55c2,6,1.78,14.68,1,20.83a3.3,3.3,0,0,1-2,2.5,3.38,3.38,0,0,0,1.21-.23A8.56,8.56,0,0,0,54,75.55a21.68,21.68,0,0,0,1.5-8.14q0-1.68-.06-3.36"/></g><path class="cls-20" d="M52.06,80.41a10,10,0,0,0,.15-2c0-.78-.11-1.8.53-2.34a.26.26,0,0,1,.4,0c.41.81,0,1.88-.17,2.75a6.46,6.46,0,0,1-1.16,3,.11.11,0,0,1-.19-.11c.13-.48.32-.93.44-1.41"/><path class="cls-20" d="M50.73,78.55c0-.85,0-1.92.64-2.49a.3.3,0,0,1,.49.14,11.55,11.55,0,0,1-.37,3.11A4.19,4.19,0,0,1,50.66,82a.18.18,0,0,1-.3-.13c.09-1.11.34-2.17.37-3.3"/><path class="cls-20" d="M49,79.12a16.71,16.71,0,0,0,.24-2A2.13,2.13,0,0,1,49.38,76a.3.3,0,0,1,.47-.06c.68.55.37,1.62.22,2.38-.25,1.19-.59,2.44-.91,3.6a.12.12,0,0,1-.24,0A5.5,5.5,0,0,1,49,79.12"/><path class="cls-20" d="M47.86,78.73a3.39,3.39,0,0,0-.32-1.59,3.17,3.17,0,0,1,0-1.47c.11-.6,1-.43,1,.14a13.33,13.33,0,0,1,.17,2.74,17.4,17.4,0,0,1-1.16,3.17.11.11,0,0,1-.22,0,10.77,10.77,0,0,1,.57-3"/><path class="cls-20" d="M44.32,78.24c.22-.59.69-1.82,1.37-1.92a.31.31,0,0,1,.3.14,1,1,0,0,1,.58-.8.3.3,0,0,1,.35.15c.35.57-.14,1.7-.24,2.33A6.05,6.05,0,0,1,46,80.88c-.07.11-.24,0-.27-.07a10.3,10.3,0,0,1,.09-3.08c0-.15,0-.32,0-.5-.17.33-.44.63-.62.93-.37.65-.36,1.43-.71,2.06a.14.14,0,0,1-.23,0,2.11,2.11,0,0,1,0-2"/><g class="cls-28"><path class="cls-29" d="M51.73,54.45c1.77,2.76,1,8.14,1,11.45,0,1.94.21,3.7.3,5.58A10.57,10.57,0,0,1,52,76.57c-.42-1.38-.13-3.64-.11-5.2-.7,1.82-.83,3.69-2.1,5.32,0-1.11,0-2.25,0-3.34-.55.52-2.38,5.08-2.33,1.57a27.87,27.87,0,0,1,.82-3.13A37,37,0,0,0,48.6,67a31.92,31.92,0,0,0-.27-7.39c-.23-1.15-3-5.09-1.4-5.29,0-.13,0-.31,0-.43.63.36,3,3.76,3.43,1.56.08,0,.33,0,.4,0s0-.4,0-.59Z"/></g><g class="cls-30"><path class="cls-29" d="M70.68,69.46a.81.81,0,0,1,.42,1.06c-.61,0-1.14-.1-1.74-.1,0,.7.53.83.7,1.5-1,0-1.77-1-2.79-1,0,1,1.29,1,1.51,1.83.38,1.4-.9.87-1.36.33,0,.49-.08,1,0,1.51-.76-.4-1.17-1.93-1.91-2.61a25.83,25.83,0,0,0-2.58-1.51c-1.88-1.32-4-3.22-4-5.76a4.49,4.49,0,0,1,1.22-3.06c1.3-1.07,2.16.07,3.14,1,2,1.95,3.8,4.19,6.09,5.89Z"/></g><path class="cls-16" d="M74.13,111.7c-.69,3.72-13.35,1.63-13.35,1.63l-9.1-18.12s8.94-12.07,14.82-6.73,2.15,18.35,2.15,18.35,6.16,1.16,5.48,4.87"/><path class="cls-16" d="M18.43,111.7c.69,3.72,13.35,1.63,13.35,1.63l9.1-18.12s-8.71-12.07-14.82-6.73-2.15,18.35-2.15,18.35-6.16,1.16-5.48,4.87"/><path class="cls-31" d="M26.54,14.42s0-.07,0-.11S26.54,14.39,26.54,14.42Z"/><path class="cls-31" d="M58.41,22h0l.29.13h0Z"/><path class="cls-31" d="M26.51,14v0Z"/><path class="cls-31" d="M26.84,12.89c3.48-.57,7.06-.4,10.58-.55s7.17-.72,10.76-1c3.23-.23,5.67,1.8,8.81.85.07,0,.54-4.89.6-4.92.22.35.92,3.82,1.46,6.42.35,0,.68,0,1,0l0-.09c-.26-1-.31-2.77-1-3.49l1.27.79A19.29,19.29,0,0,0,61.78,14a5.08,5.08,0,0,1,1.28.59c-1-2.08-2.16-4.31-3.37-6.53C57.77,4.59,54.62,0,50.8,0,44.55,0,26.68,5.78,26.51,13.69a4.9,4.9,0,0,1,.07-.77Zm5.25-4.8c2.64-2.22,6-3.51,9.16-4.95C44.84,1.48,47.68.3,51.44,1.88c1.92.8,4.48,2.44,4,4.94-.25,1.29-.6,2.92-2,3.17-1.11.21-2.4-.66-3.49-.91-3-.71-6-.22-9,.28-1.92.31-9,2.36-10.3.47Z"/><path class="cls-31" d="M66.56,22.71a1.32,1.32,0,0,1-.82-.3,5,5,0,0,1-.86.86A10.05,10.05,0,0,0,66,24.38a4.56,4.56,0,0,1,1.68-.79,29.36,29.36,0,0,0-1.19-3.41,4.44,4.44,0,0,1-.13.91A3.49,3.49,0,0,1,66.56,22.71Z"/><path class="cls-31" d="M64,23.86h0c.62.34,1.18.64,1.66.87h0C65.13,24.5,64.57,24.2,64,23.86Z"/><path class="cls-31" d="M26.6,14.79a.52.52,0,0,1,0-.11A.52.52,0,0,0,26.6,14.79Z"/><path class="cls-32" d="M26.67,15.14c0-.11-.05-.23-.07-.35C26.62,14.91,26.64,15,26.67,15.14Z"/><path class="cls-32" d="M26.53,14.31c0-.1,0-.21,0-.31C26.51,14.1,26.52,14.21,26.53,14.31Z"/><path class="cls-32" d="M26.58,14.68a2.34,2.34,0,0,1,0-.26A2.34,2.34,0,0,0,26.58,14.68Z"/><path class="cls-32" d="M26.51,13.8v0Z"/><path class="cls-31" d="M64.88,23.27a6.6,6.6,0,0,1-.93.59c.62.34,1.18.64,1.66.87a4.87,4.87,0,0,1,.42-.35A10.05,10.05,0,0,1,64.88,23.27Z"/><path class="cls-32" d="M64.88,23.27a6.6,6.6,0,0,1-.93.59c.62.34,1.18.64,1.66.87a4.87,4.87,0,0,1,.42-.35A10.05,10.05,0,0,1,64.88,23.27Z"/><path class="cls-31" d="M58.42,21.44a3.07,3.07,0,0,1,0,.53l.29.13c-.12-.26-.22-.49-.28-.66Z"/><path class="cls-32" d="M58.42,21.44a3.07,3.07,0,0,1,0,.53l.29.13c-.12-.26-.22-.49-.28-.66Z"/><path class="cls-31" d="M58.1,15.14c.7.76.1,2.38.12,3.79,0,.13,0,.27,0,.4a10.5,10.5,0,0,1,.19-1.47,6.12,6.12,0,0,0,0-2.07,19.08,19.08,0,0,1,.09-2l.54,0c-.54-2.6-1.24-6.07-1.46-6.42-.06,0-.53,4.9-.6,4.92-3.14.95-5.58-1.08-8.81-.85-3.59.26-7.16.82-10.76,1s-7.1,0-10.58.55l-.26,0a4.9,4.9,0,0,0-.07.77V14c0,.1,0,.21,0,.31s0,.08,0,.11a2.34,2.34,0,0,0,0,.26.52.52,0,0,0,0,.11c0,.12,0,.24.07.35.58-.53,8.13-1.23,15.66-1.3S57.33,14.31,58.1,15.14Z"/><path class="cls-32" d="M58.1,15.14c.7.76.1,2.38.12,3.79,0,.13,0,.27,0,.4a10.5,10.5,0,0,1,.19-1.47,6.12,6.12,0,0,0,0-2.07,19.08,19.08,0,0,1,.09-2l.54,0c-.54-2.6-1.24-6.07-1.46-6.42-.06,0-.53,4.9-.6,4.92-3.14.95-5.58-1.08-8.81-.85-3.59.26-7.16.82-10.76,1s-7.1,0-10.58.55l-.26,0a4.9,4.9,0,0,0-.07.77V14c0,.1,0,.21,0,.31s0,.08,0,.11a2.34,2.34,0,0,0,0,.26.52.52,0,0,0,0,.11c0,.12,0,.24.07.35.58-.53,8.13-1.23,15.66-1.3S57.33,14.31,58.1,15.14Z"/><path class="cls-33" d="M48.22,19.11l-.6-.05h0C47,19,46.34,19,45.7,19h-.07l-.55,0h-.15l-.47,0-.19,0-.45,0-.2,0-.47,0-.17,0-.63.08H43c2.9,0,5.77.13,8.14.31a29.08,29.08,0,0,0-2.89-.44Z"/><path class="cls-33" d="M26.72,15.28a2.62,2.62,0,0,0,1.56,2A4,4,0,0,1,26.72,15.28Z"/><path class="cls-33" d="M27.87,19.76c.45.67,4.4.17,9.24-.21a22.17,22.17,0,0,1-6.34-1C29.55,19.08,27.43,19.1,27.87,19.76Z"/><path class="cls-33" d="M51.14,19.55h0c-.94-.19-1.91-.34-2.91-.44A29.08,29.08,0,0,1,51.14,19.55Z"/><path class="cls-33" d="M43.82,19.09l.45,0Z"/><path class="cls-33" d="M44.46,19l.47,0Z"/><path class="cls-33" d="M45.7,19c.64,0,1.28,0,1.9.06C47,19,46.34,19,45.7,19Z"/><path class="cls-33" d="M42.35,19.25h0l.63-.08Z"/><path class="cls-33" d="M47.62,19.06l.6.05Z"/><path class="cls-33" d="M45.08,19l.55,0Z"/><path class="cls-33" d="M43.15,19.15l.47,0Z"/><path class="cls-33" d="M44.93,19h0Z"/><path class="cls-33" d="M45.63,19h0Z"/><path class="cls-33" d="M44.27,19.06l.19,0Z"/><path class="cls-33" d="M43,19.17l.17,0Z"/><path class="cls-33" d="M43.62,19.11l.2,0Z"/><path class="cls-33" d="M48.22,19.11h0Z"/><path class="cls-33" d="M47.6,19.06h0Z"/><path class="cls-33" d="M26.72,15.28a4,4,0,0,0,1.56,2,6.3,6.3,0,0,0,3.3.31c0,.42-.34.7-.81.91a22.17,22.17,0,0,0,6.34,1c1.68-.13,3.46-.25,5.24-.3l.63-.08.17,0,.47,0,.2,0,.45,0,.19,0,.47,0h.15l.55,0h.07c.64,0,1.28,0,1.9.06h0l.6.05h0c1,.1,2,.25,2.91.44,3.16.24,5.43.49,5.74.21.6-.54-2.82.19-2.84-1.52,4.25-.53,3.9-3.24,4-3.1-.77-.83-8.26-1.38-15.77-1.3s-15.08.77-15.66,1.3C26.69,15.13,26.7,15.18,26.72,15.28Z"/><path class="cls-34" d="M43,19.24h-.67a31.22,31.22,0,0,1-5.22.29c-4.84.38-8.79.88-9.24.21s1.68-.68,2.9-1.21a9.47,9.47,0,0,1-2.49-1.22,2.62,2.62,0,0,1-1.56-2,.78.78,0,0,1,0-.14c-.58.54-.07,2.27-.09,3.79s-.56,2.83.09,3.74c1.32,1.82,30.24,1,31.43,0a1,1,0,0,0,.31-.7,33.69,33.69,0,0,0-7.27-2.42C48.77,19.37,45.9,19.19,43,19.24Z"/><path class="cls-34" d="M51.16,19.55h0A33.69,33.69,0,0,1,58.41,22h0A33.5,33.5,0,0,0,51.16,19.55Z"/><path class="cls-34" d="M42.33,19.26h0Z"/><path class="cls-34" d="M37.11,19.55a31.22,31.22,0,0,0,5.22-.29h0C40.57,19.3,38.79,19.42,37.11,19.55Z"/><path class="cls-34" d="M31.58,17.64a6.3,6.3,0,0,1-3.3-.31,9.47,9.47,0,0,0,2.49,1.22C31.24,18.34,31.57,18.06,31.58,17.64Z"/><path class="cls-34" d="M26.67,15.14a.78.78,0,0,0,0,.14C26.7,15.18,26.69,15.13,26.67,15.14Z"/><path class="cls-34" d="M58.42,21.44a6.3,6.3,0,0,1-.19-2.11c0-.13,0-.27,0-.4,0-1.41.58-3-.12-3.79-.14-.14.21,2.57-4,3.1,0,1.71,3.44,1,2.84,1.52-.31.28-2.58,0-5.74-.21A33.5,33.5,0,0,1,58.41,22,3.07,3.07,0,0,0,58.42,21.44Z"/><path class="cls-33" d="M73.27,27a4.78,4.78,0,0,1,.11.66A4.78,4.78,0,0,0,73.27,27Z"/><path class="cls-33" d="M68.79,29.89a4.6,4.6,0,0,0,4.39-3.22,3.37,3.37,0,0,1,.09.34,4.6,4.6,0,0,0-4.48-3.55,4.77,4.77,0,0,0-1.08.13,4,4,0,0,1,.14.86c0,1.11-.79,1-2.24.28A4.73,4.73,0,0,0,64.3,27l.09-.32A4.62,4.62,0,0,0,68.79,29.89Z"/><path class="cls-33" d="M63.47,28.65c0-.11,0-.22,0-.32C63.47,28.43,63.47,28.54,63.47,28.65Z"/><path class="cls-33" d="M73.38,27.74c0,.11,0,.22,0,.33C73.4,28,73.39,27.85,73.38,27.74Z"/><path class="cls-33" d="M63.49,28.25c0-.1,0-.21,0-.31C63.51,28,63.49,28.15,63.49,28.25Z"/><path class="cls-33" d="M63.52,27.93a2.82,2.82,0,0,1,.07-.31A2.82,2.82,0,0,0,63.52,27.93Z"/><path class="cls-33" d="M67.85,24.45a4,4,0,0,0-.14-.86,4.56,4.56,0,0,0-1.68.79,11.14,11.14,0,0,0,1.24.89,4,4,0,0,1-1.66-.54h0C67.06,25.44,67.85,25.56,67.85,24.45Z"/><path class="cls-33" d="M67.27,25.27A11.14,11.14,0,0,1,66,24.38a4.87,4.87,0,0,0-.42.35A4,4,0,0,0,67.27,25.27Z"/><path class="cls-35" d="M63.48,28.33v0Z"/><path class="cls-35" d="M63.59,27.62v0Z"/><path class="cls-35" d="M63.52,27.94h0Z"/><path class="cls-35" d="M73.38,27.68v0Z"/><path class="cls-35" d="M73.27,27h0Z"/><path class="cls-35" d="M73.38,27.74v-.06a4.78,4.78,0,0,0-.11-.66h0a3.37,3.37,0,0,0-.09-.34,4.61,4.61,0,0,1-8.79,0L64.3,27V27l-.06.31h0a3.11,3.11,0,0,0,0,.32v.07c0,.11,0,.21,0,.32a4.61,4.61,0,1,0,9.22,0C73.4,28,73.39,27.85,73.38,27.74Z"/><path class="cls-31" d="M41,9.36c3-.5,6.07-1,9-.28,1.09.25,2.38,1.12,3.49.91,1.35-.25,1.7-1.88,2-3.17.47-2.5-2.09-4.14-4-4.94-3.76-1.58-6.6-.4-10.19,1.26-3.13,1.44-6.52,2.73-9.16,4.95L30.66,9.83C32,11.72,39,9.67,41,9.36Z"/><path class="cls-36" d="M41,9.36c3-.5,6.07-1,9-.28,1.09.25,2.38,1.12,3.49.91,1.35-.25,1.7-1.88,2-3.17.47-2.5-2.09-4.14-4-4.94-3.76-1.58-6.6-.4-10.19,1.26-3.13,1.44-6.52,2.73-9.16,4.95L30.66,9.83C32,11.72,39,9.67,41,9.36Z"/><path class="cls-31" d="M60.32,10.94l-1.27-.79c.65.72.7,2.47,1,3.49l0,.09a7.38,7.38,0,0,1,1.74.3A19.29,19.29,0,0,1,60.32,10.94Z"/><path class="cls-36" d="M60.32,10.94l-1.27-.79c.65.72.7,2.47,1,3.49l0,.09a7.38,7.38,0,0,1,1.74.3A19.29,19.29,0,0,1,60.32,10.94Z"/><path class="cls-31" d="M66.56,22.71a3.49,3.49,0,0,0-.17-1.62,4.07,4.07,0,0,1-.65,1.32A1.32,1.32,0,0,0,66.56,22.71Z"/><path class="cls-36" d="M66.56,22.71a3.49,3.49,0,0,0-.17-1.62,4.07,4.07,0,0,1-.65,1.32A1.32,1.32,0,0,0,66.56,22.71Z"/><path class="cls-16" d="M58.42,21.44c0-.59-.14-1.32-.19-2.11A6.3,6.3,0,0,0,58.42,21.44Z"/></g></g></g></g></svg>