<svg xmlns="http://www.w3.org/2000/svg" viewBox="0 0 202.6 58.67"><defs><style>.cls-1{fill:#e87033;}.cls-2{fill:#fff;}.cls-2,.cls-3{fill-rule:evenodd;}.cls-3{fill:#00589a;}</style></defs><g id="Capa_2" data-name="Capa 2"><g id="Layer_1" data-name="Layer 1"><path class="cls-1" d="M202.6,58.67h-145a5,5,0,0,0-3.68-1.45,10.6,10.6,0,0,0-4.94,1.45,8.22,8.22,0,0,0-4.82-2.31c-4.55-.34-5.22,2.31-5.22,2.31H0V0H202.6Z"/><path class="cls-2" d="M155.77,32.79a9.52,9.52,0,0,0-8,5.82,8.14,8.14,0,0,0-.23,6c.07.25.23.47,0,.77a1.68,1.68,0,0,1-2.8.06c-1.1-1.32-2.13-2.67-3.19-4-.16-.21-.24-.35,0-.59.41-.48.77-1,1.18-1.48,1.31-1.49,2.64-3,4-4.47l1.4-1.62h-5.59a.73.73,0,0,0-.57.29c-.93,1-1.89,2.06-2.81,3.1s-1.67,1.91-2.5,2.87l-.16-.07v-.59c0-3.87,0-7.74,0-11.61,0-.5-.08-.72-.65-.7-1.35,0-2.7,0-4.05,0-.44,0-.57.14-.56.57,0,1.37,0,2.74,0,4.12q0,9.33,0,18.64c0,.62.14.84.8.81,1.24,0,2.49,0,3.73,0,.56,0,.78-.12.75-.71-.05-1,.06-2,0-3a2.6,2.6,0,0,1,.93-2.27c.36-.35.51-.3.8.07,1.24,1.56,2.47,3.14,3.78,4.65a4.45,4.45,0,0,0,5.41,1.4,6.79,6.79,0,0,0,2.31-1.45c.47-.5.8-.56,1.43-.1a10.08,10.08,0,0,0,13.22-1.23,8.21,8.21,0,0,0,2.34-5.43,8.49,8.49,0,0,0-2.47-7A10.11,10.11,0,0,0,155.77,32.79ZM157,46.4a4.38,4.38,0,0,1-4.6-4.46A4.48,4.48,0,1,1,157,46.4Z"/><path class="cls-2" d="M53.17,46.18c-.74,0-1.05-.41-1.08-1.09s0-1.12,0-1.68a40.73,40.73,0,0,0-.13-5.18,5.81,5.81,0,0,0-3.11-4.78,7.23,7.23,0,0,0-8.48,1.9s-.08,0-.08,0a5.27,5.27,0,0,0-4.86-2.48,5.47,5.47,0,0,0-4.77,2.73,3.64,3.64,0,0,0-2.71-2.56A9.16,9.16,0,0,0,24.65,33c-.4,0-.47.29-.47.64,0,1.07,0,2.14,0,3.21,0,.41.09.6.54.56.68,0,1,.38,1.05,1a8.84,8.84,0,0,1,0,1.15c0,3.49,0,7,0,10.46,0,.52.13.72.68.7,1.2,0,2.4,0,3.59,0,.66,0,.86-.15.85-.83,0-3,0-5.9,0-8.86a3.46,3.46,0,0,1,1-2.76,2.7,2.7,0,0,1,2.51-.78,2.25,2.25,0,0,1,1.77,1.79,6.58,6.58,0,0,1,.17,1.82c0,3,0,6,0,8.94,0,.53.15.69.69.68,1.3,0,2.6,0,3.89,0,.55,0,.69-.17.69-.69,0-2.88,0-5.75,0-8.63a14.11,14.11,0,0,1,.09-1.45,2.7,2.7,0,0,1,2.76-2.51c1.32,0,2.19.94,2.27,2.55s0,2.95.08,4.43a12.08,12.08,0,0,0,.33,3.43,3.82,3.82,0,0,0,3.22,3,9.14,9.14,0,0,0,2.81,0c.38-.06.52-.21.52-.59,0-1.14,0-2.29,0-3.43C53.69,46.33,53.6,46.15,53.17,46.18Z"/><path class="cls-2" d="M92.49,46.18c-.79,0-1.09-.44-1.13-1.13,0-.53,0-1.07,0-1.6a42.78,42.78,0,0,0-.13-5.19c-.34-2.33-1.34-4.22-3.72-5a7.16,7.16,0,0,0-8,2.21,5.15,5.15,0,0,0-4.84-2.54,5.53,5.53,0,0,0-4.78,2.76,3.71,3.71,0,0,0-2.72-2.59,9.45,9.45,0,0,0-3.27,0c-.33,0-.47.21-.46.56q0,1.68,0,3.36c0,.35.09.51.47.48.8,0,1.08.43,1.13,1.13,0,.33,0,.66,0,1,0,3.49,0,7,0,10.47,0,.52.13.7.68.69,1.22,0,2.45,0,3.67,0,.59,0,.78-.15.77-.76,0-3,0-5.9,0-8.86A4.34,4.34,0,0,1,71,38.45a2.51,2.51,0,0,1,2.63-1,2.28,2.28,0,0,1,1.8,1.77,5.56,5.56,0,0,1,.18,1.67c0,3,0,6.06,0,9.09,0,.57.15.74.72.72,1.28,0,2.55,0,3.83,0,.58,0,.72-.17.72-.73,0-2.47,0-4.94,0-7.41A18.63,18.63,0,0,1,81,40a2.87,2.87,0,0,1,2.2-2.53c1.23-.21,2,.26,2.71,1.59a3.45,3.45,0,0,1,.35,1.74c0,2-.08,4.07.08,6.11s1.17,3.41,2.91,3.82a8.32,8.32,0,0,0,3.26,0c.35,0,.48-.19.48-.54q0-1.76,0-3.51C93,46.33,92.88,46.15,92.49,46.18Z"/><path class="cls-3" d="M144.29,17.88c1.54,1.08,3,2.25,4.58,3.27,2.64,1.7,4.89,3.94,7.56,5.61a.62.62,0,0,0,.85,0c1.36-1,2.7-2,4.05-3.05,2.7-2,5.49-3.91,8.25-5.86.25-.17.5-.32.47-.7a9,9,0,0,0-1.67-4.88,10.07,10.07,0,0,0-5.71-3.64,19.77,19.77,0,0,0-13,.52c-3.51,1.47-5.6,3.9-5.88,7.86C143.7,17.34,143.91,17.62,144.29,17.88Zm7-5.65a2,2,0,0,1,2.08.58,4.55,4.55,0,0,1,.29.41,2.33,2.33,0,0,1,3.61-.38c.23.23.31.28.57,0a2.71,2.71,0,0,1,2.91-.52,2.26,2.26,0,0,1,1.48,2.2c0,.61,0,1.22.07,1.83s-.31,1.08.54,1.38c.28.1.13,1,.07,1.45s-.49.29-.77.29a1.67,1.67,0,0,1-2-1.81c0-.81,0-1.62,0-2.44s-.4-1.23-1-1.23a1.15,1.15,0,0,0-1.08,1.17c0,1.17,0,2.34,0,3.51,0,.5-.09.7-.65.7-1.59,0-1.59,0-1.59-1.58,0-.83,0-1.68,0-2.51s-.4-1.29-1-1.29a1.2,1.2,0,0,0-1.11,1.31c0,1.17,0,2.34,0,3.51,0,.42-.11.56-.55.56-1.58,0-1.58,0-1.58-1.53,0-1,0-2.08,0-3.12,0-.3,0-.65-.38-.71a.27.27,0,0,1-.25-.38C151.08,13.18,150.64,12.54,151.24,12.23Z"/><path class="cls-2" d="M112.63,33.24c-1.09,0-2.19,0-3.29,0-1.34,0-1.34,0-1.41,1.32a.34.34,0,0,1-.17.37,4.41,4.41,0,0,0-2.3-1.62A8.39,8.39,0,0,0,95.06,38,9.81,9.81,0,0,0,96,47.44c2.33,3.82,9.15,4.83,12,1.39,0,.47,0,.78,0,1.08-.06.58.12.8.75.77,1.29,0,2.59,0,3.89,0,.45,0,.63-.11.62-.6,0-5.42,0-10.84,0-16.27C113.19,33.38,113.07,33.23,112.63,33.24Zm-8.87,12.95a4.32,4.32,0,1,1,.11-8.63,4.32,4.32,0,1,1-.11,8.63Z"/><path class="cls-2" d="M126.27,40.63a40.41,40.41,0,0,0-4.5-1.53c-.57-.15-1.14-.38-1-1.1s.66-.88,1.25-.92a5.68,5.68,0,0,1,3.76.94c.36.24.49.18.71-.14.56-.81,1.12-1.63,1.74-2.4.34-.42.29-.66-.12-1a8.64,8.64,0,0,0-5.25-1.78c-.53,0-1.07,0-1.59.1a6.94,6.94,0,0,0-4.31,2.08,4.93,4.93,0,0,0-1.07,4.64,3.67,3.67,0,0,0,1.52,2.35,12,12,0,0,0,4.17,1.78,11.7,11.7,0,0,1,2.54.79.94.94,0,0,1,0,1.78,2.22,2.22,0,0,1-.85.3,6.49,6.49,0,0,1-5.36-1.41c-.31-.28-.59-.29-.82,0a23.06,23.06,0,0,0-2.39,2.65c-.18.24-.25.4,0,.63a7.7,7.7,0,0,0,2.46,1.76,13.51,13.51,0,0,0,7.85.72,5.61,5.61,0,0,0,4.68-6.63A4.81,4.81,0,0,0,126.27,40.63Z"/><path class="cls-2" d="M177.38,33.79c0-.47-.18-.56-.59-.55-.86,0-1.73,0-2.59,0-.52,0-.64-.16-.63-.65,0-1.81,0-3.62,0-5.43,0-.48-.09-.66-.61-.64-1.25,0-2.5,0-3.75,0-.56,0-.73.12-.72.71,0,3.07,0,6.15,0,9.24,0,2.83,0,5.65,0,8.48a9.22,9.22,0,0,0,.38,2.77,4.2,4.2,0,0,0,2.79,2.92,11.56,11.56,0,0,0,4.68.33c.52,0,.69-.28.67-.78,0-1,0-1.94,0-2.91s0-1.07-1-1c-1.59.12-2.37-.57-2.39-2.13,0-1.91,0-3.82,0-5.73,0-.54.19-.63.66-.61.86,0,1.73,0,2.59,0,.44,0,.57-.14.56-.57Q177.35,35.55,177.38,33.79Z"/><path class="cls-2" d="M61.16,42q0-4.05,0-8.09c0-.47-.09-.69-.62-.67-1.32,0-2.65,0-4,0-.38,0-.54.08-.54.5,0,5.48,0,10.94,0,16.41,0,.4.13.53.52.53,1.28,0,2.55,0,3.82,0,.66,0,.8-.21.8-.82C61.14,47.24,61.16,44.62,61.16,42Z"/><path class="cls-2" d="M58.59,25.92a2.88,2.88,0,1,0,2.88,2.88A2.83,2.83,0,0,0,58.59,25.92Z"/></g></g></svg>