<svg xmlns="http://www.w3.org/2000/svg" xmlns:xlink="http://www.w3.org/1999/xlink" viewBox="0 0 106.99 173.76"><defs><style>.cls-1{isolation:isolate;}.cls-2,.cls-3{fill:#00224a;}.cls-11,.cls-16,.cls-17,.cls-22,.cls-25,.cls-3,.cls-30,.cls-31,.cls-36,.cls-37,.cls-39{mix-blend-mode:screen;}.cls-4,.cls-8{fill:#0080b7;}.cls-5{fill:url(#radial-gradient);}.cls-11,.cls-6{fill:#fff;}.cls-16,.cls-7{fill:#39c9f5;}.cls-18,.cls-19,.cls-8{opacity:0.2;}.cls-9{fill:url(#radial-gradient-2);}.cls-10{fill:#ff6876;}.cls-12{fill:#ff950c;}.cls-13{fill:#d95900;}.cls-14,.cls-18,.cls-21,.cls-24,.cls-28,.cls-29,.cls-34,.cls-35{mix-blend-mode:multiply;}.cls-15{fill:#ffbc00;}.cls-20{fill:url(#radial-gradient-3);}.cls-21{fill:url(#radial-gradient-4);}.cls-22{fill:url(#radial-gradient-5);}.cls-23{fill:url(#radial-gradient-6);}.cls-24{fill:url(#radial-gradient-7);}.cls-25{fill:url(#radial-gradient-8);}.cls-26{fill:url(#radial-gradient-9);}.cls-27{fill:url(#radial-gradient-10);}.cls-28{fill:url(#radial-gradient-11);}.cls-29{fill:url(#radial-gradient-12);}.cls-30{fill:url(#radial-gradient-13);}.cls-31{fill:url(#radial-gradient-14);}.cls-32{fill:url(#radial-gradient-15);}.cls-33{fill:url(#radial-gradient-16);}.cls-34{fill:url(#radial-gradient-17);}.cls-35{fill:url(#radial-gradient-18);}.cls-36{fill:url(#radial-gradient-19);}.cls-37{fill:url(#radial-gradient-20);}.cls-38{fill:url(#radial-gradient-21);}.cls-39{fill:url(#radial-gradient-22);}.cls-40{fill:#cc601b;}.cls-40,.cls-41,.cls-42,.cls-43,.cls-44,.cls-45,.cls-46,.cls-47,.cls-48,.cls-49,.cls-50{fill-rule:evenodd;}.cls-41{fill:#e5e4d8;}.cls-42{fill:#fb8017;}.cls-43{fill:#f2f2e9;}.cls-44{fill:#887bd1;}.cls-45{fill:#fb9f18;}.cls-46{fill:#7464b5;}.cls-47{fill:#913f0a;}.cls-48{fill:#554787;}.cls-49{fill:#9887e3;}.cls-50{fill:#c67a11;}</style><radialGradient id="radial-gradient" cx="21.79" cy="51.39" r="24.86" gradientUnits="userSpaceOnUse"><stop offset="0" stop-color="#b40b11"/><stop offset="0.96" stop-color="#d70b11"/></radialGradient><radialGradient id="radial-gradient-2" cx="7172.62" cy="51.39" r="24.86" gradientTransform="matrix(-1, 0, 0, 1, 7261.99, 0)" xlink:href="#radial-gradient"/><radialGradient id="radial-gradient-3" cx="4808.29" cy="1244.62" r="5.63" gradientTransform="translate(-412.63 -4876.67) rotate(70.14)" xlink:href="#radial-gradient"/><radialGradient id="radial-gradient-4" cx="4803.43" cy="1245.45" r="2.19" gradientTransform="translate(-412.63 -4876.67) rotate(70.14)" xlink:href="#radial-gradient"/><radialGradient id="radial-gradient-5" cx="4808.89" cy="1245.94" r="1.79" gradientTransform="translate(-412.63 -4876.67) rotate(70.14)" xlink:href="#radial-gradient"/><radialGradient id="radial-gradient-6" cx="6890.44" cy="-3920.76" r="5.63" gradientTransform="matrix(-0.41, 0.91, 0.91, 0.41, 6431.26, -4626.47)" xlink:href="#radial-gradient"/><radialGradient id="radial-gradient-7" cx="6885.58" cy="-3919.93" r="2.19" gradientTransform="matrix(-0.41, 0.91, 0.91, 0.41, 6431.26, -4626.47)" xlink:href="#radial-gradient"/><radialGradient id="radial-gradient-8" cx="6891.04" cy="-3919.44" r="1.79" gradientTransform="matrix(-0.41, 0.91, 0.91, 0.41, 6431.26, -4626.47)" xlink:href="#radial-gradient"/><radialGradient id="radial-gradient-9" cx="-1135.99" cy="-1361.48" r="13.17" gradientTransform="matrix(0.76, -0.38, 0.3, 0.93, 1320.38, 889.44)" xlink:href="#radial-gradient"/><radialGradient id="radial-gradient-10" cx="-743.81" cy="-1100.25" r="6.91" gradientTransform="matrix(0.78, -0.33, 0.26, 0.94, 905.15, 848.53)" xlink:href="#radial-gradient"/><radialGradient id="radial-gradient-11" cx="-1142.05" cy="-1361.5" r="7.03" gradientTransform="matrix(0.76, -0.38, 0.3, 0.93, 1320.38, 889.44)" xlink:href="#radial-gradient"/><radialGradient id="radial-gradient-12" cx="-1142.84" cy="-1360.65" r="5.64" gradientTransform="matrix(0.76, -0.38, 0.3, 0.93, 1320.38, 889.44)" xlink:href="#radial-gradient"/><radialGradient id="radial-gradient-13" cx="-1147.49" cy="-1360.75" r="4.85" gradientTransform="matrix(0.76, -0.38, 0.3, 0.93, 1320.38, 889.44)" xlink:href="#radial-gradient"/><radialGradient id="radial-gradient-14" cx="-1147.51" cy="-1365.42" r="0.02" gradientTransform="matrix(0.76, -0.38, 0.3, 0.93, 1320.38, 889.44)" xlink:href="#radial-gradient"/><radialGradient id="radial-gradient-15" cx="5157.64" cy="1422.92" r="13.17" gradientTransform="matrix(-0.73, -0.43, -0.36, 0.9, 4359.6, 1000.48)" xlink:href="#radial-gradient"/><radialGradient id="radial-gradient-16" cx="5668.35" cy="1393.33" r="6.91" gradientTransform="matrix(-0.75, -0.39, -0.33, 0.92, 4775.83, 990.01)" xlink:href="#radial-gradient"/><radialGradient id="radial-gradient-17" cx="5151.59" cy="1422.89" r="7.03" gradientTransform="matrix(-0.73, -0.43, -0.36, 0.9, 4359.6, 1000.48)" xlink:href="#radial-gradient"/><radialGradient id="radial-gradient-18" cx="5150.79" cy="1423.75" r="5.64" gradientTransform="matrix(-0.73, -0.43, -0.36, 0.9, 4359.6, 1000.48)" xlink:href="#radial-gradient"/><radialGradient id="radial-gradient-19" cx="5146.14" cy="1423.65" r="4.85" gradientTransform="matrix(-0.73, -0.43, -0.36, 0.9, 4359.6, 1000.48)" xlink:href="#radial-gradient"/><radialGradient id="radial-gradient-20" cx="5146.12" cy="1418.97" r="0.02" gradientTransform="matrix(-0.73, -0.43, -0.36, 0.9, 4359.6, 1000.48)" xlink:href="#radial-gradient"/><radialGradient id="radial-gradient-21" cx="583.59" cy="182.84" r="6.36" gradientTransform="translate(-528.31 -144.25) rotate(2.09)" xlink:href="#radial-gradient"/><radialGradient id="radial-gradient-22" cx="583.32" cy="183.91" r="4.37" gradientTransform="translate(-528.31 -144.25) rotate(2.09)" xlink:href="#radial-gradient"/></defs><g class="cls-1"><g id="Capa_2" data-name="Capa 2"><g id="Layer_1" data-name="Layer 1"><path class="cls-2" d="M11.73,53.47A19.69,19.69,0,0,0,15,68.17,19.08,19.08,0,0,0,28,75.82c3.75.49,4.85-5.29,1.09-5.78a13.17,13.17,0,0,1-11.6-15.48c.61-3.75-5.18-4.84-5.79-1.09Z"/><path class="cls-3" d="M29.12,70a13.17,13.17,0,0,1-11.6-15.48,3,3,0,0,0-4-3.27,3.31,3.31,0,0,0-.13.5,19.74,19.74,0,0,0,3.26,14.7,19.08,19.08,0,0,0,13,7.65A3,3,0,0,0,31.19,74C31.85,72.39,31.31,70.32,29.12,70Z"/><path class="cls-4" d="M17.42,61.76c.16.68,0,1.29-.33,1.37s-.73-.41-.89-1.08,0-1.29.32-1.37S17.26,61.09,17.42,61.76Zm.11,1.85c-.18.14-.09.54.19.9s.66.52.83.38.1-.54-.19-.9S17.7,63.47,17.53,63.61Z"/><path class="cls-5" d="M9.36,52.75S-.49,40.88,7.49,35.92C15.76,30.78,18,43.21,18,43.21S19.08,38,21.88,40s-2.8,12.52-2.8,12.52Z"/><path class="cls-6" d="M11.6,56.3A1.93,1.93,0,0,1,9,55c-.56-2.06,1.5-5.61,7.11-4.86s3.55,5.8,1.31,5.61c0,0,0-2.58-3-2.43C10.67,53.5,11.6,56.3,11.6,56.3Z"/><path class="cls-6" d="M7.49,35.92c-3.78,2.35-3.56,6.25-2.28,9.7C7.26,43.4,11.32,40,16.9,39.73,15.56,36.5,12.75,32.65,7.49,35.92Z"/><path class="cls-6" d="M21.88,40c-2.1-1.55-3.26,1-3.7,2.39a9.15,9.15,0,0,1,4.05,2.47C22.8,42.76,22.93,40.81,21.88,40Z"/><path class="cls-7" d="M22.87,41.77a1.45,1.45,0,0,0,0-.27v-.1a2.9,2.9,0,0,0-.09-.36,2.41,2.41,0,0,0-.45-.87,3.16,3.16,0,0,0-.44-.47,1.91,1.91,0,0,0-.64-.38,1.45,1.45,0,0,0-.8,0,2,2,0,0,0-.73.36,4.14,4.14,0,0,0-1,1.16A6.3,6.3,0,0,0,18.13,42a7.22,7.22,0,0,0-.24.88,1,1,0,0,0,0,.35s.13-.49.43-1.18a6.54,6.54,0,0,1,.6-1.12,3.8,3.8,0,0,1,1-1,1.29,1.29,0,0,1,1.25-.22,1.54,1.54,0,0,1,.51.33,2.55,2.55,0,0,1,.38.43,2,2,0,0,1,.36.75c0,.2.07.32.07.32v.08a1.29,1.29,0,0,1,0,.24,4.21,4.21,0,0,1,0,.89,11.3,11.3,0,0,1-.56,2.67,26.16,26.16,0,0,1-1,2.59,12,12,0,0,0-.51,1.15A6.1,6.1,0,0,0,21.05,48a21.2,21.2,0,0,0,1.14-2.56,11.57,11.57,0,0,0,.67-2.74A6.14,6.14,0,0,0,22.87,41.77Z"/><path class="cls-7" d="M11.33,34.74a5.16,5.16,0,0,1,2.35.59A5.27,5.27,0,0,1,15.49,37a15.14,15.14,0,0,1,1.08,1.89c.28.58.5,1.06.65,1.41a3.11,3.11,0,0,0,.27.52,4.48,4.48,0,0,0-.19-.56c-.13-.35-.33-.85-.58-1.44a14.61,14.61,0,0,0-1-2,5.49,5.49,0,0,0-1.86-1.75,5.4,5.4,0,0,0-2.48-.67,6.66,6.66,0,0,0-2.23.3,7,7,0,0,0-1.46.63c-.17.09-.3.18-.39.23l-.13.09s-.18.12-.48.36a7.3,7.3,0,0,0-1.1,1.15,6.62,6.62,0,0,0-1,2,9,9,0,0,0-.38,2.51,10.69,10.69,0,0,0,.9,4.62l.1.22.11.19.2.37c.15.22.27.41.38.56a3.07,3.07,0,0,0,.4.43,10.1,10.1,0,0,1-1-1.84,10.78,10.78,0,0,1-.76-4.54,9.5,9.5,0,0,1,.42-2.42,6.09,6.09,0,0,1,1-1.87,6.68,6.68,0,0,1,1-1.07A4.57,4.57,0,0,1,7.37,36l.12-.08.36-.23a6.92,6.92,0,0,1,1.38-.61A6.38,6.38,0,0,1,11.33,34.74Z"/><path class="cls-4" d="M17.86,54.34s-.06,0-.15-.08a3.39,3.39,0,0,0-.38-.23,4.31,4.31,0,0,0-1.22-.48,5.89,5.89,0,0,0-1.3-.14c-.36,0-.6,0-.6,0l-.16,0c-.1,0-.25,0-.43,0a6.06,6.06,0,0,0-1.25.34,4.37,4.37,0,0,0-1.12.67c-.15.1-.24.23-.33.29s-.13.12-.14.11,0-.07.08-.16a2.1,2.1,0,0,1,.28-.36,4.14,4.14,0,0,1,1.1-.82,5.51,5.51,0,0,1,1.32-.44A4,4,0,0,1,14,53l.17,0s.26,0,.64,0a6,6,0,0,1,1.37.25,4,4,0,0,1,1.23.62,1.79,1.79,0,0,1,.34.31C17.84,54.28,17.87,54.33,17.86,54.34Z"/><path class="cls-4" d="M19.05,51.32s-.44-.31-1.17-.6a7.79,7.79,0,0,0-2.82-.53,9.06,9.06,0,0,0-2.83.4,7.78,7.78,0,0,0-.86.35l-.24.12-.08,0-.3.18c-.1.06-.2.14-.32.23l-.2.15-.2.19a5.56,5.56,0,0,0-.79,1,3.38,3.38,0,0,0-.47,1.39,1.77,1.77,0,0,0,.45,1.34,2.51,2.51,0,0,0,1.08.7,1.6,1.6,0,0,0,.91,0l.15-.05.1,0,.09,0-.07.07-.09.06-.15.07a1.57,1.57,0,0,1-1,0,2.55,2.55,0,0,1-1.21-.69,2,2,0,0,1-.44-.68,2.33,2.33,0,0,1-.13-.83,3.51,3.51,0,0,1,.46-1.55,5.4,5.4,0,0,1,.82-1.13l.21-.21.21-.17a2.83,2.83,0,0,1,.35-.26l.32-.2.09-.05.25-.11a6.43,6.43,0,0,1,.93-.35,9.14,9.14,0,0,1,3-.34,7.87,7.87,0,0,1,2.88.68,5.21,5.21,0,0,1,.48.26l.2.12.15.12C19,51.22,19.06,51.31,19.05,51.32Z"/><path class="cls-8" d="M9.35,36.44c-.12-.19-.53-.17-.92.05s-.63.56-.52.76.53.18.92,0S9.46,36.64,9.35,36.44Z"/><path class="cls-2" d="M99.43,53.47a19.69,19.69,0,0,1-3.25,14.7,19.08,19.08,0,0,1-13.05,7.65c-3.75.49-4.85-5.29-1.09-5.78a13.17,13.17,0,0,0,11.6-15.48c-.6-3.75,5.18-4.84,5.79-1.09Z"/><path class="cls-3" d="M82,70a13.17,13.17,0,0,0,11.6-15.48,3,3,0,0,1,4-3.27,3.31,3.31,0,0,1,.13.5,19.78,19.78,0,0,1-3.25,14.7,19.1,19.1,0,0,1-13,7.65A3,3,0,0,1,80,74C79.31,72.39,79.85,70.32,82,70Z"/><path class="cls-4" d="M94.07,63.13c-.34-.08-.49-.69-.33-1.37s.56-1.16.9-1.08M92.8,64c-.28.36-.37.76-.19.9s.55,0,.83-.38.37-.76.19-.9S93.08,63.64,92.8,64Z"/><path class="cls-9" d="M101.8,52.75s9.85-11.87,1.87-16.83C95.4,30.78,93.2,43.21,93.2,43.21S92.08,38,89.28,40s2.8,12.52,2.8,12.52Z"/><path class="cls-6" d="M99.56,56.3A1.93,1.93,0,0,0,102.18,55c.56-2.06-1.5-5.61-7.11-4.86s-3.55,5.8-1.31,5.61c0,0,0-2.58,3-2.43C100.49,53.49,99.56,56.3,99.56,56.3Z"/><path class="cls-6" d="M103.67,35.92c3.78,2.35,3.56,6.25,2.28,9.7-2-2.22-6.11-5.67-11.69-5.89C95.6,36.5,98.41,32.65,103.67,35.92Z"/><path class="cls-6" d="M89.28,40c2.1-1.55,3.26,1,3.7,2.39a9.26,9.26,0,0,0-4,2.47C88.36,42.76,88.23,40.81,89.28,40Z"/><path class="cls-7" d="M88.29,41.77a1.45,1.45,0,0,1,0-.27v-.1a2.9,2.9,0,0,1,.09-.36,2.41,2.41,0,0,1,.45-.87,3.16,3.16,0,0,1,.44-.47,2,2,0,0,1,.64-.38,1.48,1.48,0,0,1,.81,0,2,2,0,0,1,.72.36,4.14,4.14,0,0,1,1,1.16A6.3,6.3,0,0,1,93,42a7.22,7.22,0,0,1,.24.88,1,1,0,0,1,0,.35s-.13-.49-.43-1.18a6.54,6.54,0,0,0-.6-1.12,3.8,3.8,0,0,0-1-1,1.29,1.29,0,0,0-1.25-.22,1.54,1.54,0,0,0-.51.33,2.55,2.55,0,0,0-.38.43,2.19,2.19,0,0,0-.36.75c0,.2-.07.31-.07.31v.09a1.29,1.29,0,0,0,0,.24,4.21,4.21,0,0,0,0,.89,11.3,11.3,0,0,0,.56,2.67,27.17,27.17,0,0,0,1,2.59,12,12,0,0,1,.51,1.15A6.1,6.1,0,0,1,90.11,48,21.2,21.2,0,0,1,89,45.46a11.57,11.57,0,0,1-.67-2.74A6.14,6.14,0,0,1,88.29,41.77Z"/><text/><path class="cls-4" d="M93.3,54.34s.06,0,.16-.08a2.46,2.46,0,0,1,.37-.23,4.31,4.31,0,0,1,1.22-.48,5.89,5.89,0,0,1,1.3-.14c.36,0,.6,0,.6,0l.16,0c.1,0,.25,0,.43,0a5.49,5.49,0,0,1,1.25.34,4.37,4.37,0,0,1,1.12.67c.15.1.24.23.33.29s.13.12.14.11,0-.07-.08-.16a2.55,2.55,0,0,0-.27-.36,4.38,4.38,0,0,0-1.11-.82,5.51,5.51,0,0,0-1.32-.44,4,4,0,0,0-.45-.08L97,53s-.26,0-.64,0a6,6,0,0,0-1.37.25,4,4,0,0,0-1.23.62,1.79,1.79,0,0,0-.34.31C93.33,54.28,93.29,54.33,93.3,54.34Z"/><path class="cls-4" d="M92.11,51.32s.44-.31,1.17-.6a7.79,7.79,0,0,1,2.82-.53,9.06,9.06,0,0,1,2.83.4,7.78,7.78,0,0,1,.86.35l.24.12.08,0,.3.18c.1.06.2.14.32.23l.2.15.2.19a5.56,5.56,0,0,1,.79,1,3.38,3.38,0,0,1,.47,1.39,1.77,1.77,0,0,1-.45,1.34,2.51,2.51,0,0,1-1.08.7,1.6,1.6,0,0,1-.91,0l-.15-.05-.1,0-.09,0s0,0,.07.06l.09.07.15.07a1.57,1.57,0,0,0,1,0,2.55,2.55,0,0,0,1.21-.69,2,2,0,0,0,.44-.68,2.34,2.34,0,0,0,.14-.83,3.65,3.65,0,0,0-.47-1.55,5.4,5.4,0,0,0-.82-1.13c-.07-.07-.14-.15-.21-.21L101,51.2a2.24,2.24,0,0,0-.35-.26l-.32-.2-.09-.05-.25-.12a6.58,6.58,0,0,0-.93-.34,9.14,9.14,0,0,0-3-.34,7.77,7.77,0,0,0-2.87.68,4.37,4.37,0,0,0-.49.26l-.2.12a.79.79,0,0,1-.15.12C92.2,51.22,92.1,51.31,92.11,51.32Z"/><path class="cls-6" d="M88.72,88.61c0,17-15.18,26.07-35.27,26.07S16,105.63,16,88.61s17.38-34,37.47-34S88.72,71.6,88.72,88.61Z"/><path class="cls-8" d="M62.42,55.81c8.07,5.13,13.23,14,13.23,22.93,0,13.72-12.23,21-28.42,21-15.33,0-28.71-6.55-30.08-18.89A27,27,0,0,0,16,88.61c0,17,17.38,26.07,37.47,26.07s35.27-9.05,35.27-26.07C88.72,74.24,77.89,59.91,62.42,55.81Z"/><path class="cls-8" d="M61.25,58.85h0Z"/><path class="cls-8" d="M70.64,63.09C77,68.9,80.8,77,80.8,85.1c0,15.27-13.62,23.39-31.64,23.39-9,0-17.39-2-23.53-5.95,6.17,6,16.4,9.11,27.55,9.11,18,0,31.64-8.12,31.64-23.38C84.82,78.55,79.3,68.86,70.64,63.09Z"/><path class="cls-8" d="M22.86,74.75c-.51.75-1.23,1.15-1.6.89s-.27-1.07.24-1.81,1.23-1.15,1.6-.9S23.37,74,22.86,74.75Zm-1.68,1.73c-.3,0-.61.4-.7,1s.08,1.1.37,1.14.61-.39.7-1S21.47,76.53,21.18,76.48Z"/><path class="cls-6" d="M74.82,107.06c.87-.24,1.67-.08,1.8.36s-.49,1-1.36,1.22-1.68.09-1.8-.35S74,107.31,74.82,107.06Zm2.4-.23c.2.22.72.08,1.16-.3s.66-.89.46-1.11-.72-.09-1.16.3S77,106.6,77.22,106.83Z"/><path class="cls-6" d="M79.65,44c0,13-11.51,19.91-26.74,19.91S24.5,57,24.5,44,37.68,18.05,52.91,18.05,79.65,31,79.65,44Z"/><path class="cls-8" d="M68.89,23.43a24.61,24.61,0,0,1,6.21,15.9C75.1,51.81,64,58.45,49.42,58.45c-10.31,0-19.64-3.3-24.25-9.62C28,58.7,39.69,63.91,52.91,63.91,68.14,63.91,79.65,57,79.65,44,79.65,36.19,75.5,28.41,68.89,23.43Z"/><path class="cls-8" d="M29.56,34.13c-.6.68-1.37,1-1.7.67s-.12-1.09.49-1.77,1.37-1,1.71-.66S30.17,33.46,29.56,34.13Zm-1.9,1.49c-.29-.08-.65.31-.82.87s-.08,1.1.2,1.19.66-.31.83-.88S27.94,35.71,27.66,35.62Z"/><path class="cls-2" d="M49.73,47.26a1.76,1.76,0,0,1,.05,1.8,6.21,6.21,0,0,1-5.65,3.14c-2.15-.07-5.66-2.61-4.41-5.05a1.84,1.84,0,0,1,1.64-.88c.82,0,.86.61,1.36,1.07,1.17,1.08,2.92.58,3.93-.4A2,2,0,0,1,49.73,47.26Z"/><path class="cls-10" d="M44.92,49.86a6,6,0,0,1,4.52-.24,6.39,6.39,0,0,1-5.31,2.58,4.56,4.56,0,0,1-1.81-.49A6.86,6.86,0,0,1,44.92,49.86Z"/><path class="cls-4" d="M44.67,53.65a1,1,0,0,1-.23-.08l-.23-.08L44,53.4a3,3,0,0,1-.47-.24c-.32-.21-.59-.5-.64-.47a1.7,1.7,0,0,0,.5.67,3.73,3.73,0,0,0,.47.33l.24.12.26.07a1.1,1.1,0,0,0,.27,0,3,3,0,0,0,.31,0,1.78,1.78,0,0,0,.82-.12,5,5,0,0,0-.8-.12Z"/><path class="cls-4" d="M40.91,46a3.5,3.5,0,0,1-.6.5l-.19.14a3.11,3.11,0,0,1-.46.27,2.46,2.46,0,0,1-.5.17c-.15,0-.25,0-.25.07s.1.06.26.06a1.79,1.79,0,0,0,.58-.07,2.63,2.63,0,0,0,.53-.23l.23-.14a3.67,3.67,0,0,0,.59-.61c.25-.35.38-.75.33-.77S41.19,45.68,40.91,46Z"/><path class="cls-4" d="M50.47,47.42a1.71,1.71,0,0,1-.4-.18,1.85,1.85,0,0,1-.32-.29l-.13-.15a2.45,2.45,0,0,1-.37-.53,3.27,3.27,0,0,1-.17-.41c0-.12,0-.21-.08-.21s0,.09,0,.22a1.85,1.85,0,0,0,.08.49,2.36,2.36,0,0,0,.33.66l.17.16a1.76,1.76,0,0,0,.43.27,1.23,1.23,0,0,0,.5.1c.14,0,.22,0,.22-.06S50.59,47.45,50.47,47.42Z"/><path class="cls-4" d="M36.44,32.91a7.78,7.78,0,0,0-.78,0H35.3l-.35.07a3.46,3.46,0,0,0-.75.25,2.66,2.66,0,0,0-.67.42c-.16.14-.24.25-.23.27s.14-.05.32-.14a4,4,0,0,1,.68-.29,4.9,4.9,0,0,1,1.05-.17,8.24,8.24,0,0,1,1.08-.08,7.17,7.17,0,0,0,1.11,0A2.92,2.92,0,0,0,36.44,32.91Z"/><path class="cls-8" d="M37.13,33.12a1.85,1.85,0,0,0-1.9.25h0a3.23,3.23,0,0,0-.45.4l-.06.07-.11.13-.09.12-.13.18a.86.86,0,0,1-.1.16l-.06.12a1.14,1.14,0,0,0-.1.19l0,.09-.13.3,0,.09-.09.25,0,.1-.09.36c0,.13-.06.26-.08.39s0,.22,0,.33,0,0,0,.07a6.6,6.6,0,0,0,0,.77h0A3.76,3.76,0,0,0,35.32,41c1.39.61,2.93-.65,3.43-2.82S38.52,33.73,37.13,33.12Z"/><path d="M38.07,38c-.5,2-2,3.18-3.44,2.61S32.51,37.92,33,35.92s2-3.18,3.43-2.61S38.57,36,38.07,38Z"/><path class="cls-11" d="M35,36.36c-.09.56-.42,1-.74.92s-.5-.55-.4-1.1.42-1,.73-.92S35.07,35.8,35,36.36Z"/><path class="cls-4" d="M61.34,34.56a6.19,6.19,0,0,0-1-.47L60,34a4.93,4.93,0,0,0-.73-.08,2.52,2.52,0,0,0-1.06.14,6.62,6.62,0,0,0,1,.14,6.57,6.57,0,0,1,.7.17l.32.09a9.67,9.67,0,0,1,1,.35,6.83,6.83,0,0,0,1,.48A3.51,3.51,0,0,0,61.34,34.56Z"/><path class="cls-8" d="M61.49,34.79a1.87,1.87,0,0,0-1-.13l-.05,0-.15,0a3.47,3.47,0,0,0-2.25,2.69c0,.13-.06.26-.08.39-.37,1.92.35,3.84,1.68,4.38s2.94-.6,3.44-2.61S62.89,35.35,61.49,34.79Z"/><path d="M62.3,39.17c-.5,2-2,3.17-3.44,2.61s-2.12-2.65-1.62-4.66,2-3.17,3.43-2.61S62.8,37.16,62.3,39.17Z"/><path class="cls-11" d="M59.23,37.45c-.09.56-.42,1-.73.92s-.5-.54-.41-1.1.42-1,.74-.92S59.32,36.9,59.23,37.45Z"/><path class="cls-12" d="M47.13,39.4c-2-1.13-4.89-1.61-6.07-2-2-.65-7-2.77-4.52,2.05,1.31,2.56,4.24,4.08,6.58,5,1.62.66,5,.85,5.8-1.47C49.47,41.35,48.55,40.21,47.13,39.4Z"/><path class="cls-13" d="M44.29,39.46s-.11-.08-.31-.21l-.82-.52a26.57,26.57,0,0,0-2.59-1.34,11.34,11.34,0,0,0-2.72-.88,3.09,3.09,0,0,0-.9,0,1.77,1.77,0,0,0-.33.07l-.07,0a1.46,1.46,0,0,0-.21.11l-.13.11a1.11,1.11,0,0,0-.11.16,1.23,1.23,0,0,0-.13.5,2.61,2.61,0,0,0,.32,1.35,7.24,7.24,0,0,0,.87,1.38,13.46,13.46,0,0,0,2.09,2.15,8.41,8.41,0,0,0,.78.59,2.11,2.11,0,0,1,.3.21A1,1,0,0,1,40,43a7.1,7.1,0,0,1-.82-.53A13.55,13.55,0,0,1,37,40.37a8.51,8.51,0,0,1-.93-1.4,3.2,3.2,0,0,1-.38-1.52,1.6,1.6,0,0,1,.17-.65,2.3,2.3,0,0,1,.15-.23l.17-.16a1.29,1.29,0,0,1,.27-.15l.1,0a1.2,1.2,0,0,1,.37-.08,3.07,3.07,0,0,1,1,0,11.77,11.77,0,0,1,2.76,1,22.46,22.46,0,0,1,2.57,1.45A4.72,4.72,0,0,1,44.29,39.46Z"/><path class="cls-13" d="M48.88,42.42a.75.75,0,0,1,0-.24c0-.08,0-.17,0-.28v-.36a2.18,2.18,0,0,0-.8-1.56,4.55,4.55,0,0,0-1.53-.74c-.45-.14-.75-.21-.75-.21L45.59,39l-.54-.17c-.47-.14-1-.41-1.62-.65-.29-.1-.58-.21-.87-.3s-.53-.2-.76-.26a1.75,1.75,0,0,0-.54-.08l-.21,0s.06-.05.2-.09a1.67,1.67,0,0,1,.58,0c.23,0,.5.12.78.2l.89.25c.59.22,1.17.46,1.62.58.22.07.41.11.54.14l.21.06s.31.08.76.24a4.57,4.57,0,0,1,1.58.85,2.12,2.12,0,0,1,.61.84l0,.12,0,.12.06.23c0,.16,0,.31,0,.44s0,.26,0,.37a2,2,0,0,1,0,.29C48.91,42.34,48.89,42.43,48.88,42.42Z"/><g class="cls-14"><path class="cls-15" d="M46.61,39.13l0,.24a8.11,8.11,0,0,1-.09,2c0,.26-.09.47-.13.62a2.2,2.2,0,0,1-.06.24l0,.24a2,2,0,0,1,0,.27,2.58,2.58,0,0,1-.07.34,7.16,7.16,0,0,1-.26.84,5.26,5.26,0,0,1-.44.85,2.43,2.43,0,0,0-.14.2,5.7,5.7,0,0,0,1.6-.18l.09-.14a6.42,6.42,0,0,0,.48-1c.06-.15.11-.29.15-.41s.08-.24.11-.33l.08-.29s0-.11,0-.3,0-.46.06-.79a9.38,9.38,0,0,0-.1-1.6,5.93,5.93,0,0,0-.74-.49Z"/><path class="cls-15" d="M43.86,42.34l.15-.28.1-.29a2.08,2.08,0,0,0,.11-.35,4.36,4.36,0,0,0,.12-.46,6.5,6.5,0,0,0,.08-2.6s0,0,0-.06c-.38-.12-.76-.22-1.12-.32a5,5,0,0,1,.06.56A5.26,5.26,0,0,1,43,40.46c0,.13-.09.24-.13.34a2.17,2.17,0,0,1-.12.26l-.1.22-.09.23c-.06.14-.15.35-.27.59a5.43,5.43,0,0,1-1.1,1.5c.42.21.83.4,1.23.58a6.65,6.65,0,0,0,1.46-1.84Z"/><path class="cls-15" d="M39.63,41.73a3.5,3.5,0,0,0,.57-.6l.19-.27.13-.22a1.94,1.94,0,0,0,.1-.19,5.16,5.16,0,0,0,.19-.78,5.77,5.77,0,0,0,0-1.73,4.14,4.14,0,0,0-.14-.65L39.79,37c0,.1,0,.19,0,.3a5.28,5.28,0,0,1-.35,1.94,3.34,3.34,0,0,1-.23.49,1.31,1.31,0,0,1,0,.14l-.06.15-.08.2a2,2,0,0,1-.6.79,1.18,1.18,0,0,1-.66.19,9.1,9.1,0,0,0,1.08,1A2.59,2.59,0,0,0,39.63,41.73Z"/></g><path class="cls-7" d="M83,7.71a7.83,7.83,0,0,1-15.62,1A7.83,7.83,0,0,1,83,7.71Z"/><path class="cls-6" d="M83.12,7.51c-.07,0-.13-.68-.46-1.64a8,8,0,0,0-2-3.05,7.71,7.71,0,0,0-4.37-2l-.46,0h-.45a9.24,9.24,0,0,0-1.2.05,9.56,9.56,0,0,0-3.42,1.32,9,9,0,0,0-1.56,1.21,5,5,0,0,0-1,1.26,11,11,0,0,0-.6,1.68s0-.17-.05-.48a3.06,3.06,0,0,1,.07-.55,4.92,4.92,0,0,1,.22-.69,6,6,0,0,1,1-1.52,8.63,8.63,0,0,1,1.57-1.36A9.83,9.83,0,0,1,74,.1,10.82,10.82,0,0,1,75.36,0h.5l.5.06a8.38,8.38,0,0,1,1.3.3A8.48,8.48,0,0,1,81,2.44,7.75,7.75,0,0,1,83,5.78,5.49,5.49,0,0,1,83.14,7C83.15,7.34,83.15,7.51,83.12,7.51Z"/><path class="cls-16" d="M70.77,3.79c.62-.57,1.36-.78,1.65-.48s0,1-.6,1.58-1.36.78-1.65.47S70.15,4.35,70.77,3.79ZM73.1,3c.19.33.88.29,1.55-.09s1-.94.85-1.27-.89-.28-1.55.1S72.91,2.71,73.1,3Z"/><path class="cls-4" d="M70.48,10.87c-.67-3-.46-5.62,1.41-8.19a10.13,10.13,0,0,1,2-2,8.29,8.29,0,0,0-1.74.49c-.3.32-.6.65-.88,1-2.14,2.75-2.29,5.72-1.57,9C69.8,11.65,70.59,11.38,70.48,10.87Z"/><path class="cls-4" d="M71.08,12.41a.41.41,0,0,0,.46.68c3.9-2.55,6-7.18,7.72-11.44-.24-.14-.48-.27-.73-.39C76.86,5.4,74.84,9.94,71.08,12.41Z"/><path class="cls-4" d="M81.39,9.32A17.26,17.26,0,0,0,82.9,6.86a7.8,7.8,0,0,0-.35-1.28,17.4,17.4,0,0,1-1.79,3.2c-1.65,2.36-4.17,5.3-7.31,5.43a.41.41,0,0,0,.06.82C76.94,14.89,79.54,11.85,81.39,9.32Z"/><path class="cls-2" d="M40,16.06S48.75,3.43,68.59,9,81.87,39.71,81.87,39.71Z"/><path class="cls-3" d="M40,16.06S48.75,3.43,68.59,9,81.87,39.71,81.87,39.71Z"/><g class="cls-17"><path class="cls-7" d="M40.1,15.52s.17-.21.52-.53l.62-.58c.25-.22.53-.47.85-.71,1.27-1,3.06-2.24,4.86-3.45a18.44,18.44,0,0,1,5.5-2.49L53,7.6l.52-.11.86-.18A4.35,4.35,0,0,1,55,7.22l.2,0A26.35,26.35,0,0,1,57.89,7a34.49,34.49,0,0,1,6,.49,40.12,40.12,0,0,1,5.79,1.47c.77.26,1.4.5,1.84.69a3.17,3.17,0,0,1,.67.32,2.71,2.71,0,0,1-.73-.17c-.45-.14-1.09-.34-1.87-.55A45.7,45.7,0,0,0,63.78,8a33.67,33.67,0,0,0-5.87-.32c-1.6.09-2.65.26-2.65.26l-.19,0c-.13,0-.31,0-.54.08l-.83.15-.51.1-.55.14a18.21,18.21,0,0,0-5.38,2.27c-1.84,1.14-3.67,2.28-5,3.23a10.34,10.34,0,0,0-.89.65l-.67.52A2.79,2.79,0,0,1,40.1,15.52Z"/></g><path class="cls-4" d="M62.33,10.54c.09-.42-.53-.89-1.39-1.06s-1.62,0-1.7.45.53.89,1.39,1.06S62.25,11,62.33,10.54Z"/><path class="cls-4" d="M58.46,10.17c-.07-.28-.58-.38-1.13-.25s-.95.47-.88.74.58.38,1.13.24S58.53,10.44,58.46,10.17Z"/><path class="cls-4" d="M79.32,29.22c.43.1.94-.49,1.14-1.32s0-1.58-.39-1.68-.94.49-1.14,1.32S78.9,29.12,79.32,29.22Z"/><path class="cls-4" d="M79.85,25.45c.28-.06.41-.55.29-1.1s-.44-.94-.72-.88-.41.55-.29,1.09S79.57,25.51,79.85,25.45Z"/><path class="cls-7" d="M28.43,30.46s-4.82-3.9.31-11.63c2.17-3.26,10.45-8.37,30.89-.56,10,3.83,28.66,12.32,25.31,25.81-.4,1.61-2.78,6.6-5,5.29-.79-.46-1.28-1.95-1.84-2.69-7.36-9.62-19-15.75-30.94-18.11C42.21,27.58,32.42,26.34,28.43,30.46Z"/><path class="cls-16" d="M82.63,37.55c.37.94.29,1.85-.2,2s-1.17-.43-1.54-1.37-.28-1.85.2-2S82.26,36.61,82.63,37.55Zm-.19,2.91c-.46.06-.72.84-.59,1.74s.61,1.58,1.07,1.51.73-.84.59-1.74S82.9,40.39,82.44,40.46Z"/><path class="cls-6" d="M43.91,15.31a13.79,13.79,0,0,1-2.17-.23A18.85,18.85,0,0,0,37,14.91a12.88,12.88,0,0,0-4.44,1.49l-.41.22-.35.24-.57.38a2.49,2.49,0,0,0-.34.27l-.12.1-.46.38-.25.2-.25.27-.62.65A11.91,11.91,0,0,0,27.94,21a9.36,9.36,0,0,0-1,2.47,9.2,9.2,0,0,0-.31,2.69,9.1,9.1,0,0,0,.29,2.1,5.33,5.33,0,0,0,1,1.67c.23.31.53.5.51.53l-.51-.53a4,4,0,0,1-1.27-1.64,8.21,8.21,0,0,1-.38-2.12,9.52,9.52,0,0,1,.23-2.84,9.88,9.88,0,0,1,1-2.62,12.51,12.51,0,0,1,1.29-2l.64-.7q.13-.16.27-.3l.25-.21.47-.41.13-.11a2.9,2.9,0,0,1,.37-.28l.61-.38.37-.24c.13-.08.28-.14.43-.22A13,13,0,0,1,37,14.42a17.71,17.71,0,0,1,4.81.4c.64.12,1.17.24,1.55.32A2.07,2.07,0,0,1,43.91,15.31Z"/><path class="cls-6" d="M85.86,38.59A10.92,10.92,0,0,0,84.45,35a16.86,16.86,0,0,0-2-2.68,22.63,22.63,0,0,0-1.69-1.66l-.68-.59-2.51-2c-.77-.59-1.66-1.29-2.62-2L73.4,25c-.52-.37-1.05-.75-1.61-1.07-2.2-1.39-4.51-2.53-6.22-3.44-.85-.45-1.06-.57-1.57-.82a4.27,4.27,0,0,0-1.54-.3,7.23,7.23,0,0,1,1.13.47c.48.29,1,.42,1.83.91,1.66,1,3.94,2.21,6.06,3.63A17.44,17.44,0,0,1,73,25.5l1.49,1.09,2.56,2.05,2.47,2.05.67.56c.42.36,1,.89,1.67,1.58a11.65,11.65,0,0,1,3.17,5.56,6.32,6.32,0,0,1,.24,1.76,3,3,0,0,1,0,1.08,22.22,22.22,0,0,1-.4,2.85,12.08,12.08,0,0,0,.7-1.68A7.63,7.63,0,0,0,85.86,38.59Z"/><path class="cls-4" d="M38.48,14.26a24,24,0,0,0-5.77,5.2c-2.22,2.68-4.29,6.61-3.1,10a6.79,6.79,0,0,1,.74-.43c-1-3.21,1.15-6.85,3.19-9.32a20,20,0,0,1,6.92-5.59C39.77,14.17,39.11,14.21,38.48,14.26Z"/><path class="cls-4" d="M48.14,14.89l-1.2-.21c-4.32,2.92-8,7.82-8.71,12.91h.84C39.8,22.49,43.73,17.61,48.14,14.89Z"/><path class="cls-4" d="M75.09,25.94l-.69-.46c-2.11,4-4.85,8-8.66,10.26l.77.48C70.26,33.86,73,29.88,75.09,25.94Z"/><path class="cls-4" d="M56.48,17.13l-.89-.29a38.63,38.63,0,0,0-8.67,11.68l.23.05.6.12A38.37,38.37,0,0,1,56.48,17.13Z"/><path class="cls-4" d="M85.26,42.3a13.52,13.52,0,0,0,.07-1.9,16.12,16.12,0,0,1-6.64,7.29c.13.25.26.49.4.73A16.77,16.77,0,0,0,85.26,42.3Z"/><path class="cls-4" d="M55.85,31l.8.3c2.75-3.7,6.08-7,8.95-10.56l-.77-.34C62,24,58.61,27.28,55.85,31Z"/><path class="cls-4" d="M78,38a28.19,28.19,0,0,0,3.28-5.26c.15-.33.31-.66.45-1l-.53-.63A24.06,24.06,0,0,1,77.73,37a17,17,0,0,1-4.42,4.47l.6.57A18.57,18.57,0,0,0,78,38Z"/><path class="cls-16" d="M32,17.65c1.14-.55,2.29-.55,2.58,0s-.39,1.44-1.52,2-2.29.55-2.58,0S30.91,18.2,32,17.65Zm3.69-.12c.14.54,1.16.76,2.27.5s1.9-.91,1.76-1.45-1.16-.75-2.27-.49S35.58,17,35.73,17.53Z"/><g class="cls-18"><path class="cls-2" d="M65.14,17.08A60,60,0,0,0,50.82,12.4a51,51,0,0,0-6-.72c-.38.26-.74.52-1.08.77a51.63,51.63,0,0,1,7.44.85A58.56,58.56,0,0,1,65.2,18,68.64,68.64,0,0,1,82.89,29.54c0-.37,0-.75,0-1.13A71.56,71.56,0,0,0,65.14,17.08Z"/><path class="cls-2" d="M68.76,10.3c-2-.9-4-1.74-6.08-2.47a30.07,30.07,0,0,0-3.32-.23,69.48,69.48,0,0,1,9.46,3.63,73,73,0,0,1,11,6.23,18.59,18.59,0,0,0-1.12-1.71A78.25,78.25,0,0,0,68.76,10.3Z"/><path class="cls-2" d="M67.08,14.62A70.57,70.57,0,0,1,82.26,24c-.09-.43-.19-.85-.31-1.27a73.32,73.32,0,0,0-14.93-9A59.6,59.6,0,0,0,52.7,9L51,8.73c-.61.19-1.19.39-1.74.61,1.27.15,2.53.34,3.75.56A59,59,0,0,1,67.08,14.62Z"/></g><path class="cls-6" d="M62,28.71c-.67-.19-1.38-.52-1.69-.6s-1.25-.2-1.45-.6c-.48-.91.79-1.49,1.46-1.51,1.11,0,3.23.71,3.32,2.1C63.64,29,62.82,29,62,28.71ZM38.24,23.64c-.89-1.06-3-.4-3.9.3-.53.43-1.2,1.65-.27,2.09.4.2,1.12-.23,1.52-.39s1.06-.28,1.72-.53C38.15,24.79,38.83,24.33,38.24,23.64Z"/><g class="cls-19"><path class="cls-4" d="M38.17,23.56a2.5,2.5,0,0,1-1,.59c-.66.25-1.42.41-1.72.53s-1.11.59-1.52.4a.94.94,0,0,1-.25-.18A.83.83,0,0,0,34.07,26c.4.2,1.12-.23,1.52-.39s1.06-.28,1.72-.53c.84-.32,1.52-.78.93-1.47Z"/><path class="cls-4" d="M63.59,28.1a1.55,1.55,0,0,0-.18-.6c-.17.53-.87.46-1.59.26s-1.38-.52-1.7-.61a4,4,0,0,1-1.3-.42.73.73,0,0,0,0,.78c.2.4,1,.49,1.45.6s1,.41,1.69.6C62.82,29,63.64,29,63.59,28.1Z"/></g><path class="cls-20" d="M49,61.17s-1.29,7.1,6.28,11.54L52,72.93v2.95S44.17,68.36,49,61.17Z"/><path class="cls-21" d="M49.49,65.94a10.64,10.64,0,0,1-.5-4.77,8.91,8.91,0,0,0-1.53,6A1.48,1.48,0,0,1,49.49,65.94Z"/><path class="cls-22" d="M49.2,69.56c.27-.88,1.2-.73,2-.41A11.13,11.13,0,0,1,50,67.22a15.77,15.77,0,0,1-.72,1.46c-.32.59-1,.5-1.48.3A13.32,13.32,0,0,0,49,71.81,7.56,7.56,0,0,1,49.2,69.56Z"/><path class="cls-23" d="M45.16,61s.77,7.17-7.1,11.06l3.29.45-.22,2.94S49.45,68.55,45.16,61Z"/><path class="cls-24" d="M44.31,65.75A10.51,10.51,0,0,0,45.16,61a8.89,8.89,0,0,1,1.09,6.09A1.48,1.48,0,0,0,44.31,65.75Z"/><path class="cls-25" d="M44.34,69.38c-.2-.9-1.14-.81-2-.55A11.61,11.61,0,0,0,43.7,67c.13.37.34.91.61,1.51s.94.56,1.46.41a13.64,13.64,0,0,1-1.36,2.73A7.49,7.49,0,0,0,44.34,69.38Z"/><path class="cls-26" d="M47.14,62.43c-3.77-5.83-7.58-9.81-10.62-9.53s-4.23,7.68-3.61,10.49c1.36,6.13,12.51,2.17,14.67,1.34Z"/><g class="cls-17"><path class="cls-27" d="M33.63,63.21c-.58-2.6.47-9.13,3-10.31h-.08c-3,.27-4.23,7.68-3.61,10.49,1,4.4,7,3.61,11.1,2.5C39.94,66.89,34.55,67.35,33.63,63.21Z"/></g><path class="cls-28" d="M36.52,52.9a2.44,2.44,0,0,0-1.61,1c-1.75,6.31,12.51,10.92,12.78,10.79l-.51-2.16C43.39,56.63,39.57,52.62,36.52,52.9Z"/><path class="cls-29" d="M46.32,64.27c-3.53-5.23-7-8.69-9.89-8.43a2.18,2.18,0,0,0-1.35.69C36.63,60.38,43.39,63.27,46.32,64.27Z"/><path class="cls-30" d="M38.2,66.75a2.75,2.75,0,0,1-.68-1.66c0-1.72,3.28-3.26,3.28-3.26a15.14,15.14,0,0,1-5.1-4.14c.21.48,2.17,5.38.58,6.66-1.4,1.12-2.78,0-3.23-.48C33.76,66,35.83,66.72,38.2,66.75Z"/><path class="cls-31" d="M35.68,57.66l0,0Z"/><path class="cls-32" d="M47.51,62.45c4.19-5.55,8.28-9.23,11.29-8.74s3.66,8,2.83,10.73c-1.8,6-12.63,1.25-14.73.27Z"/><g class="cls-17"><path class="cls-33" d="M60.93,64.21c.76-2.56.19-9.15-2.22-10.51h.09c2.93.49,3.66,8,2.83,10.73-1.29,4.31-7.22,3.09-11.25,1.68C54.36,67.41,59.71,68.27,60.93,64.21Z"/></g><path class="cls-34" d="M58.8,53.71a2.45,2.45,0,0,1,1.53,1.09c1.28,6.41-13.27,10-13.53,9.82l.67-2.11C51.67,56.93,55.78,53.21,58.8,53.71Z"/><path class="cls-35" d="M48.19,64.34c3.9-5,7.66-8.16,10.48-7.69a2.18,2.18,0,0,1,1.29.79C58.14,61.16,51.19,63.55,48.19,64.34Z"/><path class="cls-36" d="M56.11,67.41a2.81,2.81,0,0,0,.8-1.61c.17-1.71-3-3.49-3-3.49a15.27,15.27,0,0,0,5.4-3.76c-.25.46-2.57,5.21-1.07,6.6,1.31,1.22,2.77.18,3.26-.24C60.59,67,58.48,67.55,56.11,67.41Z"/><path class="cls-37" d="M59.29,58.52l0,0S59.29,58.5,59.29,58.52Z"/><path class="cls-38" d="M48.14,64.08c0,1-.49,1.7-1,1.68s-.92-.8-.89-1.74.49-1.7,1-1.68S48.17,63.14,48.14,64.08Z"/><path class="cls-39" d="M47.85,63.79c0,.64-.33,1.16-.69,1.15s-.63-.55-.61-1.2.33-1.17.69-1.15S47.87,63.14,47.85,63.79Z"/><polygon class="cls-40" points="65.88 110.83 61.34 139.55 65.88 173.76 83.83 145.84 83.35 97.44 65.88 110.83"/><path class="cls-41" d="M65.8,111.38l-.34,2.15,18.14,9.8,0-2.34L65.8,111.38Zm-1.22,7.68,19.08,10.31,0,2.34-19.45-10.5.34-2.15Zm-1.21,7.68L63,128.89,83.77,140.1l0-2.35-20.38-11Zm-1.22,7.68,21.54,11.63-1.12,1.73L61.81,136.57l.34-2.15Zm-.42,8.11.34,2.51L78.6,154l1.11-1.73-18-9.71Zm1.2,9,12.8,6.92-1.11,1.73L63.26,154l-.33-2.51Zm1.19,9,.34,2.52,6.18,3.34,1.12-1.73-7.64-4.13Zm1.2,9,.33,2.51,1,.55,1.11-1.73-2.46-1.33Zm18.2-55-10.6-5.73,1-1.79,9.57,5.17Z"/><polygon class="cls-42" points="65.88 110.83 2.96 109.61 2.96 172.53 65.88 173.76 65.88 110.83"/><path class="cls-43" d="M56.66,110.65,53,110.58,3,141.31v2.34l53.7-33Zm-13.84-.27L3,134.87v-2.33l36.17-22.23,3.69.07ZM29,110.11l-26,16v-2.34L25.29,110l3.68.07Zm-13.84-.27L3,117.32V115l8.49-5.22,3.68.07ZM3,150.09l62.92-38.66v2.33L3,152.42v-2.33Zm0,8.34,62.92-38.67v2.34L3,160.76v-2.33ZM7,172.61l58.86-36.18v2.34L10.7,172.68,7,172.61Zm13.15.25,3.68.08,42-25.84v-2.33L20.17,172.86Zm13.15.26,3.68.07,28.88-17.75v-2.33l-32.56,20Zm13.15.26,3.68.07,15.73-9.67v-2.33L46.47,173.38Zm13.15.25,3.68.08,2.58-1.59v-2.34l-6.26,3.85Zm6.26-43.2L3,169.1v-2.33L65.88,128.1Z"/><polygon class="cls-44" points="28.2 173.02 40.65 173.26 40.65 123 34.93 122.91 28.2 122.79 28.2 173.02"/><polygon class="cls-42" points="0 123.26 67.82 124.37 67.82 110.5 39.76 105.03 0 109.01 0 123.26"/><path class="cls-43" d="M.08,123.26l3.7.07,28.57-17.56-4.54.45-27.73,17Zm13.91.23,29-17.83,2.89.56L17.69,123.55l-3.7-.06Zm13.92.23,25.94-16,2.89.57L31.6,123.78l-3.69-.06Zm13.91.22,3.7.06,22.06-13.55-2.89-.56-22.87,14Zm13.22.22,3.69.06,9.09-5.58v-2.33L55,124.16ZM15.28,107.48,0,116.87v-2.33l10.75-6.6Z"/><polygon class="cls-44" points="27.34 123.71 40.65 123.92 40.48 106.01 27.34 106.31 27.34 123.71"/><polygon class="cls-40" points="67.82 124.37 85.67 108.84 85.64 95.6 67.82 110.5 67.82 124.37"/><polygon class="cls-45" points="85.67 95.61 29.08 94.22 0 109.01 67.82 110.5 85.67 95.61"/><polygon class="cls-40" points="40.65 123.92 40.65 126.83 63.28 127.28 65.88 127.33 65.88 124.34 63.75 124.3 40.65 123.92"/><polygon class="cls-46" points="40.65 126.83 40.65 123.92 28.2 123.72 28.2 126.58 40.65 126.83"/><polygon class="cls-40" points="28.2 126.58 28.2 123.72 27.34 123.71 2.96 123.31 2.96 126.08 28.2 126.58"/><polygon class="cls-46" points="74.01 105.33 74.07 118.93 80.22 113.58 80.18 100.19 75.5 104.07 74.01 105.33"/><polygon class="cls-46" points="72.9 119.95 72.9 162.84 78.97 153.39 78.97 114.66 74.07 118.93 72.9 119.95"/><polygon class="cls-47" points="78.97 114.66 78.97 118.66 83.52 114.92 83.48 110.75 80.22 113.58 78.97 114.66"/><polygon class="cls-48" points="78.97 118.66 78.97 114.66 74.07 118.93 72.9 119.95 72.9 123.64 78.97 118.66"/><polygon class="cls-47" points="72.9 123.64 72.9 119.95 67.82 124.37 65.88 124.34 65.88 127.33 68.48 127.27 72.9 123.64"/><polygon class="cls-49" points="79.78 100.17 56.05 99.2 62.96 95.05 51.36 94.77 45.88 98.09 23.13 97.25 13.61 102.09 37.65 103.03 33.6 105.61 32.7 106.19 27.34 109.61 40.52 109.9 46.46 106.33 49.48 104.52 73.09 105.3 74.01 105.33 80.18 100.19 79.78 100.17"/><polygon class="cls-41" points="67.82 116.31 74.06 116.78 74.07 118.93 67.82 118.64 67.82 116.31"/><polygon class="cls-41" points="74.03 109.38 69.73 108.9 68.03 110.32 67.82 110.5 74.03 111.03 74.03 109.38"/><polygon class="cls-41" points="80.21 110.39 80.22 111.64 82.22 111.84 82.48 111.61 83.48 110.75 84.15 110.17 83.47 110.11 80.21 109.86 80.21 110.39"/><polygon class="cls-41" points="85.67 105.17 85.66 102.91 83.4 102.66 80.19 102.32 80.19 104.59 83.42 104.93 85.67 105.17"/><path class="cls-43" d="M12.21,107.79,11.77,103l-3.51,1.78.32,3.34.1,1,3.67.08-.14-1.49ZM76.35,100l-1.29-4.68-4.1-.1,1.39,4.62,4,.16Zm-10.65,5-3.78-.13,1.67,4.74.26.74,2.52,0,1.14,0,.07,0-.25-.72-1.63-4.67ZM60,99.36l3.83.16-1.43-4.1-3.13,1.87L60,99.36Zm-8.43,5.23-2-.07-1.35.81.58,1.44,1.34,3.34,3.67.08L53,108.31l-.3-.76-1.16-3Zm-7.71-10,1.4,3.48.67,0,2.5-1.51-.75-1.9-3.82-.09Zm-13.12-.33,1,3.31,2.91.11-1-3.34-2.93-.08Zm5.73,9.55-.26-.84-2.85-.11.68,2.5,2.43-1.55Zm-10.93,2.65-.81-3.94-3.5-.13.81,4.42.48,2.69,3.67.08-.43-2.07Z"/><path class="cls-46" d="M63.22,72.52c3.06,13.37-4.4,24.54-16.15,30.52l-.37-5c5.45-2.82,16.39-12.47,8.62-18.25l3.29-5.87Z"/><path class="cls-49" d="M44.73,102.33s1-28.07,6.05-30.46a13.39,13.39,0,0,1,12.44.65c-5.66,2.3-15.85,22.7-16.15,30.52Z"/><path class="cls-48" d="M63.64,75.17a24.53,24.53,0,0,0-.42-2.65c-2,.81-4.59,3.91-7.09,7.91a6.47,6.47,0,0,1,1.4,1.89A54.19,54.19,0,0,1,63.64,75.17Z"/><path class="cls-50" d="M50,101.18a42,42,0,0,1,1.35-6.32,29.49,29.49,0,0,1-3,2.21,24.61,24.61,0,0,0-1.25,6A27,27,0,0,0,50,101.18Z"/><path class="cls-46" d="M77.67,91.73c-7,11.82-20.05,14.83-32.7,11.11l3.18-3.91c5.9,1.7,20.49,2.18,18.8-7.35l6.41-2Z"/><path class="cls-49" d="M43.76,100.73s20-19.73,25.3-18a13.45,13.45,0,0,1,8.61,9C72,89.52,50.55,97.37,45,102.84Z"/><path class="cls-48" d="M76.15,94c1-1.32,1.52-2.22,1.52-2.22-2-.79-6-.3-10.6.89A6.15,6.15,0,0,1,66.79,95,53.79,53.79,0,0,1,76.15,94Z"/><path class="cls-48" d="M48.37,103.5a40.91,40.91,0,0,1,5.32-3.67A30.07,30.07,0,0,1,50,99.37a24.63,24.63,0,0,0-5,3.47A25.33,25.33,0,0,0,48.37,103.5Z"/><path class="cls-46" d="M27.48,72.52C24.42,85.89,31.88,97.06,43.64,103L44,98c-5.46-2.82-16.4-12.47-8.63-18.25L32.1,73.89Z"/><path class="cls-49" d="M46,102.33s-1-28.07-6-30.46a13.41,13.41,0,0,0-12.45.65c5.67,2.3,15.85,22.7,16.16,30.52Z"/><path class="cls-48" d="M27.07,75.17a26.56,26.56,0,0,1,.41-2.65c2,.81,4.59,3.91,7.09,7.91a6.25,6.25,0,0,0-1.39,1.89A55,55,0,0,0,27.07,75.17Z"/><path class="cls-50" d="M40.71,101.18a39.69,39.69,0,0,0-1.35-6.32,30.62,30.62,0,0,0,3,2.21,24.22,24.22,0,0,1,1.26,6A26.35,26.35,0,0,1,40.71,101.18Z"/><path class="cls-46" d="M13,91.73c7,11.82,20,14.83,32.69,11.11l-3.18-3.91c-5.89,1.7-20.48,2.18-18.8-7.35l-6.41-2Z"/><path class="cls-49" d="M47,100.73S27,81,21.65,82.72a13.4,13.4,0,0,0-8.61,9c5.7-2.21,27.11,5.64,32.69,11.11Z"/><path class="cls-48" d="M14.56,94A26.78,26.78,0,0,1,13,91.73c2-.79,6-.3,10.59.89A6.15,6.15,0,0,0,23.91,95,53.67,53.67,0,0,0,14.56,94Z"/><path class="cls-48" d="M42.34,103.5A41.6,41.6,0,0,0,37,99.83a32.4,32.4,0,0,0,3.71-.46,24.13,24.13,0,0,1,5,3.47A25.35,25.35,0,0,1,42.34,103.5Z"/></g></g></g></svg>