<svg xmlns="http://www.w3.org/2000/svg" viewBox="0 0 130.92 144.23"><defs><style>.cls-1{fill:#fff;stroke:#fff;stroke-linecap:round;stroke-linejoin:round;stroke-width:2px;}.cls-2{fill:#ffc17a;}.cls-3{fill:#ff9d5e;}.cls-4{fill:#ff9d5f;}.cls-5{fill:#008948;}.cls-6{fill:#007a3c;}.cls-7{fill:#008848;}.cls-8{fill:#ffc07a;}.cls-9{fill:#ff9e63;}.cls-10{fill:#ffa867;}.cls-11{fill:#fd9156;}.cls-12{fill:#ff9f63;}.cls-13{fill:#00b363;}.cls-14{fill:#007a3d;}.cls-15{fill:#008849;}.cls-16{fill:#1b1213;}.cls-17{fill:#352c2d;}.cls-18{fill:#1e1314;}.cls-19{fill:#161c26;}.cls-20{fill:#ff9b5d;}.cls-21{fill:#00b362;}.cls-22{fill:#008846;}.cls-23{fill:#de7d46;}.cls-24{fill:#5e2c19;}.cls-25{fill:#fafaf9;}.cls-26{fill:#1e1414;}.cls-27{fill:#1d1616;}.cls-28{fill:#ff9e5f;}.cls-29{fill:#ffac6d;}.cls-30{fill:#ffaa6c;}.cls-31{fill:#eae3de;}.cls-32{fill:#ffcf83;}.cls-33{fill:#643421;}.cls-34{fill:#1f6a16;}.cls-34,.cls-35,.cls-36,.cls-37,.cls-38,.cls-39,.cls-40,.cls-43,.cls-44{fill-rule:evenodd;}.cls-35{fill:#238712;}.cls-36{fill:#35a423;}.cls-37{fill:#17540e;}.cls-38{fill:#efcc41;}.cls-39{fill:#edb535;}.cls-40,.cls-41{fill:#e3a01b;}.cls-42{fill:#f7f7f4;}.cls-43{fill:#c67a11;}.cls-44{fill:#f2f2e9;}</style></defs><g id="Capa_2" data-name="Capa 2"><g id="Layer_1" data-name="Layer 1"><path class="cls-1" d="M74,24.94c2.36-2.48,3-4.37,4.77-8.71.52-1.29,2.31-6.65,2.42-7h0c.34-.41.91-2.5,1.18-3,.35-.84.59-1.77-.27-2.37a2.15,2.15,0,0,0-2.65.3c-1.25.92-2.63,1.56-5.21,3.48-1.5,1.12-2.74.9-4.26.33-2.35-.87-15.49-5-18.61-6.12C44.85-.4,37.15,2,33.3,7.18c-1-.45-1.75-.79-2-.87a2.39,2.39,0,0,0-3.06,1.28c-1.26,2.77-2.41,5.59-3.72,8.33a65.46,65.46,0,0,1-3.09,6.5c-1.88.33-3.84.29-5.8,1.07,1.44.86,3,1.08,4.2,2.29-3.1.6-11.44,5.52-14.35,10.46-1,1.72-2.12,3.4-2.34,5.47,0,.51-.06.83.58.72,3-.54,5.93-1.06,8.89-1.59l5.53-.63L17,42.51c-.3.62-1.17,1.28-.83,1.82s1.38.07,2,0a40.55,40.55,0,0,0,6-.48c-.21.21-.27.51-.15,1,.92,3.94,1.83,7.88,2.53,11.86.27,1.56,1.48,7.79,1.55,8.56.29,3.2,1.41,5.8,4.68,7.07a50.78,50.78,0,0,0,7.72,2.76c3.76.79,7.46.48,10.53-2.29h0a4.23,4.23,0,0,0,1.38-1h0c.77.41.56,1.34,1,1.9h0l0,.54a2.15,2.15,0,0,0,.44,1.4c0,.1,0,.21,0,.31h0c-.8.09-.36,1.21-1.1,1.35l-.26-.08c-.24-.14-.45-.45-.79-.19-.77.35-.88,1.16-1.25,1.79h0a2.27,2.27,0,0,0-1.21.57c-3.92,2.53-7.34,5.7-11,8.53-1.95,1.5-1.91,1.56-.6,3.73l-8.45,6h0a5.44,5.44,0,0,1-3.18.09c-1.09-.21-2.26-1.43-3.16-2.26-.19-.26-.44-.49-.61-.75-2.6-3.89-5.26-7.74-7.9-11.6h0c.16-.22.67-1.51.84-1.73a27.27,27.27,0,0,0,.21-7,1.43,1.43,0,0,0-1.81-.52c-.72.27-.65.91-.65,1.51s0,1.27,0,1.91c-.46.19-.93.33-1.35-.1h0C10.43,75,9.25,72.78,8.05,70.61a1.2,1.2,0,0,0-1.86-.41c-.76.43-.4,1-.12,1.5a32.64,32.64,0,0,1,2.1,4.23c-.1.41-.32.11-.5.08a43,43,0,0,1-2.89-4.34c-.47-.68-.86-1.51-1.9-.77s-.51,1.41,0,2.1c.61.88,2.69,3.88,3.13,4.44a38.66,38.66,0,0,1-3.32-3.33c-.31-.32-.67-.51-1-.17s-.63.69-.33,1.18a10.68,10.68,0,0,0,.7,1A26.82,26.82,0,0,0,4.45,79c.09.08.13.13.14.17L4.4,79c-.69-.47-1.26-1.18-2.18-1.29-.55,0-2.29.28-.27,2.1A33.38,33.38,0,0,1,6.47,83.1C7.6,84,9.22,84.38,10,85.39c2.07,2.79,8.42,12.25,9,13.3a9.22,9.22,0,0,0,13.55,2.79,66.3,66.3,0,0,1,7-4.86c.47-.25,1-.47,1.12-1a1.73,1.73,0,0,0,.9,1.1l1.05,1.14c.1.18.2.36.31.53a.53.53,0,0,0,.8,0l1.73-1.57c.65-.37,4.4-4.08,5-4,.87.15,3.59,10.38,4.66,12.51l2.52-3h0c.29-.38.8-.58.93-1.09h0a11.82,11.82,0,0,0,2.24-2.39h0c1.14-1.08,2.26-2.18,3.43-3.23,2.42-2.15,4.87-4.27,7.31-6.4h0l2.56-1.84h0l6.14-4.21h0l1.66-.88a1.36,1.36,0,0,0-.32-1c-1.76-2.74-3.6-5.43-5.23-8.25-2-3.5-4.79-5.33-9-4.55h0c-1.22.11-2.39.3-3,1.53l-1.65.6h0l-.84-2.88c0-1-.76-1.77-.69-2.77l-.18-.8h0l1-.84c.79-1.13,2-1.92,2.61-3.22.91-2.34.1-3.33.94-4,2-1.07,4-2.12,6-3.2,1.18-.64,2.53-1.05,3.23-2.35h0a1.83,1.83,0,0,0,.55-.37,7.7,7.7,0,0,0,1.44-6.09c-.42-2.28-2.33-11.22-2.33-11.22-.14-.33-.27-.66-.4-1h0c.34.1,1.48-2.7,1.59-3.31.2-1,.28-2.09-1-2.52h0l-.73-.4C73.89,25.45,73.76,25.17,74,24.94ZM60.29,51.8l.61,1.86-.06,0A5.11,5.11,0,0,1,60.29,51.8Zm-36,45.75a6.64,6.64,0,0,0,.9.59A4,4,0,0,1,24.32,97.55ZM52.44,82.17l0,0h0S52.44,82.15,52.44,82.17ZM54,75.59ZM14.43,83.05c0-.19,0-.38,0-.57l.1-.16a4,4,0,0,0-.14.73Zm51.2-10.72h0v0Z"/><path class="cls-2" d="M62.08,63.24l-1,.84A5.11,5.11,0,0,1,60,65.44c-2,1.78-3.88,3.63-6,5.29a5.38,5.38,0,0,1-1.51.85,4.23,4.23,0,0,1-1.38,1,11.25,11.25,0,0,1-7.87,1.7,33.2,33.2,0,0,1-6.46-1.82c-1-.39-2.08-.7-3.1-1.12A2.82,2.82,0,0,1,31.92,69q-1.49-9-3.45-17.93a9.41,9.41,0,0,1-.19-2.59,3.78,3.78,0,0,1,3.35-3.76,46,46,0,0,0,13.66-4.43c2.34-1.24,4.7-2.48,6.94-3.9,1.79.06,3.11,1.21,4.58,2,.13.78.39,1.53.49,2.32a3.78,3.78,0,0,0,.46,1.46,3.11,3.11,0,0,1,.3,1.37,4.9,4.9,0,0,0,.63,2.3c.64,1.84,1.17,3.72,1.63,5.62a5.19,5.19,0,0,0,.57,2,1.77,1.77,0,0,0,1.39-1.77c-.11-3.53,2.15-6.08,3.47-9A14.46,14.46,0,0,0,66.67,41c1.31-2.66,2.67-5.3,4-7.93.23-.44.39-.94,1-1.08,1.08,0,1.46.78,1.79,1.62a30.67,30.67,0,0,1,1,4q.9,3.66,1.63,7.37a6.81,6.81,0,0,1-1.19,5.48c-.7,1.3-2.05,1.71-3.23,2.35-2,1.08-4,2.13-6,3.2-.84.7,0,1.69-.94,4C64.1,61.32,62.87,62.11,62.08,63.24Z"/><path class="cls-3" d="M52.34,36.55c-1.29,1.34-3.05,1.93-4.61,2.85a46.59,46.59,0,0,1-11.65,4.84c-1.22.33-2.49.52-3.73.78-3.2.67-4.29,2.22-3.62,5.43.61,2.9,1.28,5.77,1.83,8.68.62,3.25,1.14,6.52,1.69,9.79A2.32,2.32,0,0,0,33.88,71c3.59,1.28,7.1,2.85,11,3a15.57,15.57,0,0,0,6.31-1.42c-3.07,2.77-6.77,3.08-10.54,2.28a51,51,0,0,1-7.71-2.75c-3.27-1.27-4.39-3.87-4.68-7.07-.07-.77-1.28-7-1.55-8.56-.7-4-1.61-7.92-2.53-11.86-.2-.84.05-1.14.74-1.35a.83.83,0,0,1,.55-.36c4.39-.63,8.82-1,13.09-2.24a56.15,56.15,0,0,0,10.81-4.34A4,4,0,0,1,51,35.69C51.53,35.82,52.25,35.69,52.34,36.55Z"/><path class="cls-4" d="M10,85.22c-.75-1-2.37-1.41-3.5-2.29A33.38,33.38,0,0,0,2,79.62c-2-1.82-.28-2.05.27-2.1.92.11,1.49.82,2.18,1.29a1.12,1.12,0,0,0,.19.15s0-.09-.14-.17A26.82,26.82,0,0,1,2,75.91a10.68,10.68,0,0,1-.7-1c-.3-.49,0-.88.33-1.18s.74-.16,1.05.17A38.66,38.66,0,0,0,6,77.27c-.44-.56-2.52-3.56-3.13-4.44-.49-.7-1-1.41,0-2.1s1.44.09,1.91.77a41.8,41.8,0,0,0,2.89,4.33c.18,0,.4.34.5-.08a33.16,33.16,0,0,0-2.1-4.22c-.28-.54-.64-1.07.12-1.51a1.21,1.21,0,0,1,1.86.42c1.2,2.17,2.38,4.35,3.57,6.52a.78.78,0,0,1-.11.88c-1.53,2.34-1.28,3.14,1.27,4,.27.09-.06,1.06.71.46a.7.7,0,0,1,1,0l0,.57a2.11,2.11,0,0,1-1.18,1.43c-.81.38-.76.84-.33,1.52,2.53,4,5.13,7.92,7.93,11.72a9.15,9.15,0,0,0,1.51,1.6c2.73,2.34,5.16,2.44,8.11.41C32.79,98,35,96.34,37.26,94.8a5.34,5.34,0,0,1,2.27-1.22,2.14,2.14,0,0,1,1.27,1.56c0,.79-.63,1-1.19,1.3a69.41,69.41,0,0,0-7,4.86,9.21,9.21,0,0,1-13.55-2.78C18.44,97.47,12.09,88,10,85.22Z"/><path class="cls-2" d="M39.48,93.74c-3,2.08-6,4.13-9,6.26s-6.28,1.77-9-1.23a71.94,71.94,0,0,1-6.35-8.94c-.95-1.44-1.87-2.91-2.87-4.32-.46-.65-.32-1,.34-1.23a5.77,5.77,0,0,0,1.84-1.4c2.64,3.86,5.3,7.71,7.89,11.6.32.47.91.82.89,1.5a4.2,4.2,0,0,0,4.24,2.37c1.57,0,2.51-1.19,3.66-1.95,1.92-1.29,3.78-2.68,5.67-4,.41-.28.79-.64,1.36-.51C39,92.25,39.63,92.71,39.48,93.74Z"/><path class="cls-2" d="M61.93,67.65l.84,2.88a1.75,1.75,0,0,1,.21,2c-.9,2.45-4.72,5-7.37,4.9-1.35,0-1.6-.31-1.59-1.74l0-.31c-.21-.45-.05-1-.44-1.4l0-.54c2.17-2.57,4.67-4.81,7-7.25.5-.52.78-.24.94.29A6.42,6.42,0,0,0,61.93,67.65Z"/><path class="cls-5" d="M37.78,91.43c-1.31-2.18-1.35-2.23.6-3.73,3.69-2.83,7.11-6,11-8.53a2.27,2.27,0,0,1,1.21-.57c.34-.18.69-.14.82.19a9.22,9.22,0,0,1,1.17,3.12c-2.87.64-4.9,2.65-7.07,4.42-2,1.61-3.85,3.35-5.87,4.91a2.16,2.16,0,0,1-1.32.65C38.09,91.82,37.85,91.73,37.78,91.43Z"/><path class="cls-6" d="M52.49,82a19.75,19.75,0,0,1-1.19-3c-.06-.3-.41-.31-.68-.36.37-.64.48-1.44,1.25-1.79.34-.26.55,0,.79.19l.26.08c.18.82.55,1.59.78,2.4a4.53,4.53,0,0,0,.18.89,4.16,4.16,0,0,0,.57,1.18c2,4.59,3.59,9.3,5.39,14a10.63,10.63,0,0,1,1,3.25,11.82,11.82,0,0,1-2.24,2.39c-1.4-3.84-2.71-7.71-4.05-11.57-.69-2-1.41-3.94-2.09-5.92C52.31,83.11,52,82.55,52.49,82Z"/><path class="cls-7" d="M53.42,79.55c-.07-.84-1.1-1.49-.5-2.47.74-.14.3-1.26,1.1-1.35.62,1.42,1.11,1.62,2.77,1.2a8.59,8.59,0,0,0,5.35-3.61,3.67,3.67,0,0,0,.63-2.79l1.66-.6c1.53,0,1.24,1.23,1.39,2.16a4.16,4.16,0,0,0-2.24,2.2,7.91,7.91,0,0,1-7.23,4.57,3.4,3.4,0,0,0-1.81.49C54.21,79.57,53.86,79.86,53.42,79.55Z"/><path class="cls-4" d="M61.93,67.65c-.59-.28-.38-1-.86-1.47l-5.82,5.95a4.15,4.15,0,0,1-1.67,1.35c-.48-.56-.27-1.5-1-1.9l8.52-7.5.18.8C61.17,65.88,62,66.66,61.93,67.65Z"/><path class="cls-8" d="M14.52,82.31c-.8,0-1.37.87-2.27.6,0-.53.77-.39.62-.92-1.12-.21-2.08-.58-2.29-1.91a2.61,2.61,0,0,1,1.05-2.35c.38-.37.87-.19,1.25-.41.56-.3.38-.84.44-1.3s-.11-1.16.32-1.65c1.14-.31,1.41-.16,1.43,1,0,1.91-.11,3.82-.1,5.73a1.23,1.23,0,0,1-.14.73Z"/><path class="cls-9" d="M14.48,82.88c0-.2.34-1.48.33-1.68-.2-2,.06-4,0-6,0-1.15-.16-1.22-1.24-.59-.25,1,.47,2.17-.63,3a.33.33,0,0,1,0-.5c0-.64.05-1.28.05-1.92s-.07-1.23.65-1.5a1.43,1.43,0,0,1,1.81.52,27.27,27.27,0,0,1-.21,7C15.15,81.37,14.64,82.66,14.48,82.88Z"/><path class="cls-10" d="M37.78,91.43l.46.34a.19.19,0,0,1-.06.27c-1.41.3-2.33,1.39-3.46,2.13-1.85,1.23-3.59,2.6-5.39,3.9a2.16,2.16,0,0,1-1.77.56c.07-.7.81-.42,1.12-.77Z"/><path class="cls-11" d="M13,77.06l0,.5a2.06,2.06,0,0,0-2.16,2,1.88,1.88,0,0,0,1.73,2.19c.11,0,.21.16.31.24-1,0-2-.11-2.37-1.18a2.5,2.5,0,0,1,.7-3.06,1.17,1.17,0,0,0,.47-.79C12.09,77.39,12.56,77.25,13,77.06Z"/><path class="cls-12" d="M29.33,97.4c-.17.55-1.48.85-1.77,1.23a6,6,0,0,1-5.11-3.87c.93.72,2.38,2.47,3.7,2.73A5.44,5.44,0,0,0,29.33,97.4Z"/><path class="cls-4" d="M53.62,74c.77.27.38.91.44,1.4A2.15,2.15,0,0,1,53.62,74Z"/><path class="cls-13" d="M71.56,32.14c-1.3,2.61-2.6,5.23-3.91,7.83a9.05,9.05,0,0,1-.78,1.09c-2.73-1.51-5.63-2.67-8.47-3.92-4.07-1.79-8.08-3.69-12.13-5.51-4.46-2-9-4-13.38-6.1-.37-.18-.74-.35-1.11-.54-1.15-.62-1.27-1-.73-2.2,1.65-3.67,3.37-7.32,5-11a4.8,4.8,0,0,1,.77-1.29,2.71,2.71,0,0,1,2-1.06c1.84.16,3.3,1.3,5,1.93,2.42,1.28,5,2.21,7.49,3.37,7.09,3.29,14.25,6.46,21.36,9.7a3.49,3.49,0,0,1,1.34,1.12l.73.4a.4.4,0,0,1,.09.49C74,28,73.4,29.67,72.6,31.24,72.38,31.7,71.93,31.87,71.56,32.14Z"/><path class="cls-14" d="M43.7,11.57a14,14,0,0,1-3.22-1.34,4,4,0,0,0-1.66-.48c-1.63-.84-3.42-1.34-5-2.26-.19-.11-.41-.18-.51-.41C37.12,1.82,44.87-.58,51.41,1.67,54.53,2.75,67.67,6.92,70,7.79c1.52.57,2.76.79,4.26-.33,2.58-1.92,4-2.56,5.21-3.48a2.17,2.17,0,0,1,2.65-.31c.86.61.62,1.53.27,2.38-.27.5-.84,2.6-1.18,3-.2-.36-.23-.91-.85-.22-1.29,1.42-2.56,2.86-3.85,4.29a5.38,5.38,0,0,1-4,1.79,29.58,29.58,0,0,1-7.61-1A101.71,101.71,0,0,1,52.13,10.4a5.24,5.24,0,0,0-5.5,1A2,2,0,0,1,43.7,11.57Z"/><path class="cls-15" d="M38.82,9.28s0,.31,0,.47a2.59,2.59,0,0,0-2.34,1.83c-1.67,3.93-3.46,7.81-5.29,11.66-.34.7-.15,1,.56,1.34q4.74,2.25,9.56,4.33c4,1.72,7.88,3.67,11.84,5.48q6.43,2.94,12.92,5.79c.46.2.85.29.8.88A2.34,2.34,0,0,1,66,42.72,4,4,0,0,1,63.46,42c-1.94-.93-3.92-1.75-5.88-2.62-.33-.15-.68-.28-.81-.68l-4.43-2.11-1.41-.69c-1.2.23-2.11-.52-3.08-1-6.49-3-13-5.86-19.52-8.85-1.82-.87-3.65-1.69-5.47-2.56-.56-.26-1.38-.34-1.39-1.24a65.46,65.46,0,0,0,3.09-6.5C25.87,13,27,10.19,28.28,7.42a2.39,2.39,0,0,1,3.06-1.28C32.05,6.34,36.9,8.73,38.82,9.28Z"/><path class="cls-15" d="M43.7,11.57a2.19,2.19,0,0,0,2.67-.47c2-1.86,4.3-1.76,6.71-.82A91.23,91.23,0,0,0,65.44,13.7a23,23,0,0,0,7,.85,5.22,5.22,0,0,0,3.72-1.61c1.62-1.69,2.88-3.75,5-5.17,0,.52,0,.9,0,1.29s-1.9,5.71-2.42,7C77.06,20.4,76.4,22.29,74,24.77c-.23.23-.1.51-.1.77-3.17-1.58-6.39-3-9.64-4.42s-6.62-3.07-9.95-4.56-6.36-3.07-9.7-4.25A1.48,1.48,0,0,1,43.7,11.57Z"/><path class="cls-16" d="M21.47,22.25c1.7,1.31,3.81,1.82,5.67,2.84.43.24.89.43,1.34.65-.29.88-1.17.93-1.82,1.22A26.28,26.28,0,0,0,14,38.35c-.43.78-.43,1.81-1.33,2.32-3,.53-5.93,1-8.89,1.59-.64.11-.63-.21-.58-.72.22-2.07,1.33-3.75,2.34-5.47,2.91-4.94,11.25-9.86,14.35-10.46-1.16-1.21-2.76-1.43-4.2-2.29C17.63,22.54,19.59,22.58,21.47,22.25Z"/><path class="cls-5" d="M72.35,31.29a32.52,32.52,0,0,1,2.32-5.35c1.33.43,1.25,1.48,1,2.52-.11.61-1.25,3.4-1.59,3.31A1.71,1.71,0,0,1,72.35,31.29Z"/><path class="cls-17" d="M12.65,40.67c2.24-6,6.54-10.13,12.06-13.17,1.22-.67,2.59-1,3.77-1.76,3.17,1.45,6.34,2.92,9.53,4.34,3.56,1.6,7.14,3.16,10.71,4.75.75.33,1.47.69,2.21,1-7.85,4.64-16.45,6.67-25.44,7.34-.54-.06-1.09-.47-1.62,0h0a17.87,17.87,0,0,1-4.44.22c-1.51-.08-1.66-.37-1-1.74.3-.61.92-1.27-.24-1.67Z"/><path class="cls-18" d="M18.18,40a5.06,5.06,0,0,1,.93-.23c.56,0,.76.13.4.71-.47.76-.85,1.57-1.38,2.55,2,.06,5.51.09,7.36.14-1.77.89-4.24.7-7.22.9-.67.12-1.64.69-2.05,0s.53-1.2.83-1.82Z"/><path class="cls-19" d="M23.87,43.24c.52-.93,1.07-.25,1.62,0l-.6.09Z"/><path class="cls-20" d="M72.35,31.29a2.33,2.33,0,0,1,1.78.48l.39,1S76.44,41.7,76.86,44a7.7,7.7,0,0,1-1.44,6.09,1.83,1.83,0,0,1-.55.37c.14-1.21.85-2.24.94-3.5A18.39,18.39,0,0,0,75,41.58c-.58-2.59-1.06-5.22-1.81-7.79-.25-.86-.64-1.49-1.58-1.65A1.81,1.81,0,0,1,72.35,31.29Z"/><path class="cls-21" d="M38.18,92l.06-.27c2.53-1.49,4.54-3.61,6.78-5.46a41.07,41.07,0,0,1,6.19-4.44.89.89,0,0,1,1.28.13c-.07,1.24.63,2.27,1,3.37,1.1,3.4,2.36,6.74,3.55,10.1.44,1.24.86,2.48,1.34,3.7a3.24,3.24,0,0,1,.27,2c-.13.51-.64.71-.93,1.09-1,.29-1-.56-1.25-1.08-1.27-3-2.4-6-3.64-9.06-.52-1.27-1.07-2.53-1.61-3.8-.12-.27-.15-.73-.56-.66s-.45.52-.34.8c.71,1.77-.52,2.7-1.56,3.72-1.56,1.55-3,3.2-4.58,4.75-.4.39-.75,1-1.48.78l-1-1.14a1.73,1.73,0,0,1-1-1.26,4.93,4.93,0,0,0-1.2-1.55A4.35,4.35,0,0,0,38.18,92Z"/><path class="cls-5" d="M42.68,97.69c1.85-1.23,3-3.14,4.67-4.58.61-.54,1.1-1.21,1.7-1.76.83-.76,1.57-1.47.85-2.75a1.1,1.1,0,0,1,.25-1.27c.46-.44.83-.7,1.18.18,1.82,4.61,3.7,9.18,5.53,13.78.18.45.28.87.84.95l-2.52,3c-1.07-2.13-3.79-12.36-4.66-12.51-.6-.1-4.35,3.61-5,4l-1.73,1.57a.53.53,0,0,1-.8,0Z"/><path class="cls-14" d="M65.71,72.17c-.49-.71-.15-1.9-1.28-2.24.65-1.24,1.82-1.43,3-1.53-.21.69-.21.69-1.07.56-.15-.11,0,.32,0,.13s0,0,.12,0c1,.56.61,1.83,1.33,2.53,2.16,4.82,4.06,9.75,6.11,14.61a2.28,2.28,0,0,1,.23,1.06l-2.56,1.83c-.88-.48-.87-1.46-1.14-2.23-1.49-4.4-3.17-8.73-4.65-13.14A2,2,0,0,1,65.71,72.17Z"/><path class="cls-22" d="M67.63,71.67c-.88-2.11-.92-2.38-1.6-2.6.44-.43,1.29.18,1.44-.67,4.16-.78,6.92,1,9,4.55,1.63,2.82,3.47,5.51,5.23,8.25a1.36,1.36,0,0,1,.32,1l-1.66.88c-1.24-.76-1.63-2.15-2.35-3.27-1.33-2.07-2.61-4.17-3.91-6.26a6.12,6.12,0,0,0-4.36-2.78A1.68,1.68,0,0,0,67.63,71.67Z"/><path class="cls-13" d="M65.71,72.17l5.9,17c-2.44,2.14-4.89,4.26-7.31,6.41-1.17,1-2.29,2.15-3.43,3.23-1-1.4-1.33-3.13-2-4.7-1.65-4-3.12-8.12-4.66-12.18a18.53,18.53,0,0,1-.82-2.33c1.46-1.35,3.42-.93,5.13-1.42a7.7,7.7,0,0,0,4.94-4.43C63.93,72.81,64.27,71.67,65.71,72.17Z"/><path class="cls-13" d="M67.63,71.67c-.22-.55-.39-1,.51-1.15a6.54,6.54,0,0,1,6.06,2.54q3.06,5,6.11,10l-6.14,4.21a37.51,37.51,0,0,1-2.53-5.68c-1.36-3.06-2.61-6.17-3.9-9.27A2.41,2.41,0,0,1,67.63,71.67Z"/><path class="cls-17" d="M56.77,38.66C59.93,39.83,63,41.32,66,42.72c-1,1.94-1.87,3.89-2.86,5.81a3.14,3.14,0,0,0-.4,2.11c.35,1.6-.72,2.62-1.57,3.55C61.18,54.19,56.25,39.43,56.77,38.66Z"/><path class="cls-23" d="M73.62,45.93c.07,2.14-1.41,3.28-3.2,4.18-1,.48-2,.94-2.91,1.47-.64.36-.74.18-1-.48-.93-2.59.17-4.66,1.4-6.78.91-1.57,1.62-3.25,2.47-4.86.26-.49.45-1.25,1.16-1.19s.93.89,1,1.48C72.74,41.79,73.68,43.7,73.62,45.93Z"/><path class="cls-24" d="M51.64,64.37A8.55,8.55,0,0,1,41.06,69c-2.74-1-3.05-1.86-3.51-3.15.62-.91,2,.81,2.69.58h.4a3.63,3.63,0,0,1,.93-.05,3.86,3.86,0,0,0,1.06.18c.19,0,.28-.08.1,0a.39.39,0,0,1,0-.13.8.8,0,0,1,.46-.54,16,16,0,0,0,8.31-6.63c.18-.28.41-1.33.81-1.22.09-.5.37,1.41.39,1.79A10.1,10.1,0,0,1,51.64,64.37Z"/><path class="cls-25" d="M52.06,58.75c-2,3.69-7.06,8.11-11.33,8l-.1,0c-1.06-.17-2.25.09-3.08-.88-.29-.68-.19-1,.68-1.13A19.25,19.25,0,0,0,46.31,62a21.28,21.28,0,0,0,4.74-4.08c.89-1,1.11-.56,1.28.4A.63.63,0,0,1,52.06,58.75Z"/><path class="cls-26" d="M48.61,44c.57,0,.66.3.74.64.38,1.73.71,3.47,1.2,5.17C50.9,51,50,50.91,49.4,51.14s-1.31.51-1.6-.52c-.49-1.7-1-3.38-1.56-5.06-.09-.28-.23-.54.11-.69C47.14,44.53,48,44.22,48.61,44Z"/><path class="cls-27" d="M30.32,49.63c-.21-.66.18-.83.72-1,2-.72,2.12-.63,2.73,1.3.47,1.5.49,3.06.83,4.57.28,1.23-.27.86-1.28,1.1-.52.12-1,.46-1.13-.33-.15-1-1.45-3.33-1.59-4.6C30.32,49.62,31.24,50.3,30.32,49.63Z"/><path class="cls-28" d="M37.76,57.9c-1.07,1-2.49,1.26-3.68,2-.21.12-.63,0-.56.43s2,.71,2.59.37c1.65-.2,1.65-.2,2.42.27s.8,1.06,0,1.57a4.09,4.09,0,0,1-6-2.17c-.23-.74,0-1,.86-1.26,1.49-.34,3.16-.48,4.1-2C38.14,57.2,38,57.55,37.76,57.9Z"/><path class="cls-29" d="M38.15,53.52c-.26-.9-.49-1.8-.78-2.69a16.61,16.61,0,0,1-.75-2.7C38,49.45,38.08,51.21,38.18,53A.38.38,0,0,1,38.15,53.52Z"/><path class="cls-30" d="M38.15,53.52c0-.19-.34-3.14-.33-3.33C39,53,39,56.57,37.76,57.9c0-.3.07-.61-.24-.82A6.62,6.62,0,0,0,38.15,53.52Z"/><path class="cls-31" d="M30.32,49.63c1.5.43,1.78,1.32,1.53,3.16C30.65,52.28,30.68,50.61,30.32,49.63Z"/><path class="cls-32" d="M13.62,74.59c0-.77.52-.53.9-.51.53,0,.49.45.48.82q-.09,3.15-.19,6.3c-.51-2,0-3.92-.08-5.88C14.72,74.39,14.44,74.15,13.62,74.59Z"/><path class="cls-33" d="M52.34,59.57a2.63,2.63,0,0,1-.06,2.13Z"/><polygon class="cls-34" points="91.58 79.44 124.19 75.51 129.66 136.65 89.8 144.23 50.41 134.47 59.23 73.73 91.58 79.44"/><polygon class="cls-35" points="91.58 79.44 89.8 144.23 50.41 134.47 59.23 73.73 91.58 79.44"/><polygon class="cls-35" points="92.04 62.72 94.44 79.09 91.2 93.37 51.85 85.52 54.26 68.36 92.04 62.72"/><polygon class="cls-34" points="129.46 70.43 91.7 75 91.2 93.37 130.92 87.69 129.46 70.43"/><polygon class="cls-36" points="91.7 75 54.26 68.36 92.04 62.72 129.46 70.43 91.7 75"/><polygon class="cls-37" points="125.66 91.92 125.35 88.49 91.2 93.37 91.09 97.04 125.66 91.92"/><polygon class="cls-34" points="91.2 93.37 57.36 86.62 56.91 89.74 91.09 97.04 91.2 93.37"/><polygon class="cls-38" points="78.29 72.62 91.82 70.54 105.23 73.36 116.12 72.04 100.13 68.14 112.06 66.84 103.97 65.18 91.94 66.12 80 64.52 71.82 65.74 83.66 67.69 67.48 70.7 78.29 72.62"/><path class="cls-39" d="M67,75.09,65.47,88.23l2.27.46,8.72,1.74L77.84,77l.45-4.39L67.48,70.71,67,75.09ZM67.37,92l-5.22,45.41,11.27,2.79L78.2,94.29Z"/><path class="cls-40" d="M104.13,95.11l2.25,46,11.4-2.17-2.7-45.42-11,1.62Zm1.31-17.34.64,13.47L114.87,90l2.3-.33-.79-13.21L116.12,72l-10.89,1.32Z"/><path class="cls-38" d="M120.56,57s-14.75-2-24.3,7.58c-1.35,1.34-3.32,2.57-4.37,4.43l-1.83-3.85c3.5-8.45,12.12-14.83,22.43-15.5C116.36,51.2,117.69,53.24,120.56,57Z"/><path class="cls-41" d="M97.84,62.17l.39-.29Z"/><path class="cls-41" d="M106.17,58.09l.41-.12Z"/><path class="cls-41" d="M107.2,57.81l.38-.1Z"/><path class="cls-41" d="M104.13,58.76l.43-.15Z"/><path class="cls-41" d="M98.87,61.43l.3-.2Z"/><path class="cls-41" d="M103.12,59.16l.43-.17Z"/><path class="cls-41" d="M105.15,58.41l.43-.14Z"/><path class="cls-41" d="M109.52,57.3l.33,0Z"/><path class="cls-41" d="M110.46,57.15l.44-.06Z"/><path class="cls-41" d="M96.89,62.92l.41-.34Z"/><path class="cls-41" d="M108.27,57.56l.29-.07Z"/><path class="cls-41" d="M111.28,57c-1.71,3.93-9.5,6.65-14.71,6.17-.42.37-.84.76-1.25,1.18A22.07,22.07,0,0,0,91.89,69c24.37,3.5,28.67-12,28.67-12A37.55,37.55,0,0,0,111.28,57Z"/><path class="cls-41" d="M102.12,59.61l.41-.19Z"/><path class="cls-41" d="M101.12,60.1c.12-.07.25-.13.38-.19C101.37,60,101.24,60,101.12,60.1Z"/><path class="cls-41" d="M100.13,60.64l.27-.15Z"/><path class="cls-42" d="M100.4,60.49c.24-.13.48-.27.72-.39C100.88,60.22,100.64,60.36,100.4,60.49Z"/><path class="cls-42" d="M97.3,62.58l.54-.41Z"/><path class="cls-42" d="M99.17,61.23c.32-.21.64-.4,1-.59C99.81,60.83,99.49,61,99.17,61.23Z"/><path class="cls-42" d="M96.56,63.2h0l.32-.28Z"/><path class="cls-42" d="M98.23,61.88c.21-.16.43-.3.64-.45C98.66,61.58,98.44,61.72,98.23,61.88Z"/><path class="cls-42" d="M109.85,57.25l.61-.1Z"/><path class="cls-42" d="M101.5,59.91c.2-.1.41-.21.62-.3C101.91,59.7,101.7,59.81,101.5,59.91Z"/><path class="cls-42" d="M107.58,57.71l.69-.15Z"/><path class="cls-42" d="M108.56,57.49l1-.19Z"/><path class="cls-42" d="M111.28,57l-.38.06.38-.06Z"/><path class="cls-42" d="M106.58,58l.62-.16Z"/><path class="cls-42" d="M102.53,59.42l.59-.26Z"/><path class="cls-42" d="M105.58,58.27l.59-.18Z"/><path class="cls-42" d="M103.55,59l.58-.23Z"/><path class="cls-42" d="M104.56,58.61l.59-.2Z"/><path class="cls-43" d="M120,58.41a59.92,59.92,0,0,0-9.53-.07,5.59,5.59,0,0,0,.82-1.31,36.65,36.65,0,0,1,9.28-.06A9.35,9.35,0,0,1,120,58.41Z"/><path class="cls-43" d="M97.33,64.1a25.3,25.3,0,0,0-4.27,5q-.59-.06-1.17-.15a22.07,22.07,0,0,1,3.43-4.59l.35-.36c.29-.28.59-.56.89-.82.36,0,.72,0,1.09,0h.66C98,63.53,97.64,63.81,97.33,64.1Z"/><path class="cls-38" d="M119.6,85c-8.2-14.43-26.54-15.92-26.54-15.92a26.7,26.7,0,0,1,3.07-3.76c8.49-1.65,20.64,3,27,10.32A94.74,94.74,0,0,1,119.6,85Z"/><path class="cls-38" d="M63.88,55.41s14.84-1.17,23.85,8.89C89,65.72,90.9,67.06,91.85,69l2-3.74c-3-8.64-11.28-15.48-21.54-16.72C68.39,49.88,67,51.85,63.88,55.41Z"/><path class="cls-41" d="M82.75,59.39l.37.21Z"/><path class="cls-41" d="M79.76,57.93l.42.17Z"/><path class="cls-41" d="M80.75,58.36l.42.2Z"/><path class="cls-41" d="M77.78,57.18l.4.14Z"/><path class="cls-41" d="M78.77,57.53l.42.16Z"/><path class="cls-41" d="M74.56,56.28l.33.07Z"/><path class="cls-41" d="M73.52,56.06l.43.08Z"/><path class="cls-41" d="M75.83,56.59l.29.08Z"/><path class="cls-41" d="M76.8,56.87l.37.12Z"/><path class="cls-41" d="M81.75,58.85l.4.21Z"/><path class="cls-41" d="M85.91,61.54l.37.31Z"/><path class="cls-41" d="M85,60.84l.29.22Z"/><path class="cls-41" d="M88.67,64.19c-.38-.44-.78-.85-1.18-1.24-5.23.2-12.85-3-14.35-7a36.75,36.75,0,0,0-9.26-.58s3.44,15.71,28,13.56A21.85,21.85,0,0,0,88.67,64.19Z"/><path class="cls-41" d="M86.79,62.29l.39.37Z"/><path class="cls-41" d="M83.81,60l.26.17Z"/><path class="cls-42" d="M76.12,56.67l.68.2Z"/><path class="cls-42" d="M87.5,63l-.32-.29c.11.09.21.19.31.29Z"/><path class="cls-42" d="M83.12,59.6l.69.43Z"/><path class="cls-42" d="M74.89,56.35l.94.24Z"/><path class="cls-42" d="M73.14,56h0l.38.07Z"/><path class="cls-42" d="M77.17,57l.61.19Z"/><path class="cls-42" d="M74,56.14l.61.14Z"/><path class="cls-42" d="M78.18,57.32l.59.21Z"/><path class="cls-42" d="M85.29,61.06l.62.48Z"/><path class="cls-42" d="M86.28,61.85l.51.44Z"/><path class="cls-42" d="M84.07,60.2c.31.2.62.42.93.64C84.69,60.62,84.38,60.4,84.07,60.2Z"/><path class="cls-42" d="M80.18,58.1l.57.26Z"/><path class="cls-42" d="M82.15,59.06l.6.33Z"/><path class="cls-42" d="M81.17,58.56l.58.29Z"/><path class="cls-42" d="M79.19,57.69l.57.24Z"/><path class="cls-43" d="M64.37,56.88a60.44,60.44,0,0,1,9.52.45A5.31,5.31,0,0,1,73.14,56a37,37,0,0,0-9.26-.57A9.41,9.41,0,0,0,64.37,56.88Z"/><path class="cls-43" d="M86.68,63.81a25.13,25.13,0,0,1,4,5.25L91.85,69a21.85,21.85,0,0,0-3.18-4.78c-.1-.12-.21-.25-.33-.37-.27-.3-.56-.59-.84-.87-.36,0-.72,0-1.09,0l-.66,0C86.07,63.2,86.38,63.5,86.68,63.81Z"/><path class="cls-38" d="M63.29,83.49c9-14,27.38-14.43,27.38-14.43a25.68,25.68,0,0,0-2.86-3.92C79.42,63,67,67,60.24,74A98.79,98.79,0,0,0,63.29,83.49Z"/><polygon class="cls-43" points="103.96 91.55 104.13 95.11 115.08 93.49 114.88 89.99 106.08 91.24 103.96 91.55"/><polygon class="cls-40" points="67.36 91.97 78.2 94.28 78.55 90.85 76.46 90.43 67.74 88.69 67.36 91.97"/><path class="cls-44" d="M79.57,101.57c3.27.37,4.62,2.34,4.52,5.41.37-3.27,2.34-4.63,5.4-4.52-3.26-.37-4.62-2.34-4.52-5.4-.37,3.26-2.34,4.62-5.4,4.51Zm-3,28.66c3.8.43,5.38,2.72,5.26,6.29.43-3.8,2.72-5.38,6.29-5.26-3.8-.43-5.38-2.73-5.26-6.29-.43,3.8-2.73,5.38-6.29,5.26Zm-23.06-6.82C56.75,124,58,126,57.73,129c.53-3.2,2.55-4.44,5.57-4.19-3.21-.53-4.45-2.55-4.19-5.57-.53,3.21-2.55,4.45-5.57,4.19Zm1.76-12.92c3.21.53,4.45,2.55,4.19,5.57.53-3.21,2.55-4.45,5.57-4.19-3.21-.53-4.45-2.55-4.19-5.57-.53,3.21-2.55,4.45-5.57,4.19Zm2-11.26c2.75.45,3.82,2.18,3.6,4.78.45-2.76,2.18-3.82,4.78-3.6-2.76-.46-3.82-2.19-3.6-4.78-.46,2.75-2.19,3.82-4.78,3.6Zm20.58,15.7c3.8.43,5.38,2.73,5.26,6.29.43-3.8,2.72-5.38,6.29-5.26-3.8-.43-5.38-2.72-5.26-6.29C83.75,113.47,81.45,115.05,77.89,114.93Z"/><path class="cls-44" d="M102.57,102.2c-3.28.2-4.74,2.09-4.8,5.15-.19-3.28-2.09-4.74-5.15-4.8,3.28-.2,4.74-2.09,4.81-5.15.19,3.28,2.08,4.74,5.14,4.8ZM104,131c-3.82.22-5.52,2.43-5.6,6-.22-3.82-2.43-5.52-6-5.6,3.82-.22,5.52-2.42,5.6-6,.22,3.82,2.42,5.52,6,5.6Zm23.39-5.54c-3.23.36-4.58,2.3-4.49,5.33-.35-3.23-2.3-4.58-5.33-4.49,3.24-.35,4.59-2.3,4.49-5.33.36,3.24,2.3,4.59,5.33,4.49Zm-1-13c-3.23.36-4.58,2.3-4.49,5.33-.35-3.23-2.3-4.58-5.33-4.49,3.23-.35,4.58-2.3,4.49-5.33.36,3.24,2.3,4.59,5.33,4.49Zm-1.39-11.36c-2.77.31-3.93,2-3.85,4.58-.31-2.77-2-3.93-4.58-3.86,2.78-.3,3.94-2,3.86-4.57.3,2.77,2,3.93,4.57,3.85Zm-21.41,14.56c-3.82.22-5.52,2.42-5.6,6-.22-3.82-2.42-5.52-6-5.6,3.82-.22,5.52-2.42,5.6-6C97.75,113.86,100,115.56,103.52,115.64Z"/></g></g></svg>