<svg xmlns="http://www.w3.org/2000/svg" viewBox="0 0 171.6 195"><defs><style>.cls-1{fill:#211c1a;opacity:0.41;}.cls-2{fill:#fff;stroke:#fff;stroke-miterlimit:10;stroke-width:2px;}.cls-3{fill:#ffa03c;}.cls-4{fill:#ff911c;}.cls-5{fill:#ff3f25;}.cls-6{fill:#650200;}.cls-7{fill:#5e0100;}.cls-8{fill:#ff6718;}.cls-9{fill:#e0530c;}.cls-10{fill:#e1510b;}.cls-11{fill:#e1530c;}.cls-12{fill:#e1520b;}.cls-13{fill:#ff5c14;}.cls-14{fill:#ff331b;}.cls-15{fill:#e2520d;}.cls-16{fill:#e1520e;}.cls-17{fill:#c34407;}.cls-18{fill:#f25712;}.cls-19{fill:#f34710;}.cls-20{fill:#ff711b;}.cls-21{fill:#ff7459;}.cls-22{fill:#ed9b1b;}.cls-22,.cls-23,.cls-24,.cls-25,.cls-26,.cls-27,.cls-28,.cls-29,.cls-30,.cls-31{fill-rule:evenodd;}.cls-23{fill:#f4c322;}.cls-24{fill:#f4d368;}.cls-25,.cls-40{fill:#cf3a27;}.cls-26{fill:#d18413;}.cls-27,.cls-42{fill:#ac2917;}.cls-28,.cls-43{fill:#da412c;}.cls-29,.cls-39{fill:#f24731;}.cls-30,.cls-38{fill:#f2f2e9;}.cls-31{fill:#e7e0d2;}.cls-32{fill:none;}.cls-33{fill:#4188b2;}.cls-34{fill:#5aa1cc;}.cls-35{fill:#73ddfd;}.cls-36{fill:#33799e;}.cls-37{fill:#3f83ad;}.cls-41{fill:#f7f7f4;}</style></defs><g id="Capa_2" data-name="Capa 2"><g id="Layer_1" data-name="Layer 1"><polygon class="cls-1" points="27.46 183.51 79.44 195 139.37 181.45 93.12 173.16 27.46 183.51"/><polygon class="cls-1" points="53.14 155.03 107 166.93 171.6 155.64 123.68 147.06 53.14 155.03"/><path class="cls-2" d="M141.25,57.63a1.6,1.6,0,0,0-1.9-1.55c-1.39.07-2.77.25-4.16.33-2.4.15-11.94.94-13.46.92s-2,.7-1.93,2.1h0c-3.43.24-37.73,2.88-41,3.13,0,0,0-.06,0-.09-1-1.15-1-2.59-1-4a6.4,6.4,0,0,0-.44-2.7,3.58,3.58,0,0,0-.31-.45,6.38,6.38,0,0,0-.91-1.73c-.38-.7-.83-1.36-1.28-2a3.4,3.4,0,0,1-.35-1.19c.78,0,22-12.4,25.17-16.17h0c4.17-3.68,3.45-9.77,2.64-11.95h0c-.11-2-3.75-10-4.76-12.41a13.34,13.34,0,0,0-1.73-4.21c-1.37-1.89-1.85-2-4.1-.7-.23.22-1.19.85-.05,2.95h0c.24.88.81,1.61,1.09,2.47a21.07,21.07,0,0,1,1,2.07c.94,2.43,2.7,4.47,3.28,7.06h0c-1.67,2.75-3.39,2.79-5.3.12Q85.94,11.54,80.17,3.46l-.51-.71C79,1.86,78.41.62,77,1.11c-3.36,1.22-3.11,2.82-2.89,4.51.29.39.59.77.89,1.16L85.9,22.05l-.05,0c.93,1.26,1.85,2.53,2.77,3.79h0l.13.28h0a2.77,2.77,0,0,1-4.66,1.79c-3.77-3.12-5.74-5.09-7.37-5.09-.67.07-1.27.25-1.44,1-.48.88-.07,1.55.52,2.18h0c2.44,3.69,5.86,6.57,8.38,10.19,1.17,1.75,1.17,1.75-.59,2.94-.16.1-12.52,8.9-12.52,8.9h0c-.39-.19-.78-.39-1.18-.56-.85-.34-1.61-.66-.41-1.57A1.56,1.56,0,0,0,70,44.5c-.09-1.4-.1-2.8-.24-4.19,0-.38.29-1-.27-1.17s-.74.36-1.06.63l-6.3,5.37c-.82-.17-.89-.92-1.11-1.51s-.44-.86-.93-.25C59,44.92,58.49,46.86,57,48.14a12.38,12.38,0,0,0-5.67,7.25h0c-.37.37-.53.91-1.12,1.09q-4.55,1.44-9.08,2.93c-2.56.85-5.1,1.75-7.65,2.63h0c-.82-2.67-1.31-5.42-2-8.11-.54-2-.66-4.21-1.66-6.12-.1-1.88-.45-2.31-1.84-2.31-1.56,0-1.8,1.06-1.79,2.27,0,1.92.1,3.83.11,5.75,0,1.1.28,2.26-.19,3.28-.83,1.86-3,1.7-4.5-.26h0C21,55.25,15.4,38,14.59,35.63c-.4-3.07-1.49-3.07-2.87-2.91-.5.06-1,.23-1.54.3a2,2,0,0,0-1.82,2.72c.6,2,1.35,4,2,6.07.83,2.68,1.9,5.28,2.5,8,.05.64,1.6,5.55,2,7.14.55,2.11-.21,3-2.34,3.1a1.57,1.57,0,0,0-.49,0l0,0c-1.22-1.56-3.79-6.2-4-6.42a7.53,7.53,0,0,0-1-2.21l-.15-.32a4.23,4.23,0,0,1-.23-.48,2.82,2.82,0,0,0-.26-.49,18.48,18.48,0,0,0-.91-1.62,1.89,1.89,0,0,0-2.84-.74c-1.62.89-2,1.6-1.24,3C2.48,52.88,5,56.91,5,56.91H5c1.17,2,2.52,4,3.48,6.07,2.48,5.4,9,8.73,14.73,8.16,3-.3,5.55-1.64,8.22-2.81,6.14-2.69,12.33-5.27,18.48-7.92a.73.73,0,0,1,.92.1h0c-.3,1.7,1.52,7.26,1.58,7.48.57,2.49,1.46,4.9,2.08,7.38.32.5,1.9,6.68,2.62,9.2,1.35,4.78,9.57,34.88,10.71,36.57.11,0,2.51.13,2.91-.32,1.32.35,4.72-.16,5.35,0,2.13,0,10.21,0,12.08.54a.49.49,0,0,0,.62-.21c.24-1.63-2.35-6.38-2.37-6.48-.09-.67-.92-1.31-.6-1.84s1.23,0,1.89-.09c1.12-.13,1.4-.53.86-1.51a23.9,23.9,0,0,0-1.46-2.15c-.76-1.07-1.54-2.14-2.3-3.22a6.22,6.22,0,0,0-.71-.84,7,7,0,0,0,2.2,1.15,1,1,0,0,0,1.1-.06.8.8,0,0,0,0-1.07c-1.17-1.86-5.76-11.31-6.23-14.4-.16-.76-.2-1.55-.32-2.32-.11-.48,0-2.53.79-2.2s23.25,5.22,31.65,5.58C125.53,91.08,133,84,134,82.81a21.47,21.47,0,0,0,4.76-8.26.9.9,0,0,0,0-.19c1.42-.53,1.78-1.72,1.78-3.13.12-.15.3-.29.33-.46A45.58,45.58,0,0,0,141.25,57.63Z"/><path class="cls-3" d="M88.74,121.17a.49.49,0,0,1-.62.21c-1.87-.52-10-.52-12.08-.54-.66-.19-4.35.39-5.53-.06-1.21-1.35-1.37-3.13-1.75-4.74-1.62-6.89-3.73-13.64-5.71-20.42C60.94,88.41,59,81.17,56.83,74,56,71.18,55,68.42,55.08,65.41a13.14,13.14,0,0,1,3.41-8.48c3.9-4.38,8.8-5.09,14.16-3.91,1.76.38,3.62.95,4.63,2.76a6.4,6.4,0,0,1,.44,2.7c0,1.4,0,2.84,1,4,.38.66,0,1.22-.21,1.81-.68,2,.11,3.38,2.06,4.13s4,.2,5.94.08c5.44-.32,10.89-.71,16.33-1.11s10.68-.9,16-1.22c2.06-.13,4.14-.61,6.22-.13a31.38,31.38,0,0,0,12.48,7.38c.58.17,1.13.39,1.14,1.14A21.47,21.47,0,0,1,134,82.81c-1,1.22-8.47,8.27-20.78,8.91-8.4-.36-31-5.31-31.65-5.58s-.9,1.72-.79,2.2c.12.77.16,1.56.32,2.32.47,3.09,5.06,12.54,6.23,14.4a.8.8,0,0,1,0,1.07,1,1,0,0,1-1.1.06,7.13,7.13,0,0,1-2.2-1.14,5.66,5.66,0,0,1,.71.83c.76,1.08,1.54,2.15,2.3,3.22a23.9,23.9,0,0,1,1.46,2.15c.54,1,.26,1.38-.86,1.51-.66.09-1.52-.52-1.89.09s.51,1.17.6,1.84C86.39,114.79,89,119.54,88.74,121.17Z"/><path class="cls-4" d="M50.79,60.51c0-.51,0-.93.63-1.11a1.53,1.53,0,0,0,1.22-1.29,1.68,1.68,0,0,0-.85-1.53,1,1,0,0,1-.46-1.19A12.38,12.38,0,0,1,57,48.14c1.49-1.28,2-3.22,3.06-4.76.49-.61.71-.34.93.25s.29,1.34,1.11,1.51l6.3-5.37c.32-.27.59-.77,1.06-.63s.23.79.27,1.17c.14,1.39.15,2.79.24,4.19A1.56,1.56,0,0,1,69.48,46c-1.2.91-.44,1.23.41,1.57.4.17.79.37,1.18.56a3.46,3.46,0,0,1,2.37,1.25c.73,1.51,1.82,2.81,2.62,4.27a4.13,4.13,0,0,1,1,2.46c-1.83-2.53-4.62-2.83-7.37-3.15a12.28,12.28,0,0,0-8.35,2,13.2,13.2,0,0,0-5.27,6.9C55,65,55.5,68.1,56.41,71.21q1.73,6,3.48,11.94c1.16,4,2.47,7.93,3.45,12s2.45,7.94,3.43,12,2.25,8.33,3.41,12.49a7,7,0,0,0,.58,1.16c-.18.54-2.86.41-3,.39-1.14-1.69-9.36-31.79-10.71-36.57-.72-2.52-2.3-8.7-2.62-9.2-.62-2.48-1.51-4.89-2.08-7.38C52.31,67.77,50.49,62.21,50.79,60.51Z"/><path class="cls-4" d="M78.52,62.58s37.67-2.89,41.28-3.15c.79-.16,1.08.41,1.38,1a25,25,0,0,0,3.11,4.45c.34.41.79.72.65,1.34-2.17.12-23.16,1.51-25.31,1.75-3.52.4-14.44,1-16.35,1.27a4.19,4.19,0,0,1-3.67-.75c-1.56-.64-2.06-2.51-1.45-4.24C78.34,63.68,78.9,63.23,78.52,62.58Z"/><path class="cls-5" d="M124.94,66.17a33,33,0,0,1-3.51-4.48c-.26-.39-.66-.73-.6-1.29,1.2.37,1.6,1.52,2.2,2.42a2.82,2.82,0,0,0,3,1.33q6-.59,11.93-.85c1.82-.07,2.13.23,2.38,2a22.39,22.39,0,0,1,.21,6c0,1.48-.39,2.73-2,3.21-.48-1-1.57-.77-2.37-1.08A29.66,29.66,0,0,1,124.94,66.17Z"/><path class="cls-5" d="M70.19,76.15c.68,0,.82.64,1.1,1a21,21,0,0,0,3.23,3.74c1.12,1,1.11,1.93,0,2.94-1.81,1.57-4.06,1.15-5.57-1-.68-.95-.32-2.39.83-5.31C69.94,77.09,70,76.6,70.19,76.15Z"/><path class="cls-6" d="M70,56.86a2.6,2.6,0,0,0-1.1,2.32c0,.33,0,.75-.5.74s-.61-.33-.67-.78A4.31,4.31,0,0,1,69.12,56a3.68,3.68,0,0,1,3.79-.74,4.48,4.48,0,0,1,2.58,2.86c.05.4.2,1-.4,1.09s-.66-.42-.79-.83A2.71,2.71,0,0,0,70,56.86Z"/><path class="cls-7" d="M64.73,63.06c-.64.57-1-.26-1.55-.28a2.71,2.71,0,0,0-3.4.68A2.59,2.59,0,0,0,59.67,67c.26.33.69.75.2,1.11s-.89-.16-1.15-.51a3.88,3.88,0,0,1,1.5-5.87A3.15,3.15,0,0,1,64.73,63.06Z"/><path class="cls-8" d="M21.58,56.54a8.94,8.94,0,0,0,1.34,2.21,2.27,2.27,0,0,0,2.79,1,2.23,2.23,0,0,0,1.72-2.4c-.05-2-.07-4-.16-6a10.43,10.43,0,0,1,.13-2.62c.28-1.37,1.25-1.73,2.39-.93,1,1.91,1.12,4.08,1.66,6.12.72,2.69,1.21,5.44,2,8.11,1.37,1.58,3,1.19,4.66.6,4.18-1.48,8.4-2.83,12.6-4.25A3.26,3.26,0,0,1,53,58.18a1.49,1.49,0,0,1-1.22,1.4,1.31,1.31,0,0,0-1,.93.73.73,0,0,0-.92-.1c-6.15,2.65-12.34,5.23-18.48,7.92-2.67,1.17-5.25,2.51-8.22,2.81-5.69.57-12.25-2.76-14.73-8.16-1-2.11-2.31-4-3.48-6.07-.77-1.46-1.64-2.86-2.4-4.33s-.23-2.27,1.57-3.12c1.13-.54,2-.18,2.49,1.18.39,1,1.19,1.89,1.4,3,.17.22,2.74,4.86,4,6.42.91,1.84,1.83,2.44,3,2s1.59-1.34,1-3.46c-1.09-4-2.42-8-3.73-12-.94-2.86-1.83-5.74-2.79-8.59A2.37,2.37,0,0,1,11,34.93a8.46,8.46,0,0,1,2.27-.55c.93-.14,1.07.64,1.35,1.25C15.4,38,21,55.25,21.58,56.54Z"/><path class="cls-8" d="M99.6,34.21h0C96.48,38,75.21,50.4,74.43,50.38c.08,1.31,1.63,3.22,1.63,3.22L73,49.31c.15-.82.85-1.16,1.43-1.57,3.33-2.4,6.67-4.78,10-7.17,1.89-1.35,1.91-1.52.55-3.46a2.35,2.35,0,0,0-.76-.87c-2.52-3.62-5.94-6.5-8.38-10.19.14-1.24.91-1.36,1.9-1.05a11.58,11.58,0,0,1,3.62,2.43c1,.84,2.08,1.61,3.13,2.4,2.13,1.61,3.9,1,4.62-1.59a6.17,6.17,0,0,0,.14-.86c0-.41.15-.85-.32-1.13l-.14-.11-.13-.28c0-.6-.44-1-.61-1.56-4-5.57-7.83-11.21-12-16.63a8.07,8.07,0,0,1-1-1.28c-.57-1.38.5-1.93,1.35-2.53a2.57,2.57,0,0,1,3.25,0,6.86,6.86,0,0,1,1.42,1.66c3.86,5.37,7.68,10.77,11.55,16.14l.44.59c.55.72,1.18,1.39,2.19,1A2.7,2.7,0,0,0,97.14,21,5.48,5.48,0,0,0,97,19.5c-.58-2.59-2.34-4.63-3.28-7.06a21.07,21.07,0,0,0-1-2.07c-.28-.86-.85-1.59-1.09-2.47h0a1.8,1.8,0,0,1,1.05-1.17,1.66,1.66,0,0,1,.43-.14,4.86,4.86,0,0,0,1.31-.22,1.23,1.23,0,0,1,.47,0,1.85,1.85,0,0,1,1.23,1.17c.56,1.66,1.49,3.15,2.09,4.8,1,2.67,2.3,5.21,3.33,7.87.27.67.49,1.36.73,2C103.05,24.44,103.77,30.53,99.6,34.21Z"/><path class="cls-9" d="M53,58.18c-4,1.09-7.81,2.46-11.67,3.82-1.49.53-3,.93-4.52,1.41-1.82.59-2.5.32-3.35-1.37,2.55-.88,5.09-1.78,7.65-2.63q4.53-1.5,9.08-2.93c.59-.18.75-.72,1.12-1.09a1.25,1.25,0,0,0,.84,1A1.67,1.67,0,0,1,53,58.18Z"/><path class="cls-10" d="M84.18,36.24c1.12.58,1.54,1.82,2.44,2.64.57.51-.31.87-.69,1.15-4.32,3.11-8.64,6.19-13,9.28l-1.89-1.23,12.52-8.9C85.35,38,85.35,38,84.18,36.24Z"/><path class="cls-11" d="M89.47,27.06a3.58,3.58,0,0,1-1.85,3.84c-1.37.78-2.43,0-3.44-.74-1.8-1.38-3.54-2.83-5.33-4.22-1.34-1-2.16-1-3,.11-.59-.63-1-1.3-.52-2.18.17-.78.77-1,1.44-1,1.63,0,3.6,2,7.37,5.09a2.77,2.77,0,0,0,4.66-1.79l0-.05A1,1,0,0,1,89.47,27.06Z"/><path class="cls-12" d="M29.79,47.81c-1.56-.37-2.08,0-2.09,1.57,0,2.54-.05,5.09.12,7.62a2.85,2.85,0,0,1-5.27,1.91,4.91,4.91,0,0,1-1-2.37c1.46,2,3.67,2.12,4.5.26.47-1,.19-2.18.19-3.28,0-1.92-.09-3.83-.11-5.75,0-1.21.23-2.27,1.79-2.27C29.34,45.5,29.69,45.93,29.79,47.81Z"/><path class="cls-13" d="M88.4,24.58a1,1,0,0,1,.22,1.28c-.92-1.26-1.84-2.53-2.77-3.79l.05,0a4.06,4.06,0,0,0-.9-1.47q-4.86-6.84-9.75-13.65c-.16-.23-.33-.47,0-.7l.87,1.2c.35.13.49.46.69.73q5.57,7.75,11.11,15.53A1.54,1.54,0,0,1,88.4,24.58Z"/><path class="cls-14" d="M140.5,71.23c-.19-2-.46-4-.57-6-.07-1.29-.62-1.67-1.84-1.58-4.05.32-8.11.55-12.17.9-1.38.13-2.42,0-3.13-1.4a25.76,25.76,0,0,0-2-2.74,2,2,0,0,0-1-1c-.11-1.4.35-2.13,1.93-2.1s11.06-.77,13.46-.92c1.39-.08,2.77-.26,4.16-.33a1.6,1.6,0,0,1,1.9,1.55,45.58,45.58,0,0,1-.42,13.14C140.8,70.94,140.62,71.08,140.5,71.23Z"/><path class="cls-15" d="M14.59,35.63c-.83-1-2.35-1.08-3.81-.19-1.21.73-1.2,1.71-.79,2.87.76,2.19,1.45,4.4,2.2,6.59.87,2.56,1.64,5.15,2.54,7.7a75.16,75.16,0,0,1,2.11,7.68c.32,1.37-.91,2-1.84,2.28a2.4,2.4,0,0,1-2.86-1.15,5.63,5.63,0,0,1-.42-1.08c.19-.29.49-.25.78-.26,2.13-.06,2.89-1,2.34-3.1-.41-1.59-2-6.5-2-7.14-.6-2.74-1.67-5.34-2.5-8-.62-2-1.37-4-2-6.07A2,2,0,0,1,10.18,33c.52-.07,1-.24,1.54-.3C13.1,32.56,14.19,32.56,14.59,35.63Z"/><path class="cls-16" d="M8,53.65c-.53-1-1.08-2-1.59-3.08s-1.21-1.34-2.31-.63c-2,1.3-2.12,1.62-.75,3.77A11,11,0,0,1,5,56.91s-2.48-4-3.59-6.12c-.75-1.4-.38-2.11,1.24-3a1.89,1.89,0,0,1,2.84.74A50.62,50.62,0,0,1,8,53.65Z"/><path class="cls-11" d="M75.27,6.23l0,.41c0,.15,0,.2-.2.14l-.88-1.16c-.22-1.69-.47-3.29,2.89-4.51,1.38-.49,2,.75,2.63,1.64l.51.71q5.77,8.07,11.54,16.16c1.91,2.67,3.63,2.63,5.3-.12,1.37,1.08.58,2.79-.85,3.94-1.12.89-2.27.74-3.22-.57-4.17-5.8-8.31-11.62-12.47-17.42a7,7,0,0,0-.79-1c-.67-.63-1.57-1.11-2.37-.61S75,4.64,75.27,6.23Z"/><path class="cls-17" d="M94.56,6.51l-.24.13c-.36-.08-.7.16-1.06.09-.08,0-1.58,1.13-1.66,1.17-1.14-2.11-.19-2.74.05-3,2.24-1.27,2.73-1.19,4.1.7a13.29,13.29,0,0,1,1.73,4.22c-.64-.07-1.15-1.75-1.39-2.13C95.72,7.17,95.55,6.3,94.56,6.51Z"/><path class="cls-18" d="M94.56,6.51c.47-.39.88-.73,1.24.17a20.2,20.2,0,0,0,1.12,2.1l.31.48c.38,1.05,4.89,10.78,5,13a65.86,65.86,0,0,1-3.1-6.85c-1.15-2.66-2.34-5.3-3.53-7.93A1.92,1.92,0,0,0,94.56,6.51Z"/><path class="cls-19" d="M75,6.78l.2-.14q5,7,10,14c.3.42.77.77.67,1.39Z"/><path class="cls-20" d="M88.4,24.58Q82.28,16,76.14,7.43c.53,0,.7.48.94.83q5.43,7.58,10.85,15.16C88.17,23.76,88.54,24.07,88.4,24.58Z"/><path class="cls-13" d="M89.47,27.06l-.68-1C89.89,25.8,89.65,26.46,89.47,27.06Z"/><path class="cls-21" d="M135.73,58.49a1.11,1.11,0,0,1-.66,1.87c-1.75.43-3.56.28-5.33.57a1.22,1.22,0,0,1-1.53-1c-.16-.78.34-1.26,1.11-1.42a47.65,47.65,0,0,1,5.47-.6C135.27,57.9,135.49,58.18,135.73,58.49Z"/><polygon class="cls-22" points="112.26 124.14 116.64 141.88 112.26 163.81 96.08 148.67 96.08 123.32 95.35 123.32 95.44 117.08 112.26 124.14"/><polygon class="cls-23" points="112.26 127.27 158.64 123.92 158.64 156.25 112.26 163.81 112.26 127.27"/><polygon class="cls-23" points="160.41 128.39 110.39 132.82 110.39 124.08 137.41 118.4 160.41 119.47 160.41 128.39"/><polygon class="cls-22" points="110.39 132.82 94.41 125.04 94.44 116.69 110.39 124.08 110.39 132.82"/><polygon class="cls-24" points="94.44 116.69 134.11 112.72 160.41 119.47 110.4 124.08 94.44 116.69"/><polygon class="cls-25" points="104.44 121.32 104.38 129.89 98.45 127.01 98.49 118.56 103 120.64 104.44 121.32"/><polygon class="cls-25" points="105.5 130.44 105.5 157.49 99.65 152.01 99.65 127.59 104.38 129.89 105.5 130.44"/><polygon class="cls-26" points="99.65 127.59 99.65 130.11 96.08 128.49 96.08 125.86 98.45 127.01 99.65 127.59"/><polygon class="cls-27" points="99.65 130.11 99.65 127.59 104.38 129.89 105.5 130.44 105.5 132.77 99.65 130.11"/><polygon class="cls-26" points="105.5 132.77 105.5 130.44 110.39 132.82 112.26 132.65 112.26 134.54 109.76 134.71 105.5 132.77"/><polygon class="cls-22" points="114.78 134.35 158.64 130.6 158.64 128.55 114.31 132.48 112.26 132.65 112.26 134.54 114.78 134.35"/><polygon class="cls-28" points="131.2 122.16 134.5 121.25 139.13 121.43 139.37 159.4 131.53 160.67 131.2 122.16"/><polygon class="cls-29" points="139.74 114.16 126.55 115.64 121.04 114.03 111.71 114.96 117.44 116.77 98.89 118.53 98.49 118.56 103 120.64 104.44 121.32 105.34 121.23 123.08 119.59 131.2 122.16 139.13 121.43 130.99 118.38 149.21 116.59 139.74 114.16"/><polygon class="cls-27" points="131.29 132.94 139.2 132.27 139.18 130.27 131.28 130.97 131.29 132.94"/><path class="cls-28" d="M144.39,106.4c-2.7,8.75-10.75,12.72-19.54,12.26l1.46-3c4.1.19,13.65-1.74,11.09-7.68l3.86-2.3Z"/><path class="cls-29" d="M123.73,117.47s10-15.9,13.67-15.61a9,9,0,0,1,7,4.54c-4-.56-16.76,7.84-19.54,12.26Z"/><path class="cls-27" d="M143.74,108.07c.44-1,.65-1.67.65-1.67-1.44-.2-4,.73-6.75,2.21a4.34,4.34,0,0,1,.18,1.56A35.9,35.9,0,0,1,143.74,108.07Z"/><path class="cls-27" d="M127.16,118.56a26.68,26.68,0,0,1,2.89-3.2,21.38,21.38,0,0,1-2.48.26,15.94,15.94,0,0,0-2.72,3A18.12,18.12,0,0,0,127.16,118.56Z"/><path class="cls-28" d="M104.81,106.4c2.7,8.75,10.74,12.72,19.54,12.26l-1.46-3c-4.1.19-13.66-1.74-11.09-7.68l-3.86-2.3Z"/><path class="cls-29" d="M125.47,117.47s-10-15.9-13.68-15.61a9,9,0,0,0-7,4.54c4-.56,16.76,7.84,19.54,12.26Z"/><path class="cls-27" d="M105.46,108.07c-.44-1-.65-1.67-.65-1.67,1.44-.2,4,.73,6.75,2.21a4.13,4.13,0,0,0-.18,1.56A35.9,35.9,0,0,0,105.46,108.07Z"/><path class="cls-27" d="M122,118.56a26.68,26.68,0,0,0-2.89-3.2,21.15,21.15,0,0,0,2.48.26,16.29,16.29,0,0,1,2.72,3A18.1,18.1,0,0,1,122,118.56Z"/><path class="cls-30" d="M146,157.27a3,3,0,0,1-2.64-1.19,5.06,5.06,0,0,1-1-3.37,5.59,5.59,0,0,1,1.29-3.39,3.53,3.53,0,0,1,2.78-1.27,3.61,3.61,0,0,1,2.64,1.4,4.58,4.58,0,0,1,1,3.11,5.33,5.33,0,0,1-1.29,3.18,4.24,4.24,0,0,1-2.78,1.53Zm-21,2.44a3.26,3.26,0,0,0,2.89-1.3,5.52,5.52,0,0,0,1-3.69,6.07,6.07,0,0,0-1.41-3.7,3.83,3.83,0,0,0-3-1.39,3.92,3.92,0,0,0-2.89,1.53,5,5,0,0,0-1,3.4,5.86,5.86,0,0,0,1.41,3.48,4.6,4.6,0,0,0,3,1.67Zm1.54-18.17a3,3,0,0,0,2-1.37,4.71,4.71,0,0,0,.74-2.76,3.57,3.57,0,0,0-1-2.41,2.25,2.25,0,0,0-2.13-.58,3.38,3.38,0,0,0-2,1.49,4.26,4.26,0,0,0-.74,2.6,3.47,3.47,0,0,0,1,2.31,2.5,2.5,0,0,0,2.12.72ZM122,147.36a2.13,2.13,0,0,0,1.76-2.35,1.89,1.89,0,0,0-2-2,2.16,2.16,0,0,0-1.76,2.33,2,2,0,0,0,2,2Zm-9.7,11.42a4.94,4.94,0,0,1-2.11-1.9,5.85,5.85,0,0,1-.86-3.65,5,5,0,0,1,1.55-3.2,4.35,4.35,0,0,1,1.42-.87h2.2l.08,0h.17l.09,0h0l.17.07h0l.08.05h.06a4.09,4.09,0,0,1,1.57,1.47,6.07,6.07,0,0,1,.83,3.87,5.56,5.56,0,0,1-1.59,3.49,3.28,3.28,0,0,1-2.75.91h-.95Zm-.47-12.45a1.86,1.86,0,0,0,.47,0h0l0,0h.1l0,0h.18l0,0h0l0,0h0l0,0h0l0,0h.07l0,0h0l0,0h0l0,0h0l0,0h0l0,0h0l0,0h0l0,0h0l0,0h0l0,0h0l0,0h0v0l0,0h0l0,0h0l0,0h0l0,0h0l0,0v0l0,0h0l0,0h0l0,0h0l0,0h0l0,0h0v0l0,0v0h0v0h0l0,0h0l0,0h0V145h0v0h0l0,0h0v0h0v0h0v-.11h0v0h0v0h0v0h0v-.12h0v0h0v-.1h0v-.05h0v-.06h0v0h0V144h0v-.05h0v-.05h0v0h0v-.05h0v0h0v-.05h0v0h0v0h0v0h0v0h0v0h0v0h0l0,0h0v-.05l0,0h0v0h0v-.08h0V143h0v-.05l0,0v-.08l0,0v0l0,0v0l0,0v0l0,0h0l0,0v0l0,0h0v0l0,0h0l0,0,0,0h0l0,0h0l0,0h0l0,0h0l0,0,0,0h0l0,0,0,0H113l0,0h0l0,0h0l0,0,0,0h-.1l-.22-.07h0l-.09,0h-.14a2.17,2.17,0,0,0-2.09,2,2,2,0,0,0,1.67,2.27Zm46.85-8.48v4.07l-.11,0a2.08,2.08,0,0,1-2.15-1.91,1.85,1.85,0,0,1,1.53-2.28,1.64,1.64,0,0,1,.73.1Zm-41.46,3.42a3,3,0,0,0,2.21-1.05,4.65,4.65,0,0,0,1.13-2.62,3.55,3.55,0,0,0-.6-2.53,2.27,2.27,0,0,0-2-.89,3.42,3.42,0,0,0-2.22,1.16,4.76,4.76,0,0,0-.5.66h0l0,0h0v0h0v0h0l0,0h0v0l0,0v0h0v0h0l0,0h0v0h0l0,0v0h0v0h0v0l0,.06h0l0,.11h0v0h0v0h0v0h0v0h0v0h0v0h0v0h0v0h0v0h0v0h0v.08h0v0h0v0h0v0h0v0h0v0h0v0h0v.05h0v0h0v.05h0v0h0v0h0v0h0v.09a3.46,3.46,0,0,0,.63,2.42l0,0h0v0h0v0h0v0h0l0,0h0l0,0h0v0h0l0,0h0l0,0h0v0h.17l0,0h0l0,0h.06l0,0H116l0,0h.07l.07,0h.12l.06,0h0l0,0h0a2.13,2.13,0,0,0,.72.12Zm41.46,3.63v9.25a3.27,3.27,0,0,1-3.64-.44,5.49,5.49,0,0,1-1.72-3.34,5.92,5.92,0,0,1,.63-3.83,3.77,3.77,0,0,1,2.65-1.93,3.67,3.67,0,0,1,2.08.29ZM153,137.24a2.92,2.92,0,0,1-2.21-.92,4.56,4.56,0,0,1-1.23-2.5,3.5,3.5,0,0,1,.45-2.48l0,0a2.25,2.25,0,0,1,1.93-1h1l0,0h.2l0,0h0l0,0h.09l0,0h.09l0,0h0l0,0h.05l0,0h0l0,0h.07l0,0h0l0,0h0l0,0a4.47,4.47,0,0,1,.41.35,4.23,4.23,0,0,1,1.21,2.36,3.39,3.39,0,0,1-.5,2.41,2.44,2.44,0,0,1-1.9,1.1Zm-8.47,3.41a2.72,2.72,0,0,1-1.85-1.25,4.33,4.33,0,0,1-.67-2.52,3.23,3.23,0,0,1,.91-2.2,2,2,0,0,1,1.94-.54,3.15,3.15,0,0,1,1.85,1.36,4,4,0,0,1,.67,2.39,3.14,3.14,0,0,1-.91,2.1,2.27,2.27,0,0,1-1.94.66Zm4.18,5.32a1.93,1.93,0,0,1-1.61-2.14,1.74,1.74,0,0,1,1.82-1.81,2,2,0,0,1,1.61,2.14A1.81,1.81,0,0,1,148.72,146Z"/><path class="cls-31" d="M97.66,131.58c-.29,0-.54.35-.71.87a6.17,6.17,0,0,0-.23,2,4.89,4.89,0,0,0,.37,1.89c.21.44.48.65.77.55a1.54,1.54,0,0,0,.71-1,5.45,5.45,0,0,0,.23-1.88,4.51,4.51,0,0,0-.37-1.76c-.21-.45-.48-.73-.77-.71Zm10,4.3a1.77,1.77,0,0,0-1.4,1.21,6.17,6.17,0,0,0-.47,2.81,5.24,5.24,0,0,0,.74,2.61,1.44,1.44,0,0,0,1.52.76,2.35,2.35,0,0,0,1.41-1.37,5.63,5.63,0,0,0,.47-2.6,5.13,5.13,0,0,0-.74-2.44,1.83,1.83,0,0,0-1.53-1Zm-.52,13.53a2,2,0,0,0-1,1.19,5.16,5.16,0,0,0-.32,2.09,2.94,2.94,0,0,0,.52,1.69.79.79,0,0,0,1.05.25,2.4,2.4,0,0,0,1-1.27,4.94,4.94,0,0,0,.33-2,2.9,2.9,0,0,0-.52-1.61.9.9,0,0,0-1.06-.36Zm2.18-4.68c-.51.15-.89,1-.84,1.89s.5,1.46,1,1.28a1.9,1.9,0,0,0,.83-1.87c0-.86-.49-1.43-1-1.3ZM97.4,141.36a1.44,1.44,0,0,0-.5.85,5.54,5.54,0,0,0-.16,1.52A2.88,2.88,0,0,0,97,145c.14.25.33.33.53.18a1.79,1.79,0,0,0,.5-.92,4.69,4.69,0,0,0,.16-1.43,2.81,2.81,0,0,0-.26-1.17c-.14-.26-.33-.36-.53-.25ZM98.5,138c-.26.1-.45.71-.43,1.36s.26,1.06.51.92.45-.73.43-1.35S98.75,137.88,98.5,138Z"/><path class="cls-31" d="M112.26,146.31V142h-.05c-2.45-.1-2.91,4.1-.42,4.31A2.43,2.43,0,0,0,112.26,146.31Z"/><path class="cls-31" d="M112.26,158.78v-9.64C108.7,150.39,107.93,156.87,112.26,158.78Z"/><path class="cls-32" d="M72.64,106a29.91,29.91,0,0,0-14.34-6.8.42.42,0,0,1,0,.1.16.16,0,0,1,0,.07c.06.1.11.2.18.31a.47.47,0,0,0,.06.09,2.68,2.68,0,0,0,.18.28.76.76,0,0,0,.08.11c2.35,3.21,8.3,5.56,13.13,5.82l.43,0Z"/><path class="cls-32" d="M84.75,106H85l.42,0c4.82-.26,10.73-2.59,13.11-5.78l.12-.17.13-.21.1-.15L99,99.4c0-.05,0-.09.07-.14a.36.36,0,0,0,0-.09A29.91,29.91,0,0,0,84.75,106Z"/><path class="cls-33" d="M104.07,134.22l11.22-1.92.44,3.68-11.34,2,2.55,29.21a8.67,8.67,0,0,1,.83-1.7,4,4,0,0,1,3.41-2.11,4.22,4.22,0,0,1,3.24,2.33,9.5,9.5,0,0,1,1.17,5.15,10.73,10.73,0,0,1-1.58,5.28,5,5,0,0,1-3.41,2.54,3.08,3.08,0,0,1-2.78-1.3l.82,9.39L121.36,184,115.3,132.3l-11.23,1.92Zm4.8,16.89a3.53,3.53,0,0,1-2.26-2.09,8.88,8.88,0,0,1-.82-4.18,6.46,6.46,0,0,1,1.1-3.66,2.14,2.14,0,0,1,2.39-.88,4.18,4.18,0,0,1,2.26,2.26,8.16,8.16,0,0,1,.82,3.95,6.35,6.35,0,0,1-1.1,3.5A2.45,2.45,0,0,1,108.87,151.11Zm7.35,5.81c-.07,1.77-1.07,3.12-2.23,3s-2-1.7-2-3.56,1.07-3.19,2.23-3S116.29,155.15,116.22,156.92Z"/><polygon class="cls-33" points="78.7 138.57 92.37 136.23 92.37 136.22 78.7 138.57"/><path class="cls-33" d="M92.66,140.05h0l-14,2.47v50.8l20.09-4.39-2.35.51ZM84.43,156.5c1.16-.19,2.16,1.14,2.23,3s-.81,3.46-2,3.57-2.16-1.24-2.23-3S83.27,156.7,84.43,156.5Zm6.89,23.34a3.38,3.38,0,0,1-3.24,2,5,5,0,0,1-3.41-2.54A10.8,10.8,0,0,1,83.09,174a9.39,9.39,0,0,1,1.18-5.15,4.2,4.2,0,0,1,3.23-2.33,3.92,3.92,0,0,1,3.41,2.11,11.23,11.23,0,0,1,1.58,5.62A10.7,10.7,0,0,1,91.32,179.84Zm.75-27.69a3.49,3.49,0,0,1-2.26,2.08,2.39,2.39,0,0,1-2.38-1.1,6.24,6.24,0,0,1-1.11-3.49,8.35,8.35,0,0,1,.82-4,4.14,4.14,0,0,1,2.27-2.25,2.1,2.1,0,0,1,2.38.88,6.44,6.44,0,0,1,1.1,3.66A8.93,8.93,0,0,1,92.07,152.15Z"/><polygon class="cls-34" points="53.33 134.22 53.33 134.22 52.36 134.06 42.1 132.3 41.84 134.54 42.1 132.3 53.33 134.22"/><polygon class="cls-34" points="65.02 136.23 78.7 138.57 65.02 136.22 65.02 136.23"/><path class="cls-34" d="M48.69,179.5a2.12,2.12,0,0,1-2.47.59,4.25,4.25,0,0,1-2-2.51,8.4,8.4,0,0,1-.33-4,6.15,6.15,0,0,1,1.51-3.33,2.43,2.43,0,0,1,2.5-.81,3.53,3.53,0,0,1,2,2.34c0,.12.07.24.11.36L51.61,154a8.42,8.42,0,0,1-.87,1.28A4,4,0,0,1,47.1,157a4.21,4.21,0,0,1-2.93-2.7,9.46,9.46,0,0,1-.55-5.26,10.8,10.8,0,0,1,2.2-5.05,5,5,0,0,1,3.69-2.11,3.32,3.32,0,0,1,3,2.29l.56-6.36L41.7,135.67,36,184l12.71,2.78.73-8.4A4.44,4.44,0,0,1,48.69,179.5Zm-5.84-13c-1.13-.33-1.81-2-1.53-3.75s1.44-3,2.58-2.73,1.82,1.94,1.52,3.78S44,166.84,42.85,166.51Z"/><path class="cls-34" d="M64.74,139.93,61,189.44l-3.21-.7,21,4.58v-50.8Zm4.64,39.85a8.27,8.27,0,0,1-1.29,3.83,4.2,4.2,0,0,1-2.52,2,2.13,2.13,0,0,1-2.26-1.17,6.45,6.45,0,0,1-.65-3.76A9,9,0,0,1,64,176.6a3.52,3.52,0,0,1,2.5-1.8,2.42,2.42,0,0,1,2.23,1.38A6.17,6.17,0,0,1,69.38,179.78Zm5.09-9.87c-.15,1.76-1.21,3.23-2.39,3.28s-2-1.38-1.86-3.23,1.23-3.34,2.39-3.31S74.61,168.15,74.47,169.91Zm1-13.92a9.48,9.48,0,0,1-1.78,5,4.23,4.23,0,0,1-3.5,1.92,3.94,3.94,0,0,1-3.13-2.5,11.3,11.3,0,0,1-.89-5.77A10.74,10.74,0,0,1,68,149.2a3.37,3.37,0,0,1,3.45-1.57,5,5,0,0,1,3.08,2.94A10.66,10.66,0,0,1,75.51,156Z"/><path class="cls-34" d="M44.86,118.54a29.43,29.43,0,0,1,4.74-4.09l-11.38-1.7h0l-2.08,18.53,6,1,1.63-13.92Z"/><polygon class="cls-34" points="78.7 118.79 64.19 116.63 63.84 121.36 78.7 123.56 78.7 118.79"/><path class="cls-34" d="M50.86,133.8l.83-9.48a28.92,28.92,0,0,0-3.3,4.44,104.87,104.87,0,0,1-3.57-10.17l0,0-1.13-.16L42.1,132.3l10.26,1.76Z"/><polygon class="cls-34" points="63.84 121.36 63.84 121.36 62.75 135.84 65.02 136.22 65.02 136.22 78.7 138.57 78.7 123.56 63.84 121.36"/><path class="cls-33" d="M112.53,118.54l1.13-.16,1.64,13.92,6-1-2.08-18.53-11.39,1.7A29.43,29.43,0,0,1,112.53,118.54Z"/><polygon class="cls-33" points="80.95 118.45 81.77 123.11 81.77 123.11 93.55 121.36 93.2 116.63 80.95 118.45"/><polygon class="cls-33" points="92.37 136.22 94.64 135.84 93.55 121.36 93.55 121.36 81.77 123.11 78.7 138.57 92.37 136.22 92.37 136.22"/><path class="cls-33" d="M112.53,118.54l0,0A107.55,107.55,0,0,1,109,128.76a29.63,29.63,0,0,0-3.31-4.44l.83,9.48-2.46.42h0l11.23-1.92-1.64-13.92Z"/><polygon class="cls-33" points="80.95 118.45 78.7 118.79 78.7 123.56 81.77 123.11 81.77 123.11 80.95 118.45"/><polygon class="cls-33" points="78.7 123.56 78.7 138.57 81.77 123.11 78.7 123.56"/><polygon class="cls-35" points="57.04 109.41 57.54 109.32 57.54 109.32 38.22 112.75 38.22 112.75 57.04 109.41 57.04 109.41"/><path class="cls-35" d="M100.35,109.41l-.91.12c-.2.11-.41.22-.63.32a37.71,37.71,0,0,1,9,4.6l11.39-1.7-19.33-3.43h0Z"/><polygon class="cls-35" points="80.22 114.27 80.95 118.45 93.2 116.63 93.2 116.62 80.22 114.27"/><path class="cls-35" d="M58.58,109.85l-.63-.32-.91-.12-18.82,3.34,11.38,1.7A37.71,37.71,0,0,1,58.58,109.85Z"/><polygon class="cls-35" points="80.22 114.27 78.7 113.99 64.19 116.62 64.19 116.63 78.7 118.79 80.95 118.45 80.22 114.27"/><polygon class="cls-36" points="78.7 138.57 78.7 142.52 92.66 140.05 92.37 136.23 78.7 138.57"/><polygon class="cls-36" points="115.29 132.3 104.07 134.22 104.39 137.98 104.39 137.98 115.73 135.98 115.29 132.3"/><polygon class="cls-37" points="41.7 135.67 41.7 135.67 41.84 134.54 41.7 135.67"/><polygon class="cls-37" points="65.02 136.23 64.74 139.93 64.74 139.93 78.7 142.52 78.7 138.57 65.02 136.23"/><polygon class="cls-37" points="53.02 137.76 53.33 134.22 42.1 132.3 41.84 134.54 41.7 135.67 53.02 137.76 53.02 137.76"/><path class="cls-38" d="M66.47,174.8a3.52,3.52,0,0,0-2.5,1.8,9,9,0,0,0-1.31,4.05,6.45,6.45,0,0,0,.65,3.76,2.13,2.13,0,0,0,2.26,1.17,4.2,4.2,0,0,0,2.52-2,8.27,8.27,0,0,0,1.29-3.83,6.17,6.17,0,0,0-.68-3.6A2.42,2.42,0,0,0,66.47,174.8Z"/><path class="cls-38" d="M72.61,166.65c-1.16,0-2.23,1.45-2.39,3.31s.68,3.29,1.86,3.23,2.24-1.52,2.39-3.28S73.78,166.69,72.61,166.65Z"/><path class="cls-38" d="M71.49,147.63A3.37,3.37,0,0,0,68,149.2a10.74,10.74,0,0,0-1.83,5.42,11.3,11.3,0,0,0,.89,5.77,3.94,3.94,0,0,0,3.13,2.5,4.23,4.23,0,0,0,3.5-1.92,9.48,9.48,0,0,0,1.78-5,10.66,10.66,0,0,0-.94-5.42A5,5,0,0,0,71.49,147.63Z"/><path class="cls-38" d="M45.42,163.81c.3-1.84-.38-3.53-1.52-3.78s-2.3,1-2.58,2.73.4,3.42,1.53,3.75S45.13,165.64,45.42,163.81Z"/><path class="cls-38" d="M49.51,141.83a5,5,0,0,0-3.69,2.11,10.8,10.8,0,0,0-2.2,5.05,9.46,9.46,0,0,0,.55,5.26A4.21,4.21,0,0,0,47.1,157a4,4,0,0,0,3.64-1.69,8.42,8.42,0,0,0,.87-1.28l.85-9.86A3.32,3.32,0,0,0,49.51,141.83Z"/><path class="cls-38" d="M47.92,169.41a2.43,2.43,0,0,0-2.5.81,6.15,6.15,0,0,0-1.51,3.33,8.4,8.4,0,0,0,.33,4,4.25,4.25,0,0,0,2,2.51,2.12,2.12,0,0,0,2.47-.59,4.44,4.44,0,0,0,.79-1.13l.55-6.26c0-.12-.07-.24-.11-.36A3.53,3.53,0,0,0,47.92,169.41Z"/><path class="cls-38" d="M111.54,142.56a4.18,4.18,0,0,0-2.26-2.26,2.14,2.14,0,0,0-2.39.88,6.46,6.46,0,0,0-1.1,3.66,8.88,8.88,0,0,0,.82,4.18,3.53,3.53,0,0,0,2.26,2.09,2.45,2.45,0,0,0,2.39-1.1,6.35,6.35,0,0,0,1.1-3.5A8.16,8.16,0,0,0,111.54,142.56Z"/><path class="cls-38" d="M110.6,178.68a5,5,0,0,0,3.41-2.54,10.73,10.73,0,0,0,1.58-5.28,9.5,9.5,0,0,0-1.17-5.15,4.22,4.22,0,0,0-3.24-2.33,4,4,0,0,0-3.41,2.11,8.67,8.67,0,0,0-.83,1.7l.88,10.19A3.08,3.08,0,0,0,110.6,178.68Z"/><path class="cls-38" d="M114.25,153.38c-1.16-.2-2.16,1.13-2.23,3s.81,3.46,2,3.56,2.16-1.24,2.23-3S115.41,153.57,114.25,153.38Z"/><path class="cls-38" d="M84.69,163.06c1.16-.11,2-1.71,2-3.57s-1.07-3.18-2.23-3-2,1.78-2,3.55S83.53,163.17,84.69,163.06Z"/><path class="cls-38" d="M91.79,144.31a2.1,2.1,0,0,0-2.38-.88,4.14,4.14,0,0,0-2.27,2.25,8.35,8.35,0,0,0-.82,4,6.24,6.24,0,0,0,1.11,3.49,2.39,2.39,0,0,0,2.38,1.1,3.49,3.49,0,0,0,2.26-2.08,8.93,8.93,0,0,0,.82-4.18A6.44,6.44,0,0,0,91.79,144.31Z"/><path class="cls-38" d="M90.91,168.62a3.92,3.92,0,0,0-3.41-2.11,4.2,4.2,0,0,0-3.23,2.33A9.39,9.39,0,0,0,83.09,174a10.8,10.8,0,0,0,1.58,5.28,5,5,0,0,0,3.41,2.54,3.38,3.38,0,0,0,3.24-2,10.7,10.7,0,0,0,1.17-5.6A11.23,11.23,0,0,0,90.91,168.62Z"/><polygon class="cls-39" points="57.54 109.32 57.04 109.41 57.04 109.41 57.54 109.32 57.54 109.32"/><path class="cls-39" d="M100.35,109.41l-.5-.09-.41.21Z"/><path class="cls-39" d="M80.22,114.27l13,2.35,1.55-.23a45.17,45.17,0,0,0-14-3.9l-.84-.07Z"/><path class="cls-39" d="M78.7,114l1.52.28-.32-1.85-1.18-.13h0l0,0,0,0h0l-1.26.14h0l-.75.06a45.34,45.34,0,0,0-14,3.9l1.55.23Z"/><path class="cls-39" d="M57,109.41l.91.12-.41-.21Z"/><polygon class="cls-39" points="48.75 186.77 57.74 188.74 48.75 186.77 48.75 186.77"/><polygon class="cls-39" points="52.36 134.06 53.33 134.22 57.48 134.93 52.36 134.06"/><path class="cls-39" d="M64.74,139.93,53,137.76l-.56,6.36,0,.06a10.59,10.59,0,0,1,.49,5.69A12.28,12.28,0,0,1,51.61,154L50,172.11a9.1,9.1,0,0,1,.2,3.89,7.68,7.68,0,0,1-.75,2.37l-.73,8.4,9,2,3.21.7Z"/><path class="cls-39" d="M62.64,116.39a37.07,37.07,0,0,0-6.45,3.83l7.65,1.14.35-4.73Z"/><path class="cls-39" d="M62.75,135.84l1.09-14.48h0l-7.65-1.14a31.85,31.85,0,0,0-4.5,4.1l-.83,9.48,1.5.26,5.12.87Z"/><polygon class="cls-39" points="62.64 116.39 62.64 116.39 64.19 116.63 64.19 116.62 62.64 116.39"/><rect class="cls-39" x="58.88" y="132.89" height="11.92" transform="translate(-84.38 185.99) rotate(-85.24)"/><path class="cls-39" d="M50.23,176a9.1,9.1,0,0,0-.2-3.89l-.55,6.26A7.68,7.68,0,0,0,50.23,176Z"/><path class="cls-39" d="M53,149.87a10.59,10.59,0,0,0-.49-5.69l0-.06L51.61,154A12.28,12.28,0,0,0,53,149.87Z"/><polygon class="cls-40" points="108.64 186.77 98.79 188.93 108.64 186.77 108.64 186.77"/><path class="cls-40" d="M107.82,177.38a5.63,5.63,0,0,1-.46-.67,10.68,10.68,0,0,1-1.17-5.6,12.53,12.53,0,0,1,.75-3.92L104.39,138l-2.82.5-8.91,1.57,3.78,49.39,2.35-.51,9.85-2.16Z"/><path class="cls-40" d="M93.2,116.62l.35,4.74,7.65-1.14a37,37,0,0,0-6.44-3.83Z"/><path class="cls-40" d="M101.2,120.22l-7.65,1.14h0l1.09,14.48,9.43-1.62,2.46-.42-.83-9.48A30.79,30.79,0,0,0,101.2,120.22Z"/><polygon class="cls-40" points="93.2 116.63 94.76 116.39 94.75 116.39 93.2 116.62 93.2 116.63"/><polygon class="cls-40" points="101.56 138.48 104.39 137.98 104.39 137.98 101.56 138.48"/><path class="cls-40" d="M106.19,171.11a10.68,10.68,0,0,0,1.17,5.6,5.63,5.63,0,0,0,.46.67l-.88-10.19A12.53,12.53,0,0,0,106.19,171.11Z"/><path class="cls-39" d="M84,106h.77a29.91,29.91,0,0,1,14.34-6.8c0-.1.1-.19.14-.29h0l-.93.16h0c-.93.17-1.89.38-2.87.64l-.08,0-.92.26-.11,0-.91.29-.1,0c-.32.1-.63.21-1,.33h0l-1,.38,0,0-.93.4-.11.06c-.3.13-.6.28-.9.43l-.13.07c-.29.15-.59.3-.88.47l-.12.06q-.45.25-.9.54l0,0c-.3.19-.6.38-.89.59l-.06,0-.86.62-.12.09c-.27.21-.54.42-.81.65l-.14.11c-.27.23-.53.45-.78.69l0,0Z"/><path class="cls-39" d="M83.15,106.36l.43-.42,0,0c.25-.24.51-.46.78-.69l.14-.11c.27-.23.54-.44.81-.65l.12-.09.86-.62.06,0c.29-.21.59-.4.89-.59l0,0q.45-.28.9-.54l.12-.06c.29-.17.59-.32.88-.47l.13-.07c.3-.15.6-.3.9-.43l.11-.06.93-.4,0,0,1-.38h0c.32-.12.63-.23,1-.33l.1,0,.91-.29.11,0,.92-.26.08,0c1-.26,1.94-.47,2.87-.64h0l.93-.16h0c.55-.09,1.09-.16,1.61-.22a39.4,39.4,0,0,1,8.37-.13h0c-3.2-3.91-4.69-6.08-8.9-7.66A28.36,28.36,0,0,0,78.7,104c.33.56.65,1.12,1,1.7Z"/><path class="cls-39" d="M80.33,109.05l.48,0c.47-.62,1-1.2,1.46-1.75l.37-.39.24-.24.07-.07.2-.19-3.5-.62a24.76,24.76,0,0,1,1.1,2.47Z"/><path class="cls-39" d="M79.6,110.75c.39-.61.79-1.19,1.21-1.75l-.48,0-.76,1.49Z"/><path class="cls-39" d="M79.6,110.75l0-.21-.87,1.71,0,0C79,111.76,79.3,111.25,79.6,110.75Z"/><path class="cls-40" d="M109.13,98.81l0,.06Z"/><path class="cls-40" d="M109.21,98.53Z"/><path class="cls-40" d="M99.05,99.26a.36.36,0,0,0,0-.09h0A.36.36,0,0,1,99.05,99.26Z"/><path class="cls-40" d="M98.38,100.3l.11-.13c-2.38,3.19-8.29,5.52-13.11,5.78h.07l-.75.68,6.9,1.23h0l8.06,1.43.19,0a19.57,19.57,0,0,0,8.78-9.22A66.27,66.27,0,0,0,98.38,100.3Z"/><path class="cls-40" d="M109.16,98.71h0Z"/><path class="cls-40" d="M84.75,106h0Z"/><path class="cls-40" d="M108.89,99.5l-.09.21Z"/><path class="cls-40" d="M99,99.4l-.14.24Z"/><path class="cls-40" d="M109,99.22a1.8,1.8,0,0,1-.08.21A1.8,1.8,0,0,0,109,99.22Z"/><path class="cls-40" d="M98.74,99.79l-.13.21Z"/><path class="cls-40" d="M109.06,99a.76.76,0,0,1,0,.11A.76.76,0,0,0,109.06,99Z"/><path class="cls-40" d="M108.77,99.79c0,.09-.08.2-.13.3C108.69,100,108.73,99.88,108.77,99.79Z"/><path class="cls-40" d="M82.62,108.81h.1c.2-.23.36-.42.45-.51a23.5,23.5,0,0,1,7.46-.33l1-.1-6.9-1.23-.27.27C83.78,107.52,83.18,108.16,82.62,108.81Z"/><path class="cls-40" d="M98.81,109.85c.22-.1.43-.21.63-.32l-1.1.16Z"/><polygon class="cls-40" points="99.85 109.32 99.85 109.32 99.66 109.29 99.85 109.32"/><polygon class="cls-40" points="91.6 107.86 91.6 107.86 99.66 109.29 91.6 107.86"/><path class="cls-40" d="M82.72,108.8h-.1a26.53,26.53,0,0,0-1.87,2.42C81.39,110.36,82.19,109.4,82.72,108.8Z"/><path class="cls-40" d="M98.34,109.69l1.1-.16.41-.21-.19,0-8.06-1.43-1,.1A35,35,0,0,1,98.34,109.69Z"/><path class="cls-40" d="M80.74,112.49c-.49,0-.76-.06-.76-.06H79.9Z"/><path class="cls-40" d="M79.9,112.42h0l-1.18-.13Z"/><path class="cls-40" d="M99.09,99.17c0-.1.1-.19.14-.29h0c0,.1-.09.19-.14.29Z"/><path class="cls-40" d="M100.84,98.66a38.81,38.81,0,0,1,8.3-.13h.07A39.4,39.4,0,0,0,100.84,98.66Z"/><path class="cls-40" d="M84,106h0Z"/><path class="cls-40" d="M84.75,106h0Z"/><path class="cls-40" d="M82.88,106.62l.07-.07Z"/><path class="cls-40" d="M95.4,99.68c1-.26,1.94-.47,2.87-.64C97.34,99.21,96.38,99.42,95.4,99.68Z"/><path class="cls-41" d="M83.63,105.9l0,0h0Z"/><polygon class="cls-41" points="99.22 98.88 99.22 98.88 99.22 98.88 99.22 98.88"/><path class="cls-42" d="M109.16,98.72l0,.09Z"/><path class="cls-42" d="M109.21,98.53h0s0,.07,0,.18Z"/><path class="cls-42" d="M109.11,98.87l0,.15Z"/><path class="cls-42" d="M108.8,99.71l0,.08Z"/><polygon class="cls-42" points="108.63 100.1 108.64 100.09 108.63 100.1 108.63 100.1"/><path class="cls-42" d="M99.05,99.26s0,.09-.07.14S99,99.31,99.05,99.26Z"/><path class="cls-42" d="M98.84,99.64l-.1.15Z"/><path class="cls-42" d="M98.61,100l-.12.17Z"/><path class="cls-42" d="M108.91,99.43l0,.07Z"/><path class="cls-42" d="M109,99.13l0,.09Z"/><path class="cls-42" d="M99.23,98.88h0c.55-.09,1.09-.16,1.61-.22C100.32,98.72,99.78,98.79,99.23,98.88Z"/><path class="cls-42" d="M99.09,99.17a.36.36,0,0,1,0,.09s0,.09-.07.14l-.14.24-.1.15-.13.21-.12.17-.11.13a66.27,66.27,0,0,1,10.25-.2h0c0-.1.09-.21.13-.3l0-.08.09-.21,0-.07a1.8,1.8,0,0,0,.08-.21l0-.09a.76.76,0,0,0,0-.11l0-.15,0-.06,0-.09h0c0-.11,0-.17,0-.18h-.07A37.66,37.66,0,0,0,99.09,99.17Z"/><path class="cls-42" d="M109.14,98.53a38.81,38.81,0,0,0-8.3.13c-.52.06-1.06.13-1.61.22,0,.1-.09.19-.14.29A37.66,37.66,0,0,1,109.14,98.53Z"/><path class="cls-42" d="M85.38,106,85,106Z"/><polygon class="cls-42" points="78.72 112.29 78.72 112.29 78.72 112.29 78.72 112.29 78.72 112.29"/><path class="cls-42" d="M83.58,105.94h0l.4,0Z"/><path class="cls-42" d="M83.58,105.94h0l-.43.42h0Z"/><path class="cls-42" d="M84.67,106h0Z"/><path class="cls-42" d="M82.27,107.25c.2-.22.41-.43.61-.63l-.24.24-.37.39c-.5.55-1,1.13-1.46,1.75h0C81.28,108.38,81.77,107.8,82.27,107.25Z"/><path class="cls-42" d="M83,106.55l.2-.19h0Z"/><path class="cls-42" d="M79.6,110.75c.39-.61.79-1.19,1.21-1.75h0c-.42.56-.82,1.14-1.21,1.75Z"/><path class="cls-42" d="M78.72,112.29c.28-.53.58-1,.88-1.54h0c-.3.5-.6,1-.88,1.54Z"/><path class="cls-42" d="M84.75,106h0l-.6.56.55.1.75-.68h-.07L85,106Z"/><path class="cls-42" d="M83.29,107.4c-.48.5-1,1-1.61,1.51l.94-.1c.56-.65,1.16-1.29,1.81-1.91l.27-.27-.55-.1C83.86,106.81,83.57,107.1,83.29,107.4Z"/><path class="cls-42" d="M79.64,110.94l.26,1.48H80a10.29,10.29,0,0,1,.76-1.19,26.53,26.53,0,0,1,1.87-2.42l-.94.1A19.54,19.54,0,0,0,79.64,110.94Z"/><path class="cls-42" d="M78.72,112.29h0l1.18.13-.26-1.48a7.66,7.66,0,0,0-.92,1.35Z"/><path class="cls-42" d="M84.75,106H84l-.4,0-.43.42,1,.17Z"/><path class="cls-42" d="M80.81,109l.87-.09c.57-.51,1.13-1,1.61-1.51.28-.3.57-.59.86-.87l-1-.17-.2.19-.07.07c-.2.2-.41.41-.61.63C81.77,107.8,81.28,108.38,80.81,109Z"/><path class="cls-42" d="M79.6,110.75l0,.19a19.54,19.54,0,0,1,2-2l-.87.09C80.39,109.56,80,110.14,79.6,110.75Z"/><path class="cls-42" d="M79.64,110.94l0-.19c-.3.5-.6,1-.88,1.54A7.66,7.66,0,0,1,79.64,110.94Z"/><polygon class="cls-42" points="83.58 105.94 83.58 105.94 83.58 105.94 83.58 105.94"/><path class="cls-39" d="M105.29,119.62l7.24-1.08a29.43,29.43,0,0,0-4.74-4.09l-2.91.43Z"/><path class="cls-39" d="M105.29,119.62l.41,4.7a29.63,29.63,0,0,1,3.31,4.44,107.55,107.55,0,0,0,3.56-10.17l0,0-7.24,1.08Z"/><path class="cls-39" d="M104.88,114.88h0l2.91-.43a37.71,37.71,0,0,0-9-4.6,27.83,27.83,0,0,1-7,2.22Z"/><path class="cls-39" d="M80.74,112.49a45.17,45.17,0,0,1,14,3.9l10.13-1.51-13.1-2.81A43,43,0,0,1,80.74,112.49Z"/><path class="cls-39" d="M101.2,120.22l4.09-.6-.41-4.74-10.12,1.51A37,37,0,0,1,101.2,120.22Z"/><path class="cls-39" d="M105.29,119.62l-4.09.6a30.79,30.79,0,0,1,4.5,4.1l-.41-4.7Z"/><polygon class="cls-39" points="94.76 116.39 104.88 114.88 104.88 114.88 94.75 116.39 94.76 116.39"/><path class="cls-39" d="M83.17,108.29c-.09.09-.25.28-.45.51l7.91-.84A23.5,23.5,0,0,0,83.17,108.29Z"/><path class="cls-39" d="M87.56,111.16l4.22.91a27.83,27.83,0,0,0,7-2.22l-.47-.16Z"/><path class="cls-39" d="M80,112.42h0s.27,0,.76.06a43,43,0,0,0,11-.42l-4.22-.91,10.78-1.47A35,35,0,0,0,90.63,108l-7.91.84c-.53.6-1.33,1.56-2,2.43C80.49,111.62,80.23,112,80,112.42Z"/><path class="cls-39" d="M80,112.42c.24-.4.5-.8.76-1.19A10.29,10.29,0,0,0,80,112.42Z"/><path class="cls-39" d="M55.69,98.57c.79.07,1.62.17,2.48.31h0l.92.16h0c.63.12,1.27.25,1.92.41h0l.94.23.09,0L63,100l.11,0,.92.29.09,0,1,.34h0c.33.12.65.25,1,.39h0l.94.41.1,0L68,102l.11.06c.3.15.61.32.91.49l.08,0c.64.36,1.27.75,1.89,1.18h0c.3.2.6.42.9.64l.08.06c.28.22.57.44.84.67l.1.08.82.73,0,0h0l.44.42,3.5-.62c.29-.58.61-1.14,1-1.7A28.4,28.4,0,0,0,57.08,90.87c-4.21,1.58-5.7,3.75-8.9,7.66h0A38.57,38.57,0,0,1,55.69,98.57Z"/><path class="cls-39" d="M58.17,98.88c0,.1.08.19.13.29A29.91,29.91,0,0,1,72.64,106h.16a8.39,8.39,0,0,0,1,0l0,0-.82-.73-.1-.08c-.27-.23-.56-.45-.84-.67l-.08-.06c-.3-.22-.6-.44-.9-.64h0c-.62-.43-1.25-.82-1.89-1.18l-.08,0c-.3-.17-.61-.34-.91-.49L68,102l-.91-.44-.1,0-.94-.41h0c-.33-.14-.65-.27-1-.39h0l-1-.34-.09,0L63.1,100,63,100l-.91-.26-.09,0-.94-.23h0c-.65-.16-1.29-.29-1.92-.41h0l-.92-.16Z"/><polygon class="cls-39" points="77.75 105.73 77.75 105.73 74.25 106.36 74.25 106.36 77.75 105.73"/><path class="cls-39" d="M74.44,106.55l.08.07.23.24.37.39A20.82,20.82,0,0,1,76.58,109l.49,0-.43-.84a22.74,22.74,0,0,1,1.11-2.47l-3.5.62Z"/><path class="cls-39" d="M78.68,112.29l0,0-1.63-3.2-.49,0A25,25,0,0,1,78.68,112.29Z"/><path class="cls-39" d="M78.7,105.57l1,.17c-.3-.58-.62-1.14-1-1.7-.34.56-.66,1.12-1,1.7Z"/><polygon class="cls-39" points="78.7 105.57 77.75 105.73 77.75 105.73 78.7 105.57"/><path class="cls-39" d="M80.33,109.05l.42-.84a24.76,24.76,0,0,0-1.1-2.47l-1-.17.62,3.59Z"/><path class="cls-39" d="M76.64,108.21l.43.84,1.63.18.62-.07-.62-3.59-1,.17A22.74,22.74,0,0,0,76.64,108.21Z"/><polygon class="cls-39" points="80.33 109.05 79.33 109.16 79.57 110.54 80.33 109.05"/><polygon class="cls-39" points="79.57 110.54 79.33 109.16 78.7 109.23 77.07 109.05 78.7 112.25 79.57 110.54"/><path class="cls-43" d="M58.56,99.65c-.07-.11-.12-.21-.18-.31C58.44,99.44,58.49,99.54,58.56,99.65Z"/><path class="cls-43" d="M48.25,98.75l0-.08Z"/><path class="cls-43" d="M48.75,100.09c0-.11-.09-.22-.13-.32C48.66,99.87,48.7,100,48.75,100.09Z"/><path class="cls-43" d="M58.8,100a2.68,2.68,0,0,1-.18-.28A2.68,2.68,0,0,0,58.8,100Z"/><path class="cls-43" d="M65.79,107.86h0l6.9-1.23-.75-.68H72c-4.83-.26-10.78-2.61-13.13-5.82a1.09,1.09,0,0,0,.13.17,66.24,66.24,0,0,0-10.25-.2,19.62,19.62,0,0,0,8.78,9.22l.73-.13Z"/><path class="cls-43" d="M48.61,99.74c-.09-.21-.16-.39-.22-.55C48.45,99.35,48.52,99.53,48.61,99.74Z"/><path class="cls-43" d="M48.39,99.18c-.06-.16-.1-.29-.13-.39C48.29,98.89,48.33,99,48.39,99.18Z"/><path class="cls-43" d="M72.44,106h0Z"/><path class="cls-43" d="M48.18,98.53Z"/><path class="cls-43" d="M58.3,99.17l0,.1a.42.42,0,0,0,0-.1Z"/><polygon class="cls-43" points="72.69 106.63 72.69 106.63 65.8 107.86 65.8 107.86 72.69 106.63"/><polygon class="cls-43" points="58.27 109.19 57.54 109.32 57.54 109.32 58.27 109.19"/><path class="cls-43" d="M58,109.53l.63.32.47-.16Z"/><path class="cls-43" d="M74.22,108.29c.09.09.25.28.45.51h.11c-.57-.65-1.17-1.29-1.81-1.91l-.28-.27-6.89,1.23,1,.1A23.5,23.5,0,0,1,74.22,108.29Z"/><polygon class="cls-43" points="65.79 107.86 58.27 109.19 65.8 107.86 65.79 107.86"/><polygon class="cls-43" points="65.8 107.86 65.8 107.86 58.27 109.19 57.54 109.32 57.54 109.32 65.8 107.86"/><path class="cls-43" d="M76.66,112.49l.75-.06S77.14,112.44,76.66,112.49Z"/><path class="cls-43" d="M77.41,112.42h0l1.26-.14C78.25,112.34,77.83,112.39,77.41,112.42Z"/><path class="cls-43" d="M74.67,108.8c.53.6,1.34,1.56,2,2.43a26.41,26.41,0,0,0-1.86-2.42Z"/><path class="cls-43" d="M66.76,108l-1-.1-8.26,1.46.41.21,1.1.16A35.14,35.14,0,0,1,66.76,108Z"/><path class="cls-43" d="M58.17,98.88c0,.1.08.19.13.29h0C58.25,99.07,58.21,99,58.17,98.88Z"/><path class="cls-43" d="M55.69,98.57a38.57,38.57,0,0,0-7.51,0h.07A37.49,37.49,0,0,1,55.69,98.57Z"/><path class="cls-43" d="M73.81,105.94h0a8.39,8.39,0,0,1-1,0A8.33,8.33,0,0,0,73.81,105.94Z"/><path class="cls-43" d="M72.64,106Z"/><path class="cls-43" d="M74.44,106.55l.08.07Z"/><path class="cls-43" d="M69.14,102.55c.64.36,1.27.75,1.89,1.18C70.41,103.3,69.78,102.91,69.14,102.55Z"/><path class="cls-43" d="M59.13,99c.63.12,1.27.25,1.92.41C60.4,99.29,59.76,99.16,59.13,99Z"/><polygon class="cls-41" points="58.17 98.88 58.18 98.88 58.17 98.88 58.17 98.88 58.17 98.88 58.17 98.88"/><path class="cls-41" d="M73.81,105.94l0,0,0,0Z"/><path class="cls-42" d="M48.62,99.77v0Z"/><path class="cls-42" d="M58.38,99.34a.16.16,0,0,0,0-.07A.16.16,0,0,1,58.38,99.34Z"/><path class="cls-42" d="M48.26,98.79v0Z"/><polygon class="cls-42" points="48.76 100.1 48.76 100.1 48.75 100.09 48.76 100.1"/><path class="cls-42" d="M48.18,98.53a1.31,1.31,0,0,0,0,.14.83.83,0,0,1,0-.14Z"/><path class="cls-42" d="M58.62,99.74a.47.47,0,0,1-.06-.09A.47.47,0,0,0,58.62,99.74Z"/><path class="cls-42" d="M58.88,100.13a.76.76,0,0,1-.08-.11A.76.76,0,0,0,58.88,100.13Z"/><path class="cls-42" d="M48.39,99.19h0Z"/><polygon class="cls-42" points="58.17 98.88 58.17 98.88 58.17 98.88 58.17 98.88"/><path class="cls-42" d="M58.17,98.88c-.86-.14-1.69-.24-2.48-.31.79.07,1.62.17,2.48.31Z"/><path class="cls-42" d="M59,100.3a1.09,1.09,0,0,1-.13-.17.76.76,0,0,1-.08-.11,2.68,2.68,0,0,1-.18-.28.47.47,0,0,1-.06-.09c-.07-.11-.12-.21-.18-.31a.16.16,0,0,0,0-.07l0-.1a37.65,37.65,0,0,0-10-.64h-.07a.83.83,0,0,0,0,.14l0,.08v0c0,.1.07.23.13.39h0c.06.16.13.34.22.55v0c0,.1.08.21.13.32h0A66.24,66.24,0,0,1,59,100.3Z"/><path class="cls-42" d="M58.17,98.88c-.86-.14-1.69-.24-2.48-.31a37.49,37.49,0,0,0-7.44,0,37.65,37.65,0,0,1,10,.64c0-.1-.09-.19-.13-.29Z"/><polygon class="cls-42" points="58.17 98.88 58.17 98.88 58.17 98.88 58.17 98.88 58.17 98.88"/><path class="cls-42" d="M72,106l.43,0Z"/><polygon class="cls-42" points="78.68 112.29 78.67 112.29 78.68 112.29 78.68 112.29 78.68 112.29"/><path class="cls-42" d="M72.8,106h0Z"/><path class="cls-42" d="M74.25,106.36l-.44-.42h0l.43.42Z"/><polygon class="cls-42" points="74.24 106.36 74.25 106.36 74.25 106.36 74.24 106.36 74.24 106.36"/><path class="cls-42" d="M74.25,106.36h0a1.8,1.8,0,0,1,.2.19Z"/><path class="cls-42" d="M75.12,107.25l-.37-.39-.23-.24.6.63A20.82,20.82,0,0,1,76.58,109h0A20.82,20.82,0,0,0,75.12,107.25Z"/><path class="cls-42" d="M78.68,112.29a25,25,0,0,0-2.1-3.29h0a25,25,0,0,1,2.1,3.29Z"/><path class="cls-42" d="M72.64,106h-.2L72,106h-.07l.75.68.55-.1C73.05,106.34,72.85,106.16,72.64,106Z"/><polygon class="cls-42" points="73.25 106.53 73.24 106.53 72.69 106.63 72.69 106.63 73.25 106.53"/><path class="cls-42" d="M74.78,108.81l.93.1c-.57-.51-1.13-1-1.6-1.51-.29-.3-.57-.59-.87-.87l-.55.1.28.27C73.61,107.52,74.21,108.16,74.78,108.81Z"/><path class="cls-42" d="M78.67,112.29h0a12.8,12.8,0,0,0-3-3.38l-.93-.1a26.41,26.41,0,0,1,1.86,2.42,9.1,9.1,0,0,1,.76,1.19h0C77.83,112.39,78.25,112.34,78.67,112.29Z"/><path class="cls-42" d="M72.72,106h-.08c.21.19.41.37.6.56l1-.17-.43-.42a8.33,8.33,0,0,1-1,0Z"/><polygon class="cls-42" points="74.24 106.36 73.24 106.53 73.25 106.53 74.24 106.36 74.24 106.36"/><path class="cls-42" d="M74.11,107.4c.47.51,1,1,1.6,1.51l.87.09a20.82,20.82,0,0,0-1.46-1.75l-.6-.63-.08-.07a1.8,1.8,0,0,0-.2-.19l-1,.17C73.54,106.81,73.82,107.1,74.11,107.4Z"/><path class="cls-42" d="M78.68,112.29a25,25,0,0,0-2.1-3.29l-.87-.09A12.8,12.8,0,0,1,78.68,112.29Z"/><path class="cls-39" d="M52.52,114.88h0l-2.92-.43a29.43,29.43,0,0,0-4.74,4.09l7.24,1.08Z"/><path class="cls-39" d="M52.1,119.62l-7.24-1.08,0,0a104.87,104.87,0,0,0,3.57,10.17,28.92,28.92,0,0,1,3.3-4.44l.41-4.7Z"/><path class="cls-39" d="M65.61,112.07a27.83,27.83,0,0,1-7-2.22,37.71,37.71,0,0,0-9,4.6l2.92.43Z"/><polygon class="cls-39" points="52.52 114.88 52.52 114.88 52.81 114.93 52.52 114.88"/><polygon class="cls-39" points="77.41 112.43 77.41 112.43 77.41 112.43 77.41 112.43"/><path class="cls-39" d="M62.64,116.39a45.34,45.34,0,0,1,14-3.9,43.13,43.13,0,0,1-11-.42l-13.09,2.81.29.05Z"/><path class="cls-39" d="M52.81,114.93l-.29-.05-.42,4.74,4.09.6a37.07,37.07,0,0,1,6.45-3.83Z"/><path class="cls-39" d="M56.19,120.22l-4.09-.6h0l-.41,4.7A31.85,31.85,0,0,1,56.19,120.22Z"/><polygon class="cls-39" points="52.81 114.93 62.64 116.39 62.64 116.39 52.81 114.93"/><path class="cls-39" d="M69.83,111.16l-10.78-1.47-.47.16a27.83,27.83,0,0,0,7,2.22Z"/><path class="cls-39" d="M74.22,108.29a23.5,23.5,0,0,0-7.46-.33l7.91.84C74.47,108.57,74.31,108.38,74.22,108.29Z"/><path class="cls-39" d="M76.66,112.49c.48,0,.75-.06.75-.06h0c-.24-.4-.49-.8-.76-1.19-.63-.87-1.44-1.83-2-2.43L66.76,108a35.14,35.14,0,0,0-7.71,1.73l10.78,1.47-4.22.91A43.13,43.13,0,0,0,76.66,112.49Z"/><path class="cls-39" d="M77.4,112.42a9.1,9.1,0,0,0-.76-1.19C76.91,111.62,77.16,112,77.4,112.42Z"/><rect class="cls-42" x="92.29" y="135.22" width="11.87" transform="translate(-21.41 18.51) rotate(-9.71)"/><polygon class="cls-42" points="92.66 140.05 101.56 138.48 92.66 140.05 92.66 140.05"/><polygon class="cls-42" points="92.37 136.22 92.37 136.22 104.07 134.22 104.07 134.22 94.64 135.84 92.37 136.22"/><polygon class="cls-42" points="104.07 134.22 92.37 136.23 92.66 140.05 101.56 138.48 104.39 137.98 104.07 134.22"/><polygon class="cls-40" points="65.02 136.22 57.48 134.93 53.33 134.22 53.33 134.22 65.02 136.23 65.02 136.22"/><polygon class="cls-40" points="62.75 135.84 57.48 134.93 65.02 136.22 65.02 136.22 62.75 135.84"/><polygon class="cls-40" points="65.02 136.23 53.33 134.22 53.02 137.76 64.74 139.93 65.02 136.23"/></g></g></svg>