<svg xmlns="http://www.w3.org/2000/svg" xmlns:xlink="http://www.w3.org/1999/xlink" viewBox="0 0 86.91 127.89"><defs><style>.cls-1{fill:none;}.cls-2{isolation:isolate;}.cls-3{clip-path:url(#clip-path);}.cls-4,.cls-5{fill:#2c3944;}.cls-4{opacity:0.35;}.cls-16,.cls-20,.cls-4{mix-blend-mode:multiply;}.cls-19,.cls-6{fill:#fff;}.cls-7{fill:#eeeeed;}.cls-8{fill:#e95714;}.cls-9{fill:#ed7542;}.cls-10{fill:#424f64;}.cls-11{fill:#f9ceca;}.cls-12{fill:#f5b1b0;}.cls-13{clip-path:url(#clip-path-2);}.cls-14{clip-path:url(#clip-path-3);}.cls-15{fill:#b41918;}.cls-16{fill:#d5cad0;}.cls-17{fill:#daeefb;}.cls-18{fill:#eaf5fc;}.cls-19{mix-blend-mode:soft-light;}.cls-20{opacity:0.21;}</style><clipPath id="clip-path" transform="translate(0)"><rect class="cls-1" y="111.79" width="86.91" height="16.11"/></clipPath><clipPath id="clip-path-2" transform="translate(0)"><rect class="cls-1" x="20.89" y="51.37" width="7.16" height="2.95"/></clipPath><clipPath id="clip-path-3" transform="translate(0)"><rect class="cls-1" x="59.2" y="51.37" width="7.16" height="2.95"/></clipPath></defs><g class="cls-2"><g id="Capa_2" data-name="Capa 2"><g id="Layer_1" data-name="Layer 1"><g class="cls-3"><path class="cls-4" d="M86.91,119.84c0,4.45-19.46,8-43.46,8S0,124.29,0,119.84s19.46-8,43.45-8,43.46,3.6,43.46,8" transform="translate(0)"/></g><path class="cls-5" d="M74,119.62H14c-2.12-18.86,7.34-30.92,7.34-30.92l4.75-27.23L44,64l17.88-2.48L66.64,88.7s9.47,12.06,7.33,30.92" transform="translate(0)"/><path class="cls-6" d="M68.07,105.77c-.46,3.93-3.87,2.82-4.12,6.49-.19,2.64,1.62,5.37,1.46,7.36H21.74c-.17-2,1.65-4.72,1.46-7.36-.25-3.67-3.66-2.56-4.12-6.49s1-2.32,3.25-10c.75-2.51,3.41-4.57,6.61-6.23a52.88,52.88,0,0,1,7-2.91c3.16-1.11,6-1.9,7.25-2.41l.43-.17.43.17c3.53,1.42,19.52,6,21.51,12.61,2.3,7.67,3,5,2.55,8.94" transform="translate(0)"/><path class="cls-7" d="M62,119.62H24.77c-.41-7.27-.59-22.42,4.17-30.08,1.67-2.7,3.95-4.47,7.05-4.64,0,0,0,.64-.09,1.73-.25,5.1-.73,20.09,1.62,25.54a8.44,8.44,0,0,0,5.88,4.94,8.42,8.42,0,0,0,5.87-4.94c2.36-5.45,1.88-20.44,1.63-25.54,0-1.09-.09-1.73-.09-1.73,3.1.17,5.38,1.94,7,4.64,4.77,7.66,4.59,22.81,4.18,30.08" transform="translate(0)"/><path class="cls-6" d="M23.72,122.71H7a8.8,8.8,0,0,1,4.86-7.36c4.94-2.73,10.43,1.4,10.43,1.4a6,6,0,0,1,1.4,6" transform="translate(0)"/><polygon class="cls-7" points="12.68 122.71 11.6 122.71 12.46 118.23 12.68 122.71"/><polygon class="cls-7" points="9.51 122.71 8.43 122.71 9.29 118.23 9.51 122.71"/><path class="cls-6" d="M64.21,122.71H80.9A8.8,8.8,0,0,0,76,115.35c-4.94-2.73-10.43,1.4-10.43,1.4a6,6,0,0,0-1.4,6" transform="translate(0)"/><polygon class="cls-7" points="75.25 122.71 76.33 122.71 75.47 118.23 75.25 122.71"/><polygon class="cls-7" points="78.42 122.71 79.5 122.71 78.64 118.23 78.42 122.71"/><path class="cls-6" d="M40.73,125H21.19c0-5.55,4.07-7.27,4.07-7.27l-2-15-.43-3.17-.51-3.84-.95-7.07s-2.3-9.62,2.32-15.91c1.38-1.86,4.78-.9,7.65.4.93.41,1.78.86,2.51,1.27l.37.2c1,.59,1.71,1,1.71,1-3.46,9.65,0,41.39,0,41.39,5.2,2.08,4.79,7.94,4.79,7.94" transform="translate(0)"/><path class="cls-5" d="M33.86,74.46a9.84,9.84,0,0,1-5.93,7.37c-5.24,2.4-1.15,5.15-2,12.44s-3.05,5.34-3.05,5.34l-.51-3.84-.95-7.07s-2.3-9.62,2.32-15.91c1.38-1.86,4.78-.9,7.65.4.93.41,1.78.86,2.51,1.27" transform="translate(0)"/><polygon class="cls-7" points="26.54 125.03 25.25 125.03 25.25 120.35 26.54 125.03"/><polygon class="cls-7" points="36.35 120.35 36.35 125.03 35.06 125.03 36.35 120.35"/><polygon class="cls-7" points="31.4 125.03 30.1 125.03 30.45 119.63 31.4 125.03"/><path class="cls-6" d="M66.19,125H46.65s-.4-5.86,4.79-7.94c0,0,3.46-31.74,0-41.39,0,0,.68-.45,1.72-1l.36-.2c.73-.41,1.59-.86,2.51-1.27,2.87-1.3,6.28-2.26,7.65-.4C68.31,79.08,66,88.7,66,88.7l-.94,7.07-.52,3.84-.42,3.17-2,15s4,1.72,4.07,7.27" transform="translate(0)"/><path class="cls-5" d="M53.52,74.46a9.88,9.88,0,0,0,5.93,7.37c5.24,2.4,1.15,5.15,2,12.44s3,5.34,3,5.34l.51-3.84,1-7.07s2.31-9.62-2.32-15.91c-1.37-1.86-4.78-.9-7.65.4-.92.41-1.78.86-2.51,1.27" transform="translate(0)"/><polygon class="cls-7" points="60.93 120.35 60.93 125.03 59.65 125.03 60.93 120.35"/><polygon class="cls-7" points="51.13 125.03 49.84 125.03 49.84 120.35 51.13 125.03"/><polygon class="cls-7" points="56.09 125.03 54.78 125.03 55.74 119.63 56.09 125.03"/><path class="cls-8" d="M45,69.26s.13,3.67,1.61,15.13.65,14.39.65,14.39l-8.51-.39s.11-9.88-1.24-16.13C35.34,72.13,36.85,69,36.85,69Z" transform="translate(0)"/><path class="cls-9" d="M63.41,71.17a30.47,30.47,0,0,1-9.77,4.56,37.09,37.09,0,0,1-10.14,1.4c-12.33,0-19.8-4.87-19.8-4.87.41-6.82,2.1-8.89,2.1-8.89A58.09,58.09,0,0,0,42,66.17a63.1,63.1,0,0,0,9.33-.63A89.06,89.06,0,0,0,62.2,63.21c2.85,3,1.21,8,1.21,8" transform="translate(0)"/><path class="cls-8" d="M53.64,75.73a36.48,36.48,0,0,1-5.71,1.14A19.56,19.56,0,0,0,42,66.17a63.1,63.1,0,0,0,9.33-.63A13.21,13.21,0,0,1,52.61,67Z" transform="translate(0)"/><path class="cls-9" d="M44,66.15s1.41-5,7.59-4S59.2,89,59.2,89l-8.88,1.15s.61-19.09-6.31-24" transform="translate(0)"/><path class="cls-5" d="M67.8,50.77a8.9,8.9,0,0,0,2.14,3.71S65,66.94,45.8,68.71c0,0,10.64-23.92,21.54-27.44,0,0-.07.42-.15,1.12h0a14.3,14.3,0,0,0,3.54,8,7,7,0,0,1-2.94.41" transform="translate(0)"/><path class="cls-5" d="M42.5,68.88C23.28,67.11,17.22,54.5,17.22,54.5a8.56,8.56,0,0,0,2.13-3.76,7,7,0,0,1-3.22-.38,14.23,14.23,0,0,0,3.54-7.9c-.08-.5-.14-.79-.14-.79,10.89,3.51,23,27.21,23,27.21" transform="translate(0)"/><path class="cls-5" d="M35.05,26.45A125.63,125.63,0,0,0,15.62,14.56c-6.24-3.06-4.77,17.86,4.94,23.95,0,0,9.3-.31,14.49-12.06" transform="translate(0)"/><path class="cls-6" d="M29.34,28.75,18,20.51a.49.49,0,0,0-.78.43c.22,2.87,1.17,10.77,5.05,12.79,4.76,2.49,7.07-5,7.07-5" transform="translate(0)"/><path class="cls-5" d="M52,26.45A125.45,125.45,0,0,1,71.46,14.56c6.23-3.06,4.77,17.86-4.95,23.95,0,0-9.3-.31-14.49-12.06" transform="translate(0)"/><path class="cls-6" d="M57.73,28.75l11.34-8.24a.49.49,0,0,1,.79.43c-.22,2.87-1.17,10.77-5,12.79-4.77,2.49-7.08-5-7.08-5" transform="translate(0)"/><path class="cls-5" d="M56.43,62c-.94,1-1.93,2-3,3a14.64,14.64,0,0,1-20.14,0c-1-.94-2-1.93-3-3C19.89,50.5,15.12,34.05,23,27.86l.32-.25a33.94,33.94,0,0,1,10.17-5.45,46.15,46.15,0,0,1,9-3.8,29.76,29.76,0,0,0,6.73-3.15,13.93,13.93,0,0,1-1.71,4.08,14.22,14.22,0,0,0,3.58-2.1,13.9,13.9,0,0,1-1.63,4,33.38,33.38,0,0,1,14,6.45l.33.26c7.87,6.19,3.11,22.65-7.37,34.09" transform="translate(0)"/><path class="cls-6" d="M61.61,45.67A36.8,36.8,0,0,1,58.52,57.8a20.9,20.9,0,0,1-5,7.07l0,0a14.64,14.64,0,0,1-20.14,0l0,0a20,20,0,0,1-4.75-6.46,37.45,37.45,0,0,1-3.37-12.74c-.7-10.59,2-12.76,8-12.3S43.4,38.28,43.4,38.28s5-4.45,11-4.91,8,1.71,7.25,12.3" transform="translate(0)"/><path class="cls-5" d="M35.94,44.68a2.32,2.32,0,1,1-2.31-2.31,2.31,2.31,0,0,1,2.31,2.31" transform="translate(0)"/><path class="cls-5" d="M56,44.68a2.32,2.32,0,1,1-2.31-2.31A2.31,2.31,0,0,1,56,44.68" transform="translate(0)"/><path class="cls-5" d="M49.73,48.77h0c-.07.16-2.35,5.54-6.37,5.54s-5.83-5.38-5.89-5.55H49.73Z" transform="translate(0)"/><path class="cls-10" d="M49.73,48.77h0a8.37,8.37,0,0,1-6.39,3,6.8,6.8,0,0,1-5.87-3H49.73Z" transform="translate(0)"/><path class="cls-5" d="M49.8,58.87h-.22c-4.68-.14-6.58-5.36-6.66-5.58a.51.51,0,0,1,.31-.66.52.52,0,0,1,.65.31s1.76,4.79,5.73,4.91a5.51,5.51,0,0,0,5.26-3.68.51.51,0,0,1,.65-.32.5.5,0,0,1,.32.64c0,.05-1.51,4.39-6,4.39" transform="translate(0)"/><path class="cls-5" d="M49.39,58.35a6.29,6.29,0,0,1-12,0c3.47.18,6-4.31,6-4.31s2.53,4.49,6,4.31" transform="translate(0)"/><path class="cls-11" d="M43.4,72.08c-5.26,0-4.07-9.83-3.53-13.09a1.25,1.25,0,0,1,1.23-1h5.17a.76.76,0,0,1,.74.59c.61,2.66,2.73,13.54-3.61,13.54" transform="translate(0)"/><path class="cls-12" d="M43.92,58v11.1a.51.51,0,1,1-1,0V58Z" transform="translate(0)"/><path class="cls-5" d="M37.2,58.87c-4.53,0-6-4.34-6-4.39a.51.51,0,0,1,.32-.65.52.52,0,0,1,.65.33,5.47,5.47,0,0,0,5.26,3.68c4-.12,5.71-4.86,5.73-4.91a.52.52,0,0,1,.65-.31.51.51,0,0,1,.31.66c-.08.22-2,5.44-6.66,5.58H37.2" transform="translate(0)"/><g class="cls-13"><path class="cls-6" d="M28.05,52.85c0,.81-1.6,1.47-3.58,1.47s-3.58-.66-3.58-1.47,1.6-1.48,3.58-1.48,3.58.66,3.58,1.48" transform="translate(0)"/></g><g class="cls-14"><path class="cls-6" d="M66.36,52.85c0,.81-1.61,1.47-3.58,1.47s-3.58-.66-3.58-1.47,1.6-1.48,3.58-1.48,3.58.66,3.58,1.48" transform="translate(0)"/></g><path class="cls-15" d="M22.92,16.3c4.4-.72,8.94-.5,13.38-.7s9.07-.9,13.61-1.23c4.08-.3,7.17,2.27,11.14,1.07.09,0,.68-6.18.76-6.22.32.51,1.5,6.52,2.18,9.75l1.17-.74c-.1-.32-.2-.65-.29-1-.33-1.29-.4-3.51-1.21-4.41l1.6,1a21.09,21.09,0,0,0,1.55,3.35l1-.61c-1-2.07-2.15-4.21-3.32-6.35C62,5.81,58.05,0,53.23,0,45.31,0,22.72,7.31,22.5,17.32a6.64,6.64,0,0,1,.1-1Zm6.64-6.07C32.89,7.42,37.18,5.8,41.15,4,45.68,1.87,49.27.38,54,2.37c2.44,1,5.66,3.1,5.07,6.25-.31,1.64-.76,3.69-2.46,4-1.4.26-3-.84-4.41-1.16-3.78-.9-7.64-.28-11.45.35-2.43.4-11.32,3-13,.6Z" transform="translate(0)"/><path class="cls-15" d="M73.71,30.56c-.09-.34-.21-.74-.35-1.19-.22.54-.46,1.06-.7,1.55A5.9,5.9,0,0,1,73.71,30.56Z" transform="translate(0)"/><path class="cls-15" d="M22.61,18.7c0-.05,0-.09,0-.14S22.6,18.65,22.61,18.7Z" transform="translate(0)"/><path class="cls-15" d="M22.5,17.71v0Z" transform="translate(0)"/><path class="cls-15" d="M22.54,18.24s0-.1,0-.15S22.54,18.19,22.54,18.24Z" transform="translate(0)"/><path class="cls-15" d="M62.85,27.78h0l.09,0h0Z" transform="translate(0)"/><path class="cls-16" d="M22.5,17.46v0Z" transform="translate(0)"/><path class="cls-16" d="M22.53,18.09c0-.13,0-.25,0-.38Z" transform="translate(0)"/><path class="cls-16" d="M22.59,18.56c0-.1,0-.21-.05-.32C22.56,18.35,22.57,18.46,22.59,18.56Z" transform="translate(0)"/><path class="cls-16" d="M22.71,19.15c0-.15-.07-.3-.1-.45C22.64,18.85,22.67,19,22.71,19.15Z" transform="translate(0)"/><path class="cls-15" d="M62.45,19.15a1.5,1.5,0,0,1,.33.59h0L64,19c-.68-3.23-1.86-9.24-2.18-9.75-.08,0-.67,6.2-.76,6.22-4,1.2-7.06-1.37-11.14-1.07-4.54.33-9.06,1-13.61,1.23s-9,0-13.38.7l-.32,0a6.64,6.64,0,0,0-.1,1v.39c0,.13,0,.25,0,.38s0,.1,0,.15,0,.22.05.32,0,.09,0,.14.06.3.1.45c.73-.68,10.28-1.56,19.8-1.65S61.48,18.1,62.45,19.15Z" transform="translate(0)"/><path class="cls-16" d="M62.45,19.15a1.5,1.5,0,0,1,.33.59h0L64,19c-.68-3.23-1.86-9.24-2.18-9.75-.08,0-.67,6.2-.76,6.22-4,1.2-7.06-1.37-11.14-1.07-4.54.33-9.06,1-13.61,1.23s-9,0-13.38.7l-.32,0a6.64,6.64,0,0,0-.1,1v.39c0,.13,0,.25,0,.38s0,.1,0,.15,0,.22.05.32,0,.09,0,.14.06.3.1.45c.73-.68,10.28-1.56,19.8-1.65S61.48,18.1,62.45,19.15Z" transform="translate(0)"/><path class="cls-15" d="M62.62,23.33c0,.2,0,.41,0,.6,0,1.53.35,2.92.25,3.85l.09,0c0-1.63-.3-3.33-.32-4.49Z" transform="translate(0)"/><path class="cls-16" d="M62.62,23.33c0,.2,0,.41,0,.6,0,1.53.35,2.92.25,3.85l.09,0c0-1.63-.3-3.33-.32-4.49Z" transform="translate(0)"/><path class="cls-6" d="M50,24.17l-.76-.06h0c-.79-.06-1.59-.08-2.41-.08h-.08l-.7,0H45.8l-.6,0-.23,0-.57,0-.25,0-.6.06-.22,0-.79.1.81,0c3.67-.06,7.3.16,10.31.39A35.19,35.19,0,0,0,50,24.17Z" transform="translate(0)"/><path class="cls-6" d="M24.23,25c.57.85,5.55.22,11.67-.26a28.54,28.54,0,0,1-8-1.27C26.35,24.13,23.67,24.16,24.23,25Z" transform="translate(0)"/><path class="cls-6" d="M22.77,19.38a3.33,3.33,0,0,0,2,2.53A5.18,5.18,0,0,1,22.77,19.38Z" transform="translate(0)"/><path class="cls-6" d="M53.66,24.72h0A35.58,35.58,0,0,0,50,24.17,35.19,35.19,0,0,1,53.66,24.72Z" transform="translate(0)"/><path class="cls-6" d="M43.55,24.22l.6-.06Z" transform="translate(0)"/><path class="cls-6" d="M44.4,24.14l.57,0Z" transform="translate(0)"/><path class="cls-6" d="M49.2,24.11l.76.06Z" transform="translate(0)"/><path class="cls-6" d="M42.54,24.35h0l.79-.1Z" transform="translate(0)"/><path class="cls-6" d="M46.77,24c.82,0,1.62,0,2.41.08C48.39,24.05,47.59,24,46.77,24Z" transform="translate(0)"/><path class="cls-6" d="M45.2,24.08l.6,0Z" transform="translate(0)"/><path class="cls-6" d="M46,24.05l.7,0Z" transform="translate(0)"/><path class="cls-6" d="M46.69,24h0Z" transform="translate(0)"/><path class="cls-6" d="M49.18,24.11h0Z" transform="translate(0)"/><path class="cls-6" d="M50,24.17h0Z" transform="translate(0)"/><path class="cls-6" d="M45.8,24.06h0Z" transform="translate(0)"/><path class="cls-6" d="M44.15,24.16l.25,0Z" transform="translate(0)"/><path class="cls-6" d="M43.33,24.25l.22,0Z" transform="translate(0)"/><path class="cls-6" d="M45,24.1l.23,0Z" transform="translate(0)"/><path class="cls-6" d="M22.77,19.38a5.18,5.18,0,0,0,2,2.53,7.86,7.86,0,0,0,4.17.4c0,.53-.43.89-1,1.15a28.54,28.54,0,0,0,8,1.27c2.12-.17,4.38-.32,6.64-.38l.79-.1.22,0,.6-.06.25,0,.57,0,.23,0,.6,0H46l.7,0h.08c.82,0,1.62,0,2.41.08h0l.76.06h0a35.58,35.58,0,0,1,3.69.55c4,.3,6.87.62,7.25.27.77-.68-3.56.23-3.59-1.93,5.37-.66,4.94-4.09,5.11-3.91-1-1-10.44-1.74-19.94-1.65s-19.07,1-19.8,1.65C22.73,19.13,22.74,19.22,22.77,19.38Z" transform="translate(0)"/><path class="cls-17" d="M43.35,24.33l-.81,0h0a39.14,39.14,0,0,1-6.61.38c-6.12.48-11.1,1.11-11.67.26s2.12-.86,3.66-1.53a11.86,11.86,0,0,1-3.15-1.55,3.33,3.33,0,0,1-2-2.53l-.06-.23c-.74.68-.09,2.86-.11,4.78s-.72,3.59.11,4.74c1.67,2.3,38.24,1.25,39.74,0a1.26,1.26,0,0,0,.4-.88,42.69,42.69,0,0,0-9.19-3.07C50.65,24.49,47,24.27,43.35,24.33Z" transform="translate(0)"/><path class="cls-17" d="M42.51,24.35h0Z" transform="translate(0)"/><path class="cls-17" d="M53.68,24.72h0a42.69,42.69,0,0,1,9.19,3.07h0A42.87,42.87,0,0,0,53.68,24.72Z" transform="translate(0)"/><path class="cls-17" d="M62.6,23.93c0-.19,0-.4,0-.6,0-1.54.15-3.53.16-3.59a1.5,1.5,0,0,0-.33-.59c-.17-.18.26,3.25-5.11,3.91,0,2.16,4.36,1.25,3.59,1.93-.38.35-3.26,0-7.25-.27a42.87,42.87,0,0,1,9.17,3.06C63,26.85,62.63,25.46,62.6,23.93Z" transform="translate(0)"/><path class="cls-17" d="M28.91,22.31a7.86,7.86,0,0,1-4.17-.4,11.86,11.86,0,0,0,3.15,1.55C28.48,23.2,28.9,22.84,28.91,22.31Z" transform="translate(0)"/><path class="cls-17" d="M35.9,24.73a39.14,39.14,0,0,0,6.61-.38h0C40.28,24.41,38,24.56,35.9,24.73Z" transform="translate(0)"/><path class="cls-17" d="M22.71,19.15l.06.23C22.74,19.22,22.73,19.13,22.71,19.15Z" transform="translate(0)"/><path class="cls-6" d="M71.87,32.38a24.8,24.8,0,0,1-2,2.94,5.83,5.83,0,0,0,10.76-.86c0,.14.08.28.11.42a5.82,5.82,0,0,0-5.67-4.48,6.1,6.1,0,0,0-1.36.16,5.21,5.21,0,0,1,.17,1.09C73.88,32.83,73.18,32.91,71.87,32.38Z" transform="translate(0)"/><path class="cls-6" d="M80.75,34.9a5.66,5.66,0,0,1,.13.84A5.66,5.66,0,0,0,80.75,34.9Z" transform="translate(0)"/><path class="cls-6" d="M80.89,35.81c0,.14,0,.28,0,.42C80.9,36.09,80.9,36,80.89,35.81Z" transform="translate(0)"/><path class="cls-6" d="M69.25,36.08a.76.76,0,0,0,0,.15s0-.1,0-.16Z" transform="translate(0)"/><path class="cls-6" d="M72.11,32a10.59,10.59,0,0,0,1,.71,3.16,3.16,0,0,1-1.27-.3h0c1.31.53,2,.45,2-.73a5.21,5.21,0,0,0-.17-1.09,5.9,5.9,0,0,0-1,.36C72.48,31.29,72.29,31.64,72.11,32Z" transform="translate(0)"/><path class="cls-6" d="M73.15,32.68a10.59,10.59,0,0,1-1-.71l-.23.41A3.16,3.16,0,0,0,73.15,32.68Z" transform="translate(0)"/><path class="cls-18" d="M80.88,35.74v0Z" transform="translate(0)"/><path class="cls-18" d="M80.74,34.88v0Z" transform="translate(0)"/><path class="cls-18" d="M80.89,35.81v-.07a5.66,5.66,0,0,0-.13-.84v0c0-.14-.07-.28-.11-.42a5.83,5.83,0,0,1-10.76.86l-.62.75c0,.06,0,.11,0,.16a5.83,5.83,0,0,0,11.66,0C80.9,36.09,80.9,36,80.89,35.81Z" transform="translate(0)"/><path class="cls-15" d="M40.78,11.83c3.81-.63,7.67-1.25,11.45-.35,1.37.32,3,1.42,4.41,1.16,1.7-.33,2.15-2.38,2.46-4C59.69,5.47,56.47,3.4,54,2.37c-4.76-2-8.35-.5-12.88,1.6-4,1.83-8.26,3.45-11.59,6.26l-1.8,2.2C29.46,14.82,38.35,12.23,40.78,11.83Z" transform="translate(0)"/><path class="cls-19" d="M40.78,11.83c3.81-.63,7.67-1.25,11.45-.35,1.37.32,3,1.42,4.41,1.16,1.7-.33,2.15-2.38,2.46-4C59.69,5.47,56.47,3.4,54,2.37c-4.76-2-8.35-.5-12.88,1.6-4,1.83-8.26,3.45-11.59,6.26l-1.8,2.2C29.46,14.82,38.35,12.23,40.78,11.83Z" transform="translate(0)"/><path class="cls-15" d="M65.26,13.84l-1.6-1c.81.9.88,3.12,1.21,4.41.09.33.19.66.29,1l1.65-1A21.09,21.09,0,0,1,65.26,13.84Z" transform="translate(0)"/><path class="cls-19" d="M65.26,13.84l-1.6-1c.81.9.88,3.12,1.21,4.41.09.33.19.66.29,1l1.65-1A21.09,21.09,0,0,1,65.26,13.84Z" transform="translate(0)"/><path class="cls-6" d="M62.62,23.33c.09-1.3.43-2.66.16-3.59C62.77,19.8,62.59,21.79,62.62,23.33Z" transform="translate(0)"/><path class="cls-6" d="M69.26,35.73c0-.13,0-.27,0-.4C69.29,35.46,69.28,35.6,69.26,35.73Z" transform="translate(0)"/><path class="cls-6" d="M69.31,35.32c0-.14,0-.27.08-.4C69.36,35.05,69.33,35.18,69.31,35.32Z" transform="translate(0)"/><path class="cls-6" d="M69.26,35.82a2.26,2.26,0,0,0,0,.26h0A2.18,2.18,0,0,1,69.26,35.82Z" transform="translate(0)"/><path class="cls-6" d="M71.05,32a5.86,5.86,0,0,0-1.65,2.85c0-.13.07-.27.12-.4a5,5,0,0,0,.35.86,24.8,24.8,0,0,0,2-2.94C71.62,32.28,71.35,32.15,71.05,32Z" transform="translate(0)"/><path class="cls-6" d="M71.88,32.38c-.25-.1-.53-.23-.82-.37h0c.3.14.57.27.82.37Z" transform="translate(0)"/><path class="cls-6" d="M72.66,30.92a6.15,6.15,0,0,0-1.08.64l.53.41C72.29,31.64,72.48,31.29,72.66,30.92Z" transform="translate(0)"/><path class="cls-6" d="M72.11,32l-.53-.41a5.59,5.59,0,0,0-.52.45c.29.14.57.27.82.37Z" transform="translate(0)"/><path class="cls-6" d="M69.31,35.33h0Z" transform="translate(0)"/><path class="cls-6" d="M69.39,34.92v0Z" transform="translate(0)"/><path class="cls-6" d="M69.26,35.82v0Z" transform="translate(0)"/><path class="cls-6" d="M69.4,34.86v.06c0,.13-.06.26-.08.4h0c0,.13,0,.27,0,.4v.09a2.18,2.18,0,0,0,0,.25l.62-.75a5,5,0,0,1-.35-.86C69.47,34.59,69.44,34.73,69.4,34.86Z" transform="translate(0)"/><g class="cls-20"><path class="cls-5" d="M74,119.62H14c-2.12-18.86,7.34-30.92,7.34-30.92l4.75-27.23L44,64l17.88-2.48L66.64,88.7s9.47,12.06,7.33,30.92" transform="translate(0)"/><path class="cls-6" d="M68.07,105.77c-.46,3.93-3.87,2.82-4.12,6.49-.19,2.64,1.62,5.37,1.46,7.36H21.74c-.17-2,1.65-4.72,1.46-7.36-.25-3.67-3.66-2.56-4.12-6.49s1-2.32,3.25-10c.75-2.51,3.41-4.57,6.61-6.23a52.88,52.88,0,0,1,7-2.91c3.16-1.11,6-1.9,7.25-2.41l.43-.17.43.17c3.53,1.42,19.52,6,21.51,12.61,2.3,7.67,3,5,2.55,8.94" transform="translate(0)"/><path class="cls-7" d="M62,119.62H24.77c-.41-7.27-.59-22.42,4.17-30.08,1.67-2.7,3.95-4.47,7.05-4.64,0,0,0,.64-.09,1.73-.25,5.1-.73,20.09,1.62,25.54a8.44,8.44,0,0,0,5.88,4.94,8.42,8.42,0,0,0,5.87-4.94c2.36-5.45,1.88-20.44,1.63-25.54,0-1.09-.09-1.73-.09-1.73,3.1.17,5.38,1.94,7,4.64,4.77,7.66,4.59,22.81,4.18,30.08" transform="translate(0)"/><path class="cls-6" d="M23.72,122.71H7a8.8,8.8,0,0,1,4.86-7.36c4.94-2.73,10.43,1.4,10.43,1.4a6,6,0,0,1,1.4,6" transform="translate(0)"/><polygon class="cls-7" points="12.68 122.71 11.6 122.71 12.46 118.23 12.68 122.71"/><polygon class="cls-7" points="9.51 122.71 8.43 122.71 9.29 118.23 9.51 122.71"/><path class="cls-6" d="M64.21,122.71H80.9A8.8,8.8,0,0,0,76,115.35c-4.94-2.73-10.43,1.4-10.43,1.4a6,6,0,0,0-1.4,6" transform="translate(0)"/><polygon class="cls-7" points="75.25 122.71 76.33 122.71 75.47 118.23 75.25 122.71"/><polygon class="cls-7" points="78.42 122.71 79.5 122.71 78.64 118.23 78.42 122.71"/><path class="cls-6" d="M40.73,125H21.19c0-5.55,4.07-7.27,4.07-7.27l-2-15-.43-3.17-.51-3.84-.95-7.07s-2.3-9.62,2.32-15.91c1.38-1.86,4.78-.9,7.65.4.93.41,1.78.86,2.51,1.27l.37.2c1,.59,1.71,1,1.71,1-3.46,9.65,0,41.39,0,41.39,5.2,2.08,4.79,7.94,4.79,7.94" transform="translate(0)"/><path class="cls-5" d="M33.86,74.46a9.84,9.84,0,0,1-5.93,7.37c-5.24,2.4-1.15,5.15-2,12.44s-3.05,5.34-3.05,5.34l-.51-3.84-.95-7.07s-2.3-9.62,2.32-15.91c1.38-1.86,4.78-.9,7.65.4.93.41,1.78.86,2.51,1.27" transform="translate(0)"/><polygon class="cls-7" points="26.54 125.03 25.25 125.03 25.25 120.35 26.54 125.03"/><polygon class="cls-7" points="36.35 120.35 36.35 125.03 35.06 125.03 36.35 120.35"/><polygon class="cls-7" points="31.4 125.03 30.1 125.03 30.45 119.63 31.4 125.03"/><path class="cls-6" d="M66.19,125H46.65s-.4-5.86,4.79-7.94c0,0,3.46-31.74,0-41.39,0,0,.68-.45,1.72-1l.36-.2c.73-.41,1.59-.86,2.51-1.27,2.87-1.3,6.28-2.26,7.65-.4C68.31,79.08,66,88.7,66,88.7l-.94,7.07-.52,3.84-.42,3.17-2,15s4,1.72,4.07,7.27" transform="translate(0)"/><path class="cls-5" d="M53.52,74.46a9.88,9.88,0,0,0,5.93,7.37c5.24,2.4,1.15,5.15,2,12.44s3,5.34,3,5.34l.51-3.84,1-7.07s2.31-9.62-2.32-15.91c-1.37-1.86-4.78-.9-7.65.4-.92.41-1.78.86-2.51,1.27" transform="translate(0)"/><polygon class="cls-7" points="60.93 120.35 60.93 125.03 59.65 125.03 60.93 120.35"/><polygon class="cls-7" points="51.13 125.03 49.84 125.03 49.84 120.35 51.13 125.03"/><polygon class="cls-7" points="56.09 125.03 54.78 125.03 55.74 119.63 56.09 125.03"/><path class="cls-8" d="M45,69.26s.13,3.67,1.61,15.13.65,14.39.65,14.39l-8.51-.39s.11-9.88-1.24-16.13C35.34,72.13,36.85,69,36.85,69Z" transform="translate(0)"/><path class="cls-9" d="M63.41,71.17a30.47,30.47,0,0,1-9.77,4.56,37.09,37.09,0,0,1-10.14,1.4c-12.33,0-19.8-4.87-19.8-4.87.41-6.82,2.1-8.89,2.1-8.89A58.09,58.09,0,0,0,42,66.17a63.1,63.1,0,0,0,9.33-.63A89.06,89.06,0,0,0,62.2,63.21c2.85,3,1.21,8,1.21,8" transform="translate(0)"/><path class="cls-8" d="M53.64,75.73a36.48,36.48,0,0,1-5.71,1.14A19.56,19.56,0,0,0,42,66.17a63.1,63.1,0,0,0,9.33-.63A13.21,13.21,0,0,1,52.61,67Z" transform="translate(0)"/><path class="cls-9" d="M44,66.15s1.41-5,7.59-4S59.2,89,59.2,89l-8.88,1.15s.61-19.09-6.31-24" transform="translate(0)"/><path class="cls-5" d="M67.8,50.77a8.9,8.9,0,0,0,2.14,3.71S65,66.94,45.8,68.71c0,0,10.64-23.92,21.54-27.44,0,0-.07.42-.15,1.12h0a14.3,14.3,0,0,0,3.54,8,7,7,0,0,1-2.94.41" transform="translate(0)"/><path class="cls-5" d="M42.5,68.88C23.28,67.11,17.22,54.5,17.22,54.5a8.56,8.56,0,0,0,2.13-3.76,7,7,0,0,1-3.22-.38,14.23,14.23,0,0,0,3.54-7.9c-.08-.5-.14-.79-.14-.79,10.89,3.51,23,27.21,23,27.21" transform="translate(0)"/><path class="cls-5" d="M35.05,26.45A125.63,125.63,0,0,0,15.62,14.56c-6.24-3.06-4.77,17.86,4.94,23.95,0,0,9.3-.31,14.49-12.06" transform="translate(0)"/><path class="cls-6" d="M29.34,28.75,18,20.51a.49.49,0,0,0-.78.43c.22,2.87,1.17,10.77,5.05,12.79,4.76,2.49,7.07-5,7.07-5" transform="translate(0)"/><path class="cls-5" d="M52,26.45A125.45,125.45,0,0,1,71.46,14.56c6.23-3.06,4.77,17.86-4.95,23.95,0,0-9.3-.31-14.49-12.06" transform="translate(0)"/><path class="cls-6" d="M57.73,28.75l11.34-8.24a.49.49,0,0,1,.79.43c-.22,2.87-1.17,10.77-5,12.79-4.77,2.49-7.08-5-7.08-5" transform="translate(0)"/><path class="cls-5" d="M56.43,62c-.94,1-1.93,2-3,3a14.64,14.64,0,0,1-20.14,0c-1-.94-2-1.93-3-3C19.89,50.5,15.12,34.05,23,27.86l.32-.25a33.94,33.94,0,0,1,10.17-5.45,46.15,46.15,0,0,1,9-3.8,29.76,29.76,0,0,0,6.73-3.15,13.93,13.93,0,0,1-1.71,4.08,14.22,14.22,0,0,0,3.58-2.1,13.9,13.9,0,0,1-1.63,4,33.38,33.38,0,0,1,14,6.45l.33.26c7.87,6.19,3.11,22.65-7.37,34.09" transform="translate(0)"/><path class="cls-6" d="M61.61,45.67A36.8,36.8,0,0,1,58.52,57.8a20.9,20.9,0,0,1-5,7.07l0,0a14.64,14.64,0,0,1-20.14,0l0,0a20,20,0,0,1-4.75-6.46,37.45,37.45,0,0,1-3.37-12.74c-.7-10.59,2-12.76,8-12.3S43.4,38.28,43.4,38.28s5-4.45,11-4.91,8,1.71,7.25,12.3" transform="translate(0)"/><path class="cls-5" d="M35.94,44.68a2.32,2.32,0,1,1-2.31-2.31,2.31,2.31,0,0,1,2.31,2.31" transform="translate(0)"/><path class="cls-5" d="M56,44.68a2.32,2.32,0,1,1-2.31-2.31A2.31,2.31,0,0,1,56,44.68" transform="translate(0)"/><path class="cls-5" d="M49.73,48.77h0c-.07.16-2.35,5.54-6.37,5.54s-5.83-5.38-5.89-5.55H49.73Z" transform="translate(0)"/><path class="cls-10" d="M49.73,48.77h0a8.37,8.37,0,0,1-6.39,3,6.8,6.8,0,0,1-5.87-3H49.73Z" transform="translate(0)"/><path class="cls-5" d="M49.8,58.87h-.22c-4.68-.14-6.58-5.36-6.66-5.58a.51.51,0,0,1,.31-.66.52.52,0,0,1,.65.31s1.76,4.79,5.73,4.91a5.51,5.51,0,0,0,5.26-3.68.51.51,0,0,1,.65-.32.5.5,0,0,1,.32.64c0,.05-1.51,4.39-6,4.39" transform="translate(0)"/><path class="cls-5" d="M49.39,58.35a6.29,6.29,0,0,1-12,0c3.47.18,6-4.31,6-4.31s2.53,4.49,6,4.31" transform="translate(0)"/><path class="cls-11" d="M43.4,72.08c-5.26,0-4.07-9.83-3.53-13.09a1.25,1.25,0,0,1,1.23-1h5.17a.76.76,0,0,1,.74.59c.61,2.66,2.73,13.54-3.61,13.54" transform="translate(0)"/><path class="cls-12" d="M43.92,58v11.1a.51.51,0,1,1-1,0V58Z" transform="translate(0)"/><path class="cls-5" d="M37.2,58.87c-4.53,0-6-4.34-6-4.39a.51.51,0,0,1,.32-.65.52.52,0,0,1,.65.33,5.47,5.47,0,0,0,5.26,3.68c4-.12,5.71-4.86,5.73-4.91a.52.52,0,0,1,.65-.31.51.51,0,0,1,.31.66c-.08.22-2,5.44-6.66,5.58H37.2" transform="translate(0)"/><g class="cls-13"><path class="cls-6" d="M28.05,52.85c0,.81-1.6,1.47-3.58,1.47s-3.58-.66-3.58-1.47,1.6-1.48,3.58-1.48,3.58.66,3.58,1.48" transform="translate(0)"/></g><g class="cls-14"><path class="cls-6" d="M66.36,52.85c0,.81-1.61,1.47-3.58,1.47s-3.58-.66-3.58-1.47,1.6-1.48,3.58-1.48,3.58.66,3.58,1.48" transform="translate(0)"/></g><path class="cls-15" d="M22.92,16.3c4.4-.72,8.94-.5,13.38-.7s9.07-.9,13.61-1.23c4.08-.3,7.17,2.27,11.14,1.07.09,0,.68-6.18.76-6.22.32.51,1.5,6.52,2.18,9.75l1.17-.74c-.1-.32-.2-.65-.29-1-.33-1.29-.4-3.51-1.21-4.41l1.6,1a21.09,21.09,0,0,0,1.55,3.35l1-.61c-1-2.07-2.15-4.21-3.32-6.35C62,5.81,58.05,0,53.23,0,45.31,0,22.72,7.31,22.5,17.32a6.64,6.64,0,0,1,.1-1Zm6.64-6.07C32.89,7.42,37.18,5.8,41.15,4,45.68,1.87,49.27.38,54,2.37c2.44,1,5.66,3.1,5.07,6.25-.31,1.64-.76,3.69-2.46,4-1.4.26-3-.84-4.41-1.16-3.78-.9-7.64-.28-11.45.35-2.43.4-11.32,3-13,.6Z" transform="translate(0)"/><path class="cls-15" d="M73.71,30.56c-.09-.34-.21-.74-.35-1.19-.22.54-.46,1.06-.7,1.55A5.9,5.9,0,0,1,73.71,30.56Z" transform="translate(0)"/><path class="cls-15" d="M22.61,18.7c0-.05,0-.09,0-.14S22.6,18.65,22.61,18.7Z" transform="translate(0)"/><path class="cls-15" d="M22.5,17.71v0Z" transform="translate(0)"/><path class="cls-15" d="M22.54,18.24s0-.1,0-.15S22.54,18.19,22.54,18.24Z" transform="translate(0)"/><path class="cls-15" d="M62.85,27.78h0l.09,0h0Z" transform="translate(0)"/><path class="cls-16" d="M22.5,17.46v0Z" transform="translate(0)"/><path class="cls-16" d="M22.53,18.09c0-.13,0-.25,0-.38Z" transform="translate(0)"/><path class="cls-16" d="M22.59,18.56c0-.1,0-.21-.05-.32C22.56,18.35,22.57,18.46,22.59,18.56Z" transform="translate(0)"/><path class="cls-16" d="M22.71,19.15c0-.15-.07-.3-.1-.45C22.64,18.85,22.67,19,22.71,19.15Z" transform="translate(0)"/><path class="cls-15" d="M62.45,19.15a1.5,1.5,0,0,1,.33.59h0L64,19c-.68-3.23-1.86-9.24-2.18-9.75-.08,0-.67,6.2-.76,6.22-4,1.2-7.06-1.37-11.14-1.07-4.54.33-9.06,1-13.61,1.23s-9,0-13.38.7l-.32,0a6.64,6.64,0,0,0-.1,1v.39c0,.13,0,.25,0,.38s0,.1,0,.15,0,.22.05.32,0,.09,0,.14.06.3.1.45c.73-.68,10.28-1.56,19.8-1.65S61.48,18.1,62.45,19.15Z" transform="translate(0)"/><path class="cls-16" d="M62.45,19.15a1.5,1.5,0,0,1,.33.59h0L64,19c-.68-3.23-1.86-9.24-2.18-9.75-.08,0-.67,6.2-.76,6.22-4,1.2-7.06-1.37-11.14-1.07-4.54.33-9.06,1-13.61,1.23s-9,0-13.38.7l-.32,0a6.64,6.64,0,0,0-.1,1v.39c0,.13,0,.25,0,.38s0,.1,0,.15,0,.22.05.32,0,.09,0,.14.06.3.1.45c.73-.68,10.28-1.56,19.8-1.65S61.48,18.1,62.45,19.15Z" transform="translate(0)"/><path class="cls-15" d="M62.62,23.33c0,.2,0,.41,0,.6,0,1.53.35,2.92.25,3.85l.09,0c0-1.63-.3-3.33-.32-4.49Z" transform="translate(0)"/><path class="cls-16" d="M62.62,23.33c0,.2,0,.41,0,.6,0,1.53.35,2.92.25,3.85l.09,0c0-1.63-.3-3.33-.32-4.49Z" transform="translate(0)"/><path class="cls-6" d="M50,24.17l-.76-.06h0c-.79-.06-1.59-.08-2.41-.08h-.08l-.7,0H45.8l-.6,0-.23,0-.57,0-.25,0-.6.06-.22,0-.79.1.81,0c3.67-.06,7.3.16,10.31.39A35.19,35.19,0,0,0,50,24.17Z" transform="translate(0)"/><path class="cls-6" d="M24.23,25c.57.85,5.55.22,11.67-.26a28.54,28.54,0,0,1-8-1.27C26.35,24.13,23.67,24.16,24.23,25Z" transform="translate(0)"/><path class="cls-6" d="M22.77,19.38a3.33,3.33,0,0,0,2,2.53A5.18,5.18,0,0,1,22.77,19.38Z" transform="translate(0)"/><path class="cls-6" d="M53.66,24.72h0A35.58,35.58,0,0,0,50,24.17,35.19,35.19,0,0,1,53.66,24.72Z" transform="translate(0)"/><path class="cls-6" d="M43.55,24.22l.6-.06Z" transform="translate(0)"/><path class="cls-6" d="M44.4,24.14l.57,0Z" transform="translate(0)"/><path class="cls-6" d="M49.2,24.11l.76.06Z" transform="translate(0)"/><path class="cls-6" d="M42.54,24.35h0l.79-.1Z" transform="translate(0)"/><path class="cls-6" d="M46.77,24c.82,0,1.62,0,2.41.08C48.39,24.05,47.59,24,46.77,24Z" transform="translate(0)"/><path class="cls-6" d="M45.2,24.08l.6,0Z" transform="translate(0)"/><path class="cls-6" d="M46,24.05l.7,0Z" transform="translate(0)"/><path class="cls-6" d="M46.69,24h0Z" transform="translate(0)"/><path class="cls-6" d="M49.18,24.11h0Z" transform="translate(0)"/><path class="cls-6" d="M50,24.17h0Z" transform="translate(0)"/><path class="cls-6" d="M45.8,24.06h0Z" transform="translate(0)"/><path class="cls-6" d="M44.15,24.16l.25,0Z" transform="translate(0)"/><path class="cls-6" d="M43.33,24.25l.22,0Z" transform="translate(0)"/><path class="cls-6" d="M45,24.1l.23,0Z" transform="translate(0)"/><path class="cls-6" d="M22.77,19.38a5.18,5.18,0,0,0,2,2.53,7.86,7.86,0,0,0,4.17.4c0,.53-.43.89-1,1.15a28.54,28.54,0,0,0,8,1.27c2.12-.17,4.38-.32,6.64-.38l.79-.1.22,0,.6-.06.25,0,.57,0,.23,0,.6,0H46l.7,0h.08c.82,0,1.62,0,2.41.08h0l.76.06h0a35.58,35.58,0,0,1,3.69.55c4,.3,6.87.62,7.25.27.77-.68-3.56.23-3.59-1.93,5.37-.66,4.94-4.09,5.11-3.91-1-1-10.44-1.74-19.94-1.65s-19.07,1-19.8,1.65C22.73,19.13,22.74,19.22,22.77,19.38Z" transform="translate(0)"/><path class="cls-17" d="M43.35,24.33l-.81,0h0a39.14,39.14,0,0,1-6.61.38c-6.12.48-11.1,1.11-11.67.26s2.12-.86,3.66-1.53a11.86,11.86,0,0,1-3.15-1.55,3.33,3.33,0,0,1-2-2.53l-.06-.23c-.74.68-.09,2.86-.11,4.78s-.72,3.59.11,4.74c1.67,2.3,38.24,1.25,39.74,0a1.26,1.26,0,0,0,.4-.88,42.69,42.69,0,0,0-9.19-3.07C50.65,24.49,47,24.27,43.35,24.33Z" transform="translate(0)"/><path class="cls-17" d="M42.51,24.35h0Z" transform="translate(0)"/><path class="cls-17" d="M53.68,24.72h0a42.69,42.69,0,0,1,9.19,3.07h0A42.87,42.87,0,0,0,53.68,24.72Z" transform="translate(0)"/><path class="cls-17" d="M62.6,23.93c0-.19,0-.4,0-.6,0-1.54.15-3.53.16-3.59a1.5,1.5,0,0,0-.33-.59c-.17-.18.26,3.25-5.11,3.91,0,2.16,4.36,1.25,3.59,1.93-.38.35-3.26,0-7.25-.27a42.87,42.87,0,0,1,9.17,3.06C63,26.85,62.63,25.46,62.6,23.93Z" transform="translate(0)"/><path class="cls-17" d="M28.91,22.31a7.86,7.86,0,0,1-4.17-.4,11.86,11.86,0,0,0,3.15,1.55C28.48,23.2,28.9,22.84,28.91,22.31Z" transform="translate(0)"/><path class="cls-17" d="M35.9,24.73a39.14,39.14,0,0,0,6.61-.38h0C40.28,24.41,38,24.56,35.9,24.73Z" transform="translate(0)"/><path class="cls-17" d="M22.71,19.15l.06.23C22.74,19.22,22.73,19.13,22.71,19.15Z" transform="translate(0)"/><path class="cls-6" d="M71.87,32.38a24.8,24.8,0,0,1-2,2.94,5.83,5.83,0,0,0,10.76-.86c0,.14.08.28.11.42a5.82,5.82,0,0,0-5.67-4.48,6.1,6.1,0,0,0-1.36.16,5.21,5.21,0,0,1,.17,1.09C73.88,32.83,73.18,32.91,71.87,32.38Z" transform="translate(0)"/><path class="cls-6" d="M80.75,34.9a5.66,5.66,0,0,1,.13.84A5.66,5.66,0,0,0,80.75,34.9Z" transform="translate(0)"/><path class="cls-6" d="M80.89,35.81c0,.14,0,.28,0,.42C80.9,36.09,80.9,36,80.89,35.81Z" transform="translate(0)"/><path class="cls-6" d="M69.25,36.08a.76.76,0,0,0,0,.15s0-.1,0-.16Z" transform="translate(0)"/><path class="cls-6" d="M72.11,32a10.59,10.59,0,0,0,1,.71,3.16,3.16,0,0,1-1.27-.3h0c1.31.53,2,.45,2-.73a5.21,5.21,0,0,0-.17-1.09,5.9,5.9,0,0,0-1,.36C72.48,31.29,72.29,31.64,72.11,32Z" transform="translate(0)"/><path class="cls-6" d="M73.15,32.68a10.59,10.59,0,0,1-1-.71l-.23.41A3.16,3.16,0,0,0,73.15,32.68Z" transform="translate(0)"/><path class="cls-18" d="M80.88,35.74v0Z" transform="translate(0)"/><path class="cls-18" d="M80.74,34.88v0Z" transform="translate(0)"/><path class="cls-18" d="M80.89,35.81v-.07a5.66,5.66,0,0,0-.13-.84v0c0-.14-.07-.28-.11-.42a5.83,5.83,0,0,1-10.76.86l-.62.75c0,.06,0,.11,0,.16a5.83,5.83,0,0,0,11.66,0C80.9,36.09,80.9,36,80.89,35.81Z" transform="translate(0)"/><path class="cls-15" d="M40.78,11.83c3.81-.63,7.67-1.25,11.45-.35,1.37.32,3,1.42,4.41,1.16,1.7-.33,2.15-2.38,2.46-4C59.69,5.47,56.47,3.4,54,2.37c-4.76-2-8.35-.5-12.88,1.6-4,1.83-8.26,3.45-11.59,6.26l-1.8,2.2C29.46,14.82,38.35,12.23,40.78,11.83Z" transform="translate(0)"/><path class="cls-19" d="M40.78,11.83c3.81-.63,7.67-1.25,11.45-.35,1.37.32,3,1.42,4.41,1.16,1.7-.33,2.15-2.38,2.46-4C59.69,5.47,56.47,3.4,54,2.37c-4.76-2-8.35-.5-12.88,1.6-4,1.83-8.26,3.45-11.59,6.26l-1.8,2.2C29.46,14.82,38.35,12.23,40.78,11.83Z" transform="translate(0)"/><path class="cls-15" d="M65.26,13.84l-1.6-1c.81.9.88,3.12,1.21,4.41.09.33.19.66.29,1l1.65-1A21.09,21.09,0,0,1,65.26,13.84Z" transform="translate(0)"/><path class="cls-19" d="M65.26,13.84l-1.6-1c.81.9.88,3.12,1.21,4.41.09.33.19.66.29,1l1.65-1A21.09,21.09,0,0,1,65.26,13.84Z" transform="translate(0)"/><path class="cls-6" d="M62.62,23.33c.09-1.3.43-2.66.16-3.59C62.77,19.8,62.59,21.79,62.62,23.33Z" transform="translate(0)"/><path class="cls-6" d="M69.26,35.73c0-.13,0-.27,0-.4C69.29,35.46,69.28,35.6,69.26,35.73Z" transform="translate(0)"/><path class="cls-6" d="M69.31,35.32c0-.14,0-.27.08-.4C69.36,35.05,69.33,35.18,69.31,35.32Z" transform="translate(0)"/><path class="cls-6" d="M69.26,35.82a2.26,2.26,0,0,0,0,.26h0A2.18,2.18,0,0,1,69.26,35.82Z" transform="translate(0)"/><path class="cls-6" d="M71.05,32a5.86,5.86,0,0,0-1.65,2.85c0-.13.07-.27.12-.4a5,5,0,0,0,.35.86,24.8,24.8,0,0,0,2-2.94C71.62,32.28,71.35,32.15,71.05,32Z" transform="translate(0)"/><path class="cls-6" d="M71.88,32.38c-.25-.1-.53-.23-.82-.37h0c.3.14.57.27.82.37Z" transform="translate(0)"/><path class="cls-6" d="M72.66,30.92a6.15,6.15,0,0,0-1.08.64l.53.41C72.29,31.64,72.48,31.29,72.66,30.92Z" transform="translate(0)"/><path class="cls-6" d="M72.11,32l-.53-.41a5.59,5.59,0,0,0-.52.45c.29.14.57.27.82.37Z" transform="translate(0)"/><path class="cls-6" d="M69.31,35.33h0Z" transform="translate(0)"/><path class="cls-6" d="M69.39,34.92v0Z" transform="translate(0)"/><path class="cls-6" d="M69.26,35.82v0Z" transform="translate(0)"/><path class="cls-6" d="M69.4,34.86v.06c0,.13-.06.26-.08.4h0c0,.13,0,.27,0,.4v.09a2.18,2.18,0,0,0,0,.25l.62-.75a5,5,0,0,1-.35-.86C69.47,34.59,69.44,34.73,69.4,34.86Z" transform="translate(0)"/></g></g></g></g></svg>