<svg xmlns="http://www.w3.org/2000/svg" viewBox="0 0 182.95 190.58"><defs><style>.cls-1{isolation:isolate;}.cls-2{fill:#507c41;opacity:0.26;mix-blend-mode:color-burn;}.cls-3{fill:#d3e7f5;}.cls-4{fill:#aacad8;}.cls-5{fill:#bcd7e6;}.cls-6{fill:#c7e0eb;}.cls-7{fill:#d8e7f2;}.cls-8{fill:#e5f2fc;}.cls-9{fill:#eef6fb;}.cls-10{fill:#373a3a;}.cls-11{fill:#414444;}.cls-12{fill:#804512;}.cls-13{fill:#2c2f2f;}.cls-14{fill:#63a7be;}.cls-14,.cls-15,.cls-16,.cls-17,.cls-36{fill-rule:evenodd;}.cls-15,.cls-37{fill:#e0af87;}.cls-16,.cls-27{fill:#d5a278;}.cls-17,.cls-26{fill:#c3223b;}.cls-18,.cls-36{fill:#ba1f36;}.cls-19{fill:#221c15;}.cls-20{fill:#1b1611;}.cls-21{fill:#2a231a;}.cls-22{fill:#2a3236;}.cls-23{fill:#2f383c;}.cls-24{fill:#22282c;}.cls-25{fill:#9e1125;}.cls-28{fill:#c8946b;}.cls-29{fill:#3b2614;}.cls-30{fill:#311f11;}.cls-31{fill:#96af41;}.cls-32{fill:#a0ba43;}.cls-33{fill:#e1b187;}.cls-34{fill:#dda027;}.cls-35{fill:#edb92c;}.cls-38{fill:#bc5153;}.cls-39{fill:#d2676a;}.cls-40{fill:#8c318d;}.cls-41{fill:#7d2982;}.cls-42{fill:#162630;}.cls-43{fill:#111d23;}.cls-44{fill:#342211;}.cls-45{fill:#452a15;}.cls-46{fill:#2f1e11;}.cls-47{fill:#0c1617;}.cls-48{fill:#223d4b;}.cls-49{fill:#cc2547;}.cls-50{fill:#db7b80;}.cls-51{fill:#1c2f3a;}</style></defs><g class="cls-1"><g id="Capa_2" data-name="Capa 2"><g id="Layer_1" data-name="Layer 1"><path class="cls-2" d="M156,100.12c35.84,20.7,36,54.25.42,74.94s-93.52,20.69-129.37,0-36-54.24-.42-74.94S120.11,79.43,156,100.12Z"/><path class="cls-3" d="M117.46,110.7c0,24.78-16.55,34.44-33.66,34.44S55.67,131.4,55.67,114.28a31,31,0,0,1,31-31C103.79,83.28,117.46,93.58,117.46,110.7Z"/><path class="cls-4" d="M117.46,110.7c0,24.78-16.55,34.44-33.66,34.44S55.67,131.4,55.67,114.28a31,31,0,0,1,31-31C103.79,83.28,117.46,93.58,117.46,110.7Z"/><path class="cls-5" d="M86.67,83.28a31,31,0,0,0-31,31,38.59,38.59,0,0,0,.37,5.31,26.66,26.66,0,0,0,24.56,15.1c17.12,0,33.66-9.66,33.66-34.44,0-1-.05-1.93-.14-2.86C109.06,88.39,98.72,83.28,86.67,83.28Z"/><path class="cls-6" d="M86.67,83.28a31,31,0,0,0-30.89,28.49,26.56,26.56,0,0,0,21.1,9.75c15.86,0,31.24-8.31,33.4-29.26C104.65,86.48,96.2,83.28,86.67,83.28Z"/><path class="cls-7" d="M92.61,51.21c18.8,6.45,21.82,21.52,17.36,34.5S92.22,103.47,79.23,99A24.88,24.88,0,0,1,63.79,67.42C68.25,54.44,79.62,46.75,92.61,51.21Z"/><path class="cls-8" d="M63.79,67.42a24.83,24.83,0,0,0,.78,18.12A24.86,24.86,0,0,0,72.46,90c13,4.46,26.28-.31,30.74-13.3,2.24-6.52,2.59-13.56,0-19.77a33.59,33.59,0,0,0-10.6-5.72C79.62,46.75,68.25,54.44,63.79,67.42Z"/><path class="cls-9" d="M63.79,67.42a24.77,24.77,0,0,0-1.27,9.94,25.71,25.71,0,0,0,5.15,2.46c13,4.46,26.28-.31,30.74-13.3a31.57,31.57,0,0,0,1.77-11.76,36.42,36.42,0,0,0-7.57-3.55C79.62,46.75,68.25,54.44,63.79,67.42Z"/><path class="cls-8" d="M90.63,30c12,4.13,13.94,13.75,11.09,22.06S90.38,63.36,82.08,60.51a15.87,15.87,0,0,1-9.87-20.18C75.06,32,82.33,27.11,90.63,30Z"/><path class="cls-9" d="M72.21,40.33a15.77,15.77,0,0,0-.39,9A16,16,0,0,0,76.3,51.7c8.3,2.85,16.79-.2,19.64-8.5a18.9,18.9,0,0,0,.8-10.1A22.43,22.43,0,0,0,90.63,30C82.33,27.11,75.06,32,72.21,40.33Z"/><path class="cls-10" d="M94.8,30.15c4.27,2.46,4.3,6.47,0,8.94a17,17,0,0,1-15.42,0c-4.28-2.47-4.3-6.47-.05-8.94S90.53,27.68,94.8,30.15Z"/><polygon class="cls-10" points="76.2 34.62 78.57 20.18 95.65 20.18 97.97 34.33 76.2 34.62"/><path class="cls-11" d="M93.13,16.68c3.35,1.93,3.36,5.06,0,7a13.33,13.33,0,0,1-12.08,0c-3.34-1.94-3.36-5.07,0-7A13.33,13.33,0,0,1,93.13,16.68Z"/><path class="cls-12" d="M93.65,53.57l10.69,3L96.6,48.72c-.32-.69-1.09-.87-2-.36a4.73,4.73,0,0,0-2.14,3.7,1.5,1.5,0,0,0,.62,1.36h0A1,1,0,0,0,93.65,53.57Z"/><path class="cls-13" d="M91.69,46.32c.73-.42,1.33-.08,1.33.76a2.92,2.92,0,0,1-1.32,2.29c-.73.42-1.33.08-1.33-.76A2.9,2.9,0,0,1,91.69,46.32Z"/><path class="cls-13" d="M95.53,44.14c.73-.43,1.33-.09,1.33.76a2.94,2.94,0,0,1-1.32,2.29c-.74.42-1.33.08-1.33-.76A2.88,2.88,0,0,1,95.53,44.14Z"/><path class="cls-7" d="M108.54,122.61c10.43,3.58,12.11,12,9.64,19.15s-9.86,9.86-17.07,7.39a13.82,13.82,0,0,1-8.57-17.54C95,124.41,101.33,120.14,108.54,122.61Z"/><path class="cls-8" d="M92.54,131.61A13.76,13.76,0,0,0,93,141.67a13.56,13.56,0,0,0,4.38,2.47c7.2,2.48,14.58-.17,17.06-7.38a15.52,15.52,0,0,0,0-11,18.57,18.57,0,0,0-5.88-3.18C101.33,120.14,95,124.41,92.54,131.61Z"/><path class="cls-9" d="M92.54,131.61a13.85,13.85,0,0,0-.7,5.52,13.69,13.69,0,0,0,2.86,1.36c7.21,2.48,14.58-.17,17.06-7.38a17.45,17.45,0,0,0,1-6.52,19.73,19.73,0,0,0-4.2-2C101.33,120.14,95,124.41,92.54,131.61Z"/><path class="cls-7" d="M95.41,142.92c6.56,2.25,7.61,7.5,6.06,12s-6.2,6.19-10.73,4.63a8.66,8.66,0,0,1-5.38-11C86.91,144.05,90.88,141.36,95.41,142.92Z"/><path class="cls-8" d="M85.36,148.57a8.64,8.64,0,0,0,.27,6.32,8.47,8.47,0,0,0,2.75,1.56c4.53,1.56,9.17-.11,10.72-4.64a9.71,9.71,0,0,0,0-6.9,11.74,11.74,0,0,0-3.7-2C90.88,141.36,86.91,144.05,85.36,148.57Z"/><path class="cls-9" d="M85.36,148.57a8.71,8.71,0,0,0-.45,3.47,8.77,8.77,0,0,0,1.8.86c4.53,1.56,9.17-.11,10.72-4.64a11,11,0,0,0,.62-4.1,12,12,0,0,0-2.64-1.24C90.88,141.36,86.91,144.05,85.36,148.57Z"/><path class="cls-7" d="M70.64,139.45c6.56,2.25,7.61,7.51,6,12S70.5,157.68,66,156.13a8.68,8.68,0,0,1-5.39-11C62.14,140.58,66.11,137.89,70.64,139.45Z"/><path class="cls-8" d="M60.58,145.11a8.69,8.69,0,0,0,.27,6.32A8.68,8.68,0,0,0,63.61,153c4.53,1.56,9.17-.11,10.72-4.64a9.68,9.68,0,0,0,0-6.89,11.6,11.6,0,0,0-3.69-2C66.11,137.89,62.14,140.58,60.58,145.11Z"/><path class="cls-9" d="M60.58,145.11a8.63,8.63,0,0,0-.44,3.46,8.3,8.3,0,0,0,1.8.86c4.53,1.56,9.16-.11,10.72-4.64a10.91,10.91,0,0,0,.62-4.1,12.93,12.93,0,0,0-2.64-1.24C66.11,137.89,62.14,140.58,60.58,145.11Z"/><path class="cls-14" d="M61.23,69.81c-.38,2.22-3.31,4.49-4.63,4-.43-.15-.7-.89-.74-1.08-.43-2,2.75-5.22,4.93-4A1,1,0,0,1,61.23,69.81Z"/><path class="cls-15" d="M59.22,68.41c1.9,1.38,3.42,2.73,5.16,4.25l1.06,3.65.15,3.43c0,.47-.56,1.81-1.11,1.92-1.25.25-2.11.23-2.27,0-.77-.92-.94-3.24-1.53-5-1.17-.76-2.11-1-2.69-2.23-1-2-.94-2.77-2.24-3.6Z"/><path class="cls-16" d="M61,72.81A16.54,16.54,0,0,1,63.8,76c.28,1,0,2.35.33,3.12.1,1.26-.57,1.66-.07,2.62a4.36,4.36,0,0,1-1.85,0c-.77-.92-.94-3.24-1.53-5-1.17-.76-2.11-1-2.69-2.23-1-2-.94-2.77-2.24-3.6l2.19-1.54Z"/><path class="cls-15" d="M57.91,70.69c-.51,2.6.92,2.21,2.57,3.31a5.82,5.82,0,0,0,.87,1.35c.13,1.84.93,2.15,1.82,2,0-.61.17-1.81.16-2.33-.9-2.89-.09-3.93-3.49-5.78Z"/><path class="cls-17" d="M52.76,54.4c3,5.44,5.89,9.14,8.47,14.85-2.31-.48-4.57,1.36-5.15,4C50.2,67.4,45.2,62.38,43.89,59.05c-2.77-6.91-5.64-14.46-6.77-19.31-1.31-5.71-.76-9.91.85-10.21,2.79-.52,4.28.16,5.78,2.47C47,37.07,50.47,48.38,52.76,54.4Z"/><path class="cls-18" d="M56.08,73.24C50.2,67.4,45.2,62.38,43.89,59.05a180.11,180.11,0,0,1-6.44-18L39,30.54s8.42,18.24,8.42,24.24L57.45,70.61A5.63,5.63,0,0,0,56.08,73.24Z"/><path class="cls-19" d="M32.18,146.17c-1,.31-1.53,3.75-1.78,4.69a7.28,7.28,0,0,0,.15,3.11c.74,1.6,5.52,2.74,6.78,3.8a40.92,40.92,0,0,0,6,3.82A10,10,0,0,0,47,162.9c1.56,0,5.52-2,6.27-3.52a2.32,2.32,0,0,0-.39-2.88c-2.62-1.92-4.24-1.73-5.95-3.19a32.73,32.73,0,0,1-3.45-3.11c-.56-.61-2.79-3.59-3.61-2.73Z"/><path class="cls-20" d="M43.28,161.59a40.92,40.92,0,0,1-6-3.82c-1.26-1.06-6-2.2-6.78-3.8a7.48,7.48,0,0,1-.17-3c1.43,2,2.56,2.68,4.91,4,2.68,1.56,6.61,4.44,9.41,6s7.3-.28,7.51-.36A10.93,10.93,0,0,1,47,162.9,10,10,0,0,1,43.28,161.59Z"/><path class="cls-21" d="M43.51,150.2A32.73,32.73,0,0,0,47,153.31c1.49,1.28,2.92,1.29,5,2.56.1,4.18-7.06,2.18-7.06,2.18-6.42-2.87-12.63-10.55-12.63-10.55l3.17-.78,4.46.75C40.72,146.61,43,149.59,43.51,150.2Z"/><path class="cls-19" d="M10.05,128c-1-.34-3.48,2.08-4.24,2.68a7.25,7.25,0,0,0-1.76,2.58c-.36,1.72,2.77,5.51,3.15,7.11A40.89,40.89,0,0,0,9.66,147a10.14,10.14,0,0,0,2.22,3.3c1.22,1,5.6,1.74,7.13.95a2.3,2.3,0,0,0,1.4-2.54c-.94-3.11-2.35-3.93-2.83-6.12a31.82,31.82,0,0,1-.89-4.57c-.08-.82-.08-4.53-1.25-4.34Z"/><path class="cls-20" d="M9.66,147a40.89,40.89,0,0,1-2.46-6.63c-.38-1.6-3.51-5.39-3.15-7.11a7.52,7.52,0,0,1,1.7-2.53c0,2.44.43,3.68,1.49,6.19,1.21,2.85,2.62,7.51,3.93,10.43s6,4.16,6.23,4.22a11,11,0,0,1-5.52-1.27A10.14,10.14,0,0,1,9.66,147Z"/><path class="cls-21" d="M16.69,138a31.82,31.82,0,0,0,.89,4.57c.42,1.92,1.55,2.78,2.46,5.05-2.43,3.4-6.95-2.5-6.95-2.5-3.42-6.15-3.77-16-3.77-16l3,1.28,3.12,3.28C16.61,133.47,16.61,137.18,16.69,138Z"/><path class="cls-22" d="M9.22,127.82c.71-5.79,10.66-15.91,19-22.29,0-4.35.6-8.84.5-13C28.6,87,30,81.3,29.52,75.78c-.08-.79,1.66-4.13,8.51-3.9,8.2.27,7.77,5.5,7.77,5.5a50.5,50.5,0,0,0-2.06,11.39c-.45,4-.67,19.59-1.88,25.78a4.4,4.4,0,0,1-1.09,2.11,2.08,2.08,0,0,1-.62.54h0S22.61,128,18,134.86l-.8,1.09a1.74,1.74,0,0,1-1.78.91,7.54,7.54,0,0,1-3-1.65C10.6,133.5,8.88,130.52,9.22,127.82Z"/><path class="cls-23" d="M45.8,77.38a50.5,50.5,0,0,0-2.06,11.39c-.45,4-.67,19.59-1.88,25.78a4.4,4.4,0,0,1-1.09,2.11,2.08,2.08,0,0,1-.62.54h0S22.61,128,18,134.86l-.8,1.09a1.74,1.74,0,0,1-1.78.91,7.54,7.54,0,0,1-3-1.65l-.08-.08c7.49-9.1,25.3-23.65,25.3-23.65-.06-16.08,2.76-33.65,3.71-39.11C46.08,73.72,45.8,77.38,45.8,77.38Z"/><path class="cls-24" d="M28.23,105.53c0-4.35.6-8.84.5-13C28.6,87,30,81.3,29.52,75.78c-.07-.64,1.05-2.92,5-3.67-.46,6.7-2.61,34.35-7.06,38.8-3.37,3.36-8.91,3.11-18.17,16.45C10.46,121.51,20.09,111.74,28.23,105.53Z"/><path class="cls-22" d="M24.05,78.36c7.25-3.07,7.17,1.34,7.17,1.34.84,3.81,1.36,6,2,9.44.76,4.26,3.5,17.42,4.06,19.59a15.74,15.74,0,0,1,.42,4.28c0,.06,0,.12,0,.19s1,24.31,3.65,31.63l.39,1.22a2.1,2.1,0,0,1-.19,2,7.58,7.58,0,0,1-2.52,2c-2,.91-4.91,1.13-6.64-.4-4.24-3.73-6.83-21.13-6.83-31.76a34.21,34.21,0,0,0-.6-5.73c-2.19-4.46-2.72-10.07-4.23-14.69s-2.17-9.51-4-14C16.48,82.8,16.79,81.43,24.05,78.36Z"/><path class="cls-23" d="M31.22,79.7c.84,3.81,1.36,6,2,9.44.76,4.26,3.5,17.42,4.06,19.59a15.74,15.74,0,0,1,.42,4.28c0,.06,0,.12,0,.19s1,24.31,3.65,31.63l.39,1.22a2.1,2.1,0,0,1-.19,2,7.58,7.58,0,0,1-2.52,2,8.33,8.33,0,0,1-2.92.69c-1.05-9.3-5.34-35.7-7.8-44-2.14-7.22-4.92-21.17-6.14-27.53.57-.26,1.17-.53,1.86-.82C31.3,75.29,31.22,79.7,31.22,79.7Z"/><path class="cls-24" d="M25,112.16c-2.19-4.46-2.72-10.07-4.23-14.69s-2.17-9.51-4-14c-.15-.39-.09-1,1.54-2.16,1.88,6.68,7.9,28.21,7.9,30.93,0,2.9,2,25.49,5.68,36.83-3.91-4.68-6.28-21-6.28-31.16A34.21,34.21,0,0,0,25,112.16Z"/><path class="cls-18" d="M46.36,74.72a3.87,3.87,0,0,0-.13-.89c-.24-1.59-.6-3.42-1.08-5.58-.57-6.28-.45-15.86-.45-15.86.61-27.54-8.45-23.83-8.45-23.83a36.09,36.09,0,0,0-20,10.71C15,44,16.88,50.65,18.26,58a49.46,49.46,0,0,1,.79,14.08s-4.61,9.4-2.37,14.67c1.27,3,10.11,5.55,19.9.88C44.7,83.79,47.51,83.33,46.36,74.72Z"/><path class="cls-25" d="M16.26,39.27C15,44,16.88,50.65,18.26,58a49.46,49.46,0,0,1,.79,14.08s-4.61,9.4-2.37,14.67c.51,1.19,2.22,2.31,4.71,2.93,1.47-3.73,3.54-9,4.64-12.06,1.81-5-1.82-19.19-.74-28.84.65-5.83-2.35-10.51-4.84-13.32A31.24,31.24,0,0,0,16.26,39.27Z"/><path class="cls-26" d="M46.36,74.72a3.87,3.87,0,0,0-.13-.89c-.24-1.59-.6-3.42-1.08-5.58-.57-6.28-.45-15.86-.45-15.86.16-7.33-.36-12.44-1.21-16-4.64,1.87-14.58,6.39-14.08,10.53.64,5.38,2.2,11.7,2.45,16.91s-1.55,15.75-2.55,19.72c-.51,2-1,4.58-1.31,6.56a25.8,25.8,0,0,0,8.58-2.45C44.7,83.79,47.51,83.33,46.36,74.72Z"/><path class="cls-27" d="M37.81,30.35a9.2,9.2,0,0,0-1.51,5.52c.29,2.9-12.11.3-9.84-4.89.8-1.81,2.22-1.9-.62-9.28Z"/><path class="cls-28" d="M36.89,32.32s-6.76-1.84-9.92-.83A11.34,11.34,0,0,0,27.05,25s-3.54-2.93-2.73-8.95c0,0,.56-5.42,5.93-6.06C30.25,10,22.65,22.56,36.89,32.32Z"/><path class="cls-29" d="M40.9,13.75C41.06,16,36,17.5,32.57,18.21c-1.27.27-2.13,1.35-.9,4.94s-.89,4.13-1,3.48c-.72-2.93-3.9-5.16-3-.43,0,0-7.13-6.6-5-11.94,1.41-3.49,5.65-7.33,14-4.93C38.15,9.75,40.7,11.15,40.9,13.75Z"/><path class="cls-30" d="M31.16,21.26s-1.57-1.27-1.57.36a2.67,2.67,0,0,1-1.3-2.24s-1.14.18-1.14,1.79c0,0-1.44-1.22-1-2.64a4.68,4.68,0,0,0-1.23,2.73s-1.67-2.15-1.3-3.54c0,0-.62.11-.62,2a6,6,0,0,1,.29-6.61s.05,4.21,8.51,5.43A4.18,4.18,0,0,0,31.16,21.26Z"/><path class="cls-30" d="M23.24,13.06s.24,4.51,8.51,5.43c0,0,7-.19,9-4.11a2.38,2.38,0,0,0-.34-2.17s0,1.87-1.16,2.39c0,0,.44-1.11,0-1.54a4.29,4.29,0,0,1-2.11,2.29,1.32,1.32,0,0,0-.3-1.48A5.26,5.26,0,0,1,33.32,17a2.61,2.61,0,0,0,.84-1.61s-2.26,2-4,1.56c0,0,1.44-.71,1.44-1.56,0,0-2.92,1.27-4.65,0a2.25,2.25,0,0,0,1.74-.75S24.12,15.07,23.24,13.06Z"/><path class="cls-30" d="M24.49,11.45s5-5.55,13.83-1.41c0,0-3.71-.5-5-.5s1,.74,2.19,1-3.46-.19-5-.19-4.34.52-2.4.82S24.82,11.12,24.49,11.45Z"/><path class="cls-31" d="M31.55,39.5s2.21,2.83,7.3,18c.15.46,4.1,1.4,3.67-3.35S36.17,38.53,34.68,38Z"/><path class="cls-32" d="M29.41,38.92s1.7,3.16,4.16,19c.08.47,3.81,2.07,4.18-2.68s-3.62-16.51-5-17.29Z"/><path class="cls-32" d="M27,31.49s2.59,5.09,10.11,2.67c0,0,.73-4.49,1.63-3.48.59.67,2.71,3.47-.39,7.74-2.21,3-10.81,5.48-14.69-2.34C22.17,33.12,25.84,26.12,27,31.49Z"/><path class="cls-31" d="M35.94,33.25c-4.29,3.59-7.71-1-7.93-2.17-.73-3.88-.43-3.69-2-2.71-2.82,1.63-.81,5.22-.81,5.22C31.3,42,40,35,39.36,32.59S35.94,33.25,35.94,33.25Z"/><path class="cls-33" d="M41.37,17.88c0,.85-1,1,.52,4.41.93,2.09.58,2.14-.09,5.85-.38,2.11-1.33,6.58-7.91,3.26,0,0-6.47-4.63-8.41-8.67s-1.85-8.1,1.38-11.46C26.86,11.27,41.13,5.54,41.37,17.88Z"/><path class="cls-16" d="M41.24,16.23a15.61,15.61,0,0,1-5.51,2.86s-3,0-3,1.14c0,.49.65,3.63,1.48,4.46a14,14,0,0,1,2.45,4.47c0,.59,1,3.22,2.57,3.22,0,0-4,1.68-9.9-4.86,0,0-4.79-4.78-4.79-5.74s5.93-4.34,7.57-5,8.47-3.36,8.47-3.36S41.18,15.7,41.24,16.23Z"/><path class="cls-29" d="M31.67,23.15c1.24,3.79-1,3.79-1,3.79-.7-3.46-4-4.7-3.08-.74,0,0-7.13-6.6-5-11.94a8.85,8.85,0,0,1,3.79-4.34c-4.17,7.81,3.37,7.19,5.32,8.57C31,19,30.77,20.4,31.67,23.15Z"/><path class="cls-34" d="M21.77,19.16S30.91,25.05,41,15.53c0,0,.31-3-.68-4.13,0,0-11.15,6.78-18.28,3.61C22.05,15,21,18,21.77,19.16Z"/><path class="cls-35" d="M22.05,15S23.3,5.7,29.29,4.6c0,0,7.59-1.23,11,6.8C40.33,11.4,28.39,18.65,22.05,15Z"/><path class="cls-26" d="M33,3.68A4.24,4.24,0,1,1,28.2,0,4.23,4.23,0,0,1,33,3.68Z"/><path class="cls-7" d="M53.13,58.5c10.44,3.58,12.12,11.94,9.64,19.15S52.92,87.51,45.71,85A13.8,13.8,0,0,1,37.14,67.5C39.61,60.29,45.93,56,53.13,58.5Z"/><path class="cls-8" d="M37.14,67.5a13.76,13.76,0,0,0,.43,10.06A13.94,13.94,0,0,0,42,80c7.21,2.47,14.59-.18,17.06-7.38a15.55,15.55,0,0,0,0-11,18.7,18.7,0,0,0-5.89-3.17C45.93,56,39.61,60.29,37.14,67.5Z"/><path class="cls-9" d="M37.14,67.5A13.83,13.83,0,0,0,36.43,73a14,14,0,0,0,2.86,1.37c7.21,2.47,14.59-.17,17.06-7.38a17.34,17.34,0,0,0,1-6.53,20.56,20.56,0,0,0-4.21-2C45.93,56,39.61,60.29,37.14,67.5Z"/><path class="cls-15" d="M29.71,79.67c3.72-.06,7,4.78,7.69,5.2,1.27.77,4.66-.12,6.1-1.55a2.68,2.68,0,0,0,1-2.06l-2.38.44h0c-1,.43-1.81-1.22-2.52-1.8s-.75-1.28.12-1.13,1.57.71,2.15.64.94-1.15-.37-1.93c-1.87-1-1.93-1.73-4.76-1.43-.93.09-1.41.37-3.52-1.1Z"/><path class="cls-16" d="M29.71,79.67c3.61-.06,6.95,4.86,7.69,5.2,1.45.66,3.23.08,5.39-1-1.14,0-2.82,1.22-5.06-.91-1.66-1.59-4.7-3.07-7.11-4.54.71-.79,2.57-3.49,2.57-3.49-.48-.13.72.35,0,0Z"/><path class="cls-36" d="M14.52,65.47a11.87,11.87,0,0,1,.07-1.75l-.05,0s.54-10.58.33-15.26a18.44,18.44,0,0,1,.89-7.6c.61-1.65,1-3.29,3.66-3.77,2.29-.42,6.2,2,5.75,8.08-.27,3.7-1.21,11.06-2,16.08-.13.84-.22,1.59-.27,2.24,5,3.89,13.18,11.79,13.18,11.79.61,1.52-1.42,6-3.29,6.64-.34.11-1.61-1-1.88-1.15L19.69,72.35a45.92,45.92,0,0,1-4.05-3.76,6.45,6.45,0,0,1-1.12-2.93A.6.6,0,0,1,14.52,65.47Z"/><path class="cls-25" d="M34.78,80S18.81,70.67,18,63.29c0,0-1.93-18.78,1.45-26.23,0,0-4.27.39-4.57,8.21,0,0-.46,13.65-.55,14.71s-1.11,8.08,3.52,11l14.82,11.1S34.45,81,34.78,80Z"/><path class="cls-26" d="M25.17,45.14c-.27,3.7-1.21,11.06-2,16.08-.13.84-.22,1.59-.27,2.24,5,3.89,13.18,11.79,13.18,11.79a4.26,4.26,0,0,1-.27,2.58,39.78,39.78,0,0,1-6.27-5.25c-4.8-4.86-7.39-5.61-8.29-8.72-1.08-3.77,2-19.93,2.23-25A8.51,8.51,0,0,1,25.17,45.14Z"/><path class="cls-37" d="M157.82,91.76s5.16,2.54.06,5.55-11,4.78-13.78,3.15-10.61-4.6-10.61-4.6-5.89,0-6.63-2.89c0,0-2.29-2.63,1.12-1.9s3,1.4,4.08,1.13-2.56-2.41-.74-2.87c0,0,.91-.24,4.07,3.3,0,0,8.86,3.3,11.23,2.69S157.82,91.76,157.82,91.76Z"/><path class="cls-27" d="M133.49,95.86s7.86,3,10.61,4.6c2.15,1.26,6.21.47,10.32-1.37l-.72-1.71s-3.12,3.23-14.35-1c-8.73-3.27-12-4-13-4.16a4.64,4.64,0,0,0,.51.73C127.6,95.84,133.49,95.86,133.49,95.86Z"/><path class="cls-38" d="M135.66,91.89s5.64,2.54,10.3,1.6c6.6-1.33,13.77-5.56,16-2,0,0,.36,1.3-1,3.5-3,4.89-13.82,11.08-27.88,1.24C133.05,96.25,135.21,95.51,135.66,91.89Z"/><path class="cls-39" d="M133.05,96.25c14.06,9.84,24.9,3.65,27.88-1.24,1.24-2,1-3.27,1-3.47A86.49,86.49,0,0,1,151,98.67c-5.14,2.75-13.28-1.6-16.55-3.6A3.46,3.46,0,0,1,133.05,96.25Z"/><path class="cls-40" d="M162.11,161.08s2.83,5-3,5l-7.35-3.92c-2.35-1.24-8-4.84-3.64-6.31C148.14,155.86,151.61,154,162.11,161.08Z"/><path class="cls-37" d="M155.52,131.35a24.4,24.4,0,0,0,.61,12.26,36.77,36.77,0,0,1,1.2,15.66s2.43,3.84,4.84,2.26c0,0,1.25-14.65,1.62-16.47s0-5-1.35-10l1.66-5.59Z"/><path class="cls-27" d="M162.17,161.53s1.25-14.65,1.62-16.47,0-5-1.35-10l1.66-5.59-3.59.78A44.19,44.19,0,0,0,161,145.6c1.18,5.15.45,11.56-.3,16.29A2.21,2.21,0,0,0,162.17,161.53Z"/><path class="cls-41" d="M151.78,162.17l7.35,3.92c2.57,0,3.45-1,3.63-2.07-1.48.78-3.3.38-4.35.32-1.23-.07-3.17-2-7.31-3.91A7.89,7.89,0,0,1,147,156.5C145.16,158.19,149.72,161.09,151.78,162.17Z"/><path class="cls-40" d="M151.4,166.42s2.84,5-3,5l-7.35-3.91c-2.35-1.24-8-4.84-3.64-6.32C137.44,161.19,140.91,159.29,151.4,166.42Z"/><path class="cls-37" d="M144.82,136.69a24.26,24.26,0,0,0,.61,12.26,36.77,36.77,0,0,1,1.2,15.66s2.43,3.84,4.83,2.26c0,0,1.25-14.65,1.63-16.47s0-5-1.35-10l1.66-5.59Z"/><path class="cls-27" d="M151.46,166.87s1.25-14.65,1.63-16.47,0-5-1.35-10l1.66-5.59-3.59.78a44,44,0,0,0,.46,15.35c1.17,5.15.44,11.56-.31,16.28A2.11,2.11,0,0,0,151.46,166.87Z"/><path class="cls-41" d="M141.08,167.51l7.35,3.91c2.57,0,3.45-1,3.63-2.06-1.48.78-3.3.38-4.36.32-1.22-.07-3.16-2-7.3-3.91a7.93,7.93,0,0,1-4.14-3.93C134.46,163.53,139,166.42,141.08,167.51Z"/><path class="cls-42" d="M144.08,118.49s13,6.5,19-1.51c0,0,3.83,27.87.08,44.93,0,0-5.86,4-8.05-3-1.58-5,1-21.21-1.45-23.23l-1.17,6.93s1,4.84,1.17,6.55c.48,4.54-1,18.14-1,18.14s-3.87,3.22-9.24-2.51l-1.22-21.41Z"/><path class="cls-43" d="M155.13,158.86a6,6,0,0,0,2.49,3.64,99.52,99.52,0,0,1-.12-14.2c.61-9.24-3.82-12.67-3.82-12.67C156.09,137.65,153.55,153.82,155.13,158.86Z"/><path class="cls-43" d="M143.49,164.74a12,12,0,0,0,3.64,2.78c-.18-4.46-.57-12.54-1.2-18.45-.92-8.58,1.93-21.47,1.93-21.47l-4.36-1.21-1.23,16.94Z"/><path class="cls-27" d="M147.63,88.31s1.39,4.09-1,5.84c-1.09.81,7.17,1.45,11.34-1.52a5.41,5.41,0,0,1,0-7Z"/><path class="cls-37" d="M146.3,72.05s-2.58,2.88-2.48,4.85a22.64,22.64,0,0,1-.23,2.8c-.09.71-.28,1.42-.36,2s-1.78,5.4,2.43,7.19c2,.86,4.88,3.2,12.13-2.31,0,0,5.64-5.78,2.36-12.74C160.15,73.87,155.79,66.69,146.3,72.05Z"/><path class="cls-29" d="M161.16,77.6c.7,3.25-2.18,9.48-4.19,11.15-.83.69-3.11,1.62-4.48.74-2.62-1.69.06-6.07-3.43-7.55-1.48-.62-2.61.85-2.69,1.8a6.65,6.65,0,0,1-.34-3.82c.29-1,1.09-2.5-.27-4.1C145,74.94,158.93,67.3,161.16,77.6Z"/><path class="cls-44" d="M142.8,69.14s-1.93,6.6,6.33,7.85c0,0,12.87.34,11.73,3.89,0,0,4.06-12.23-8.71-12.5C150.06,68.33,146,70.26,142.8,69.14Z"/><path class="cls-45" d="M159.91,71.57s-2.68-4.74-11.56-2.7c0,0,2.83.18,3.94.28s-.95.58-2,.73,3,.1,4.42.23,3.77.83,2,.93S159.64,71.26,159.91,71.57Z"/><path class="cls-45" d="M146.23,76.55a3.49,3.49,0,0,1,.09,2.5,7,7,0,0,0-.46,2.25s1.81-2.26,1.57-3.38l.41,2.19a12.15,12.15,0,0,1,.81-2,7.41,7.41,0,0,1,.08,2.68,28.45,28.45,0,0,1,1.74-2.63,4.72,4.72,0,0,0-.11,2.8,16.38,16.38,0,0,1,1.82-2.71,7.58,7.58,0,0,0,.14,4A20.79,20.79,0,0,1,154.18,79a10.65,10.65,0,0,0,.14,4.31s.73-2,1.46-3.52a9.48,9.48,0,0,1-.32,4.71s2.46-2.2,2.39-4.46c0,0,1.42,2.68.68,4.65,0,0,1.46-2.82,1.33-4.27a19.74,19.74,0,0,1-.45,4.87s1.66-3.06,1.6-4.89c0,0,0-3.57-8.58-3.52Z"/><path class="cls-46" d="M160.92,80.64s.35-1.53-3.13-2.52A47.61,47.61,0,0,0,150.13,77s-9.39.8-7.33-7.89c0,0,0,2.93.92,3.84,0,0,.33-.22.3-1.09,0,0,1.43,3.16,3,3.68a1.57,1.57,0,0,1-.65-1.06s3.68,1.81,6.27,1.73c0,0-.25-.31-.58-.64C152.05,75.6,162,76.58,160.92,80.64Z"/><path class="cls-38" d="M163.3,114.87c.28-2.76.57-6.39.57-9.26,0-5.39.19-18-5.74-16l-11.51,4.82s-5.31,1.54-3,14.06c.37,1.92-.51,5.62.15,9.17h0s-2,11.43-.55,12,8.45.83,10.89-.23,7.51-2.13,9.34-4S163.51,120.12,163.3,114.87Z"/><path class="cls-35" d="M146.87,89.16s9,.4,10.58-1.94c0,0,2.35,1.67,2.59,2.58a3.77,3.77,0,0,1-2,3.58c-1.42.53-4.16,3.05-6.67,2.36s-6.26.29-6.17-1.3S147.6,90.24,146.87,89.16Z"/><path class="cls-47" d="M161.23,81.84s-10.64,2.4-16.88-10c0,0,.76-3,2.06-3.66,0,0,8.17,10.24,16,9.7C162.4,77.83,162.4,81,161.23,81.84Z"/><path class="cls-48" d="M162.4,77.83s2-9.2-3.24-12.29a10.57,10.57,0,0,0-12.75,2.59S155.17,79.08,162.4,77.83Z"/><path class="cls-49" d="M161.76,61.61a4.25,4.25,0,0,1,2.15,2.75,4.26,4.26,0,0,1-8.3.14,4.26,4.26,0,0,1,6.15-2.89Z"/><path class="cls-39" d="M163.49,125.49c1.82-1.86,0-5.37-.19-10.62.28-2.76.57-6.39.57-9.26,0-3.14.07-8.73-1.06-12.45a32.28,32.28,0,0,1-8.21,4.7c-3.46,1.52-3.55,3.35-4,7.11s-3,11.92-2.74,16.33c.21,3.13.62,6.93.84,8.89a16.53,16.53,0,0,0,5.45-.72C156.58,128.41,161.66,127.34,163.49,125.49Z"/><path class="cls-35" d="M147.06,93.81s-3.79,11.51-3.49,20.49c0,0-1.83,1.13-3.19-3.4S142.76,91.87,147.06,93.81Z"/><path class="cls-7" d="M133.68,82.38c8.79,3,10.2,10.05,8.11,16.12s-8.29,8.3-14.36,6.21A11.61,11.61,0,0,1,120.21,90C122.3,83.89,127.61,80.29,133.68,82.38Z"/><path class="cls-8" d="M120.21,90a11.51,11.51,0,0,0,.37,8.46,11.48,11.48,0,0,0,3.68,2.08c6.07,2.09,12.28-.14,14.37-6.21a13.07,13.07,0,0,0,0-9.24,15.44,15.44,0,0,0-4.95-2.67C127.61,80.29,122.3,83.89,120.21,90Z"/><path class="cls-9" d="M120.21,90a11.42,11.42,0,0,0-.59,4.63A11.42,11.42,0,0,0,122,95.75c6.06,2.08,12.28-.15,14.36-6.22a14.85,14.85,0,0,0,.83-5.49,16.84,16.84,0,0,0-3.54-1.66C127.61,80.29,122.3,83.89,120.21,90Z"/><path class="cls-37" d="M145.81,99.48s5.16,2.53.06,5.54-11,4.78-13.78,3.15-10.61-4.6-10.61-4.6-5.89,0-6.63-2.88c0,0-2.29-2.64,1.12-1.9s3,1.39,4.08,1.12-2.55-2.4-.74-2.87c0,0,.91-.23,4.07,3.3,0,0,8.86,3.31,11.23,2.69S145.81,99.48,145.81,99.48Z"/><path class="cls-27" d="M121.48,103.57s7.86,3,10.61,4.6c2.15,1.26,6.21.47,10.31-1.36l-.71-1.71s-3.12,3.22-14.35-1c-8.73-3.28-12-4-13-4.16a5.29,5.29,0,0,0,.51.73C115.59,103.56,121.48,103.57,121.48,103.57Z"/><path class="cls-38" d="M123.65,99.61s5.65,2.53,10.3,1.6c6.6-1.34,13.78-5.56,16-2,0,0,.36,1.3-1,3.51-3,4.88-13.81,11.07-27.88,1.23C121,104,123.21,103.23,123.65,99.61Z"/><path class="cls-39" d="M121,104c14.07,9.84,24.9,3.65,27.88-1.23,1.24-2,1-3.27,1-3.48A86.49,86.49,0,0,1,139,106.38c-5.14,2.75-13.28-1.59-16.56-3.59A3.43,3.43,0,0,1,121,104Z"/><path class="cls-50" d="M163.3,114.87c.28-2.76.57-6.39.57-9.26,0-1.74,0-4.23-.16-6.74-3.16.25-7.49,1.74-9.11,7.74-2.68,9.9,1,22.44-.45,22.86,2.43-1.06,7.51-2.13,9.34-4S163.51,120.12,163.3,114.87Z"/><path class="cls-51" d="M153.68,149.11c-.18-1.71-1.17-6.55-1.17-6.55l1.17-6.93c2.41,2-.13,18.19,1.45,23.23,1.13,3.64,3.25,4.32,5,4.14.45-4.63,1-10.68,1-13.22,0-4.37-2-15.47-3.55-17.59s-3.47-2.72-6.25,1.26-1.56,10.23-1.56,17.87a123.89,123.89,0,0,0,1.72,16.55,4.51,4.51,0,0,0,1.2-.62S154.16,153.65,153.68,149.11Z"/></g></g></g></svg>