<svg xmlns="http://www.w3.org/2000/svg" viewBox="0 0 172.88 63.8"><defs><style>.cls-1{fill:#ed1c24;}.cls-2{fill:#fff;}</style></defs><g id="Capa_2" data-name="Capa 2"><g id="Layer_1" data-name="Layer 1"><path class="cls-1" d="M147.59,58a16.38,16.38,0,0,1-7.56-1.5,1.92,1.92,0,0,0-1.89.17c-6.36,3.09-12.61,3.09-18.65-.81-.95-.61-1.45-.1-2.11.34-4,2.66-8.22,4.2-13.1,3.23a13,13,0,0,1-5.11-2.06,2.81,2.81,0,0,0-3.5-.11A26.59,26.59,0,0,1,86.3,60.5a24.16,24.16,0,0,1-16.44-3.75c-1.46-.9-2.3-.67-3.51.32-4.51,3.67-9.59,5.8-15.54,5.27a22.38,22.38,0,0,1-10.62-4,1.66,1.66,0,0,0-2.39,0c-8.55,6.73-23.21,9-31.93-3.92C-1,44.28-1.69,33.66,3,22.62,7.83,11.4,15.68,3.42,28,.63A27.1,27.1,0,0,1,41,1c7.59,2,11.69,7.1,12,14.91.06,1.32.29,1.59,1.69,1.41,6.84-.9,13,.26,17.06,6.58a6.29,6.29,0,0,0,1.39,1.48,2.22,2.22,0,0,0,3.63-.87,22.24,22.24,0,0,1,4.41-6.8c3.91-3.83,8.44-5.25,13.72-3.26,1.71.65,3,.51,3.8-1.3a.92.92,0,0,1,.85-.57,12.77,12.77,0,0,1,1.83-.25c2.63,0,4.73-.47,6-3.34s4.27-3.53,7.2-3.7c1.79-.1,3.59-.07,5.38,0a7.09,7.09,0,0,1,6.69,4.46,2.47,2.47,0,0,0,2.64,1.79,5,5,0,0,1,5.07,3.32c.51,1.17,1,1.16,2.18.92,3-.59,6-.79,8.6,1.45.74.65,1.39.12,2.06-.1,4.76-1.5,9.23-1.27,13.32,1.94a4.25,4.25,0,0,1,1.74,3.48A22.78,22.78,0,0,1,161,30.34c-.39,1.19-.27,1.59,1.11,1.64a6.63,6.63,0,0,1,6.5,8.49C166.55,48.44,159,58.28,147.59,58Z"/><path class="cls-2" d="M146.26,25.39c-1.23-2.83-2.93-4.11-5.38-4.23a17,17,0,0,0-12,3.85c-4.58,3.8-6.91,9-8.45,14.49a8.85,8.85,0,0,1-4.91,6c-.91.45-1.85,1.27-2.91.44s-.82-1.94-.53-3.06a141.4,141.4,0,0,1,5.75-16.79c2.09-5.37.41-4.41,6.56-4.52,1.29,0,2.61.15,3.77-.63a2.53,2.53,0,0,0,1.22-3,2.12,2.12,0,0,0-2.49-1.66c-1.84.08-3.69,0-5.6,0a8.92,8.92,0,0,0,.44-1.68c.22-3.92.79-4.18-3.52-4.19-5.49,0-5.51,0-7.57,5.27a1.87,1.87,0,0,1-2,1.42c-1.91,0-3.82.15-5.73.33a2.37,2.37,0,0,0-2.21,2.7A2,2,0,0,0,103,22.33c1.58-.09,3.17,0,4.94,0-2.12,6.77-4,13.41-6.89,19.71a5.35,5.35,0,0,1-1.83,2.27c-.4.28-.79.72-1.32.48s-.25-.76-.27-1.16a21.26,21.26,0,0,0-5-13.06,1.16,1.16,0,0,1,0-1.86,20.53,20.53,0,0,0,2.9-3.83,3.77,3.77,0,0,0-.08-4.35,4.4,4.4,0,0,0-4.35-1.91,10.54,10.54,0,0,0-9.39,10.64c0,1.27-.51,1.46-1.48,1.47-2.59,0-5.19,0-7.78.1a3.26,3.26,0,0,1-3.07-1.58c-2.21-3.13-4.88-5.71-8.82-6.62-7.56-1.75-17,3.69-20.06,11.52a69,69,0,0,0-2.24,9,10.31,10.31,0,0,1-9.92,7.71c-4.59.12-7.69-2.33-9.07-7.16a25.47,25.47,0,0,1-.24-11.93,32.62,32.62,0,0,1,10.66-19.2c2.86-2.48,6.2-3.82,10.1-2.82a3.91,3.91,0,0,1,2.87,4,2.89,2.89,0,0,1-2.78,2.72c-1.43.17-2.11-.72-2.78-1.74-.42-.66-.83-1.47-1.81-.44a5.55,5.55,0,0,0,0,7.69A7,7,0,0,0,46.7,19.7,9.64,9.64,0,0,0,43.13,7.93c-5.47-3.59-11.46-3.2-17.31-1.41-6.7,2-11.45,6.78-14.89,12.68C4.81,29.7,4,40.45,10.53,51.1c3.58,5.82,9.59,8,16.21,6.3a29.52,29.52,0,0,0,11.9-6.53c.89-.75,1.39-.69,2.07.18a16.55,16.55,0,0,0,3.56,3.48c6,4.15,16.13,2.33,21.12-3.74,3.36-4.09,4.53-9,5.14-14,.14-1.16.52-1.61,1.65-1.66,1.54-.06,3.09-.17,4.62-.36,6.13-.78,7.08-.18,8.78,5.78A13,13,0,0,1,86.15,44c0,4.45-2.29,6.62-6.73,6.21-2.76-.26-4.48-2.12-4-4.47s2-4.21,5.11-3c.32.12.78.56,1-.21a4.18,4.18,0,0,0-3.65-5c-3.21-.14-6.54,2.46-7.61,6A7.36,7.36,0,0,0,74,52.28c6.28,3.55,12.66,4.25,19.08.19,2.3-1.45,4.34-3.23,6.56-4.83,1.67,5.77,4.87,7.41,10.62,5.52a19.25,19.25,0,0,0,7.28-4.29c1.17-1.08,1.93-1.24,3.14.1,3.76,4.15,8,5,13.25,3a23.8,23.8,0,0,0,4.42-2.31,1.82,1.82,0,0,1,2.58.2,9.38,9.38,0,0,0,7.2,2.34C154.3,51.66,161,46,162.73,40.06a2,2,0,0,0-.69-2.45c-1.06-.69-1.56.31-2.07,1-1.64,2.08-3,4.41-4.87,6.29-1,1-2.06,1.71-3.43,1s-1-2.06-.58-3.26c1.77-5.19,3.58-10.37,5.27-15.59,1.33-4.12.64-5-3.5-5.56C149.77,21,147.28,21.34,146.26,25.39Z"/><path class="cls-2" d="M28.46,22.33c-.17.14-.36.22-.44.37a35.79,35.79,0,0,0-4.15,12.76,13.07,13.07,0,0,0,1.81,8.89,2.41,2.41,0,0,0,2.46,1.26,5.5,5.5,0,0,0,5-4.71c.59-3.6,1.3-7.16,3.3-10.31.67-1.05.26-1.57-.85-1.81A8.3,8.3,0,0,1,31,25.73C30.14,24.65,29.33,23.48,28.46,22.33Z"/><g id="g294a7"><path class="cls-1" d="M147.59,58a16.38,16.38,0,0,1-7.56-1.5,1.92,1.92,0,0,0-1.89.17c-6.36,3.09-12.61,3.09-18.65-.81-.95-.61-1.45-.1-2.11.34-4,2.66-8.22,4.2-13.1,3.23a13,13,0,0,1-5.11-2.06,2.81,2.81,0,0,0-3.5-.11A26.59,26.59,0,0,1,86.3,60.5a24.16,24.16,0,0,1-16.44-3.75c-1.46-.9-2.3-.67-3.51.32-4.51,3.67-9.59,5.8-15.54,5.27a22.38,22.38,0,0,1-10.62-4,1.66,1.66,0,0,0-2.39,0c-8.55,6.73-23.21,9-31.93-3.92C-1,44.28-1.69,33.66,3,22.62,7.83,11.4,15.68,3.42,28,.63A27.1,27.1,0,0,1,41,1c7.59,2,11.69,7.1,12,14.91.06,1.32.29,1.59,1.69,1.41,6.84-.9,13,.26,17.06,6.58a6.29,6.29,0,0,0,1.39,1.48,2.22,2.22,0,0,0,3.63-.87,22.24,22.24,0,0,1,4.41-6.8c3.91-3.83,8.44-5.25,13.72-3.26,1.71.65,3,.51,3.8-1.3a.92.92,0,0,1,.85-.57,12.77,12.77,0,0,1,1.83-.25c2.63,0,4.73-.47,6-3.34s4.27-3.53,7.2-3.7c1.79-.1,3.59-.07,5.38,0a7.09,7.09,0,0,1,6.69,4.46,2.47,2.47,0,0,0,2.64,1.79,5,5,0,0,1,5.07,3.32c.51,1.17,1,1.16,2.18.92,3-.59,6-.79,8.6,1.45.74.65,1.39.12,2.06-.1,4.76-1.5,9.23-1.27,13.32,1.94a4.25,4.25,0,0,1,1.74,3.48A22.78,22.78,0,0,1,161,30.34c-.39,1.19-.27,1.59,1.11,1.64a6.63,6.63,0,0,1,6.5,8.49C166.55,48.44,159,58.28,147.59,58Zm-1.33-32.57c-1.23-2.83-2.93-4.11-5.38-4.23a17,17,0,0,0-12,3.85c-4.58,3.8-6.91,9-8.45,14.49a8.85,8.85,0,0,1-4.91,6c-.91.45-1.85,1.27-2.91.44s-.82-1.94-.53-3.06a141.4,141.4,0,0,1,5.75-16.79c2.09-5.37.41-4.41,6.56-4.52,1.29,0,2.61.15,3.77-.63a2.53,2.53,0,0,0,1.22-3,2.12,2.12,0,0,0-2.49-1.66c-1.84.08-3.69,0-5.6,0a8.92,8.92,0,0,0,.44-1.68c.22-3.92.79-4.18-3.52-4.19-5.49,0-5.51,0-7.57,5.27a1.87,1.87,0,0,1-2,1.42c-1.91,0-3.82.15-5.73.33a2.37,2.37,0,0,0-2.21,2.7A2,2,0,0,0,103,22.33c1.58-.09,3.17,0,4.94,0-2.12,6.77-4,13.41-6.89,19.71a5.35,5.35,0,0,1-1.83,2.27c-.4.28-.79.72-1.32.48s-.25-.76-.27-1.16a21.26,21.26,0,0,0-5-13.06,1.16,1.16,0,0,1,0-1.86,20.53,20.53,0,0,0,2.9-3.83,3.77,3.77,0,0,0-.08-4.35,4.4,4.4,0,0,0-4.35-1.91,10.54,10.54,0,0,0-9.39,10.64c0,1.27-.51,1.46-1.48,1.47-2.59,0-5.19,0-7.78.1a3.26,3.26,0,0,1-3.07-1.58c-2.21-3.13-4.88-5.71-8.82-6.62-7.56-1.75-17,3.69-20.06,11.52a69,69,0,0,0-2.24,9,10.31,10.31,0,0,1-9.92,7.71c-4.59.12-7.69-2.33-9.07-7.16a25.47,25.47,0,0,1-.24-11.93,32.62,32.62,0,0,1,10.66-19.2c2.86-2.48,6.2-3.82,10.1-2.82a3.91,3.91,0,0,1,2.87,4,2.89,2.89,0,0,1-2.78,2.72c-1.43.17-2.11-.72-2.78-1.74-.42-.66-.83-1.47-1.81-.44a5.55,5.55,0,0,0,0,7.69A7,7,0,0,0,46.7,19.7,9.64,9.64,0,0,0,43.13,7.93c-5.47-3.59-11.46-3.2-17.31-1.41-6.7,2-11.45,6.78-14.89,12.68C4.81,29.7,4,40.45,10.53,51.1c3.58,5.82,9.59,8,16.21,6.3a29.52,29.52,0,0,0,11.9-6.53c.89-.75,1.39-.69,2.07.18a16.55,16.55,0,0,0,3.56,3.48c6,4.15,16.13,2.33,21.12-3.74,3.36-4.09,4.53-9,5.14-14,.14-1.16.52-1.61,1.65-1.66,1.54-.06,3.09-.17,4.62-.36,6.13-.78,7.08-.18,8.78,5.78A13,13,0,0,1,86.15,44c0,4.45-2.29,6.62-6.73,6.21-2.76-.26-4.48-2.12-4-4.47s2-4.21,5.11-3c.32.12.78.56,1-.21a4.18,4.18,0,0,0-3.65-5c-3.21-.14-6.54,2.46-7.61,6A7.36,7.36,0,0,0,74,52.28c6.28,3.55,12.66,4.25,19.08.19,2.3-1.45,4.34-3.23,6.56-4.83,1.67,5.77,4.87,7.41,10.62,5.52a19.25,19.25,0,0,0,7.28-4.29c1.17-1.08,1.93-1.24,3.14.1,3.76,4.15,8,5,13.25,3a23.8,23.8,0,0,0,4.42-2.31,1.82,1.82,0,0,1,2.58.2,9.38,9.38,0,0,0,7.2,2.34C154.3,51.66,161,46,162.73,40.06a2,2,0,0,0-.69-2.45c-1.06-.69-1.56.31-2.07,1-1.64,2.08-3,4.41-4.87,6.29-1,1-2.06,1.71-3.43,1s-1-2.06-.58-3.26c1.77-5.19,3.58-10.37,5.27-15.59,1.33-4.12.64-5-3.5-5.56C149.77,21,147.28,21.34,146.26,25.39ZM28.46,22.33c-.17.14-.36.22-.44.37a35.79,35.79,0,0,0-4.15,12.76,13.07,13.07,0,0,0,1.81,8.89,2.41,2.41,0,0,0,2.46,1.26,5.5,5.5,0,0,0,5-4.71c.59-3.6,1.3-7.16,3.3-10.31.67-1.05.26-1.57-.85-1.81A8.3,8.3,0,0,1,31,25.73C30.14,24.65,29.33,23.48,28.46,22.33Z"/><path class="cls-1" d="M167.85,6.47a5.38,5.38,0,0,1,5,5.59,5.45,5.45,0,0,1-5.46,5,5.35,5.35,0,0,1-5.08-5.53A5.28,5.28,0,0,1,167.85,6.47Zm-.19.59a4.77,4.77,0,0,0-4.76,4.64,4.68,4.68,0,0,0,4.49,4.68,4.59,4.59,0,0,0,4.82-4.5A4.71,4.71,0,0,0,167.66,7.06Z"/><path class="cls-1" d="M62.4,32.36a27.85,27.85,0,0,1-7.09,16.77,9.71,9.71,0,0,1-2.78,2.14c-2.45,1.23-4.45.29-5-2.4a15.84,15.84,0,0,1,1-8,33.27,33.27,0,0,1,5.67-10.53A11.71,11.71,0,0,1,57,27.86c2.38-1.53,4.35-.76,5,2C62.21,30.74,62.29,31.67,62.4,32.36Z"/><path class="cls-1" d="M144,31.7c-.54,5.48-2.35,10.35-6.33,14.26a6.93,6.93,0,0,1-3.29,2,3.7,3.7,0,0,1-4.49-3,7.69,7.69,0,0,1,.16-3.31,44.69,44.69,0,0,1,5.27-11.78,7.62,7.62,0,0,1,2.92-2.77c2.73-1.37,4.94-.32,5.53,2.65C143.9,30.37,143.92,31.05,144,31.7Z"/><path class="cls-1" d="M89.66,25.46c-.18-1.21-.85-2.53.5-3.3a1.18,1.18,0,0,1,1.68.67C92.36,24.63,90.31,24.47,89.66,25.46Z"/><path class="cls-1" d="M169.64,15.23C169,13.5,169.08,11.69,167,12c-1.69.26-.31,1.86-1.49,2.85,0-1.95-.31-3.67.09-5.21.35-1.31,1.89-.55,2.89-.56.77,0,1.78.64,1.32,1.33-.9,1.38,0,2.48.06,3.69A7.5,7.5,0,0,1,169.64,15.23Zm-2.27-5.72c-.85-.12-1.29.16-1.27,1.09s.75.92,1.41.92,1.63-.12,1.57-1.09S168.07,9.57,167.37,9.51Z"/></g></g></g></svg>